<?xml version="1.0" encoding="utf-8"?>
<svg version="1.1" xmlns:xlink="http://www.w3.org/1999/xlink" width="14px" height="18px" xmlns="http://www.w3.org/2000/svg">
  <g transform="matrix(1 0 0 1 -599 -735 )">
    <path d="M 2.41645833984375 6.5  L 2.625 6.5  L 2.625 5.04166666015625  C 2.625 2.6252083203125  4.58333333984375 0.66666666015625  7 0.66666666015625  C 9.41666666015625 0.66666666015625  11.375 2.62416666015625  11.375 5.04166666015625  L 11.375 6.5  L 11.5835416601562 6.5  C 12.8485416601563 6.5  13.875 7.52729166015625  13.875 8.79166666015625  L 13.875 15.0416666601563  C 13.875 16.3077083203125  12.8502083398437 17.3333333203125  11.5835416601562 17.3333333398438  L 2.41666666015625 17.3333333398438  C 1.15145833984375 17.3333333398437  0.125 16.3060416601563  0.125 15.0416666601563  L 0.125 8.79166666015625  C 0.125 7.525625  1.14979166015625 6.5  2.41645833984375 6.5  Z M 3.875 5.04166666015625  L 3.875 6.5  L 10.125 6.5  L 10.125 5.04166666015625  C 10.125 3.3145833203125  8.72645833984375 1.91666666015625  7 1.91666666015625  C 5.27375 1.91666666015625  3.875 3.315625  3.875 5.04166666015625  Z M 1.37499924819512 8.79041590835137  C 1.37499924819512 8.7908328257328  1.37499949879679 8.79124974307608  1.375 8.79166666015625  L 1.375 15.0416666601563  C 1.375 15.6158333203125  1.84208333984375 16.0833333203125  2.41645833984375 16.0833333398438  L 11.5833333398437 16.0833333398437  C 11.5837502569333 16.083333841047  11.5841671742813 16.0833340916487  11.5845840916721 16.0833340916487  C 12.1591903465463 16.0833340916487  12.6250007518284 15.6175236863666  12.6250007518284 15.0429174314924  C 12.6250007518284 15.0425005076006  12.6250005012189 15.0420835837467  12.625 15.0416666601563  L 12.625 8.79166666015625  C 12.625 8.2175  12.1579166601562 7.75  11.5835416601562 7.75  L 2.41666666015625 7.75  C 2.41624974307583 7.74999949879679  2.41583282573306 7.74999924819512  2.41541590835137 7.74999924819512  C 1.84080965347719 7.74999924819512  1.37499924819512 8.21580965347719  1.37499924819512 8.79041590835137  Z " fill-rule="nonzero" fill="#70b603" stroke="none" transform="matrix(1 0 0 1 599 735 )" />
  </g>
</svg>