<?xml version="1.0" encoding="utf-8"?>
<svg version="1.1" xmlns:xlink="http://www.w3.org/1999/xlink" width="9px" height="7px" xmlns="http://www.w3.org/2000/svg">
  <g transform="matrix(1 0 0 1 -602 -786 )">
    <path d="M 3.864453125 6.78964843750001  C 3.85859375 6.7900390625  3.8525390625 6.7900390625  3.8466796875 6.7900390625  C 3.68292657522647 6.79001311322523  3.52571174932055 6.72578082931362  3.4087890625 6.6111328125  L 0.3712890625 3.62929687499999  C 0.124999999999999 3.3875  0.121289062499999 2.99179687500001  0.363085937499999 2.74550781249999  C 0.6048828125 2.49921875  1.0005859375 2.49550781249999  1.246875 2.7373046875  L 3.820703125 5.2638671875  L 7.5875 1.116015625  C 7.81953125 0.860546874999997  8.21484375 0.841406250000006  8.4703125 1.0734375  C 8.72578125 1.30546875  8.744921875 1.70078125000001  8.512890625 1.95625  L 4.3091796875 6.58515625  C 4.19490560564684 6.71094991926515  4.03433234755464 6.78478399973179  3.864453125 6.78964843750001  Z " fill-rule="nonzero" fill="#70b603" stroke="none" transform="matrix(1 0 0 1 602 786 )" />
  </g>
</svg>