<?xml version="1.0" encoding="utf-8"?>
<svg version="1.1" xmlns:xlink="http://www.w3.org/1999/xlink" width="16px" height="18px" xmlns="http://www.w3.org/2000/svg">
  <g transform="matrix(1 0 0 1 -598 -781 )">
    <path d="M 2.2150390625 4.421875  C 4.536328125 3.82421875  6.592578125 3.2947265625  8 1.94609375  C 9.4076171875 3.2947265625  11.4638671875 3.82421875  13.78515625 4.421875  C 13.9189453125 4.45625  14.0544921875 4.4912109375  14.19140625 4.5265625  L 14.19140625 6.635546875  C 14.19140625 7.8146484375  14.03125 9.001171875  13.715234375 10.1623046875  C 13.4064453125 11.296875  12.9669921875 12.3423828125  12.409375 13.269921875  C 11.857421875 14.187890625  11.222265625 14.934765625  10.521875 15.4896484375  C 9.831640625 16.0365234375  9.1060546875 16.37109375  8.3650390625 16.4841796875  L 8.053125 16.5318359375  L 7.648828125 16.47109375  C 6.90625 16.359375  6.1791015625 16.02578125  5.4873046875 15.4794921875  C 4.7853515625 14.9251953125  4.148828125 14.178515625  3.5955078125 13.26015625  C 3.036328125 12.332421875  2.5958984375 11.2861328125  2.2861328125 10.15078125  C 1.9693359375 8.98867187499999  1.80859375 7.80078125  1.80859375 6.6203125  L 1.80859375 4.52675781249999  C 1.9455078125 4.4912109375  2.08125 4.45644531249999  2.2150390625 4.421875  Z M 8.294140625 0.364453124999997  C 8.2224609375 0.257421875000006  8.1111328125 0.2041015625  8 0.2041015625  C 7.8888671875 0.2041015625  7.777734375 0.257617187500003  7.705859375 0.364453124999997  C 6.463671875 2.216015625  3.9765625 2.65390625000001  0.8296875 3.491015625  C 0.6703125 3.5333984375  0.55859375 3.68320312500001  0.55859375 3.8552734375  L 0.55859375 6.62050781249999  C 0.55859375 11.860546875  3.5005859375 17.1115234375  7.4630859375 17.7072265625  L 8.0544921875 17.79609375  L 8.553515625 17.719921875  C 12.5083984375 17.1166015625  15.44140625 11.869140625  15.44140625 6.6357421875  L 15.44140625 3.8552734375  C 15.44140625 3.68320312500001  15.3294921875 3.5333984375  15.1703125 3.491015625  C 12.0234375 2.65390625000001  9.536328125 2.216015625  8.294140625 0.364453124999997  Z " fill-rule="nonzero" fill="#70b603" stroke="none" transform="matrix(1 0 0 1 598 781 )" />
  </g>
</svg>