<?xml version="1.0" encoding="utf-8"?>
<svg version="1.1" xmlns:xlink="http://www.w3.org/1999/xlink" width="14px" height="16px" xmlns="http://www.w3.org/2000/svg">
  <g transform="matrix(1 0 0 1 -599 -690 )">
    <path d="M 0.619791672363281 2.62962963541667  C 0.619791672363281 1.50462963541667  1.517578125 0.592592604166666  2.625 0.592592586805555  L 11.375 0.592592586805555  C 12.482421875 0.592592586805555  13.3802083276367 1.50462961805556  13.3802083276367 2.62962963541667  L 13.3802083276367 13.3703703645833  C 13.3802083276367 14.4953703645833  12.482421875 15.4074073958333  11.375 15.4074074131944  L 2.625 15.4074074131944  C 1.517578125 15.4074074131944  0.619791672363281 14.4953703819444  0.619791672363281 13.3703703645833  L 0.619791672363281 2.62962963541667  Z M 11.375 1.70370369791667  L 2.625 1.70370369791667  C 2.12161546553996 1.70370369791667  1.71354167236328 2.1182548528898  1.71354167236328 2.62962961805555  L 1.71354167236328 13.3703703645833  C 1.71354167236328 13.8817451471102  2.12161546553996 14.2962963020833  2.625 14.2962963020833  L 11.375 14.2962963020833  C 11.87838453446 14.2962963020833  12.2864583276367 13.8817451471102  12.2864583276367 13.3703703819444  L 12.2864583276367 2.62962963541667  C 12.2864583276367 2.1182548528898  11.87838453446 1.70370369791667  11.375 1.70370369791667  Z M 8.45833332763672 12.4444444444444  L 5.54166667236328 12.4444444444444  C 5.23963594979957 12.4444444444444  4.99479167236328 12.195713749906  4.99479167236328 11.8888888888889  C 4.99479167236328 11.5820640278718  5.23963594979957 11.3333333333333  5.54166667236328 11.3333333333333  L 8.45833332763672 11.3333333333333  C 8.76036405020043 11.3333333333333  9.00520832763672 11.5820640278718  9.00520832763672 11.8888888888889  C 9.00520832763672 12.195713749906  8.76036405020043 12.4444444444444  8.45833332763672 12.4444444444444  Z " fill-rule="nonzero" fill="#70b603" stroke="none" transform="matrix(1 0 0 1 599 690 )" />
  </g>
</svg>