<?xml version="1.0" encoding="utf-8"?>
<svg version="1.1" xmlns:xlink="http://www.w3.org/1999/xlink" width="14px" height="14px" xmlns="http://www.w3.org/2000/svg">
  <g transform="matrix(1 0 0 1 -598 -645 )">
    <path d="M 9.10625 7.684375  C 8.59451332672275 8.19000417920048  7.90377331420502 8.47303911115897  7.184375 8.471875  C 6.42674896492037 8.49210222710367  5.69348185647383 8.20330779670011  5.153125 7.671875  C 4.63862280843928 8.18445604197338  3.94188374074057 8.47214185057156  3.215625 8.471875  C 1.7527013876927 8.49100048663079  0.550402380666482 7.32225401003321  0.528125000000002 5.859375  C 0.528125000000002 5.746875  0.528125000000002 5.7  1.271875 2.246875  C 1.34586947686477 1.21017713485244  2.21067362585422 0.408218153088139  3.25 0.4125  L 10.715625 0.4125  C 11.756233028044 0.404802233973135  12.6242859412241 1.20587153652988  12.7 2.24375  C 13.471875 5.68125  13.471875 5.734375  13.471875 5.8625  C 13.4725629235888 5.88658424881725  13.4729069379761 5.91067709226718  13.4729069379761 5.93477116373622  C 13.4729069379761 7.33274193674541  12.3396277109853 8.46602116373622  10.9416569379761 8.46602116373622  C 10.9267287491625 8.46602116373622  10.9118008524157 8.46588910399034  10.896875 8.465625  C 10.21507306411 8.47657649541967  9.56196112526953 8.19162364252244  9.10625 7.684375  Z M 4.471875 6.5  L 4.653125 6.2125  L 5.684375 6.2125  L 5.8625 6.54375  C 6.13958104755511 7.00142026528278  6.6510086842605 7.26378385196144  7.184375 7.221875  C 7.69589663652848 7.22439340719869  8.17090026670843 6.95720386522247  8.434375 6.51875  L 8.615625 6.20625  L 9.63125 6.20625  L 9.809375 6.51875  C 10.0020949117412 6.94078074903094  10.4267484959087 7.20833705350644  10.890625 7.2  C 10.9011444336507 7.20025672355191  10.9116666079008 7.20038509965761  10.922189173715 7.20038509965761  C 11.6367075688086 7.20038509965761  12.215939173715 6.6211534947512  12.215939173715 5.90663509965761  C 12.215939173715 5.89713086759483  12.2158344427851 5.88762692405899  12.215625 5.878125  C 12.178125 5.66875  11.93125 4.54375  11.4625 2.440625  L 11.4625 2.3125  C 11.437434118746 1.92661328620411  11.1115462728718 1.62972393508986  10.725 1.640625  L 3.25 1.640625  C 2.86345372712823 1.62972393508986  2.53756588125399 1.92661328620411  2.5125 2.3125  L 2.5125 2.434375  C 1.96875 4.95  1.8125 5.70625  1.784375 5.871875  C 1.82634860988203 6.63009497995076  2.46270833615439 7.21803603139805  3.221875 7.2  C 3.73260429331103 7.20255175635073  4.20717751232044 6.93679075370546  4.471875 6.5  Z M 12.625 12.9625  C 12.625 13.3076779686442  12.3451779686442 13.5875  12 13.5875  L 2 13.5875  C 1.65482203135575 13.5875  1.375 13.3076779686442  1.375 12.9625  L 1.375 9.1625  C 1.375 8.81732203135575  1.65482203135575 8.5375  2 8.5375  C 2.34517796864425 8.5375  2.625 8.81732203135575  2.625 9.1625  L 2.625 12.3375  L 11.375 12.3375  L 11.375 9.1625  C 11.375 8.81732203135575  11.6548220313558 8.5375  12 8.5375  C 12.3451779686442 8.5375  12.625 8.81732203135575  12.625 9.1625  L 12.625 12.9625  Z " fill-rule="nonzero" fill="#70b603" stroke="none" transform="matrix(1 0 0 1 598 645 )" />
  </g>
</svg>