<?xml version="1.0" encoding="utf-8"?>
<svg version="1.1" xmlns:xlink="http://www.w3.org/1999/xlink" width="12px" height="14px" xmlns="http://www.w3.org/2000/svg">
  <g transform="matrix(1 0 0 1 -35 -342 )">
    <path d="M 9.72096 2.50519111111111  C 7.5462 0.322311111111112  4.09416 0.322311111111112  1.91904 2.50519111111111  L 1.85676 2.56865777777778  L 1.79556 2.63324444444444  C -0.24852 4.82359111111111  -0.19308 8.31761777777778  1.91904 10.4370311111111  L 4.74612 13.2743644444444  C 5.34485691721356 13.8751077914759  6.29514308278644 13.8751077914759  6.89388 13.2743644444444  L 9.72096 10.4370311111111  C 9.76272 10.3952177777778  9.80376 10.3522844444444  9.84444 10.3089777777778  C 11.88852 8.11863111111111  11.83308 4.62460444444445  9.72096 2.50519111111111  Z M 2.57172 3.41201777777778  L 2.67 3.31009777777778  C 4.42608 1.54759111111111  7.21392 1.54759111111111  8.97 3.31009777777778  C 10.65336 4.99943111111111  10.69764 7.78449777777778  9.06828 9.53020444444444  L 9.01968 9.58172444444444  L 6.14328 12.4694577777778  C 5.96319332787909 12.6503485595636  5.67716667212091 12.6503485595636  5.49708 12.4694577777778  L 2.67 9.63212444444444  C 0.98664 7.94279111111111  0.942359999999999 5.15772444444444  2.57172 3.41201777777778  Z " fill-rule="nonzero" fill="#555555" stroke="none" transform="matrix(1 0 0 1 35 342 )" />
  </g>
</svg>