<?xml version="1.0" encoding="utf-8"?>
<svg version="1.1" xmlns:xlink="http://www.w3.org/1999/xlink" width="15px" height="6px" xmlns="http://www.w3.org/2000/svg">
  <g transform="matrix(1 0 0 1 -33 -353 )">
    <path d="M 10.9802104003172 0.959859289207263  C 10.9802104003172 0.892654885051135  10.9927551087112 0.826040952291957  11.0172 0.763439999999997  C 11.1257713159563 0.48569861844513  11.4389253506921 0.348542631023514  11.71668 0.457079999999999  C 13.00836 0.96108  13.8 1.6926  13.8 2.60016  C 13.8 4.31844  10.8768 5.46  7.32 5.46  C 3.7632 5.46  0.84 4.31844  0.84 2.60016  C 0.84 1.6926  1.632 0.96144  2.92332 0.457080000000002  C 2.98312285783387 0.435035034186154  3.04635623595896 0.423751376618937  3.11009289984115 0.423751376618937  C 3.40832666474978 0.423751376618937  3.65009289984115 0.665517611710309  3.65009289984115 0.963751376618936  C 3.65009289984115 1.18242175158336  3.51821590749114 1.37950652513043  3.31608 1.46292  C 2.39448 1.82292  1.92 2.26104  1.92 2.60052  C 1.92 3.44472  4.31544 4.38  7.32 4.38  C 10.32456 4.38  12.72 3.44472  12.72 2.60016  C 12.72 2.26104  12.24588 1.82292  11.32392 1.46292  C 11.1166587977279 1.38204828115694  10.9802104003172 1.18233949254207  10.9802104003172 0.959859289207263  Z " fill-rule="nonzero" fill="#555555" stroke="none" transform="matrix(1 0 0 1 33 353 )" />
  </g>
</svg>