<?xml version="1.0" encoding="utf-8"?>
<svg version="1.1" xmlns:xlink="http://www.w3.org/1999/xlink" width="40px" height="40px" xmlns="http://www.w3.org/2000/svg">
  <g transform="matrix(1 0 0 1 -121 -810 )">
    <path d="M 122 830  A 19 19 0 0 1 141 811 A 19 19 0 0 1 160 830 A 19 19 0 0 1 141 849 A 19 19 0 0 1 122 830 Z " fill-rule="nonzero" fill="#000000" stroke="none" fill-opacity="0.2" />
    <path d="M 121.5 830  A 19.5 19.5 0 0 1 141 810.5 A 19.5 19.5 0 0 1 160.5 830 A 19.5 19.5 0 0 1 141 849.5 A 19.5 19.5 0 0 1 121.5 830 Z " stroke-width="1" stroke="#ffffff" fill="none" stroke-opacity="0.498039215686275" />
  </g>
</svg>