<?xml version="1.0" encoding="utf-8"?>
<svg version="1.1" xmlns:xlink="http://www.w3.org/1999/xlink" width="16px" height="16px" xmlns="http://www.w3.org/2000/svg">
  <g transform="matrix(1 0 0 1 -865 -667 )">
    <path d="M 8.81761777382813 1.058939278125  C 8.37511064013913 0.657540810200371  7.70020578896243 0.657540810200371  7.25769865527344 1.058939278125  L 0.94994771484375 7.04840588574219  C 0.830017141560592 7.15860214765154  0.761758831808411 7.314017272913  0.761758831808411 7.4768870323738  C 0.761758831808411 7.79825701855018  1.02228068000703 8.0587788667488  1.34365066618341 8.0587788667488  C 1.48567818290731 8.0587788667488  1.62280195067597 8.00683465505477  1.72918307792969 7.91273432949219  L 1.82948428398438 7.81750249863281  L 1.82948428398437 14.0687661169922  C 1.82948368311589 14.0692489144149  1.82948338268156 14.0697317121647  1.82948338268156 14.0702145099613  C 1.82948338268156 14.7129544827455  2.35052707942858 15.2339981794925  2.99326705221281 15.2339981794925  L 6.37997257695313 15.2339981794922  L 6.37997257695313 11.7303358318359  C 6.37997209685776 11.7299737070186  6.37997185681 11.7296115819224  6.37997185681 11.7292494567868  C 6.37997185681 11.2766917223175  6.74684238757512 10.9098211915524  7.19940012204437 10.9098211915524  L 8.79335719355469 10.909821271875  C 9.24627774601862 10.9098211915526  9.61314827678375 11.2766917223177  9.61314827678375 11.729249456787  C 9.61314827678375 11.729611581923  9.61314803673599 11.7299737070182  9.61314755664062 11.7303358318359  L 9.61314755664062 15.2339981794922  L 13.0802379847656 15.2339981794922  C 13.72334095697 15.2339982361043  14.244384653717 14.7129545393573  14.244384653717 14.0702145665731  C 14.244384653717 14.069731749906  14.2443843532592 14.0692489332853  14.2443837523437 14.0687661169922  L 14.2443837523437 7.89390522246094  C 14.5029218792969 8.12782067050781  14.8697273730469 8.11007785800781  15.0848137138672 7.87036883847656  C 15.1813806747696 7.76343132884448  15.2348383756758 7.62446924710448  15.2348383756758 7.48038313082591  C 15.2348383756758 7.31570541252462  15.1650616103582 7.15873889589934  15.0428103208984 7.04840588574219  L 8.81761777382813 1.05930137636719  Z " fill-rule="nonzero" fill="#000000" stroke="none" fill-opacity="0.498039215686275" transform="matrix(1 0 0 1 865 667 )" />
  </g>
</svg>