<?xml version="1.0" encoding="utf-8"?>
<svg version="1.1" xmlns:xlink="http://www.w3.org/1999/xlink" width="18px" height="18px" xmlns="http://www.w3.org/2000/svg">
  <g transform="matrix(1 0 0 1 -171 -407 )">
    <path d="M 13.90375 6.58916015625  C 14.0837109375 6.4098828125  14.33029296875 6.2990234375  14.6007421875 6.2990234375  L 15.55275390625 6.2990234375  C 15.06498046875 5.07259765625  14.248046875 4.03708984375  13.2241015625 3.28255859375  C 12.06046875 2.42501953125  10.62830078125 1.93013671875  9.10728515625 1.93013671875  C 7.58625 1.93013671875  6.15412109375 2.42501953125  4.99046875 3.28255859375  C 3.966484375 4.037109375  3.149609375 5.07259765625  2.6618359375 6.2990234375  L 3.37763671875 6.2990234375  C 3.64763671875 6.2990234375  3.8946875 6.41015625  4.0745703125 6.58916015625  L 4.07552734375 6.5902734375  L 4.0766015625 6.59119140625  C 4.25587890625 6.7710546875  4.36677734375 7.0180078125  4.36677734375 7.288125  L 4.36677734375 12.40423828125  C 4.36677734375 12.67451171875  4.25564453125 12.92126953125  4.0766015625 13.10119140625  L 4.07552734375 13.10205078125  L 4.0745703125 13.10318359375  C 3.8946875 13.2824609375  3.647734375 13.39330078125  3.37763671875 13.39330078125  L 2.2247265625 13.39330078125  C 1.63658203125 13.39330078125  1.10158203125 13.15244140625  0.713613281250003 12.76462890625  L 0.711621093750003 12.76263671875  C 0.323886718750003 12.37466796875  0.0829492187500032 11.8396875  0.0829492187500032 11.251640625  L 0.0829492187500032 8.44091796875  C 0.0829492187500032 7.85134765625  0.323789062500003 7.31578125  0.711738281250003 6.9278125  L 0.712773437500003 6.92884765625  C 0.948281250000003 6.69345703125  1.2375 6.5121875  1.5595703125 6.40578125  C 2.08560546875 4.7922265625  3.09560546875 3.434765625  4.39826171875 2.4747265625  C 5.730703125 1.49283203125  7.36880859375 0.92625  9.107265625 0.92625  C 10.845625 0.92625  12.48384765625 1.4928125  13.8162890625 2.4747265625  C 15.14880859375 3.45673828125  16.1752734375 4.85462890625  16.690546875 6.5169140625  C 16.9034890034865 6.62179468445036  17.0977501008865 6.76095322336432  17.26556640625 6.928828125  L 17.2666015625 6.92779296875  C 17.6545703125 7.31576171875  17.8954296875 7.851328125  17.8954296875 8.4408984375  L 17.8954296875 11.25162109375  C 17.8954296875 11.83966796875  17.6544921875 12.3746484375  17.2667578125 12.7626171875  L 17.264765625 12.764609375  C 16.876796875 13.15240234375  16.34173828125 13.39328125  15.75361328125 13.39328125  L 15.433671875 13.39328125  L 15.56390625 13.486015625  C 14.818046875 14.5283984375  13.84416015625 15.358515625  12.73724609375 15.927421875  C 11.628125 16.49751953125  10.38626953125 16.80705078125  9.10724609375001 16.80705078125  L 9.06744140625001 16.80697265625  C 8.90330078125001 16.97822265625  8.67205078125001 17.0848828125  8.41599609375001 17.0848828125  C 7.91746093750001 17.0848828125  7.51343750000001 16.68078125  7.51343750000001 16.18228515625  C 7.51343750000001 15.6837890625  7.91746093750001 15.279765625  8.41599609375001 15.279765625  C 8.77855468750001 15.279765625  9.09119140625001 15.49361328125  9.23470703125001 15.80203125  C 10.31 15.78240234375  11.34935546875 15.51474609375  12.2785546875 15.0371484375  C 13.0829293321045 14.6239004075679  13.798725568475 14.0573370340993  14.38564453125 13.36935546875  C 14.20080078125 13.32763671875  14.03462890625 13.23345703125  13.90375 13.10314453125  L 13.90279296875 13.10201171875  L 13.9017578125 13.10115234375  C 13.72248046875 12.92123046875  13.61154296875 12.67462890625  13.61154296875 12.40419921875  L 13.61154296875 7.288125  C 13.61154296875 7.0180078125  13.7225 6.77107421875  13.9017578125 6.59119140625  L 13.90279296875 6.5902734375  L 13.90375 6.58916015625  Z M 3.362890625 12.389453125  L 3.362890625 7.302890625  L 2.2247265625 7.302890625  C 1.91107421875 7.302890625  1.62669921875 7.430390625  1.42150390625 7.6355859375  L 1.42150390625 7.637578125  C 1.2150390625 7.8440234375  1.08681640625 8.128515625  1.08681640625 8.44091796875  L 1.08681640625 11.251640625  C 1.08681640625 11.5647265625  1.2147265625 11.84947265625  1.42046875 12.05578125  C 1.62677734375 12.26150390625  1.91154296875 12.389453125  2.2247265625 12.389453125  L 3.362890625 12.389453125  Z M 16.55689453125 7.6355859375  C 16.35171875 7.43041015625  16.0673046875 7.302890625  15.75365234375 7.302890625  L 14.6155078125 7.302890625  L 14.6155078125 12.389453125  L 15.75365234375 12.389453125  C 16.06681640625 12.389453125  16.351640625 12.26150390625  16.55794921875 12.05578125  C 16.763671875 11.84947265625  16.89154296875 11.5647265625  16.89154296875 11.251640625  L 16.89154296875 8.44091796875  C 16.89154296875 8.128515625  16.76330078125 7.8440234375  16.55689453125 7.637578125  L 16.55689453125 7.6355859375  Z " fill-rule="nonzero" fill="#555555" stroke="none" transform="matrix(1 0 0 1 171 407 )" />
  </g>
</svg>