<?xml version="1.0" encoding="utf-8"?>
<svg version="1.1" xmlns:xlink="http://www.w3.org/1999/xlink" width="8px" height="8px" xmlns="http://www.w3.org/2000/svg">
  <g transform="matrix(1 0 0 1 -276 -412 )">
    <path d="M 7.115234375 4  C 7.115234375 2.28224609375  5.717734375 0.884765625  4 0.884765625  C 2.28224609375 0.884765625  0.884765625 2.28224609375  0.884765625 4  C 0.884765625 5.717734375  2.28224609375 7.115234375  4 7.115234375  C 5.717734375 7.115234375  7.115234375 5.717734375  7.115234375 4  Z M 5.884765625 4  C 5.884765625 5.0392578125  5.0392578125 5.884765625  4 5.884765625  C 2.9607421875 5.884765625  2.115234375 5.0392578125  2.115234375 4  C 2.115234375 2.9607421875  2.9607421875 2.115234375  4 2.115234375  C 5.0392578125 2.115234375  5.884765625 2.9607421875  5.884765625 4  Z " fill-rule="nonzero" fill="#555555" stroke="none" transform="matrix(1 0 0 1 276 412 )" />
  </g>
</svg>