<?xml version="1.0" encoding="utf-8"?>
<svg version="1.1" xmlns:xlink="http://www.w3.org/1999/xlink" width="35px" height="35px" xmlns="http://www.w3.org/2000/svg">
  <g transform="matrix(1 0 0 1 -302 -2323 )">
    <path d="M 319.5 2323  C 329.3 2323  337 2330.7  337 2340.5  C 337 2350.3  329.3 2358  319.5 2358  C 309.7 2358  302 2350.3  302 2340.5  C 302 2330.7  309.7 2323  319.5 2323  Z " fill-rule="nonzero" fill="#ffffff" stroke="none" />
    <path d="M 319.5 2323.5  C 329.02 2323.5  336.5 2330.98  336.5 2340.5  C 336.5 2350.02  329.02 2357.5  319.5 2357.5  C 309.98 2357.5  302.5 2350.02  302.5 2340.5  C 302.5 2330.98  309.98 2323.5  319.5 2323.5  Z " stroke-width="1" stroke="#7f7f7f" fill="none" />
  </g>
</svg>