<?xml version="1.0" encoding="utf-8"?>
<svg version="1.1" xmlns:xlink="http://www.w3.org/1999/xlink" width="12px" height="12px" viewBox="302 2672.5  12 12" xmlns="http://www.w3.org/2000/svg">
  <path d="M 308 2672.5  C 311.36 2672.5  314 2675.14  314 2678.5  C 314 2681.86  311.36 2684.5  308 2684.5  C 304.64 2684.5  302 2681.86  302 2678.5  C 302 2675.14  304.64 2672.5  308 2672.5  Z " fill-rule="nonzero" fill="#ffffff" stroke="none" />
  <path d="M 308 2673  C 311.08 2673  313.5 2675.42  313.5 2678.5  C 313.5 2681.58  311.08 2684  308 2684  C 304.92 2684  302.5 2681.58  302.5 2678.5  C 302.5 2675.42  304.92 2673  308 2673  Z " stroke-width="1" stroke="#797979" fill="none" />
  <path d="M 308 2681.5  C 306.32 2681.5  305 2680.18  305 2678.5  C 305 2676.82  306.32 2675.5  308 2675.5  C 309.68 2675.5  311 2676.82  311 2678.5  C 311 2680.18  309.68 2681.5  308 2681.5  " fill-rule="nonzero" fill="#797979" stroke="none" />
</svg>