<?xml version="1.0" encoding="utf-8"?>
<svg version="1.1" xmlns:xlink="http://www.w3.org/1999/xlink" width="7px" height="6px" xmlns="http://www.w3.org/2000/svg">
  <g transform="matrix(1 0 0 1 -341 -2472 )">
    <path d="M 6.027272734375 5.75909091796875  C 5.90040122391074 5.88828965040172  5.72652582495412 5.96046434404227  5.54545455078125 5.95909091796875  C 5.36438327660838 5.96046434404227  5.19050787765175 5.88828965040172  5.0636363671875 5.75909091796875  L 0.518181816406249 1.2136363671875  C 0.379775156026037 1.08466768835443  0.301174297540772 0.903991329061475  0.301174297540772 0.714810664728271  C 0.301174297540772 0.33825287977211  0.606434696178361 0.0329924811345208  0.982992481134522 0.0329924811345208  C 1.17217314546773 0.0329924811345208  1.35284950476068 0.111593339619787  1.48181818359375 0.25  L 6.027272734375 4.79545455078125  C 6.15607821165421 4.92269722557609  6.22857320623231 5.09621597734541  6.22857320623231 5.277272734375  C 6.22857320623231 5.45832949140459  6.15607821165421 5.63184824317391  6.027272734375 5.75909091796875  Z " fill-rule="nonzero" fill="#aaaaaa" stroke="none" transform="matrix(1 0 0 1 341 2472 )" />
  </g>
</svg>