<?xml version="1.0" encoding="utf-8"?>
<svg version="1.1" xmlns:xlink="http://www.w3.org/1999/xlink" width="12px" height="12px" viewBox="430 2672.5  12 12" xmlns="http://www.w3.org/2000/svg">
  <path d="M 436 2672.5  C 439.36 2672.5  442 2675.14  442 2678.5  C 442 2681.86  439.36 2684.5  436 2684.5  C 432.64 2684.5  430 2681.86  430 2678.5  C 430 2675.14  432.64 2672.5  436 2672.5  Z " fill-rule="nonzero" fill="#ffffff" stroke="none" />
  <path d="M 436 2673  C 439.08 2673  441.5 2675.42  441.5 2678.5  C 441.5 2681.58  439.08 2684  436 2684  C 432.92 2684  430.5 2681.58  430.5 2678.5  C 430.5 2675.42  432.92 2673  436 2673  Z " stroke-width="1" stroke="#797979" fill="none" />
  <path d="M 436 2681.5  C 434.32 2681.5  433 2680.18  433 2678.5  C 433 2676.82  434.32 2675.5  436 2675.5  C 437.68 2675.5  439 2676.82  439 2678.5  C 439 2680.18  437.68 2681.5  436 2681.5  " fill-rule="nonzero" fill="#797979" stroke="none" />
</svg>