<?xml version="1.0" encoding="utf-8"?>
<svg version="1.1" xmlns:xlink="http://www.w3.org/1999/xlink" width="16px" height="15px" xmlns="http://www.w3.org/2000/svg">
  <g transform="matrix(1 0 0 1 -334 -2473 )">
    <path d="M 8.68181818359375 9.99545455078125  C 8.68181818359375 10.3720123357374  8.37655778495616 10.677272734375  8 10.677272734375  C 7.62344221504384 10.677272734375  7.31818181640625 10.3720123357374  7.31818181640625 9.99545455078125  L 7.31818181640625 0.904545449218749  C 7.31818181640625 0.527987664262589  7.62344221504384 0.222727265624999  8 0.222727265624999  C 8.37655778495616 0.222727265624999  8.68181818359375 0.527987664262589  8.68181818359375 0.904545449218749  L 8.68181818359375 9.99545455078125  Z M 15.9545454492187 13.3636363671875  C 15.9545454492187 14.2422711915607  15.2422711915607 14.9545454492187  14.3636363671875 15  L 1.6363636328125 15  C 0.757728808439333 14.9545454492187  0.0454545507812498 14.2422711915607  0.0454545507812498 13.3636363671875  L 0.0454545507812498 11.5454545507812  C 0.0454545507812498 11.1688967658251  0.35071494941884 10.8636363671875  0.727272734375 10.8636363671875  C 1.10383051933116 10.8636363671875  1.40909091796875 11.1688967658251  1.40909091796875 11.5454545507812  L 1.40909091796875 13.3636363671875  C 1.40909092875556 13.4891556171803  1.5108443828197 13.5909090712444  1.6363636328125 13.5909090820312  L 14.3636363671875 13.5909090820312  C 14.4891556171803 13.5909090712444  14.5909090712444 13.4891556171803  14.5909090820312 13.3636363671875  L 14.5909090820312 11.5454545507812  C 14.5909090820312 11.1688967658251  14.8961694806688 10.8636363671875  15.272727265625 10.8636363671875  C 15.6492850505812 10.8636363671875  15.9545454492187 11.1688967658251  15.9545454492187 11.5454545507812  L 15.9545454492187 13.3636363671875  Z " fill-rule="nonzero" fill="#aaaaaa" stroke="none" transform="matrix(1 0 0 1 334 2473 )" />
  </g>
</svg>