<?xml version="1.0" encoding="utf-8"?>
<svg version="1.1" xmlns:xlink="http://www.w3.org/1999/xlink" width="7px" height="6px" xmlns="http://www.w3.org/2000/svg">
  <g transform="matrix(1 0 0 1 -336 -2472 )">
    <path d="M 1.9363636328125 5.75909091796875  C 1.80949212234825 5.88828965040172  1.63561672339162 5.96046434404227  1.45454544921875 5.95909091796875  C 1.27347417504588 5.96046434404227  1.09959877608925 5.88828965040172  0.972727265624999 5.75909091796875  C 0.843921788345783 5.63184824317391  0.771426793767689 5.45832949140459  0.771426793767689 5.277272734375  C 0.771426793767689 5.09621597734541  0.843921788345782 4.92269722557609  0.972727265624999 4.79545455078125  L 5.51818181640625 0.249999999999999  C 5.64439016349514 0.132397828709641  5.81048503907153 0.0670075188654726  5.98299248113452 0.0670075188654726  C 6.35955026609068 0.0670075188654726  6.66481066472828 0.372267917503063  6.66481066472828 0.748825702459223  C 6.66481066472828 0.921333144522213  6.59942035488411 1.08742802009861  6.48181818359375 1.2136363671875  L 1.9363636328125 5.75909091796875  Z " fill-rule="nonzero" fill="#aaaaaa" stroke="none" transform="matrix(1 0 0 1 336 2472 )" />
  </g>
</svg>