<?xml version="1.0" encoding="utf-8"?>
<svg version="1.1" xmlns:xlink="http://www.w3.org/1999/xlink" width="108px" height="70px" xmlns="http://www.w3.org/2000/svg">
  <g transform="matrix(1 0 0 1 -407 -2749 )">
    <path d="M 107 4.01307585815373  L 107 65.9817696873543  C 106.939640566075 67.9340783867842  105.362634013662 69.5167372924312  103.417297845302 69  L 3.52337056136078 69  C 3.52337056136078 69.5167372924312  3.52337034417727 69.5167372924312  3.52337034417727 69.5167372924312  C 1.57860183649861 69.5167372924312  0.00205546399184822 67.9345402160804  0.00205546399184822 65.9828012119584  C 0.00205546399184822 65.9824573704192  0.00205551399477621 65.9821135288789  0 65.9817696873543  L 0 4.01720188915472  C 0.00205528276875488 2.06626824576457  1.57734918818207 0.484404691925241  3.52131488018542 1  L 103.416270004714 1  C 104.34987740128 0.481970688791342  105.245738964013 0.85302827600589  105.906680390478 1.51477079489466  C 106.565520479995 2.17802030609382  106.935180824607 3.07654667871889  107 4.01307585815373  Z " fill-rule="nonzero" fill="#f7f7f7" stroke="none" transform="matrix(1 0 0 1 407 2749 )" />
  </g>
</svg>