<?xml version="1.0" encoding="utf-8"?>
<svg version="1.1" xmlns:xlink="http://www.w3.org/1999/xlink" width="91px" height="50px" xmlns="http://www.w3.org/2000/svg">
  <g transform="matrix(1 0 0 1 -416 -2760 )">
    <path d="M 0.742723279015451 4.00229398320097  L 0.742723279015451 0.00105931446773995  L 8.39153908846831 0.00105931446773995  L 8.39153908846831 4.00229398320097  L 0.742723279015451 4.00229398320097  Z M 0.742723279015451 13.9628142998971  L 0.742723279015451 9.96054147620136  L 8.39153908846831 9.96054147620136  L 8.39153908846831 13.9628142998971  L 0.742723279015451 13.9628142998971  Z M 0.742723279015451 23.9222963937775  L 0.742723279015451 19.9210617250443  L 8.39153908846831 19.9210617250443  L 8.39153908846831 23.9222963937775  L 0.742723279015451 23.9222963937775  Z M 81.7183508030899 4.14868061825037  C 84.2535862897006 6.56665555182559  84.4291026447378 9.27636560053709  83.6510830331494 13.4582475787098  C 83.7752787945698 13.5298835959374  83.8953689004508 13.6056724365751  84.0144325756764 13.6876904784012  L 84.3777821182035 13.9358210495115  L 84.3849669986265 14.3770573324381  C 84.4044687785848 15.6561235500828  84.2535863567831 16.7389693196103  83.9210291301767 17.5705699852865  C 83.6131057697232 18.3336492343295  83.1655905234304 18.9036227037027  82.5589815442574 19.2483061646477  C 82.1484170636528 20.7370893877493  81.6649774152447 22.1147848730073  80.9762555936169 23.2723812603566  C 80.1889982402946 24.6064722015885  79.147190914364 25.6332550247129  77.6732645336422 26.1793499121479  C 77.0153349608523 26.423327659848  75.3340735455999 26.53649177547  73.715423192844 26.5126130578253  C 72.1552782470455 26.4887344080338  70.5879484208239 26.3330039033484  69.965943317232 26.0423070788812  C 68.6316088223495 25.4193852636992  67.6873105974579 24.3708001007085  66.9749812061674 23.0668170783098  C 66.3642665714552 21.9517869443175  65.9290682246976 20.6529949002914  65.5482697635232 19.2825668390378  C 64.9211325737365 18.9524182939546  64.4510362555191 18.3855593573224  64.1359280146425 17.6214419533169  C 63.7879746636171 16.7825738636364  63.6319601556208 15.6810404226901  63.6524883662345 14.3770573324381  L 63.6576204524292 13.9337446038798  L 64.0209699949562 13.6876904784012  C 64.1112941484896 13.623321885178  64.2046975939894 13.5641443381807  64.3001538337175 13.5091195467402  C 63.8895893531128 8.38558738786353  64.0445774304537 6.49086677904119  65.9249626362409 4.32621332709558  C 69.5923296023155 1.28739295611679  78.0017161047094 1.39328964773441  81.7183508030899 4.14868061825037  Z M 75.9519730607352 28.2765201024227  L 75.9427353190012 28.2765201024227  L 75.9961087068464 29.451765938375  L 75.3104661101024 30.5989803689789  L 76.2670813016117 36.9652416254785  L 80.1961831207176 28.4270595608822  L 86.1760544144532 28.2194189332038  C 89.2645255594742 31.174144884578  91.2454990241016 38.1373729286898  90.7579537201542 42  L 57.4283312051974 42  C 57.5114704783078 38.6907351044226  58.2361167691335 31.880122964402  62.1621394304382 28.4156393134678  L 67.5651676302659 28.4665112814982  L 72.6243481346075 36.9112550568539  L 73.5819897567723 30.5989803689789  L 72.8932678680619 29.451765938375  L 72.9466412559071 28.2765201024227  C 73.9471303034778 28.2038473391278  74.9514840131645 28.2038473391278  75.9519730607352 28.2765201024227  Z M 81.200013183222 14.0500233879493  C 81.0448126743183 13.2166077075913  80.7836465407762 12.4070087137046  80.4230200022891 11.6413921883035  C 78.0448253872477 12.1116981672476  74.5078126323611 12.5228265991943  71.7128950198648 10.9333377307011  C 70.6361897224744 10.3197597173019  69.0606486522569 11.5749472173019  67.7725026647966 11.4462100308554  C 67.3622145375308 12.26819746754  67.0691684624938 13.1448521571988  66.9021060383639 14.0500233879493  L 66.7573820663299 14.8182936153648  L 65.9927057849322 14.743542997543  C 65.8423222067707 14.7309732568334  65.6909950805435 14.7500622688809  65.5482697635232 14.7996059439461  C 65.4781902616428 14.8229156292993  65.4096278026524 14.8506556896671  65.3429875232209 14.8826622085881  C 65.3614629396063 15.7339887006457  65.4805266148319 16.4399668483229  65.6991521853249 16.9694503742643  C 65.8910910954365 17.4345653748357  66.1569315369245 17.7377206695332  66.5069377492609 17.8477701845609  L 66.9534266319808 17.9889658412377  L 67.0755695320902 18.4426605943946  C 67.451236041235 19.8473493300383  67.8700117658356 21.1720964694875  68.4601981228515 22.2497512606423  C 69.0083016950672 23.2516172111594  69.7083140526573 24.0479189796297  70.6772462107844 24.4984991321924  C 71.0878106913891 24.6874520884521  72.3831414921899 24.7943870028855  73.740057058997 24.8151510520827  C 75.1821646931428 24.8369533240958  76.6222195330602 24.7590881056797  77.0974478703898 24.582593551797  C 78.1669682873571 24.1808089894863  78.9367766549495 23.4094240936232  79.5331215288156 22.4023670968802  C 80.1746284794484 21.3143302811268  80.6334342617036 19.935596573053  81.0347610005742 18.42293470016  L 81.1486926566877 17.9910422190161  L 81.5736268310559 17.8405027605565  C 81.9092632825461 17.7200712209302  82.169971704922 17.410686657191  82.3578049594944 16.9403807461002  C 82.5630871997967 16.4160881985315  82.6821508750223 15.7204921433061  82.702679085636 14.8847386542198  C 82.6421110977857 14.8553813859254  82.5797088477886 14.8300643547737  82.5158722617191 14.8089498135821  C 82.3764212972322 14.7599757173402  82.2292330136351 14.7374502363962  82.081700345617 14.7425047747272  L 81.3365259112601 14.7913003649791  L 81.200013183222 14.0500233879493  Z M 11.2049319831847 4  L 11.2049319831847 0  L 34.2396507708484 0  L 34.2396507708484 4  L 11.2049319831847 4  Z M 11.2049319831847 14  L 11.2049319831847 10  L 34.2396507708484 10  L 34.2396507708484 14  L 11.2049319831847 14  Z M 11.2049319831847 24  L 11.2049319831847 20  L 34.2396507708484 20  L 34.2396507708484 24  L 11.2049319831847 24  Z M 23.4243566294589 50  L 23.4243566294589 46  L 58.0647061367181 46  L 58.0647061367181 50  L 23.4243566294589 50  Z M 0.742723279015451 50  L 0.742723279015451 46  L 21.0523204641851 46  L 21.0523204641851 50  L 0.742723279015451 50  Z " fill-rule="nonzero" fill="#dddddd" stroke="none" transform="matrix(1 0 0 1 416 2760 )" />
  </g>
</svg>