<?xml version="1.0" encoding="utf-8"?>
<svg version="1.1" xmlns:xlink="http://www.w3.org/1999/xlink" width="16px" height="13px" xmlns="http://www.w3.org/2000/svg">
  <g transform="matrix(1 0 0 1 -419 -2855 )">
    <path d="M 9.30163419197837 1.75603976761304  L 9.43885285984678 2.44910910594111  L 8.72203901216764 2.12490017849632  L 7.99396093014872 2.44910910594111  L 8.14141976746282 1.75603976761304  L 7.55056035331231 1.2619608756572  L 8.35543994592159 1.15615611409043  L 8.72408707345651 0.531034696635119  L 9.08351802794051 1.15615611409043  L 9.89658972870662 1.2619608756572  L 9.30163419197837 1.75603976761304  Z M 4.24195244704822 2.83544190983176  L 4.36995487336638 3.39067401498423  L 3.78728763587202 3.1305302904837  L 3.20564439477242 3.39067401498423  L 3.31623853988283 2.83835396451104  L 2.84518944389364 2.44037294190326  L 3.49646601532222 2.35980607413249  L 3.77909545921586 1.8531083002103  L 4.06172490310951 2.35689401945321  L 4.7119774781433 2.43746088722397  L 4.24195244704822 2.83544190983176  Z M 14.3633640666967 2.83058852865405  L 14.4903424966201 3.39067401498423  L 13.9086992555205 3.1305302904837  L 13.3260320180261 3.39067401498423  L 13.4376501595313 2.83835396451104  L 12.9666010635421 2.44037294190326  L 13.6168536385759 2.35980607413249  L 13.8994830824696 1.8531083002103  L 14.1831365912573 2.35204057334385  L 14.8344131626859 2.43260750604627  L 14.3633640666967 2.83058852865405  Z M 11.2831124939162 4.83602457833859  L 11.40804293105 5.40387556545741  L 10.8253756935557 5.13596640509989  L 10.2519245606129 5.40387556545741  L 10.3543265290671 4.84379007912723  L 9.88327743307797 4.44580905651945  L 10.5345540730059 4.36427146056783  L 10.8171835168995 3.85369096871714  L 11.1110771951329 4.35650602471083  L 11.7541615899054 4.43804355573081  L 11.2831124939162 4.83602457833859  Z M 6.99861369265435 4.83602457833859  L 7.12661618747183 5.40387556545741  L 6.54497294637224 5.13596640509989  L 5.97152181342947 5.40387556545741  L 6.07392385038306 4.84379007912723  L 5.60287468589455 4.44580905651945  L 6.25312726092835 4.36427146056783  L 6.53575677332132 3.85369096871714  L 6.82760239026589 4.35650602471083  L 7.46966278864353 4.43804355573081  L 6.99861369265435 4.83602457833859  Z M 1.86110637223975 11  L 1.13302829022082 12.7082834550473  L 15.6884456782334 12.7082834550473  L 15.2071563442992 11  L 1.86110637223975 11  Z " fill-rule="nonzero" fill="#ffffff" stroke="none" transform="matrix(1 0 0 1 419 2855 )" />
  </g>
</svg>