<?xml version="1.0" encoding="utf-8"?>
<svg version="1.1" xmlns:xlink="http://www.w3.org/1999/xlink" width="108px" height="70px" xmlns="http://www.w3.org/2000/svg">
  <g transform="matrix(1 0 0 1 -407 -2844 )">
    <path d="M 107 65.6019781913775  L 106.921634654898 65.6019781913775  C 106.921646271037 65.6056286042412  106.921652079117 65.6092790328723  106.921652079117 65.6129294637646  C 106.921652079117 67.5373722059511  105.342082133814 69.0974412899125  103.393583860073 69.0974412899125  C 103.393578074876 69.0974412899125  103.393572288479 69.0974412898984  103.393566503282 69  L 3.52806836996398 69  C 1.57754719571328 69.0919529283373  -0.000563458460208091 67.5284265976317  0 65.6019781913775  L 0 4.38209264283211  C 0.00884977446035008 2.4620899602752  1.58405499172033 0.908554239270869  3.52806836996398 1  L 103.398606620389 1  C 104.333117045885 0.904629629694504  105.228461165796 1.27353170497064  105.887406697353 1.92800076410795  C 106.546198627771 2.58241983211399  106.915243717151 3.46822112189321  107 4.39105281107606  L 107 65.6019781913775  Z " fill-rule="nonzero" fill="#f7f7f7" stroke="none" transform="matrix(1 0 0 1 407 2844 )" />
  </g>
</svg>