<?xml version="1.0" encoding="utf-8"?>
<svg version="1.1" xmlns:xlink="http://www.w3.org/1999/xlink" width="84px" height="44px" xmlns="http://www.w3.org/2000/svg">
  <g transform="matrix(1 0 0 1 -417 -2858 )">
    <path d="M 29.9250945357729 1  L 29.9250945357729 5  L 83.0665197582334 5  L 83.0665197582334 1  L 29.9250945357729 1  Z M 29.9250945357729 12  L 29.9250945357729 16  L 83.0665197582334 16  L 83.0665197582334 12  L 29.9250945357729 12  Z M 0.832487379179812 39  L 0.832487379179812 43  L 23.824578573123 43  L 23.824578573123 39  L 0.832487379179812 39  Z M 28.1297625605047 39  L 28.1287590440379 43  L 83.0665197582334 43  L 83.0665197582334 39  L 28.1297625605047 39  Z M 19.2905875280757 13.6753878015773  L 19.2935981446057 13.7907052328076  C 19.2780386529434 14.9064095181262  18.8081956874133 15.9695260381332  17.9889969322398 16.7426342870663  C 17.1710819019724 17.5175133976229  16.0713183336804 17.9384888082478  14.9352265761514 17.9115784735016  L 6.02379667987382 17.9115784735016  C 4.88901629555212 17.9356916596529  3.79131799344334 17.5142442381754  2.97404045678234 16.7406630280757  C 2.15626861361716 15.9673945983192  1.68664635205532 14.9054870681144  1.66943924441641 13.7907052328076  L 1.66943924441641 13.7000282422713  C 1.7285718250578 11.3953880078174  3.67717987966585 9.57331950389867  6.02379667987382 9.6284359488959  L 14.9352265761514 9.62843594889591  C 17.2725004945142 9.5731541770578  19.2173771241123 11.3803114175871  19.2905875280757 13.6753878015773  Z " fill-rule="nonzero" fill="#cccccc" stroke="none" transform="matrix(1 0 0 1 417 2858 )" />
  </g>
</svg>