<?xml version="1.0" encoding="utf-8"?>
<svg version="1.1" xmlns:xlink="http://www.w3.org/1999/xlink" width="35px" height="35px" xmlns="http://www.w3.org/2000/svg">
  <g transform="matrix(1 0 0 1 -302 -5013 )">
    <path d="M 319.5 5013  C 329.3 5013  337 5020.7  337 5030.5  C 337 5040.3  329.3 5048  319.5 5048  C 309.7 5048  302 5040.3  302 5030.5  C 302 5020.7  309.7 5013  319.5 5013  Z " fill-rule="nonzero" fill="#ffffff" stroke="none" />
    <path d="M 319.5 5013.5  C 329.02 5013.5  336.5 5020.98  336.5 5030.5  C 336.5 5040.02  329.02 5047.5  319.5 5047.5  C 309.98 5047.5  302.5 5040.02  302.5 5030.5  C 302.5 5020.98  309.98 5013.5  319.5 5013.5  Z " stroke-width="1" stroke="#278948" fill="none" />
  </g>
</svg>