<?xml version="1.0" encoding="utf-8"?>
<svg version="1.1" xmlns:xlink="http://www.w3.org/1999/xlink" width="28px" height="57px" xmlns="http://www.w3.org/2000/svg">
  <g transform="matrix(1 0 0 1 -454 -5174 )">
    <path d="M 21.564140625 0.63390625  L 22.72015625 1.206953125  C 22.72015625 1.206953125  27.666171875 3.3984375  27.666171875 5.93171875  L 27.666171875 13  L 15.78375 13  C 15.78375 12.76765625  14.4165625 5.92171875  17.30171875 3.770390625  C 20.186875 1.6190625  21.564140625 0.63390625  21.564140625 0.63390625  Z M 19.272109375 38.96515625  C 19.2665996946538 43.354515534556  15.709671838476 46.9114084445457  11.3203125 46.916875  L 8.30453125 46.916875  C 3.91682399969629 46.9113570599712  0.362809030346213 43.3528669699561  0.362812500000004 38.96515625  L 0.362812500000004 32  L 19.272109375 32  L 19.272109375 38.96515625  Z M 17.251484375 34  L 2.36328125 34  L 2.36328125 38.96515625  C 2.36327667979052 42.2425040417435  5.01718802846278 44.9008548891155  8.29453125 44.906328125  L 11.3103125 44.906328125  C 14.5892303217337 44.9007801379497  17.2459363879497 42.2440740717337  17.251484375 38.96515625  L 17.251484375 34  Z M 9.571171875 48.73640625  C 12.4693292469832 48.73640625  14.81875 51.0858270030168  14.81875 53.983984375  L 14.81875 56  L 4.33359375 56  L 4.33359375000001 53.983984375  C 4.33358841241841 51.0897581979254  6.67687291050203 48.7419646947664  9.57109375 48.73640625  Z " fill-rule="nonzero" fill="#278948" stroke="none" transform="matrix(1 0 0 1 454 5174 )" />
  </g>
</svg>