<?xml version="1.0" encoding="utf-8"?>
<svg version="1.1" xmlns:xlink="http://www.w3.org/1999/xlink" width="22px" height="34px" xmlns="http://www.w3.org/2000/svg">
  <g transform="matrix(1 0 0 1 -453 -5203 )">
    <path d="M 20.26203125 23.84796875  L 20.272109375 30  L 1.3528125 30  L 1.3528125 23.84796875  C 1.3528556464336 19.4619396161381  4.9084239911381 15.9063712714336  9.294453125 15.906328125  L 12.3103125 15.906328125  C 16.6979927566979 15.9063246009456  20.2564702396743 19.4602920173551  20.26203125 23.84796875  Z M 3.37328125000001 23.848046875  L 3.36328125 28  L 18.261484375 28  L 18.261484375 23.848046875  C 18.2559249983317 20.5707341948006  15.5975517700929 17.9169053138118  12.320234375 17.916953125  L 9.30445312500001 17.916953125  C 6.03107078037654 17.9224580887654  3.37882933082259 20.574664603172  3.37328125000001 23.848046875  Z M 0.538515625000002 3  L 0.538437500000001 1  L 21.08625 1  L 21.08625 3  L 0.538515625000002 3  Z M 0.307265624999999 33  L 0.307187499999998 31  L 20.855078125 31  L 20.855078125 33  L 0.307265624999999 33  Z " fill-rule="nonzero" fill="#278948" stroke="none" transform="matrix(1 0 0 1 453 5203 )" />
  </g>
</svg>