<?xml version="1.0" encoding="utf-8"?>
<svg version="1.1" xmlns:xlink="http://www.w3.org/1999/xlink" width="59px" height="80px" xmlns="http://www.w3.org/2000/svg">
  <g transform="matrix(1 0 0 1 -418 -5172 )">
    <path d="M 52 11.058125  L 52 26.8309375  L 50 26.8309375  L 50 11.058125  C 50.7637784790831 7.11820998134981  52.888552791615 3.48070548522484  56.32765625 1.55828125  L 57.52390625 0.894843750000001  L 58.529140625 2.6540625  L 57.332890625 3.3175  C 54.5214680558488 4.87750756151643  52.7807497013113 7.84290318001635  52 11.058125  Z M 8.95898437499999 17  L 8.958984375 15  L 42.424609375 15  L 42.424609375 17  L 8.95898437499999 17  Z M 8.958984375 31  L 8.958984375 29  L 28.953984375 29  L 28.953984375 31  L 8.958984375 31  Z M 8.958984375 45  L 8.958984375 43  L 25.696875 43  L 25.696875 45  L 8.958984375 45  Z M 0.333749999999998 75.08421875  C 0.333749999999998 77.7991297678791  13.1429532628488 80  28.94390625 80  C 44.7448592371512 80  57.5540625 77.7991297678791  57.5540625 75.08421875  C 57.5540625 72.3693077321208  44.7448592371512 70.1684375  28.94390625 70.1684375  C 13.1429532628488 70.1684375  0.333749999999998 72.3693077321208  0.333749999999998 75.08421875  Z " fill-rule="nonzero" fill="#278948" stroke="none" transform="matrix(1 0 0 1 418 5172 )" />
  </g>
</svg>