<?xml version="1.0" encoding="utf-8"?>
<svg version="1.1" xmlns:xlink="http://www.w3.org/1999/xlink" width="66px" height="64px" xmlns="http://www.w3.org/2000/svg">
  <g transform="matrix(1 0 0 1 -417 -5172 )">
    <path d="M 30.8990625 61  L 30.89890625 63  L 5.54578125 63  C 2.66266190516089 63.4074102759157  0.328389052859939 61.0685934526226  1 58.18546875  L 1 11.64125  C 0.328435129305428 5.21595466956789  5.53423829026202 0.00567574453196779  11.95953125 0  L 55.18640625 0  C 55.2031574370166 7.55751967634528E-05  55.2199087940139 3.52376197293417E-05  55.2366601752969 3.52376197293417E-05  C 60.999622098043 3.52376197293417E-05  65.6714258002969 4.67183893987364  65.6714258002969 10.4348008626197  C 65.6714258002969 10.4415339131447  65.6714192835283 10.4482669620899  65.67140625 10.455  L 65.67140625 17  L 53.206015625 17  L 53.206015625 15  L 63.660859375 15  L 63.660859375 10.455  C 63.6608593750021 5.79133759885596  59.8802188871085 2.01069711096229  55.2165625000021 2.01069711096229  C 55.2132031241044 2.01069711096229  55.2098437485052 2.01069911564188  55.206484375 2  L 11.9796875 2  C 6.65928107544287 2.01070017262636  2.34466746624871 6.32076840281569  3 11.641171875  L 3 58.18546875  C 2.33901088116538 59.9582323173723  3.77318249738926 61.3969110505932  5.5459375 61  L 30.8990625 61  Z " fill-rule="nonzero" fill="#278948" stroke="none" transform="matrix(1 0 0 1 417 5172 )" />
  </g>
</svg>