<svg t="1716948815524" class="icon" viewBox="0 0 1024 1024" version="1.1" xmlns="http://www.w3.org/2000/svg" p-id="14921" width="200" height="200"><path d="M341.717333 420.864a42.645333 42.645333 0 0 1 3.178667 85.162667l-3.2 0.106666h-85.184a42.666667 42.666667 0 0 0-42.56 39.488l-0.106667 3.2V826.666667a42.666667 42.666667 0 0 0 39.466667 42.538666l3.2 0.128h511.424a42.666667 42.666667 0 0 0 42.56-39.466666l0.106667-3.2V548.821333a42.666667 42.666667 0 0 0-42.666667-42.666666h-84.906667l-3.178666-0.128a42.645333 42.645333 0 0 1 0-85.034667l3.2-0.128H768a128 128 0 0 1 128 128v277.333333a128 128 0 0 1-128 128H256a128 128 0 0 1-128-128v-277.333333a128 128 0 0 1 128-128h85.717333z m175.104-339.136c9.045333 0.362667 18.005333 3.584 25.386667 9.685333l3.072 2.773334 175.573333 175.573333a42.688 42.688 0 0 1-57.664 62.869333l-2.730666-2.496-102.698667-102.698666 0.021333 472.490666c0 22.506667-17.408 40.938667-39.509333 42.56l-3.2 0.128a42.688 42.688 0 0 1-42.56-39.509333l-0.128-3.2V227.456l-108.842667 108.885333a42.688 42.688 0 0 1-60.373333-60.373333l181.738667-181.76c7.893333-7.893333 18.112-12.053333 28.458666-12.458667h3.456z" fill="#ffffff" p-id="14922"></path></svg>