<svg t="1716949013144" class="icon" viewBox="0 0 1024 1024" version="1.1" xmlns="http://www.w3.org/2000/svg" p-id="25428" width="200" height="200"><path d="M512 725.333333a64 64 0 1 1 0 128 64 64 0 0 1 0-128z m-169.194667-116.778666c93.888-69.546667 224.981333-72.021333 330.965334-6.016 24.170667 15.04 33.066667 46.229333 19.84 69.632-13.184 23.466667-43.52 30.250667-67.669334 15.189333-70.528-43.904-158.058667-42.24-220.48 4.053333-21.482667 15.893333-52.864 10.24-70.144-12.629333-17.28-22.890667-13.909333-54.314667 7.466667-70.229333z m-154.88-136.170667c179.818667-144.533333 440.213333-146.133333 641.706667-5.610667 23.36 16.341333 30.72 48 16.384 70.741334-14.336 22.741333-44.949333 27.946667-68.309333 11.626666-164.736-114.88-377.898667-113.557333-524.906667 4.608-20.736 16.704-52.16 12.010667-70.08-10.453333-16.64-20.842667-15.808-49.749333 1.024-67.114667zM56.96 346.666667c240.533333-230.250667 625.450667-235.2 903.722667-11.392 22.336 17.898667 27.306667 49.792 11.2 71.168-16.064 21.354667-47.168 24.170667-69.461334 6.272-238.442667-191.765333-568.384-187.52-774.528 9.770666-19.264 18.432-50.730667 16.384-70.336-4.501333-18.197333-19.413333-19.776-48.341333-4.437333-67.136z" fill="#ffffff" p-id="25429"></path></svg>