<?xml version="1.0" encoding="utf-8"?>
<svg version="1.1" xmlns:xlink="http://www.w3.org/1999/xlink" width="13px" height="22px" xmlns="http://www.w3.org/2000/svg">
  <g transform="matrix(1 0 0 1 1664 -638 )">
    <path d="M 1.1125 10.1943749902344  L 10.4875 0.744374990234375  C 10.7223891578222 0.50627717728567  11.0428991179904 0.372242164113771  11.3773591081139 0.372242164113771  C 12.0677150507958 0.372242164113771  12.6273591178795 0.931886231197498  12.6273591178795 1.6222421738794  C 12.6273591178795 1.9160748538771  12.5238480918495 2.2005160522636  12.3349999902344 2.425625  L 12.2625000097656 2.50562500976562  L 3.7675 11.0675  L 12.2550000097656 19.4875000097656  C 12.7152672876306 19.9441304645658  12.7500048066053 20.6768751843321  12.3349999902344 21.1750000097656  L 12.2625000097656 21.2556250097656  C 11.8057029525385 21.715705313115  11.0729662932047 21.7501710702581  10.5750000097656 21.335  L 10.4943750097656 21.2624999902344  L 1.11937500976563 11.9624999902344  C 0.659294697653474 11.5057029408158  0.624828927771548 10.7729662811057  1.03999999023437 10.2749999902344  L 1.1125 10.1943749902344  Z " fill-rule="nonzero" fill="#ffffff" stroke="none" fill-opacity="0.498039215686275" transform="matrix(1 0 0 1 -1664 638 )" />
  </g>
</svg>