<?xml version="1.0" encoding="utf-8"?>
<svg version="1.1" xmlns:xlink="http://www.w3.org/1999/xlink" width="30px" height="28px" xmlns="http://www.w3.org/2000/svg">
  <g transform="matrix(1 0 0 1 -275 -816 )">
    <path d="M 28.8107416819853 14.0286978125  C 29.4009443244485 13.7870320564516  29.8731064108456 13.1828676310484  29.6370253676471 12.3370374495968  C 29.5189848460478 11.8537059022177  29.2829038028493 11.370374390121  28.8107416819853 11.0078757207661  C 26.0958095473346 7.98705362903226  19.8396616268382 3.39540405241936  16.7706078929228 1.22041214213709  C 15.7082431640625 0.49541483870968  14.2917568359375 0.49541483870968  13.2293921070772 1.22041214213709  C 10.1603384076287 3.39540405241936  4.02223097426471 7.98705362903226  1.30729883961397 10.8870428427419  C 1.07121779641544 11.2495414768145  0.717096197150736 11.4912072681452  0.599055675551471 11.9745387802419  C 0.1268935546875 13.0620347177419  0.599055675551471 14.0286978125  1.77946096047794 14.1495306905242  C 2.36966360294118 14.1495306905242  2.95986624540441 14.2703635685484  3.55006885340074 14.1495306905242  C 4.02223097426471 14.1495306905242  4.14027149586397 14.2703635685484  4.14027149586397 14.7536951159274  L 4.14027149586397 18.9828460584677  C 4.14027149586397 20.9161722127016  4.02223097426471 22.8494983316532  4.25831201746324 24.7828244858871  C 4.3763525390625 26.5953177268145  5.7928388671875 27.803646577621  7.56344679457721 27.803646577621  L 22.6726342830882 27.803646577621  C 23.3808774471507 27.803646577621  23.971080089614 27.5619808215726  24.5612826976103 27.1994821522178  C 25.6236474264706 26.3536519707661  25.9777690257353 25.2661559979839  25.9777690257353 23.9369942691532  L 25.9777690257353 14.6328622379032  C 25.9777690257353 14.1495306905242  26.0958095473346 14.0286978125  26.5679716681985 14.0286978125  C 27.276214832261 14.0286978125  27.9844579963235 14.1495306905242  28.8107416819853 14.0286978125  Z M 22.3185126838235 14.6328622379032  C 22.2004721622243 15.4786924193548  22.3185126838235 16.3245226008064  22.2004721622243 17.0495199042339  C 22.082431640625 17.5328514516129  21.8463505974265 17.8953500856855  21.4922289981618 18.0161829637097  C 20.3118237132353 18.4995145110887  19.721621105239 19.4661775705645  20.0757426700368 20.7953392993952  C 20.193783191636 21.2786708467742  20.0757426700368 21.5203366028226  19.721621105239 21.762002358871  C 19.1314184627757 22.24533390625  18.5412158203125 22.6078325403226  17.83297265625 22.9703312096774  C 17.4788510914522 23.2119969657258  17.1247294921875 23.0911640877016  16.7706078929228 22.8494983316532  C 15.5902026079963 21.8828352721774  14.8819594439338 21.8828352721774  13.583513671875 22.8494983316532  C 13.3474326286765 23.0911640877016  12.9933110294118 23.0911640877016  12.7572299862132 22.9703312096774  C 11.9309463005515 22.728665453629  11.3407436580882 22.24533390625  10.6325004940257 21.762002358871  C 10.2783789292279 21.5203366028226  10.1603383731618 21.1578379334677  10.278378894761 20.7953392993952  C 10.5144599379596 19.4661775705645  10.0422978515625 18.4995145110887  8.74385204503677 18.0161829637097  C 8.38973048023897 17.8953500856855  8.15364940257353 17.6536843296371  8.03560888097427 17.1703527822581  C 7.917568359375 16.3245226008064  7.917568359375 15.4786924193548  8.03560888097427 14.6328622379032  C 8.15364940257353 14.1495306905242  8.38973044577206 13.9078649344758  8.74385204503677 13.7870320564516  C 9.92425732996324 13.3037005090726  10.3964194163603 12.3370374495968  10.1603383731618 11.1287085987903  C 10.0422978515625 10.6453770514113  10.1603383731618 10.2828784173387  10.6325004940257 10.0412126612903  C 11.222703136489 9.5578811139113  11.8129057789522 9.19538247983871  12.5211489430147 8.95371668850807  C 12.8752705078125 8.83288381048387  13.2293921070772 8.83288381048387  13.583513671875 9.07454956653226  C 14.6458784007353 10.0412126260081  15.5902026424632 10.0412126260081  16.6525673713235 9.07454956653226  C 16.8886484145221 8.83288381048387  17.2427700137868 8.71205093245969  17.5968916130515 8.83288381048387  C 18.4231752987132 9.19538244455646  19.1314184627757 9.5578811139113  19.8396616268382 10.1620455393145  C 19.9577021484375 10.2828784173387  20.193783191636 10.5245441733871  20.0757426700368 10.8870428427419  L 20.0757426700368 11.1287085987903  C 19.8396616268382 12.3370374495968  20.5479047909007 13.4245333870968  21.610269519761 13.7870320564516  C 22.082431640625 13.9078649344758  22.3185126838235 14.1495306905242  22.3185126838235 14.6328622379032  Z " fill-rule="nonzero" fill="#ffffff" stroke="none" transform="matrix(1 0 0 1 275 816 )" />
  </g>
</svg>