<?xml version="1.0" encoding="utf-8"?>
<svg version="1.1" xmlns:xlink="http://www.w3.org/1999/xlink" width="27px" height="28px" xmlns="http://www.w3.org/2000/svg">
  <g transform="matrix(1 0 0 1 -54 -816 )">
    <path d="M 6.3936 14  C 6.408 11.046  6.8544 8.19  7.6896 5.852  C 7.81567727810877 5.45637370330573  8.19204530730853 5.18666966360283  8.61805871998236 5.18666966360283  C 8.72343991929246 5.18666966360283  8.82811984832154 5.20333054889292  8.928 5.236  L 8.9424 5.236  C 9.4608 5.432  9.7344 5.97799999999999  9.5472 6.51  C 8.7984 8.638  8.3808 11.242  8.3808 14.014  C 8.3808 20.664  10.8144 25.942  13.3488 25.942  C 14.1408 25.942  14.9616 25.424  15.7392 24.332  C 15.9184379820829 24.0753036572929  16.2168335736532 23.9216051759467  16.5359548230028 23.9216051759467  C 16.7354563129962 23.9216051759467  16.9300333823866 23.9818446842122  17.0928 24.094  C 17.1072 24.094  17.1072 24.108  17.1216 24.108  C 17.5618211234525 24.4389321860429  17.6625859965726 25.045095875906  17.352 25.494  C 16.2432 27.034  14.8608 27.916  13.3488 27.916  C 9.288 27.916  6.3936 21.616  6.3936 14  Z M 10.4544 18.284  C 11.2752 18.76  12.1104 19.166  12.96 19.516  C 13.7952 19.152  14.616 18.732  15.408 18.298  C 16.376285885774 17.75264483095  17.3180933693799 17.1640151536964  18.2304 16.534  C 18.3024 15.736  18.3312 14.896  18.3312 14  C 18.3312 13.09  18.288 12.208  18.2016 11.354  C 17.3088 10.836  16.3728 10.318  15.5376 9.842  C 14.7184356048334 9.37494789907282  13.8722286655306 8.95424842640803  13.0032 8.58199999999999  C 12.24 8.946  11.4336 9.36599999999999  10.584 9.842  C 8.2656 11.144  6.3216 12.656  4.896 14.14  C 6.3504 15.624  8.2656 17.066  10.4544 18.284  Z M 7.86240000000001 21.112  C 8.74080000000001 20.958  9.59040000000001 20.762  10.4256 20.482  C 10.0944 20.328  9.7776 20.146  9.4464 19.964  C 7.1856 18.69  5.184 17.192  3.6144 15.638  C 2.304 17.388  1.8288 18.998  2.4336 20.006  C 2.8368 20.692  3.7584 21.126  5.1696 21.224  C 5.70805018364825 21.2596069434322  6.11795693882133 21.7079424569027  6.0912 22.232  L 6.0912 22.26  C 6.03518703751494 22.8028833407179  5.54162253517176 23.2017233426114  4.9824 23.156  C 2.9808 23.016  1.4688 22.288  0.676799999999999 21  C -1.3536 17.598  2.808 11.998  9.5904 8.19  C 9.9216 8.02199999999999  10.224 7.83999999999999  10.5408 7.672  C 6.5952 6.42599999999999  3.3408 6.58  2.448 8.092  C 2.016 8.80599999999999  2.1168 9.88400000000001  2.8224 11.214  C 3.07059099036127 11.6785002002499  2.89147360155045 12.25068074784  2.4192 12.502  C 2.4048 12.502  2.4048 12.516  2.3904 12.516  C 1.88455881559438 12.7465890602493  1.28164939956405 12.5491450409645  1.0224 12.068  C 0.0431999999999984 10.206  -0.144000000000002 8.47000000000001  0.676799999999998 7.112  C 2.3472 4.29800000000001  7.4448 4.284  12.9744 6.49600000000001  C 14.2704 5.922  15.4944 5.488  16.6608 5.222  C 15.768 3.276  14.5872 2.1  13.392 2.1  C 12.5424 2.1  11.664 2.70199999999999  10.8432 3.934  C 10.6704947462145 4.20648680756867  10.3648235282693 4.37243371601263  10.0356129878738 4.37243371601263  C 9.84610920596084 4.37243371601263  9.66094884738659 4.31725138537681  9.504 4.214  C 9.4896 4.214  9.4896 4.2  9.4752 4.2  C 9.01703367972932 3.88372626431101  8.89641663439255 3.27270570569712  9.2016 2.81399999999999  C 10.296 1.078  11.7504 0.0840000000000032  13.3488 0.0840000000000032  C 16.704 0.0840000000000032  19.2672 4.41000000000001  20.0592 10.206  C 21.1536 10.878  22.2048 11.578  23.0688 12.306  C 24.5088 10.626  25.128 9.114  24.552 8.12  C 24.1776 7.49  23.3424 7.05600000000001  22.0752 6.93  C 21.5825066437873 6.88910295581506  21.2040029226796 6.48835593251867  21.2040029226796 6.007605804194  C 21.2040029226796 5.96962952934527  21.2064064902187 5.93168923621564  21.2112 5.894  L 21.2112 5.86600000000001  C 21.2903347244837 5.32292774553231  21.803588626841 4.94244264777791  22.3632 5.012  C 24.192 5.222  25.6032 5.922  26.3376 7.154  C 27.4176 8.96  26.4528 11.396  24.3072 13.846  C 24.1639050778514 14.0980835398157  23.9616655197475 14.313887946329  23.7168 14.476  C 22.7088 15.526  21.4992 16.576  20.1168 17.57  C 19.9875424310457 18.8118787585896  19.7417183798675 20.0396601035266  19.3824 21.238  C 21.9312 21.504  23.9328 21.112  24.552 20.062  C 24.9264 19.432  24.8976 18.508  24.3792 17.36  C 24.3218847173221 17.2367550709867  24.2922396886112 17.1030509498806  24.2922396886112 16.9677942066195  C 24.2922396886112 16.5934853864187  24.5178507525916 16.253912976726  24.8688 16.1  C 24.8832 16.1  24.8832 16.086  24.8976 16.086  C 25.4146443865376 15.8804324006973  26.0063202183859 16.1092914814152  26.2368 16.604  C 26.9856 18.256  27.0576 19.81  26.3376 21.042  C 24.6528 23.87  18.792 23.87  12.9744 21.602  C 11.4332880639957 22.2405098997188  9.82548481775203 22.7146160454872  8.17920000000001 23.016  C 7.86240000000001 21.756  7.74720000000001 21.126  7.86240000000001 21.112  Z M 16.416 19.964  C 16.1136 20.132  15.8112 20.3  15.5232 20.454  C 16.1568 20.65  16.8048 20.804  17.424 20.93  C 17.5968 20.356  17.7696 19.74  17.8992 19.096  C 17.4131062729324 19.3985420637813  16.9185180393919 19.6879855553625  16.416 19.964  Z M 16.5168 8.204  L 17.8272 8.932  C 17.6997720492141 8.29374790160583  17.5363250904915 7.66279456830163  17.3376 7.042  C 16.6817437499305 7.18464911987716  16.0369668019429 7.37177344143243  15.408 7.602  C 15.7824 7.79799999999999  16.1568 7.97999999999999  16.5168 8.204  Z M 21.744 13.734  C 21.2735798242733 13.3717508357547  20.7934128239554 13.0216290646896  20.304 12.684  C 20.3184 13.132  20.3328 13.58  20.3328 14.014  C 20.3328 14.35  20.3328 14.672  20.3184 14.98  C 20.8224 14.56  21.2976 14.154  21.744 13.734  Z M 13.3632 15.008  C 12.8135672416842 15.0051332532176  12.3695593290175 14.5711368477187  12.3695593290175 14.0367639763582  C 12.3695593290175 14.0338426063053  12.3695728861496 14.030921251119  12.3696 14.028  C 12.3696 13.482  12.816 13.048  13.3632 13.048  C 13.9199030278294 13.048  14.3712 13.4867609451658  14.3712 14.028  C 14.3712 14.5692390548342  13.9199030278294 15.008  13.3632 15.008  Z " fill-rule="nonzero" fill="#ffffff" stroke="none" transform="matrix(1 0 0 1 54 816 )" />
  </g>
</svg>