<?xml version="1.0" encoding="utf-8"?>
<svg version="1.1" xmlns:xlink="http://www.w3.org/1999/xlink" width="15px" height="15px" xmlns="http://www.w3.org/2000/svg">
  <g transform="matrix(1 0 0 1 -154 -69 )">
    <path d="M 13.89333984375 1.2891650390625  L 13.891669921875 1.28583984375  C 13.7931833502868 1.18988799019484  13.668505719637 1.12522503949355  13.53333984375 1.0999951171875  L 10.066669921875 0.82083984375  C 10.0608806888789 0.820695964400658  10.0550898917281 0.820624016397352  10.049298871097 0.820624016397352  C 9.66315798570505 0.820624016397352  9.350128949222 1.1336530528804  9.350128949222 1.51979393827235  C 9.350128949222 1.8771747119419  9.61964285798079 2.17702700761413  9.975 2.2150048828125  L 11.8000048828125 2.4008349609375  L 9.433330078125 4.8175048828125  C 8.77078433321844 4.25431430330291  7.99365054360983 3.84199758568671  7.1558349609375 3.6091552734375  C 6.78808941946036 3.52772158341575  6.41255891973791 3.48664037236923  6.03590492845828 3.48664037236923  C 3.58264225987897 3.48664037236923  1.46581196411313 5.20757529459421  0.9649951171875 7.6091748046875  C 0.29174627662157 10.4599462996747  2.03841515714344 13.321511461237  4.8816650390625 14.025849609375  C 5.26545156913177 14.1140659985437  5.65798321124745 14.1585986141369  6.05177786837292 14.1585986141369  C 8.51626435458629 14.1585986141369  10.6454444990041 12.4360014988176  11.16 10.025830078125  C 11.4815255702351 8.62082344061148  11.219954733916 7.14549268188152  10.4350048828125 5.93666015625  L 12.61833984375 3.6124951171875  L 12.526669921875 5.285830078125  C 12.50968185884 5.66453095107129  12.7912082958837 5.99066689865107  13.168330078125 6.0291650390625  C 13.5454586407026 6.04183318911343  13.8653859524529 5.75463937852903  13.89333984375 5.3783349609375  L 14.1683349609375 1.846669921875  C 14.1742236082581 1.62685520244119  14.0713392631908 1.41827504535851  13.89333984375 1.2891650390625  Z M 6.8833154296875 5.0966748046875  C 8.84923804184875 5.66108572557726  10.0432440357906 7.65046862829557  9.616669921875 9.650830078125  C 9.24407475241029 11.3399202275149  7.74705775921729 12.5427008648722  6.01736047556491 12.5427008648722  C 5.72630215973609 12.5427008648722  5.4362683025376 12.5082254487622  5.1533203125 12.4399951171875  C 3.14506737197228 11.9312422645406  1.9246297663884 9.8961935455933  2.421650390625 7.8850048828125  C 2.79267042349195 6.19640347139885  4.28865778277973 4.99342964009278  6.01753909490522 4.99342964009278  C 6.30920198602633 4.99342964009278  6.59983165939364 5.02808767734494  6.8833154296875 5.0966748046875  Z " fill-rule="nonzero" fill="#16a9fa" stroke="none" transform="matrix(1 0 0 1 154 69 )" />
  </g>
</svg>