<?xml version="1.0" encoding="utf-8"?>
<svg version="1.1" xmlns:xlink="http://www.w3.org/1999/xlink" width="34px" height="39px" xmlns="http://www.w3.org/2000/svg">
  <g transform="matrix(1 0 0 1 -23 -206 )">
    <path d="M 32.706504 16.7729946428571  L 31.607148 13.4662821428571  L 28.000632 2.61891964285714  C 27.581616 1.35908035714286  26.245212 0.685703571428571  25.014888 1.11463392857143  L 14.423412 4.80807321428571  L 11.305884 5.8953375  L 9.625128 9.39447321428571  L 1.125876 27.0875892857143  C 0.805362073763031 27.7549952405798  1.07378722168349 28.5621405947027  1.725432 28.8904339285714  L 20.8029 38.5028196428571  C 21.4546253487965 38.8311393752694  22.242834488821 38.5563500809559  22.563624 37.8889875  L 31.025952 20.2721303571429  L 32.706504 16.7729946428571  Z M 30.339084 16.6165071428571  L 20.98344 36.091575  L 3.479424 27.2724910714286  L 12.871788 7.7205375  L 25.72134 3.2394375  C 25.7617278392058 3.22446190350552  25.8063840080332 3.22741499427932  25.844556 3.24758571428571  C 25.904328 3.27767142857143  25.92024 3.32656071428572  25.925544 3.34264821428571  L 30.339084 16.6165071428571  Z " fill-rule="nonzero" fill="#000000" stroke="none" transform="matrix(1 0 0 1 23 206 )" />
  </g>
</svg>