<?xml version="1.0" encoding="utf-8"?>
<svg version="1.1" xmlns:xlink="http://www.w3.org/1999/xlink" width="17px" height="22px" xmlns="http://www.w3.org/2000/svg">
  <g transform="matrix(1 0 0 1 -33 -213 )">
    <path d="M 15.9099458333333 3.68850625  C 16.4760458333333 2.572075  16.0023833333333 1.22175625  14.8519083333333 0.6725125  C 13.7020708333333 0.1230625  12.3108333333333 0.582999999999999  11.7447333333333 1.69943125  C 11.1786333333333 2.8158625  11.6525083333333 4.16618125  12.8027708333333 4.715425  C 13.9530333333333 5.26466875  15.3442708333333 4.8049375  15.9099458333333 3.68850625  Z M 13.8272673442567 3.75731449416341  C 13.6595506134329 3.75731449416341  13.4940724810099 3.7199435808513  13.3435833333333 3.64808125  C 12.9689020156257 3.46924918254488  12.7315453155832 3.09923705089841  12.7315453155832 2.69398350784304  C 12.7315453155832 2.53112615475777  12.7700909024081 2.3704453800561  12.8442083333333 2.2243375  C 13.0285538864813 1.86075865087265  13.409767956983 1.63046449416341  13.8272673442567 1.63046449416341  C 14.4323781304088 1.63046449416341  14.9229173442567 2.1065760840746  14.9229173442567 2.69388949416341  C 14.9229173442567 3.28120290425223  14.4323781304088 3.75731449416341  13.8272673442567 3.75731449416341  Z M 7.21423333333333 17.79765625  L 11.3322708333333 19.76425  C 11.7783083333333 19.97730625  12.0290583333333 20.44631875  11.8254833333333 20.8483  C 11.6525083333333 21.189025  11.1063833333333 21.30266875  10.6603458333333 21.0896125  L 6.54230833333333 19.12384375  L 5.36123333333334 21.45385  C 5.18825833333333 21.7954  4.69440833333333 21.9335875  4.16995833333333 21.68299375  C 3.69757083333333 21.45735625  3.48315833333333 20.98050625  3.65613333333334 20.6391625  L 4.83720833333333 18.30915625  L 0.718958333333335 16.342975  C 0.272920833333334 16.12991875  0.0587208333333349 15.653275  0.252095833333335 15.27191875  C 0.435270833333336 14.91015625  0.945058333333334 14.80414375  1.39088333333333 15.01740625  L 5.50892083333333 16.9835875  L 6.52722083333333 14.9755375  L 2.40918333333333 13.00894375  C 1.96293333333333 12.79609375  1.72833333333333 12.3594625  1.94232083333333 11.9378875  C 2.11529583333333 11.59613125  2.62487083333333 11.490325  3.07090833333333 11.70338125  L 6.55973333333333 13.36905625  L 5.66425833333333 6.33056875  C 5.58074583333333 5.91662499999999  5.93158333333333 5.6101375  6.49534583333333 5.6546875  C 6.96008333333333 5.70191875  7.39740833333333 6.0605875  7.46477083333333 6.4417375  L 8.37639583333333 13.513225  L 14.6882833333333 9.86610624999999  C 15.0508083333333 9.66501249999999  15.6468708333333 9.7747375  15.9386333333333 10.163725  C 16.3134833333333 10.5172375  16.2408083333333 10.98150625  15.8780708333333 11.1826  L 15.8884833333333 11.16259375  L 9.57595833333333 14.80950625  L 13.0122958333333 16.450225  C 13.4583333333333 16.66286875  13.7086583333333 17.13188125  13.5154958333333 17.51365  C 13.3221208333333 17.8960375  12.7963958333333 17.96884375  12.3503583333333 17.7562  L 8.23232083333333 15.78960625  L 7.21423333333333 17.79765625  Z " fill-rule="nonzero" fill="#000000" stroke="none" transform="matrix(1 0 0 1 33 213 )" />
  </g>
</svg>