<?xml version="1.0" encoding="utf-8"?>
<svg version="1.1" xmlns:xlink="http://www.w3.org/1999/xlink" width="16px" height="16px" xmlns="http://www.w3.org/2000/svg">
  <g transform="matrix(1 0 0 1 -27 -345 )">
    <path d="M 15.32275 6.79575  C 15.449675 6.672025  15.49535 6.486975  15.4406 6.3184  C 15.385825 6.149825  15.240075 6.026975  15.0647 6.001475  L 10.475925 5.334725  L 8.423775 1.1766  C 8.345325 1.01765  8.183475 0.917025  8.0062 0.917025  C 7.82895 0.917025  7.667075 1.01765  7.588625 1.1766  L 5.53645 5.334725  L 0.947700000000002 6.0015  C 0.772300000000001 6.027  0.626575000000002 6.14985  0.571800000000001 6.318425  C 0.517025000000001 6.487  0.562700000000001 6.67205  0.689625000000001 6.795775  L 4.010075 10.03245  L 3.226225 14.60265  C 3.19625 14.77735  3.268075 14.953925  3.411475 15.0581  C 3.4926 15.117025  3.58865 15.14705  3.685225 15.14705  C 3.759325 15.14705  3.83375 15.129375  3.9019 15.093525  L 9.6529 12.06975  C 9.880525 11.9501  9.968025 11.668525  9.84835 11.4409  C 9.72865 11.21325  9.4471 11.1258  9.2195 11.24545  L 4.30365 13.83005  L 4.9694 9.94855  C 4.9953 9.7975  4.945225 9.643375  4.835475 9.5364  L 2.01535 6.78745  L 5.91265 6.22115  C 6.064325 6.199125  6.19545 6.103875  6.26325 5.966425  L 8.0062 2.43485  L 9.74915 5.966425  C 9.816975 6.103875  9.9481 6.199125  10.099725 6.22115  L 13.99705 6.78745  L 11.1769 9.536375  C 11.06715 9.643375  11.01705 9.7975  11.043 9.94855  L 11.708775 13.8301  L 10.15395 13.0127  C 9.92635 12.893075  9.644775 12.980575  9.525125 13.208175  C 9.405425 13.435775  9.49295 13.71735  9.720575 13.837  L 12.11055 15.0935  C 12.267375 15.175975  12.45755 15.16225  12.60095 15.05805  C 12.744325 14.95385  12.816125 14.777325  12.786175 14.6026  L 12.0023 10.0324  L 15.32275 6.79575  Z " fill-rule="nonzero" fill="#ffffff" stroke="none" transform="matrix(1 0 0 1 27 345 )" />
  </g>
</svg>