<?xml version="1.0" encoding="utf-8"?>
<svg version="1.1" xmlns:xlink="http://www.w3.org/1999/xlink" width="14px" height="14px" xmlns="http://www.w3.org/2000/svg">
  <g transform="matrix(1 0 0 1 -108 -157 )">
    <path d="M 12 6.16666666015625  C 12 9.416666640625  9.41666666015625 12  6.16666666015625 12  C 2.91666666015625 12  0.333333320312499 9.41666666015625  0.333333339843749 6.16666666015625  C 0.333333359374999 2.91666666015625  2.9166666796875 0.333333320312505  6.16666666015625 0.333333339843747  C 9.416666640625 0.333333359375004  12 2.91666667968749  12 6.16666666015625  Z M 2 6.16666666015625  C 2 8.49999998046874  3.83333333984375 10.3333333203125  6.16666666015625 10.3333333398437  C 8.5 10.3333333398437  10.3333333203125 8.5  10.3333333398437 6.16666666015625  C 10.333333359375 3.83333332031251  8.5 2  6.16666666015625 2  C 3.8333333203125 2  2 3.83333333984375  2 6.16666666015625  Z M 9.91666666015625 11.5  L 11.0833333398438 10.3333333398437  L 13.4166666601563 12.6666666601563  L 12.25 13.8333333398437  L 9.91666666015625 11.5  Z " fill-rule="nonzero" fill="#aaaaaa" stroke="none" transform="matrix(1 0 0 1 108 157 )" />
  </g>
</svg>