<?xml version="1.0" encoding="utf-8"?>
<svg version="1.1" xmlns:xlink="http://www.w3.org/1999/xlink" width="16px" height="16px" xmlns="http://www.w3.org/2000/svg">
  <g transform="matrix(1 0 0 1 -27 -395 )">
    <path d="M 10.8333333398438 4.66666666015625  L 3.16666666015625 4.66666666015625  C 2.89052428524085 4.66666666015625  2.66666666015625 4.44280903507165  2.66666666015625 4.16666666015625  C 2.66666666015625 3.89052428524085  2.89052428524085 3.66666666015625  3.16666666015625 3.66666666015625  L 10.8333333398438 3.66666666015625  C 11.1094757147591 3.66666666015625  11.3333333398438 3.89052428524085  11.3333333398438 4.16666666015625  C 11.3333333398438 4.44280903507165  11.1094757147591 4.66666666015625  10.8333333398438 4.66666666015625  Z M 13.3233333398438 13.3153333398437  C 14.1769999670236 12.5592122047248  14.6659964289518 11.473712852166  14.6666666601563 10.3333333398438  C 14.6666666601563 9.15333333984375  14.1493333203125 8.09333333984375  13.3333333398438 7.36  C 13.0349544563718 7.09166777051417  12.6978343200301 6.86984272080134  12.3333333398437 6.702  C 11.8110604000865 6.45977853592811  11.2423747773777 6.33398527938913  10.6666666601562 6.33333333984375  C 9.17012499772455 6.33200793548945  7.79880875423568 7.16864728114136  7.11533333984375 8.5  C 6.82044775065473 9.06611047869719  6.6665354087734 9.69502419250589  6.66666666015625 10.3333333398438  C 6.66666666015625 10.6793333398438  6.7153333203125 11.0133333398438  6.798 11.3333333398438  C 7.2535956293519 13.0978520101041  8.84428095830244 14.3313663978903  10.6666666601562 14.3333333398438  C 11.0053333203125 14.3333333398438  11.332 14.2866666796875  11.6453333398438 14.2073333398437  C 12.2686282251125 14.0497063683283  12.8445551942039 13.7436736885694  13.324 13.3153333398438  Z M 1.66666666015625 13.116  C 1.66666666015625 13.7873333398437  2.2133333203125 14.3333333398438  2.884 14.3333333398438  L 7.67933333984375 14.3333333398438  C 6.98500665359275 13.8150109017293  6.43638630127065 13.1260778571455  6.08666666015625 12.3333333398438  L 3.16666666015625 12.3333333398438  C 2.89052428524085 12.3333333398438  2.66666666015625 12.1094757147591  2.66666666015625 11.8333333398438  C 2.66666666015625 11.5571909649284  2.89052428524085 11.3333333398438  3.16666666015625 11.3333333398438  L 5.76733333984375 11.3333333398438  C 5.57298680652546 10.3845366610792  5.66058787365508 9.39960402574493  6.01933333984375 8.5  L 3.16666666015625 8.5  C 2.89052428524085 8.5  2.66666666015625 8.27614237491539  2.66666666015625 8  C 2.66666666015625 7.7238576250846  2.89052428524085 7.5  3.16666666015625 7.5  L 6.552 7.5  C 7.4833499919238 6.14457194548204  9.02210074004931 5.33430948205142  10.6666666601562 5.33333333984375  C 11.2513333203125 5.33333333984375  11.8113333203125 5.44  12.3333333398438 5.62533333984375  L 12.3333333398438 2.884  C 12.332598507615 2.21198997376657  11.7880100262334 1.66740149238504  11.116 1.66666666015625  L 2.884 1.66666666015625  C 2.21198997376657 1.66740149238504  1.66740149238504 2.21198997376657  1.66666666015625 2.884  L 1.66666666015625 13.116  Z M 13.3333333398438 6.11133333984375  C 14.7333333398438 6.998  15.6666666796875 8.55733333984375  15.6666666601563 10.3333333398438  C 15.6666666601563 12.6266666796875  14.1133333203125 14.5593333398438  12.004 15.1466666601562  C 11.732 15.266  11.432 15.3333333203125  11.116 15.3333333398438  L 2.884 15.3333333398437  C 1.66000976241701 15.3318639658059  0.668136034194125 14.339990237583  0.66666666015625 13.116  L 0.666666660156249 2.884  C 0.668136034194125 1.66000976241701  1.66000976241701 0.668136034194125  2.884 0.66666666015625  L 11.116 0.666666660156249  C 12.339990237583 0.668136034194125  13.3318639658059 1.66000976241701  13.3333333398438 2.884  L 13.3333333398438 6.11066666015625  Z M 11 10  L 12.5 10  C 12.7761423749154 10  13 10.2238576250846  13 10.5  C 13 10.7761423749154  12.7761423749154 11  12.5 11  L 10.5 11  C 10.2238576250846 11  10 10.7761423749154  10 10.5  L 10 8.16666666015625  C 10 7.89052428524085  10.2238576250846 7.66666666015625  10.5 7.66666666015625  C 10.7761423749154 7.66666666015625  11 7.89052428524085  11 8.16666666015625  L 11 10  Z " fill-rule="nonzero" fill="#ffffff" stroke="none" transform="matrix(1 0 0 1 27 395 )" />
  </g>
</svg>