<?xml version="1.0" encoding="utf-8"?>
<svg version="1.1" xmlns:xlink="http://www.w3.org/1999/xlink" width="16px" height="18px" xmlns="http://www.w3.org/2000/svg">
  <g transform="matrix(1 0 0 1 -27 -467 )">
    <path d="M 15.6890970703125 14.7960965625  C 15.6890770507813 13.1252667382813  14.3297341601562 11.765943828125  12.6589043164063 11.765943828125  C 11.8134398242187 11.765943828125  11.0478519726563 12.1141491992187  10.497695078125 12.6745056640625  L 5.72847541015625 9.92284125  C 5.85603005859375 9.6020747265625  5.926247109375 9.2524894140625  5.926247109375 8.886824765625  C 5.926247109375 8.5789576953125  5.87634919921875 8.28255013671875  5.78453306640625 8.005101796875  L 10.2662648242187 5.01450740234375  C 10.7710836132812 5.49528720703125  11.4538749414062 5.7908148046875  12.2044034179687 5.7908148046875  C 13.75515828125 5.7908148046875  15.0167852929687 4.52918779296875  15.0167852929687 2.9784329296875  C 15.0167852929687 1.42743806640625  13.75515828125 0.165611074218749  12.2044034179687 0.165611074218749  C 10.6536485546875 0.165611074218749  9.39202154296875 1.4274380859375  9.39202154296875 2.9784329296875  C 9.39202154296875 3.28745994140625  9.44227943359375 3.5849474609375  9.534775546875 3.86331576171875  L 5.0543837109375 6.85301017578125  C 4.549324921875 6.3709104296875  3.8655536328125 6.07444287109375  3.11386521484375 6.07444287109375  C 1.5631103515625 6.07444287109375  0.301483339843749 7.3360698828125  0.301483339843749 8.88682474609375  C 0.301483339843749 10.437579609375  1.5631103515625 11.6992066210938  3.11386521484375 11.6992066210938  C 3.8042362109375 11.6992066210938  4.43716962890625 11.4490171289063  4.9271290625 11.03473453125  L 9.78432505859375 13.8371768359375  C 9.683489296875 14.1386841796875  9.6287316015625 14.461090625  9.6287316015625 14.7960965625  C 9.6287316015625 16.4669463867187  10.9880745117188 17.826289296875  12.6589243359375 17.826289296875  C 14.3297541601562 17.826289296875  15.6890970703125 16.4669463867187  15.6890970703125 14.7960965625  Z M 10.926037109375 2.97841291015625  C 10.926037109375 2.27328251953125  11.4994930273437 1.69960662109375  12.2043834179687 1.69960662109375  C 12.9092738085937 1.69960662109375  13.4827297265625 2.27328251953125  13.4827297265625 2.97841291015625  C 13.4827297265625 3.68330330078125  12.9092738085937 4.25677921875  12.2043834179687 4.25677921875  C 11.4994930273437 4.25677921875  10.926037109375 3.68330330078125  10.926037109375 2.97841291015625  Z M 4.3922115234375 8.88682474609375  C 4.3922115234375 9.59171513671875  3.81873560546875 10.1651710546875  3.11384521484375 10.1651710546875  C 2.40895482421875 10.1651710546875  1.83547890625 9.59171513671875  1.83547890625 8.88682474609375  C 1.83547890625 8.18193435546875  2.40895482421875 7.6084584375  3.11384521484375 7.6084584375  C 3.81873560546875 7.6084584375  4.3922115234375 8.18193435546875  4.3922115234375 8.88682474609375  Z M 14.1739806835938 14.7960965625  C 14.1739806835938 15.631541484375  13.4943292382812 16.3111929296875  12.6589043164063 16.3111929296875  C 11.8234793945312 16.3111929296875  11.1438079492187 15.631541484375  11.1438079492187 14.7960965625  C 11.1438079492187 13.960691640625  11.8234593945312 13.2810201953125  12.6589043164063 13.2810201953125  C 13.4943092382813 13.2810201953125  14.1739806835938 13.960671640625  14.1739806835938 14.7960965625  Z " fill-rule="nonzero" fill="#ffffff" stroke="none" transform="matrix(1 0 0 1 27 467 )" />
  </g>
</svg>