<?xml version="1.0" encoding="utf-8"?>
<svg version="1.1" xmlns:xlink="http://www.w3.org/1999/xlink" width="18px" height="18px" xmlns="http://www.w3.org/2000/svg">
  <g transform="matrix(1 0 0 1 -26 -567 )">
    <path d="M 17.29154296875 11.3659765625  C 17.2057421875 11.04599609375  17.0005078125 10.7785546875  16.7136328125 10.61291015625  L 15.78125 10.07462890625  C 15.837148657255 9.71914841758413  15.8652286463443 9.35984863161087  15.865234375 9  C 15.865234375 8.6585546875  15.839765625 8.3168359375  15.7893359375 7.97931640625  L 16.71361328125 7.44568359375  C 17.0005078125 7.2800390625  17.20572265625 7.01259765625  17.291484375 6.69259765625  C 17.3772265625 6.37259765625  17.33322265625 6.038359375  17.167578125 5.751484375  L 15.917578125 3.58638671875  C 15.69669921875 3.20384765625  15.28490234375 2.96619140625  14.84294921875 2.96619140625  C 14.6254289832197 2.96635619234258  14.4117733154095 3.02369520120321  14.2233984375 3.1324609375  L 13.3121484375 3.65857421875  C 12.760234375 3.2133203125  12.1386328125 2.853125  11.48048828125 2.5971484375  L 11.48048828125 1.548828125  C 11.48048828125 0.8649609375  10.92412109375 0.30859375  10.24025390625 0.30859375  L 7.74025390625 0.30859375  C 7.05638671875 0.30859375  6.50001953125 0.8649609375  6.50001953125 1.548828125  L 6.50001953125 2.6049609375  C 5.8459375 2.86166015625  5.22810546875 3.2215234375  4.6798046875 3.66517578125  L 3.757109375 3.1324609375  C 3.56874129530892 3.02369594714935  3.355092099712 2.96635686763747  3.137578125 2.96619140625  C 2.6955859375 2.96619140625  2.28380859375 3.20384765625  2.0629296875 3.58640625  L 0.8129296875 5.75146484375  C 0.47099609375 6.34369140625  0.67462890625 7.1037109375  1.266875 7.4456640625  L 2.20916015625 7.9896875  C 2.15969572713612 8.32418620890724  2.13484383937505 8.66186376343949  2.1348046875 9  C 2.1348046875 9.35650390625  2.1624609375 9.71287109375  2.21720703125 10.06423828125  L 1.266875 10.6129296875  C 0.67462890625 10.9548828125  0.47099609375 11.7148828125  0.8129296875 12.307109375  L 2.0629296875 14.4721875  C 2.28380859375 14.85474609375  2.69560546875 15.09240234375  3.13759765625 15.09240234375  C 3.35510937400131 15.0922391574248  3.56875752252282 15.0349070943663  3.75712890625 14.92615234375  L 4.72197265625 14.3691015625  C 5.25935546875 14.79681640625  5.86259765625 15.14490234375  6.5000390625 15.3950390625  L 6.5000390625 16.509765625  C 6.5000390625 17.1936328125  7.05640625 17.75  7.7402734375 17.75  L 10.2402734375 17.75  C 10.924140625 17.75  11.4805078125 17.1936328125  11.4805078125 16.509765625  L 11.4805078125 15.4028515625  C 12.12197265625 15.15341796875  12.7291796875 14.80521484375  13.2700390625 14.376015625  L 14.22341796875 14.92677734375  C 14.411796875 15.03552734375  14.62599609375 15.09375  14.8429296875 15.09375  C 15.28494140625 15.09375  15.69673828125 14.85541015625  15.91763671875 14.47287109375  L 17.1676171875 12.307109375  C 17.33326171875 12.02021484375  17.377265625 11.6859765625  17.29154296875 11.3659765625  Z M 16.10294921875 11.684453125  C 16.10400390625 11.68837890625  16.10306640625 11.69  16.101953125 11.691875  L 14.85197265625 13.85693359375  C 14.85126953125 13.8581640625  14.8491015625 13.86193359375  14.84296875 13.86193359375  C 14.84185546875 13.86193359375  14.8408984375 13.86181640625  14.83861328125 13.8605078125  L 13.510078125 13.09349609375  C 13.2783324451111 12.9596572426796  12.9866448907668 12.991007061044  12.7886328125 13.17103515625  C 12.18484375 13.71984375  11.45630859375 14.13775390625  10.6818359375 14.379609375  C 10.4249341325918 14.4598380872083  10.24999904466 14.69773714754  10.25 14.966875  L 10.25 16.509765625  C 10.25 16.51513671875  10.24560546875 16.51953125  10.240234375 16.51953125  L 7.740234375 16.51953125  C 7.73484096923993 16.51953125  7.73046875 16.5151590307601  7.73046875 16.509765625  L 7.73046875 14.9605078125  C 7.73046427800074 14.6921194088958  7.55648600729844 14.4547024211585  7.30056640625 14.37384765625  C 6.5298046875 14.1303515625  5.8050390625 13.71224609375  5.204609375 13.16474609375  C 5.09127024160971 13.0613254617355  4.94335453253508 13.004024844406  4.789921875 13.0041015625  C 4.68196974057293 13.0040767156859  4.5759189574323 13.0325127692773  4.4824609375 13.08654296875  L 3.14185546875 13.86052734375  C 3.1394140625 13.86193359375  3.13849609375 13.86193359375  3.1375390625 13.86193359375  C 3.1313671875 13.86193359375  3.12919921875 13.85818359375  3.12849609375 13.856953125  L 1.87849609375 11.691875  C 1.87580929655272 11.6871969074327  1.87740648131816 11.6812271020799  1.8820703125 11.678515625  L 3.21052734375 10.91154296875  C 3.44371210164247 10.7769068304947  3.56225375558706 10.5062789250707  3.50310546875 10.24359375  C 3.32276845090923 9.44052192049139  3.31928957871915 8.60783186892455  3.49291015625 7.80328125  C 3.54938742844658 7.54199916672494  3.43068269982048 7.2741459207693  3.1991796875 7.14048828125  L 1.88205078125 6.3800390625  C 1.87737773388439 6.37733463965995  1.87577825787227 6.37135627030319  1.8784765625 6.3666796875  L 3.1284765625 4.20162109375  C 3.12919921875 4.200390625  3.13134765625 4.196640625  3.13751953125 4.196640625  C 3.13859375 4.196640625  3.13955078125 4.19673828125  3.14181640625 4.198046875  L 4.44359375 4.94962890625  C 4.67732132328731 5.08457572986993  4.97171017516711 5.05143906536628  5.16958984375 4.86791015625  C 5.77779296875 4.30380859375  6.51466796875 3.8744140625  7.300546875 3.6261328125  C 7.55647030470369 3.54528338566818  7.73045099021851 3.30786310259114  7.73044921875 3.03947265625  L 7.73044921875 1.548828125  C 7.73044921875 1.54343471923993  7.73482143798993 1.5390625  7.74021484375 1.5390625  L 10.24021484375 1.5390625  C 10.2456082495101 1.5390625  10.24998046875 1.54343471923993  10.24998046875 1.548828125  L 10.24998046875 3.0331640625  C 10.24997951341 3.30230191496004  10.4249146013418 3.54020097529167  10.68181640625 3.6204296875  C 11.47130859375 3.866953125  12.21193359375 4.296171875  12.8236328125 4.861640625  C 13.0215360016493 5.04459756266707  13.3154832856358 5.07744132108303  13.54888671875 4.94267578125  L 14.83859375 4.19806640625  C 14.8410546875 4.196640625  14.8419921875 4.196640625  14.84291015625 4.196640625  C 14.8490625 4.196640625  14.85123046875 4.20041015625  14.85193359375 4.20162109375  L 16.101953125 6.36671875  C 16.103046875 6.36859375  16.103984375 6.37021484375  16.1029296875 6.3741015625  C 16.101875 6.37802734375  16.100234375 6.37896484375  16.09837890625 6.3800390625  L 14.79859375 7.13046875  C 14.5667593049316 7.26431775915629  14.4480884329155 7.53271909855963  14.50509765625 7.79427734375  C 14.5912742012778 8.19039119908612  14.634745145061 8.59460091464948  14.634765625 8.99998046875  C 14.634765625 9.4221875  14.58771484375 9.8436328125  14.494921875 10.25259765625  C 14.4352466870998 10.5155607383589  14.5537617412819 10.7867384470095  14.78728515625 10.9215625  L 16.09841796875 11.67853515625  C 16.10029296875 11.67962890625  16.1019140625 11.68056640625  16.10294921875 11.684453125  Z " fill-rule="nonzero" fill="#ffffff" stroke="none" transform="matrix(1 0 0 1 26 567 )" />
  </g>
</svg>