<?xml version="1.0" encoding="utf-8"?>
<svg version="1.1" xmlns:xlink="http://www.w3.org/1999/xlink" width="8px" height="5px" xmlns="http://www.w3.org/2000/svg">
  <g transform="matrix(1 0 0 1 -334 -301 )">
    <path d="M 0.852160000000001 0.779  L 4 4.058  L 7.14784 0.779  C 7.20410833048436 0.720387155745461  7.28042456389693 0.687458802715546  7.36 0.687458802715546  C 7.5257072674759 0.687458802715546  7.66003954939308 0.827388263045939  7.66003954939308 1  C 7.66003954939308 1.08289107927403  7.62842833048436 1.16238715574546  7.57216 1.221  L 4.24576 4.686  C 4.10987429978052 4.8274634750539  3.88964570021948 4.8274634750539  3.75376 4.686  L 0.427840000000001 1.221  C 0.371571669515643 1.16238715574546  0.339960450606925 1.08289107927403  0.339960450606925 1  C 0.339960450606925 0.827388263045939  0.474292732524102 0.687458802715546  0.640000000000001 0.687458802715546  C 0.719575436103071 0.687458802715546  0.795891669515643 0.720387155745461  0.852160000000001 0.779  Z " fill-rule="nonzero" fill="#ffffff" stroke="none" transform="matrix(1 0 0 1 334 301 )" />
  </g>
</svg>