<?xml version="1.0" encoding="utf-8"?>
<svg version="1.1" xmlns:xlink="http://www.w3.org/1999/xlink" width="16px" height="18px" xmlns="http://www.w3.org/2000/svg">
  <g transform="matrix(1 0 0 1 -27 -294 )">
    <path d="M 4.56666666015625 9.14583333984375  L 6.76166666015625 11.7066666601563  L 11.44375 6.63416666015625  C 11.5227412356319 6.54687857013479  11.6349710231643 6.49707892994767  11.7526945380891 6.49707892994767  C 11.9828131802563 6.49707892994767  12.1693611982453 6.6836269479367  12.1693611982453 6.91374559010392  C 12.1693611982453 7.01981502657781  12.128908686075 7.12189156266852  12.05625 7.19916666015625  L 7.05625 12.6158333398438  C 6.9773687051722 12.7013351431353  6.86633499224435 12.7499673276856  6.75000435552375 12.7499673276856  C 6.62842402200352 12.7499673276856  6.51290833190462 12.696864085338  6.43375 12.6045833398438  L 3.93375 9.68791666015625  C 3.86712190767184 9.61192117719955  3.83038702698917 9.51429894211443  3.83038702698917 9.41323155807234  C 3.83038702698917 9.18311291590511  4.01693504497819 8.99656489791609  4.24705368714542 8.99656489791609  C 4.37022344400682 8.99656489791609  4.48708192869855 9.05105986129307  4.56625 9.14541666015625  Z M 3.83333333984375 1.49875  C 3.83333333984375 1.03916666015625  4.2075 0.66666666015625  4.6625 0.66666666015625  L 11.3375 0.66666666015625  C 11.795 0.66666666015625  12.1666666601563 1.04083333984375  12.1666666601563 1.49916666015625  L 12.1666666601563 2.33416666015625  C 12.1664420025659 2.79255076122955  11.7958795105665 3.16460295461046  11.3375 3.16666666015625  L 4.6625 3.16666666015625  C 4.205 3.16666666015625  3.83333333984375 2.7925  3.83333333984375 2.33416666015625  L 3.83333333984375 1.49916666015625  Z M 4.66666666015625 1.5  L 4.66666666015625 2.33333333984375  L 11.3333333398437 2.33333333984375  L 11.3333333398437 1.5  L 4.66666666015625 1.5  Z M 1.335 1.5  L 2.6125 1.5  L 2.6125 2.33333333984375  C 2.6125 2.33333333984375  1.33333333984375 2.33375  1.33333333984375 2.33541666015625  L 1.33333333984375 16.5  C 1.33333333984375 16.5  14.6666666796875 16.5008333398438  14.6666666601562 16.4979166601562  C 14.6666666601563 16.4979166601562  14.6666666601563 2.33333333984375  14.6641666601563 2.33333333984375  L 13.4279166601562 2.33333333984375  L 13.4279166601562 1.5  L 14.6641666601563 1.5  C 15.1258333398438 1.5  15.5 1.8725  15.5 2.33541666015625  L 15.5 16.4979166601562  C 15.5 16.9591666601562  15.1291666601563 17.3333333398437  14.6666666601563 17  L 1.33333333984375 17  C 1.33333247156729 17.3333333398465  1.33333160393321 17.3333333398478  1.33333073565675 17.3333333398478  C 0.873093440535484 17.3333333398478  0.499997395812998 16.9602372951253  0.499997395812998 16.5000000000041  C 0.499997395812998 16.4993055525743  0.499998263876011 16.4986111054158  0.5 16.4979166601562  L 0.5 2.33541666015625  C 0.5 1.87416666015625  0.87333333984375 1.5  1.335 1.5  Z " fill-rule="nonzero" fill="#ffffff" stroke="none" transform="matrix(1 0 0 1 27 294 )" />
  </g>
</svg>