<?xml version="1.0" encoding="utf-8"?>
<svg version="1.1" xmlns:xlink="http://www.w3.org/1999/xlink" width="16px" height="16px" xmlns="http://www.w3.org/2000/svg">
  <g transform="matrix(1 0 0 1 -309 -600 )">
    <path d="M 3.138671875 4.54340277777778  C 3.138671875 2.15625  5.314453125 0.222222222222222  8 0.222222222222222  L 12.861328125 0.222222222222222  L 12.861328125 4.54340277777778  C 12.861328125 6.93055555555556  10.685546875 8.86458333333333  8 8.86458333333333  C 5.314453125 8.86458333333333  3.138671875 6.93055555555556  3.138671875 4.54340277777778  Z M 0.22265625 12.7534722222222  C 0.220703125 11.0833333333333  1.744140625 9.72916666666667  3.625 9.72916666666667  L 12.375 9.72916666666667  C 14.25390625 9.72916666666667  15.77734375 11.0833333333333  15.77734375 12.7534722222222  L 15.77734375 13.1857638888889  C 15.77734375 14.6180555555556  14.470703125 15.7777777777778  12.861328125 15.7777777777778  L 3.138671875 15.7777777777778  C 1.52734375 15.7777777777778  0.22265625 14.6163194444444  0.22265625 13.1857638888889  L 0.22265625 12.7534722222222  Z " fill-rule="nonzero" fill="#ffffff" stroke="none" fill-opacity="0.498039215686275" transform="matrix(1 0 0 1 309 600 )" />
  </g>
</svg>