<?xml version="1.0" encoding="utf-8"?>
<svg version="1.1" xmlns:xlink="http://www.w3.org/1999/xlink" width="18px" height="16px" xmlns="http://www.w3.org/2000/svg">
  <g transform="matrix(1 0 0 1 -322 -19 )">
    <path d="M 17.3333333398437 11.3333333398437  C 17.3333333398437 12.5989583398437  16.3072916796875 13.625  15.0416666601563 13.625  L 9.695 13.625  L 8.00625 15.5014583398438  C 7.88771720532307 15.6331614441175  7.71885507555066 15.7083662879445  7.54166666992187 15.7083662879445  C 7.19647050454406 15.7083662879445  6.91663372182115 15.4285295052216  6.91663372182115 15.0833333398437  C 6.91663372182115 14.928924088793  6.97378899625469 14.7799798319163  7.07708333984375 14.6652083398437  L 8.95208333984375 12.581875  C 9.07061955223009 12.4501806641511  9.23948248596525 12.3749874363939  9.41666666015625 12.375  L 15.0416666601562 12.375  C 15.616963290499 12.375  16.0833333398437 11.9086299506552  16.0833333398437 11.3333333398437  L 16.0833333398437 2.58333333984375  C 16.0833333398437 2.00803670950103  15.616963290499 1.54166666015625  15.0416666796875 1.54166666015625  L 2.95833333984375 1.54166666015625  C 2.38303670950103 1.54166666015625  1.91666666015625 2.00803670950103  1.91666666015625 2.5833333203125  L 1.91666666015625 11.3333333398437  C 1.91666666015625 11.9086299506552  2.38303670950103 12.375  2.9583333203125 12.375  L 5.66666666015625 12.375  C 6.0118446288005 12.375  6.29166666015625 12.6548220313558  6.29166666015625 13  C 6.29166666015625 13.3451779686442  6.0118446288005 13.625  5.66666666015625 13.625  L 2.95833333984375 13.625  C 1.69270833984375 13.625  0.6666666796875 12.5989583398438  0.66666666015625 11.3333333398437  L 0.66666666015625 2.58333333984375  C 0.66666666015625 1.31770833984375  1.6927083203125 0.2916666796875  2.95833333984375 0.29166666015625  L 15.0416666601562 0.29166666015625  C 16.3072916601562 0.29166666015625  17.3333333203125 1.3177083203125  17.3333333398437 2.58333333984375  L 17.3333333398437 11.3333333398437  Z M 5.25 4.66666666015625  L 12.75 4.66666666015625  C 13.0951779686442 4.66666666015625  13.375 4.946488691512  13.375 5.29166666015625  C 13.375 5.6368446288005  13.0951779686442 5.91666666015625  12.75 5.91666666015625  L 5.25 5.91666666015625  C 4.90482203135575 5.91666666015625  4.625 5.6368446288005  4.625 5.29166666015625  C 4.625 4.946488691512  4.90482203135575 4.66666666015625  5.25 4.66666666015625  Z M 5.25 8  L 9 8  C 9.34517796864425 8  9.625 8.27982203135575  9.625 8.625  C 9.625 8.97017796864425  9.34517796864425 9.25  9 9.25  L 5.25 9.25  C 4.90482203135575 9.25  4.625 8.97017796864425  4.625 8.625  C 4.625 8.27982203135575  4.90482203135575 8  5.25 8  Z " fill-rule="nonzero" fill="#ffffff" stroke="none" transform="matrix(1 0 0 1 322 19 )" />
  </g>
</svg>