<?xml version="1.0" encoding="utf-8"?>
<svg version="1.1" xmlns:xlink="http://www.w3.org/1999/xlink" width="12px" height="12px" xmlns="http://www.w3.org/2000/svg">
  <g transform="matrix(1 0 0 1 -318 -259 )">
    <path d="M 0.444444440104167 5.44944444010417  C 0.444444440104167 5.2165277734375  0.6309722265625 5.0277777734375  0.861111106770833 5.0277777734375  C 1.09124998697917 5.0277777734375  1.2777777734375 5.21666666666667  1.2777777734375 5.44944444010417  L 1.2777777734375 9.56944444010417  C 1.2777777734375 9.64708333333333  1.34 9.71  1.41666666666667 9.71  C 1.43961243809988 9.71001296101313  1.46219664140959 9.70428335302959  1.48236110677083 9.69333333333333  L 3.49861110677083 8.59930555989583  C 3.79579125406164 8.43779329476263  4.15594945441557 8.44417383932107  4.4472222265625 8.61611110677083  L 7.73555555989583 10.5541666666667  C 7.77586746757478 10.5779959322659  7.8255355605796 10.5796707241823  7.86736110677083 10.5586111067708  L 10.6451388932292 9.16194444010417  C 10.6923611197917 9.13819444010417  10.7222222265625 9.08944444010417  10.7222222265625 9.03611110677083  L 10.7222222265625 5.44944444010417  C 10.7222222265625 5.2165277734375  10.90875 5.0277777734375  11.1388888932292 5.0277777734375  C 11.3690277864583 5.0277777734375  11.5555555598958 5.21666666666667  11.5555555598958 5.44944444010417  L 11.5555555598958 9.03611110677083  C 11.5555555598958 9.40958333333333  11.3465277864583 9.75083333333333  11.0159722265625 9.91708333333333  L 8.23819444010416 11.31375  C 7.94563704255728 11.4610078404529  7.59826484675087 11.4493380587588  7.31625 11.2827777734375  L 4.0277777734375 9.345  C 3.98617264164438 9.32039932084231  3.93470615926794 9.31945014385246  3.8922222265625 9.3425  L 1.8759722265625 10.4366666666667  C 1.73493411206988 10.5132218565931  1.5770034624922 10.5533251646762  1.4165277734375 10.5533333333333  C 0.879583333333333 10.5533333333333  0.444305546875 10.1130555598958  0.444305559895834 9.56958333333333  L 0.444305559895834 5.44944444010417  Z M 6 0.583333333333333  C 7.7625 0.583333333333333  9.19444444010417 1.98916666666667  9.19444444010417 3.7272222265625  C 9.19444444010417 4.87055555989583  8.24166666666667 6.23916666666667  6.36819444010417 7.89763889322917  C 6.15798357237332 8.08368279056604  5.84201642762668 8.08368279056604  5.63180555989583 7.89763889322917  C 3.75819444010417 6.23930555989583  2.80555555989583 4.87055555989583  2.80555555989583 3.7272222265625  C 2.80555555989583 1.98916666666667  4.2375 0.583333333333333  6 0.583333333333333  Z M 6 1.41666666666667  C 4.69430555989583 1.41666666666667  3.63888889322917 2.4527777734375  3.63888889322917 3.7272222265625  C 3.63888889322917 4.528194453125  4.41638889322917 5.67458333333333  6 7.10875  C 7.58361110677083 5.67458333333333  8.36111110677084 4.52819444010417  8.36111110677084 3.7272222265625  C 8.36111110677084 2.45291666666667  7.30569444010417 1.41666666666667  6 1.41666666666667  Z M 6 4.61111110677083  C 5.53976270847434 4.61111110677083  5.16666666666667 4.23801506496316  5.16666666666667 3.7777777734375  C 5.16666666666667 3.31754048191184  5.53976270847434 2.94444444010417  6 2.94444444010417  C 6.46023729152566 2.94444444010417  6.83333333333333 3.31754048191184  6.83333333333333 3.7777777734375  C 6.83333333333333 4.23801506496316  6.46023729152566 4.61111110677083  6 4.61111110677083  Z " fill-rule="nonzero" fill="#000000" stroke="none" transform="matrix(1 0 0 1 318 259 )" />
  </g>
</svg>