<?xml version="1.0" encoding="utf-8"?>
<svg version="1.1" xmlns:xlink="http://www.w3.org/1999/xlink" width="10px" height="10px" xmlns="http://www.w3.org/2000/svg">
  <g transform="matrix(1 0 0 1 -249 -36 )">
    <path d="M 9.5 4.49999999648438  C 9.5 6.98524999844902  5.62499999609375 9.99999998828125  5 10  C 4.37500000390625 10  0.5 6.98524999844902  0.5 4.49999999648438  C 0.5 2.01474999451973  2.51474999609375 0  5 0  C 7.48525000390625 0  9.5 2.01474999451973  9.5 4.49999999648438  Z M 3.62500000390625 4.49999999648438  C 3.62500000390625 5.25937499589111  4.240625 5.87499999150391  5 5.87500000322266  C 5.759375 5.87500000322266  6.37499999609375 5.25937500760986  6.37499999609375 4.49999999648438  C 6.37499999609375 3.74062498535889  5.759375 3.12500000146484  5 3.12500000146484  C 4.240625 3.12500000146484  3.62500000390625 3.74062499707764  3.62500000390625 4.49999999648438  Z " fill-rule="nonzero" fill="#ffffff" stroke="none" fill-opacity="0.498039215686275" transform="matrix(1 0 0 1 249 36 )" />
  </g>
</svg>