<?xml version="1.0" encoding="utf-8"?>
<svg version="1.1" xmlns:xlink="http://www.w3.org/1999/xlink" width="11px" height="11px" xmlns="http://www.w3.org/2000/svg">
  <g transform="matrix(1 0 0 1 -328 -27 )">
    <path d="M 10.140625 9.484375  L 6.15625 5.5  L 10.140625 1.515625  C 10.328125 1.328125  10.328125 1.046875  10.140625 0.859375  C 9.953125 0.671875  9.671875 0.671875  9.484375 0.859375  L 5.5 4.84375  L 1.515625 0.859375  C 1.328125 0.671875  1.046875 0.671875  0.859375 0.859375  C 0.671875 1.046875  0.671875 1.328125  0.859375 1.515625  L 4.84375 5.5  L 0.859375 9.484375  C 0.671875 9.671875  0.671875 9.953125  0.859375 10.140625  C 1.046875 10.328125  1.328125 10.328125  1.515625 10.140625  L 5.5 6.15625  L 9.484375 10.140625  C 9.671875 10.328125  9.953125 10.328125  10.140625 10.140625  C 10.328125 9.953125  10.328125 9.671875  10.140625 9.484375  Z " fill-rule="nonzero" fill="#333333" stroke="none" transform="matrix(1 0 0 1 328 27 )" />
  </g>
</svg>