<?xml version="1.0" encoding="utf-8"?>
<svg version="1.1" xmlns:xlink="http://www.w3.org/1999/xlink" width="13px" height="13px" xmlns="http://www.w3.org/2000/svg">
  <g transform="matrix(1 0 0 1 -30 -158 )">
    <path d="M 11.1818203125 10.9091015625  L 10.636359375 10.9091015625  L 10.636359375 4.5272578125  C 10.636359375 4.11816796875  10.336359375 3.76362890625  9.92726953125 3.709078125  L 6.8181796875 3.27271875  L 6.8181796875 1.3636171875  C 6.8181796875 0.899988281250001  6.463640625 0.545437500000001  6 0.545437500000001  L 1.85455078125 1.036359375  C 1.5818203125 1.063640625  1.363640625 1.30908984375  1.363640625 1.5818203125  L 1.363640625 10.90908984375  L 0.8181796875 10.90908984375  C 0.6818203125 10.90908984375  0.54544921875 11.04544921875  0.54544921875 11.1818203125  C 0.54544921875 11.31819140625  0.6818203125 11.45455078125  0.8181796875 11.45455078125  L 11.1818203125 11.45455078125  C 11.3181796875 11.45455078125  11.45455078125 11.3181796875  11.45455078125 11.1818203125  C 11.45455078125 11.0454609375  11.3181796875 10.90908984375  11.1818203125 10.90908984375  Z M 3.27273046875 10.9091015625  L 4.90908984375 10.9091015625  L 3.27273046875 10.9091015625  Z M 5.45455078125 10.909078125  L 2.72726953125 10.9091015625  L 1.9091015625 10.9091015625  L 1.9091015625 1.9908984375  C 1.9091015625 1.77273046875  2.0727421875 1.6091015625  2.26365234375 1.5818203125  L 6 1.0908984375  C 6.163640625 1.0908984375  6.27273046875 1.19998828125  6.27273046875 1.36362890625  L 6.27273046875 10.909078125  L 5.45455078125 10.909078125  Z M 7.9091015625 10.909078125  L 9 10.909078125  L 7.9091015625 10.909078125  Z M 9.54544921875 10.9091015625  L 7.363640625 10.909078125  L 6.8181796875 10.909078125  L 6.8181796875 3.818203125  L 9.763640625 4.3091015625  C 9.9545390625 4.33637109375  10.09091015625 4.50001171875  10.09091015625 4.690921875  L 10.09091015625 10.9091015625  L 9.54544921875 10.9091015625  Z " fill-rule="nonzero" fill="#000000" stroke="none" transform="matrix(1 0 0 1 30 158 )" />
  </g>
</svg>