<?xml version="1.0" encoding="utf-8"?>
<svg version="1.1" xmlns:xlink="http://www.w3.org/1999/xlink" width="8px" height="5px" xmlns="http://www.w3.org/2000/svg">
  <g transform="matrix(1 0 0 1 -32 -161 )">
    <path d="M 3.45455078125 1.09091015625  C 3.45455078125 0.95455078125  3.3181796875 0.8181796875  3.1818203125 0.8181796875  L 1 0.8181796875  C 0.863640625 0.8181796875  0.72726953125 0.95455078125  0.72726953125 1.09091015625  C 0.72726953125 1.22726953125  0.863640625 1.363640625  1 1.363640625  L 3.1818203125 1.363640625  C 3.3181796875 1.363640625  3.45455078125 1.22726953125  3.45455078125 1.09091015625  Z M 3.45455078125 2.72726953125  C 3.45455078125 2.5908984375  3.3181796875 2.45455078125  3.1818203125 2.45455078125  L 1 2.45455078125  C 0.863640625 2.45455078125  0.72726953125 2.59091015625  0.72726953125 2.72726953125  C 0.72726953125 2.86362890625  0.863640625 3  1 3  L 3.1818203125 3  C 3.3181796875 3  3.45455078125 2.863640625  3.45455078125 2.72726953125  Z M 7.27273046875 2.72726953125  C 7.27273046875 2.5908984375  7.136359375 2.45455078125  7 2.45455078125  L 5.9091015625 2.45455078125  C 5.77273046875 2.45455078125  5.636359375 2.59091015625  5.636359375 2.72726953125  C 5.636359375 2.86362890625  5.77273046875 3  5.9091015625 3  L 7 3  C 7.136359375 3  7.27273046875 2.863640625  7.27273046875 2.72726953125  Z M 3.45455078125 4.36362890625  C 3.45455078125 4.22726953125  3.3181796875 4.0908984375  3.1818203125 4.0908984375  L 1 4.0908984375  C 0.863640625 4.0908984375  0.72726953125 4.2272578125  0.72726953125 4.36362890625  C 0.72726953125 4.5  0.863640625 4.63634765625  1 4.63634765625  L 3.1818203125 4.63634765625  C 3.3181796875 4.63634765625  3.45455078125 4.49998828125  3.45455078125 4.36362890625  Z M 7.27273046875 4.36362890625  C 7.27273046875 4.22726953125  7.136359375 4.0908984375  7 4.0908984375  L 5.9091015625 4.0908984375  C 5.77273046875 4.0908984375  5.636359375 4.2272578125  5.636359375 4.36362890625  C 5.636359375 4.5  5.77273046875 4.63634765625  5.90908984375 4.63634765625  L 7 4.63634765625  C 7.136359375 4.63634765625  7.27273046875 4.49998828125  7.27273046875 4.36362890625  Z " fill-rule="nonzero" fill="#000000" stroke="none" transform="matrix(1 0 0 1 32 161 )" />
  </g>
</svg>