<?xml version="1.0" encoding="utf-8"?>
<svg version="1.1" xmlns:xlink="http://www.w3.org/1999/xlink" width="12px" height="10px" xmlns="http://www.w3.org/2000/svg">
  <g transform="matrix(1 0 0 1 -30 -208 )">
    <path d="M 10.7031046257303 8.09309  C 10.7031046257303 7.91857330918535  10.5629002827016 7.77643305452747  10.3884 7.77404  L 1.44924 7.77404  C 1.44778162761587 7.77402000023505  1.44632313524394 7.77401  1.44486462573029 7.77401  C 1.26864160775428 7.77401  1.12578462573029 7.91686698202399  1.12578462573029 8.09309  C 1.12578462573029 8.26931301797601  1.26864160775428 8.41217  1.44486462573029 8.41217  C 1.44632313524394 8.41217  1.44778162761587 8.41215999976494  1.44924 8.41214  L 10.3884 8.41214  C 10.5629002827016 8.40974694547253  10.7031046257303 8.26760669081465  10.7031046257303 8.09309  Z M 9.43056 9.0503  L 2.40708 9.0503  C 2.23087355056649 9.0503  2.08803 9.19314355056649  2.08803 9.36935  C 2.08803 9.54555644943352  2.23087355056649 9.6884  2.40708 9.6884  L 9.43056 9.6884  C 9.60676644943351 9.6884  9.74961 9.54555644943352  9.74961 9.36935  C 9.74961 9.19314355056649  9.60676644943351 9.0503  9.43056 9.0503  Z M 11.13672 6.74288  L 10.37502 5.72816  C 10.40172 5.73554  10.42908 5.74088  10.45644 5.74088  C 10.5597117675901 5.74107788550063  10.656703154748 5.69131922502276  10.71678 5.60732  C 11.126351584188 5.04054718258136  11.3464023426322 4.3588707133939  11.34552 3.6596  C 11.34258 1.80986  9.84306 0.311539999999999  7.99338 0.310099999999999  C 6.66192532517282 0.317246787836756  5.4592651424632 1.10697734366693  4.92354 2.32592  L 4.43694 1.6451  C 4.3772415189468 1.56094115864397  4.28045807325145 1.51093418544379  4.17727561728897 1.51093418544379  C 4.06727509632229 1.51093418544379  3.96506795329804 1.5677198909184  3.90696 1.66112  L 0.7143 6.76484  C 0.682575512120013 6.81558455843665  0.665753615795442 6.87422475505792  0.665753615795442 6.93407  C 0.665753615795442 7.1103793865873  0.808680613412699 7.25330638420456  0.98499 7.25330638420456  C 1.0950448221644 7.25330638420456  1.1973389759927 7.19661874838111  1.25568 7.1033  L 4.19532 2.4041  L 7.1103 6.48182  C 7.16778150408171 6.56212571453336  7.25928264606392 6.61120118167207  7.35798 6.61466  C 7.45806 6.6227  7.55154 6.5759  7.6149 6.50048  L 8.9526 4.89656  L 10.62606 7.12532  C 10.685947976651 7.20923059124814  10.7826865163412 7.25903723421661  10.8857765598516 7.25903723421661  C 11.0619995778276 7.25903723421661  11.2048565598516 7.11618025219262  11.2048565598516 6.93995723421661  C 11.2048565598516 6.86848788142136  11.1808624795667 6.7990877386725  11.13672 6.74288  Z M 10.19754 5.23496  C 10.1607622190515 5.28945235480017  10.1418482306419 5.3540367054672  10.14342 5.41976  L 9.22098 4.1909  C 9.16041181029947 4.11077963910503  9.06578372126774 4.0636905182306  8.96534579101457 4.0636905182306  C 8.87091382910488 4.0636905182306  8.78128911323389 4.10534028456897  8.7204 4.17752  L 7.38936 5.77412  L 5.30406 2.85728  C 5.37683214510314 2.82326392761141  5.43372350368038 2.76254830097272  5.46294 2.68772  C 5.86926320352878 1.64321585600478  6.87270106423679 0.953169423897744  7.99344 0.947540000000001  C 9.49074 0.948680000000001  10.70466 2.16164  10.70682 3.65894  C 10.70682 4.22696  10.53054 4.77164  10.19754 5.23496  Z " fill-rule="nonzero" fill="#000000" stroke="none" transform="matrix(1 0 0 1 30 208 )" />
  </g>
</svg>