<?xml version="1.0" encoding="utf-8"?>
<svg version="1.1" xmlns:xlink="http://www.w3.org/1999/xlink" width="10px" height="12px" xmlns="http://www.w3.org/2000/svg">
  <g transform="matrix(1 0 0 1 -31 -273 )">
    <path d="M 9.8876941484375 11.018189671875  C 9.8876941484375 10.8890971875  9.78302910546875 10.78443215625  9.6539366328125 10.78443215625  L 7.02164931640625 10.78443215625  C 7.01922695703125 10.77640959375  7.01642085546875 10.7684350078125  7.0130871171875 10.7605563398437  L 6.416947296875 9.3527708203125  C 6.850717203125 9.178433015625  7.24734828125 8.930788921875  7.59159887890625 8.62528405078125  L 7.8435600546875 8.8772332265625  L 7.56107957421875 9.15971370703125  C 7.46978547265625 9.25100780859375  7.46978547265625 9.39902344921875  7.56107957421875 9.4903175625  C 7.606732625 9.535946625  7.66654806640625 9.55877914453125  7.7263755078125 9.55877914453125  C 7.78620294921875 9.55877914453125  7.846018390625 9.535946625  7.89167144140625 9.4903175625  L 8.78720026953125 8.594788734375  C 8.87849437109375 8.5034946328125  8.87849437109375 8.3554789921875  8.78720026953125 8.26418487890625  C 8.6958821796875 8.172914765625  8.54791450390625 8.172914765625  8.4565964140625 8.26418487890625  L 8.174139921875 8.54664137109375  L 7.922898265625 8.29539971484375  C 8.51598016015625 7.63265705859375  8.8936880703125 6.773439609375  8.94470148828125 5.82868414453125  L 9.2798982265625 5.82868414453125  L 9.2798982265625 6.22608270703125  C 9.2798982265625 6.3551871796875  9.3845632578125 6.45984022265625  9.5136557421875 6.45984022265625  C 9.6427482265625 6.45984022265625  9.7474132578125 6.3551871796875  9.7474132578125 6.22608270703125  L 9.7474132578125 4.96375857421875  C 9.7474132578125 4.8346541015625  9.6427482265625 4.73000105859375  9.5136557421875 4.73000105859375  C 9.3845632578125 4.73000105859375  9.2798982265625 4.8346541015625  9.2798982265625 4.96375857421875  L 9.2798982265625 5.36115713671875  L 8.9429266953125 5.36115713671875  C 8.8863370625 4.43173927734375  8.51362975390625 3.58643239453125  7.9311007109375 2.93149644140625  L 8.17412793359375 2.68846921875  L 8.45658442578125 2.97091372265625  C 8.5022374765625 3.0165547734375  8.56205291796875 3.0393753046875  8.621880359375 3.0393753046875  C 8.6817197890625 3.0393753046875  8.7415232421875 3.01654278515625  8.78717629296875 2.970901734375  C 8.87847039453125 2.8796076328125  8.87847039453125 2.73160398046875  8.78717629296875 2.64030987890625  L 7.89164746484375 1.74480502734375  C 7.800329375 1.65351092578125  7.65236169921875 1.6535229140625  7.561043609375 1.744817015625  C 7.4697495078125 1.8361111171875  7.4697495078125 1.98411476953125  7.561043609375 2.07540887109375  L 7.8435121015625 2.35786536328125  L 7.60082064453125 2.6005568203125  C 6.9396728984375 2.01020907421875  6.0835493515625 1.63398815625  5.14229551953125 1.58205137109375  L 5.14229551953125 1.2469505625  L 5.53969408203125 1.2469505625  C 5.6687865546875 1.2469505625  5.77345159765625 1.14229751953125  5.77345159765625 1.013193046875  C 5.77345159765625 0.88408857421875  5.66878656640625 0.77943553125  5.53969408203125 0.77943553125  L 4.2774059140625 0.77943554296875  C 4.14831344140625 0.77943554296875  4.0436483984375 0.8840885859375  4.0436483984375 1.01319305859375  C 4.0436483984375 1.14229753125  4.1483134296875 1.24695057421875  4.2774059140625 1.24695057421875  L 4.6748044765625 1.24695057421875  L 4.6748044765625 1.5832145859375  C 3.7391028828125 1.6390727109375  2.88841165625 2.015293640625  2.23105334375 2.60356679296875  L 1.98535192578125 2.357865375  L 2.26780841796875 2.0754088828125  C 2.35910251953125 1.98411478125  2.35910251953125 1.836099140625  2.26780841796875 1.74480502734375  C 2.176490328125 1.65351092578125  2.02852265234375 1.65351092578125  1.9372045625 1.74480502734375  L 1.0416997109375 2.64030987890625  C 0.950405609375 2.73160398046875  0.950405609375 2.87961962109375  1.0416997109375 2.970913734375  C 1.08734076171875 3.01655478515625  1.14718019140625 3.03937531640625  1.20699564453125 3.03937531640625  C 1.26681109765625 3.03937531640625  1.326650515625 3.01655478515625  1.372291578125 2.970913734375  L 1.6547480703125 2.6884572421875  L 1.9011570078125 2.9348661796875  C 1.3203428046875 3.58933444921875  0.9488346875 4.43333422265625  0.892340984375 5.36115716015625  L 0.5372137578125 5.36115716015625  L 0.5372137578125 4.96375859765625  C 0.5372137578125 4.834654125  0.43256071484375 4.73000108203125  0.3034562421875 4.73000108203125  C 0.17435176953125 4.73000108203125  0.0696987265625002 4.834654125  0.0696987265625002 4.96375859765625  L 0.0696987265625002 6.22607075390625  C 0.0696987265625002 6.3551752265625  0.17435176953125 6.45982826953125  0.3034562421875 6.45982826953125  C 0.43256071484375 6.45982826953125  0.5372137578125 6.3551752265625  0.5372137578125 6.22607075390625  L 0.53721376953125 5.82868415625  L 0.89057819140625 5.82868415625  C 0.94149566796875 6.77183269921875  1.318028375 7.6297430390625  1.90938344140625 8.29201801171875  L 1.6547600703125 8.5466413828125  L 1.372303578125 8.264184890625  C 1.2810094765625 8.17293875390625  1.1329938359375 8.17291477734375  1.04171172265625 8.264184890625  C 0.95041762109375 8.3554789921875  0.9504056328125 8.5034946328125  1.041699734375 8.59478874609375  L 1.9372045859375 9.49031757421875  C 1.98285763671875 9.53594663671875  2.042673078125 9.55877915625  2.10250051953125 9.55877915625  C 2.1623159609375 9.55877915625  2.22214340234375 9.53594663671875  2.267796453125 9.49031757421875  C 2.3590905546875 9.39902347265625  2.3590905546875 9.25100783203125  2.267796453125 9.15971371875  L 1.9853399609375 8.8772452265625  L 2.24029909765625 8.62228608984375  C 2.60282530859375 8.9447234765625  3.0236439921875 9.20284846875  3.4848273125 9.37872123046875  L 2.9260301796875 10.7642738203125  C 2.92334399609375 10.770941296875  2.92110151953125 10.7776807265625  2.91906290234375 10.78443215625  L 0.30345625390625 10.78443215625  C 0.17435178125 10.78443215625  0.06969873828125 10.8890971875  0.06969873828125 11.018189671875  C 0.06969873828125 11.14728215625  0.17435178125 11.2519471875  0.30345625390625 11.2519471875  L 9.6539366328125 11.2519471875  C 9.78302910546875 11.2519471875  9.8876941484375 11.14728215625  9.8876941484375 11.018189671875  Z M 7.26059931640625 8.2942844765625  C 6.95890785546875 8.5578417890625  6.612618640625 8.77148893359375  6.23463491796875 8.9222627109375  L 5.2543955234375 6.60742416796875  C 5.33104755078125 6.58149774609375  5.40381421484375 6.54712904296875  5.47147234765625 6.50516949609375  L 7.26059931640625 8.2942844765625  Z M 4.91765181640625 6.19538353125  C 4.59421912109375 6.19538353125  4.33108152734375 5.93225792578125  4.33108152734375 5.60882521875  C 4.33108152734375 5.28538051171875  4.59421912109375 5.02225491796875  4.917651828125 5.02225491796875  C 5.21752051953125 5.02225491796875  5.46538047265625 5.24849353125  5.499929046875 5.53922441015625  C 5.49555201171875 5.55710429296875  5.4929737578125 5.57569168359375  5.4929737578125 5.594926640625  C 5.4929737578125 5.61699167578125  5.49623554296875 5.63825326171875  5.5019556640625 5.65848355078125  C 5.47664083203125 5.95874797265625  5.22435587890625 6.19538353125  4.91765181640625 6.19538353125  Z M 4.67480448828125 7.678166203125  L 4.67480448828125 9.16598546484375  C 4.48153152734375 9.15292632421875  4.292395765625 9.12458953125  4.10870430078125 9.08181453515625  L 4.67480448828125 7.678166203125  Z M 5.14233149609375 9.1671366796875  L 5.14233149609375 7.54171072265625  L 5.7881296484375 9.06676473046875  C 5.57949510546875 9.11930110546875  5.36361747265625 9.1533100546875  5.14233149609375 9.1671366796875  Z M 8.47627508984375 5.82868415625  C 8.42638891015625 6.64462294921875  8.10092957421875 7.3871954765625  7.5919106796875 7.964400140625  L 5.80466643359375 6.17717987109375  C 5.872168671875 6.07219105078125  5.921659109375 5.95462276171875  5.948496921875 5.82868415625  L 8.47627508984375 5.82868415625  Z M 7.6001251015625 3.2624960390625  C 8.0986990859375 3.831786046875  8.41930171484375 4.56051997265625  8.47450028515625 5.36115713671875  L 5.94205728125 5.36115713671875  C 5.915159515625 5.24992055859375  5.870633703125 5.145543328125  5.81150179296875 5.05111934765625  L 7.6001251015625 3.2624960390625  Z M 5.14233149609375 2.0505017578125  C 5.95478065625 2.10127533984375  6.69428328125 2.42524768359375  7.26985703515625 2.93156839453125  L 5.4821211171875 4.7193043125  C 5.37947071484375 4.65392464453125  5.2648883984375 4.60580126953125  5.14233149609375 4.57908338671875  L 5.14233149609375 2.0505017578125  Z M 2.5620529296875 2.9345663671875  C 3.13383726171875 2.43032023828125  3.86789556640625 2.106192  4.67480448828125 2.051652984375  L 4.67480448828125 4.5832805390625  C 4.557536 4.61105370703125  4.4478463671875 4.65840959765625  4.3492851875 4.72178663671875  L 2.5620529296875 2.9345663671875  Z M 1.3607913828125 5.36115713671875  C 1.4158940234375 4.5621148828125  1.73529747265625 3.8346641015625  2.23216859375 3.26587773046875  L 4.02128357421875 5.0549927109375  C 3.96336284375 5.14838539453125  3.919736421875 5.25145550390625  3.89321041015625 5.36115713671875  L 1.3607913828125 5.36115713671875  Z M 2.240383015625 7.96101842578125  C 1.73307897265625 7.3842934453125  1.40881881640625 6.6430160390625  1.359028578125 5.82868415625  L 3.8867827578125 5.82868415625  C 3.91328479296875 5.953063828125  3.96187583984375 6.06928903125  4.0281069453125 6.1732945078125  L 2.240383015625 7.96101842578125  Z M 3.65972870703125 8.94505925390625  C 3.25731754296875 8.7928344609375  2.8894189765625 8.56988162109375  2.5713106484375 8.29128650390625  L 4.35993396875 6.50267518359375  C 4.4342835546875 6.549227625  4.514725015625 6.5868701015625  4.599915265625 6.613863796875  L 3.65972870703125 8.94505925390625  Z M 3.42203786328125 10.7844441445312  L 3.93201608984375 9.51992548828125  C 4.17186546875 9.58038849609375  4.42019310546875 9.6192301640625  4.6748044765625 9.63442386328125  L 4.6748044765625 9.98964701953125  L 4.2774059140625 9.98964701953125  C 4.14831344140625 9.98964701953125  4.0436483984375 10.0943120507812  4.0436483984375 10.2234045351563  C 4.0436483984375 10.3524970195313  4.1483134296875 10.4571620507812  4.2774059140625 10.4571620507812  L 5.5397180703125 10.4571620507812  C 5.66881054296875 10.4571620507812  5.7734755859375 10.3524970195313  5.7734755859375 10.2234045351563  C 5.7734755859375 10.0943120507812  5.6688105546875 9.98964701953125  5.5397180703125 9.98964701953125  L 5.1423195078125 9.98964701953125  L 5.1423195078125 9.63558706640625  C 5.4278579140625 9.61982975390625  5.7055056640625 9.57412873828125  5.97232476171875 9.5017578046875  L 6.51549648828125 10.7844441445312  L 3.42203786328125 10.7844441445312  Z " fill-rule="nonzero" fill="#000000" stroke="none" transform="matrix(1 0 0 1 31 273 )" />
  </g>
</svg>