<?xml version="1.0" encoding="utf-8"?>
<svg version="1.1" xmlns:xlink="http://www.w3.org/1999/xlink" width="18px" height="18px" xmlns="http://www.w3.org/2000/svg">
  <g>
    <path d="M 5.543125 16.9029166601563  C 4.84166666015625 17.33875  3.924375 17.1133333203125  3.49833333984375 16.40375  C 3.29636540127609 16.0668412956519  3.23359355437885 15.6645036507315  3.32333333984375 15.2820833398438  L 4.23125 11.4102083398437  C 4.25327988206119 11.3183868830587  4.22311287587244 11.2218844626891  4.15270833984375 11.1589583398437  L 1.18083333984375 8.56937499999999  C 0.563541679687499 8.031875  0.492291679687499 7.091875  1.02 6.46520833984374  C 1.27362071201622 6.16322867127599  1.63739634603422 5.97511541436965  2.03041666015625 5.94270833984375  L 5.930625 5.625  C 6.015625 5.61791666015625  6.09166666015625 5.561875  6.12645833984375 5.47666666015625  L 7.62916666015625 1.80145833984375  C 7.94229166015625 1.03583333984375  8.813125 0.670208339843754  9.57291666015625 0.991666660156255  C 9.93527657153611 1.14566285339734  10.2219804114366 1.43678559206296  10.3704166601563 1.80145833984375  L 11.873125 5.47645833984375  C 11.9079166601563 5.561875  11.9839583398438 5.61812499999999  12.0689583398437 5.625  L 15.9695833398438 5.94291666015624  C 16.7875 6.0095833203125  17.393125 6.733125  17.3283333398437 7.55458333984375  C 17.2978974294961 7.94659421376141  17.1150282301067 8.31106112467957  16.8189583398437 8.56979166015626  L 13.8470833398437 11.159375  C 13.7779166796875 11.2195833398438  13.7466666796875 11.3170833398437  13.7685416601562 11.4104166601562  L 14.6764583398437 15.2822916601562  C 14.864375 16.0833333203125  14.3764583398437 16.8904166601562  13.58 17.0835416601562  C 13.196450507382 17.1766284803388  12.7915810495318 17.1116151408473  12.4564583398437 16.903125  L 9.11708333984375 14.828125  C 9.04536746148854 14.7831099776232  8.95421587835521 14.7831099776232  8.8825 14.828125  L 5.54291666015625 16.903125  Z M 8.223125 13.76625  C 8.6988207366463 13.4702376501067  9.30138760319745 13.4702376501067  9.77708333984375 13.76625  L 13.1164583398437 15.84125  C 13.1677083398437 15.8729166601562  13.228125 15.8827083398438  13.2854166601562 15.86875  C 13.410625 15.8383333398438  13.4916666601562 15.7041666601563  13.4597916601562 15.5675  L 12.551875 11.695625  C 12.4240046607974 11.1528126764605  12.6064205229044 10.5837649466529  13.0260416601562 10.2164583398438  L 15.9979166601562 7.62708333984375  C 16.0464583203125 7.5847916796875  16.0770833203125 7.52333333984375  16.0825 7.45625  C 16.0935416601562 7.316875  15.9947916601562 7.19895833984376  15.868125 7.18875  L 11.9675 6.870625  C 11.4101475958709 6.82384162704071  10.926426724066 6.46769549065692  10.71625 5.949375  L 9.21354166015625 2.27437499999999  C 9.19004562497079 2.21533336461123  9.14413049770043 2.16799509061666  9.08583333984375 2.14270833984375  C 8.970625 2.09395833984375  8.8372916796875 2.15000000000001  8.78645833984375 2.27437499999999  L 7.28354166015625 5.949375  C 7.07336493609022 6.46769549065692  6.58964406428538 6.82384162704071  6.03229166015625 6.870625  L 2.131875 7.18875  C 2.07110053049377 7.19404100993164  2.0149771306019 7.22345326940307  1.97604166015625 7.27041666015624  C 1.8877300110763 7.37707093170465  1.89921635281738 7.53438779527522  2.00208333984375 7.62708333984375  L 4.97395833984375 10.2166666601562  C 5.39357948419493 10.583973270686  5.57599534698273 11.1530210101312  5.448125 11.6958333398437  L 4.54020833984375 15.5675  C 4.52468826085798 15.6332090972337  4.53529507454062 15.7023775018935  4.56979166015625 15.7604166601563  C 4.63791666015625 15.8735416601562  4.7764583203125 15.9075  4.88354166015625 15.8410416601563  L 8.223125 13.76625  Z " fill-rule="nonzero" fill="#ffffff" stroke="none" />
  </g>
</svg>