<?xml version="1.0" encoding="utf-8"?>
<svg version="1.1" xmlns:xlink="http://www.w3.org/1999/xlink" width="15px" height="15px" xmlns="http://www.w3.org/2000/svg">
  <g transform="matrix(1 0 0 1 -270 -141 )">
    <path d="M 4.8225 1.2975  C 5.6375 0.9425  6.51 0.765  7.44 0.765  C 8.37 0.765  9.245 0.9425  10.065 1.2975  C 10.885 1.6525  11.5975 2.1325  12.2025 2.7375  C 12.8075 3.3425  13.2875 4.0525  13.6425 4.8675  C 13.9975 5.6825  14.175 6.555  14.175 7.485  C 14.175 8.415  13.9975 9.29  13.6425 10.11  C 13.2875 10.93  12.8075 11.6425  12.2025 12.2475  C 11.5975 12.8525  10.885 13.3325  10.065 13.6875  C 9.245 14.0425  8.37 14.22  7.44 14.22  C 6.51 14.22  5.6375 14.0425  4.8225 13.6875  C 4.0075 13.3325  3.2975 12.8525  2.6925 12.2475  C 2.0875 11.6425  1.6075 10.93  1.2525 10.11  C 0.897500000000003 9.29  0.720000000000003 8.415  0.720000000000001 7.485  C 0.72 6.555  0.8975 5.6825  1.2525 4.8675  C 1.6075 4.0525  2.0875 3.3425  2.6925 2.7375  C 3.2975 2.1325  4.0075 1.6525  4.8225 1.2975  Z M 4.155 8.4  L 10.785 8.4  C 11.085 8.4  11.355 8.3225  11.595 8.1675  C 11.835 8.0125  11.955 7.78  11.955 7.47  C 11.955 7.17  11.835 6.9475  11.595 6.8025  C 11.355 6.6575  11.085 6.585  10.785 6.585  L 4.155 6.585  C 3.855 6.585  3.58 6.6575  3.33 6.8025  C 3.08 6.9475  2.955 7.17  2.955 7.47  C 2.955 7.78  3.08 8.0125  3.33 8.1675  C 3.58 8.3225  3.855 8.4  4.155 8.4  Z " fill-rule="nonzero" fill="#aaaaaa" stroke="none" transform="matrix(1 0 0 1 270 141 )" />
  </g>
</svg>