<?xml version="1.0" encoding="utf-8"?>
<svg version="1.1" xmlns:xlink="http://www.w3.org/1999/xlink" width="15px" height="15px" xmlns="http://www.w3.org/2000/svg">
  <g transform="matrix(1 0 0 1 -324 -141 )">
    <path d="M 4.9425 1.4325  C 5.7475 1.0875  6.61 0.915  7.53 0.915  C 8.44 0.915  9.2975 1.0875  10.1025 1.4325  C 10.9075 1.7775  11.61 2.25  12.21 2.85  C 12.81 3.45  13.2825 4.1525  13.6275 4.9575  C 13.9725 5.7625  14.145 6.62  14.145 7.53  C 14.145 8.45  13.9725 9.31  13.6275 10.11  C 13.2825 10.91  12.81 11.61  12.21 12.21  C 11.61 12.81  10.9075 13.2825  10.1025 13.6275  C 9.2975 13.9725  8.44 14.145  7.53 14.145  C 6.61 14.145  5.7475 13.9725  4.9425 13.6275  C 4.1375 13.2825  3.435 12.81  2.835 12.21  C 2.235 11.61  1.7625 10.91  1.4175 10.11  C 1.0725 9.31  0.9 8.45  0.9 7.53  C 0.9 6.62  1.0725 5.7625  1.4175 4.9575  C 1.7625 4.1525  2.235 3.45  2.835 2.85  C 3.435 2.25  4.1375 1.7775  4.9425 1.4325  Z M 8.49 8.445  L 11.31 8.445  C 11.57 8.445  11.79 8.3525  11.97 8.1675  C 12.15 7.9825  12.24 7.76  12.24 7.5  C 12.24 7.24  12.15 7.02  11.97 6.84  C 11.79 6.66  11.57 6.57  11.31 6.57  L 8.49 6.57  L 8.49 3.75  C 8.49 3.49  8.3975 3.2675  8.2125 3.0825  C 8.0275 2.8975  7.805 2.805  7.545 2.805  C 7.285 2.805  7.065 2.8975  6.885 3.0825  C 6.705 3.2675  6.615 3.49  6.615 3.75  L 6.615 6.57  L 3.795 6.57  C 3.535 6.57  3.315 6.66  3.135 6.84  C 2.955 7.02  2.865 7.24  2.865 7.5  C 2.865 7.76  2.955 7.9825  3.135 8.1675  C 3.315 8.3525  3.535 8.445  3.795 8.445  L 6.615 8.445  L 6.615 11.25  C 6.615 11.51  6.705 11.7325  6.885 11.9175  C 7.065 12.1025  7.285 12.195  7.545 12.195  C 7.805 12.195  8.0275 12.1025  8.2125 11.9175  C 8.3975 11.7325  8.49 11.51  8.49 11.25  L 8.49 8.445  Z " fill-rule="nonzero" fill="#000000" stroke="none" transform="matrix(1 0 0 1 324 141 )" />
  </g>
</svg>