<?xml version="1.0" encoding="utf-8"?>
<svg version="1.1" xmlns:xlink="http://www.w3.org/1999/xlink" width="12px" height="12px" xmlns="http://www.w3.org/2000/svg">
  <g transform="matrix(1 0 0 1 -69 -271 )">
    <path d="M 9.61070394140625 9.614853140625  C 11.601977859375 7.62397494140625  11.601977859375 4.38434741015625  9.61070394140625 2.3934332578125  C 7.61982575390625 0.40219531640625  4.38016224609375 0.40219531640625  2.38928405859375 2.3934332578125  C 0.398022128906249 4.384335421875  0.398022128906249 7.623974953125  2.38928405859375 9.614853140625  C 4.38016224609375 11.6061150703125  7.61982575390625 11.6061150703125  9.61070394140625 9.614853140625  Z M 9.1166868984375 4.4206228125  C 9.11927712890625 4.51505879296875  9.0852082265625 4.6050577734375  9.02004440625 4.6735673203125  L 5.5922644453125 8.322801140625  C 5.57078701171875 8.34277959375  5.54820631640625 8.35611455859375  5.531525625 8.36574401953125  C 5.51301017578125 8.37797572265625  5.50005896484375 8.38834869140625  5.4811597734375 8.3961194296875  C 5.43783315234375 8.41463487890625  5.39192827734375 8.423880609375  5.3437809140625 8.423880609375  C 5.299710796875 8.423880609375  5.25637217578125 8.41573812890625  5.2141488046875 8.3994411796875  L 5.17341242578125 8.375757234375  C 5.15155125 8.36426902734375  5.1278673046875 8.3520493125  5.1052626328125 8.33204687109375  C 5.10378762890625 8.330200125  5.10230063671875 8.32872512109375  5.1008376328125 8.32723812890625  L 5.08934942578125 8.31614565234375  L 3.14364460546875 6.39893351953125  C 3.07623830859375 6.3330022265625  3.0381161484375 6.24413047265625  3.0373606640625 6.14969450390625  C 3.03700091015625 6.054539015625  3.07291655859375 5.96527154296875  3.13956737109375 5.89751748046875  C 3.272880984375 5.762716875  3.50657853515625 5.76160163671875  3.6413551640625 5.894555484375  L 5.334151453125 7.562144859375  L 8.5037824453125 4.187704734375  C 8.63228731640625 4.05104539453125  8.8685511328125 4.04363441015625  9.00485071875 4.1717675390625  C 9.07410376171875 4.2373151015625  9.11409664453125 4.3254673359375  9.1166868984375 4.4206228125  Z " fill-rule="nonzero" fill="#ea5b20" stroke="none" transform="matrix(1 0 0 1 69 271 )" />
  </g>
</svg>