<?xml version="1.0" encoding="utf-8"?>
<svg version="1.1" xmlns:xlink="http://www.w3.org/1999/xlink" width="63px" height="43px" xmlns="http://www.w3.org/2000/svg">
  <g transform="matrix(1 0 0 1 -92 -241 )">
    <path d="M 93 247  A 5 5 0 0 1 98 242 L 149 242  A 5 5 0 0 1 154 247 L 154 278  A 5 5 0 0 1 149 283 L 98 283  A 5 5 0 0 1 93 278 L 93 247  Z " fill-rule="nonzero" fill="#ffffff" stroke="none" />
    <path d="M 92.5 247  A 5.5 5.5 0 0 1 98 241.5 L 149 241.5  A 5.5 5.5 0 0 1 154.5 247 L 154.5 278  A 5.5 5.5 0 0 1 149 283.5 L 98 283.5  A 5.5 5.5 0 0 1 92.5 278 L 92.5 247  Z " stroke-width="1" stroke="#000000" fill="none" stroke-opacity="0.498039215686275" />
  </g>
</svg>