<?xml version="1.0" encoding="utf-8"?>
<svg version="1.1" xmlns:xlink="http://www.w3.org/1999/xlink" width="18px" height="18px" xmlns="http://www.w3.org/2000/svg">
  <g transform="matrix(1 0 0 1 -313 -315 )">
    <path d="M 8.16666666015625 16.9166666601563  L 8.16666666015625 15.615  C 5.14564087523854 15.2334521616515  2.76654783834853 12.8543591247615  2.385 9.83333333984375  L 1.08333333984375 9.83333333984375  C 0.853214678145273 9.83333333984375  0.66666666015625 9.64678532185472  0.66666666015625 9.41666667968749  L 0.666666660156251 8.58333333984375  C 0.66666666015625 8.35321467814526  0.853214678145273 8.16666666015625  1.0833333203125 8.16666666015625  L 2.385 8.16666666015625  C 2.76654783834853 5.14564087523854  5.14564087523853 2.76654783834853  8.16666666015625 2.38500000000001  L 8.16666666015625 1.08333333984375  C 8.16666666015625 0.853214678145278  8.35321467814527 0.666666660156253  8.5833333203125 0.666666660156253  L 9.41666666015625 0.666666660156253  C 9.64678532185473 0.666666660156253  9.83333333984375 0.853214678145278  9.83333333984375 1.08333332031251  L 9.83333333984375 2.38500000000001  C 12.8543591247615 2.76654783834853  15.2334521616515 5.14564087523854  15.615 8.16666666015625  L 16.9166666601563 8.16666666015625  C 17.1467853218547 8.16666666015625  17.3333333398438 8.35321467814528  17.3333333398438 8.58333332031251  L 17.3333333398438 9.41666666015625  C 17.3333333398438 9.64678532185472  17.1467853218547 9.83333333984375  16.9166666796875 9.83333333984375  L 15.615 9.83333333984375  C 15.2334521616515 12.8543591247615  12.8543591247615 15.2334521616515  9.83333333984375 15.615  L 9.83333333984375 16.9166666601563  C 9.83333333984375 17.1467853218547  9.64678532185473 17.3333333398437  9.4166666796875 17.3333333398437  L 8.58333333984375 17.3333333398437  C 8.35321467814527 17.3333333398437  8.16666666015625 17.1467853218547  8.16666666015625 16.9166666796875  Z M 9 14  C 11.761423749154 14  14 11.761423749154  14 9  C 14 6.23857625084604  11.761423749154 4  9 4  C 6.23857625084603 4  4 6.23857625084604  4 9  C 4 11.761423749154  6.23857625084603 14  9 14  Z M 9 11.5  C 7.61928812542302 11.5  6.5 10.380711874577  6.5 9  C 6.5 7.61928812542301  7.61928812542302 6.5  9 6.5  C 10.380711874577 6.5  11.5 7.61928812542301  11.5 9  C 11.5 10.380711874577  10.380711874577 11.5  9 11.5  Z " fill-rule="nonzero" fill="#000000" stroke="none" transform="matrix(1 0 0 1 313 315 )" />
  </g>
</svg>