<?xml version="1.0" encoding="utf-8"?>
<svg version="1.1" xmlns:xlink="http://www.w3.org/1999/xlink" width="10px" height="12px" xmlns="http://www.w3.org/2000/svg">
  <g transform="matrix(1 0 0 1 -78 -373 )">
    <path d="M 10 5.42857142410714  C 10 8.26885714285714  5.69444444010417 11.7142857053571  5 11.71428571875  C 4.30555555989583 11.71428571875  0 8.26885714285714  0 5.42857142410714  C 0 2.58828570535714  2.23861110677083 0.28571428125  5 0.28571428125  C 7.76138889322917 0.28571428125  10 2.58828570535714  10 5.42857142410714  Z M 3.4722222265625 5.42857142410714  C 3.4722222265625 6.29642856696429  4.15625 6.99999999107143  5 7.00000000446428  C 5.84375 7.00000000446428  6.5277777734375 6.29642858035714  6.5277777734375 5.42857142410714  C 6.5277777734375 4.56071426785714  5.84375 3.85714285714286  5 3.85714285714286  C 4.15625 3.85714285714286  3.4722222265625 4.56071428125  3.4722222265625 5.42857142410714  Z " fill-rule="nonzero" fill="#000000" stroke="none" transform="matrix(1 0 0 1 78 373 )" />
  </g>
</svg>