<?xml version="1.0" encoding="utf-8"?>
<svg version="1.1" xmlns:xlink="http://www.w3.org/1999/xlink" width="12px" height="12px" xmlns="http://www.w3.org/2000/svg">
  <g transform="matrix(1 0 0 1 -316 -373 )">
    <path d="M 10.5576102480469 5.28520625390625  L 6.71692744921875 5.28520625390625  L 6.71692744921875 1.44452347265624  C 6.71686554909004 1.04979756641188  6.39685962301196 0.7298418190896  6.00213371191406 0.7298418190896  C 5.60740780081617 0.7298418190896  5.28740187473809 1.04979756641188  5.28733997460938 1.44452347265624  L 5.28733997460938 5.28520625390625  L 1.44665717578125 5.28520625390625  C 1.05188749053925 5.28520625390625  0.731863429687501 5.605230314758  0.731863429687501 6  C 0.731863429687501 6.394769685242  1.05188749053925 6.71479374609375  1.44665717578125 6.71479374609375  L 5.28733997460938 6.71479374609375  L 5.28733997460938 10.5554765273438  C 5.28740187473809 10.9502024335881  5.60740780081617 11.2701581809104  6.00213371191406 11.2701581809104  C 6.39685962301196 11.2701581809104  6.71686554909004 10.9502024335881  6.71692744921875 10.5554765273438  L 6.71692744921875 6.71479374609375  L 10.5576102480469 6.71479374609375  C 10.9523799332889 6.71479374609375  11.2724039941406 6.394769685242  11.2724039941406 6  C 11.2724039941406 5.60523031475799  10.9523799332889 5.28520625390625  10.5576102480469 5.28520625390625  Z " fill-rule="nonzero" fill="#ffffff" stroke="none" transform="matrix(1 0 0 1 316 373 )" />
  </g>
</svg>