<?xml version="1.0" encoding="utf-8"?>
<svg version="1.1" xmlns:xlink="http://www.w3.org/1999/xlink" width="10px" height="10px" xmlns="http://www.w3.org/2000/svg">
  <g transform="matrix(1 0 0 1 -78 -527 )">
    <path d="M 7.565468609375 0.361520890625  L 9.3846472109375 0.361520890625  C 9.51775696484375 0.361520890625  9.65086671875 0.4502607265625  9.65086671875 0.58337048046875  L 9.65086671875 0.6277403984375  L 9.65086671875 9.32428014453125  C 9.65086671875 9.50175981640625  9.51775696484375 9.59049965234375  9.3846472109375 9.59049965234375  L 7.565468609375 9.590499640625  L 7.565468609375 9.05806063671875  L 9.11841571484375 9.05806063671875  L 9.11841571484375 2.7575084140625  L 7.565468609375 2.7575084140625  L 7.565468609375 2.40254908203125  L 9.11841571484375 2.40254908203125  L 9.11841571484375 0.8496019765625  L 7.565468609375 0.8496019765625  L 7.565468609375 0.361520890625  Z M 7.565468609375 6.57333327734375  C 7.74294828125 6.57333327734375  7.87605803515625 6.528963359375  8.00916777734375 6.39585360546875  C 8.09790761328125 6.30711376953125  8.18664744921875 6.12963409765625  8.18664744921875 5.99652435546875  C 8.18664744921875 5.81904468359375  8.09790761328125 5.6859349296875  8.00916777734375 5.5528251875  C 7.8760580234375 5.4640853515625  7.74294826953125 5.375345515625  7.565468609375 5.375345515625  L 7.565468609375 5.73030484765625  C 7.6542084453125 5.73030484765625  7.69857836328125 5.774674765625  7.74294828125 5.81904468359375  C 7.78731819921875 5.8634146015625  7.8316881171875 5.90778451953125  7.8316881171875 5.99652435546875  C 7.8316881171875 6.0408942734375  7.78731819921875 6.129634109375  7.74294828125 6.17400402734375  C 7.69857836328125 6.2183739453125  7.6542084453125 6.2183739453125  7.565468609375 6.2183739453125  L 7.565468609375 6.57333327734375  Z M 7.565468609375 4.53231709765625  L 7.565468609375 4.8872764296875  C 7.74294828125 4.8872764296875  7.87605803515625 4.79853659375  8.00916777734375 4.7097967578125  C 8.09790761328125 4.57668700390625  8.18664744921875 4.44357725  8.18664744921875 4.26609758984375  C 8.18664744921875 4.1329878359375  8.09790761328125 3.9555081640625  8.00916777734375 3.86676833984375  C 7.8760580234375 3.7336585859375  7.74294826953125 3.68928866796875  7.565468609375 3.68928866796875  L 7.565468609375 4.044248  C 7.6542084453125 4.044248  7.69857836328125 4.044248  7.74294828125 4.08861791796875  C 7.78731819921875 4.1329878359375  7.8316881171875 4.221727671875  7.8316881171875 4.26609758984375  C 7.8316881171875 4.35483742578125  7.78731819921875 4.39920734375  7.74294828125 4.44357726171875  C 7.69857836328125 4.4879471796875  7.6542084453125 4.53231709765625  7.565468609375 4.53231709765625  Z M 5.87939976171875 0.361520890625  L 7.565468609375 0.361520890625  L 7.565468609375 0.8495899765625  L 7.52109869140625 0.8495899765625  L 7.52109869140625 1.29328914453125  C 7.52109869140625 1.4263988984375  7.3879889375 1.55950865234375  7.25487918359375 1.55950865234375  C 7.1217694296875 1.55950865234375  6.98865967578125 1.4263988984375  6.98865967578125 1.29328914453125  L 6.98865967578125 0.8495899765625  L 5.87941175 0.8495899765625  L 5.87941176171875 0.361520890625  Z M 7.565468609375 9.590499640625  L 5.87939976171875 9.590499640625  L 5.87939976171875 9.05806063671875  L 7.565468609375 9.05806063671875  L 7.565468609375 9.590499640625  Z M 7.565468609375 2.4025490703125  L 7.565468609375 2.75750840234375  L 5.87939976171875 2.7575084140625  L 5.87939976171875 2.40254908203125  L 7.565468609375 2.4025490703125  Z M 7.565468609375 3.68927666796875  L 7.565468609375 4.044236  C 7.52109869140625 4.044236  7.43235885546875 4.044236  7.43235885546875 4.08860591796875  C 7.3879889375 4.1329758359375  7.34361901953125 4.221715671875  7.34361901953125 4.26608558984375  C 7.34361901953125 4.35482542578125  7.3879889375 4.39919534375  7.43235885546875 4.44356526171875  C 7.43235885546875 4.4879351796875  7.52109869140625 4.53230509765625  7.565468609375 4.53230509765625  L 7.565468609375 4.8872644296875  C 7.43235885546875 4.8872644296875  7.25487918359375 4.79852459375  7.166139359375 4.7097847578125  C 7.0773995234375 4.57667500390625  6.9886596875 4.44356525  6.9886596875 4.26608558984375  C 6.9886596875 4.1329758359375  7.0773995234375 3.9554961640625  7.166139359375 3.86675633984375  C 7.2548791953125 3.7336465859375  7.43235885546875 3.68927666796875  7.565468609375 3.68927666796875  Z M 7.565468609375 5.375345515625  L 7.565468609375 5.73030484765625  C 7.52109869140625 5.73030484765625  7.43235885546875 5.774674765625  7.43235885546875 5.81904468359375  C 7.3879889375 5.8634146015625  7.34361901953125 5.90778451953125  7.34361901953125 5.99652435546875  C 7.34361901953125 6.0408942734375  7.3879889375 6.129634109375  7.43235885546875 6.17400402734375  C 7.43235885546875 6.2183739453125  7.52109869140625 6.2183739453125  7.565468609375 6.2183739453125  L 7.565468609375 6.57333327734375  C 7.43235885546875 6.57333327734375  7.25487918359375 6.528963359375  7.166139359375 6.39585360546875  C 7.0773995234375 6.30711376953125  6.9886596875 6.12963409765625  6.9886596875 5.99652435546875  C 6.9886596875 5.81904468359375  7.0773995234375 5.6859349296875  7.166139359375 5.5528251875  C 7.2548791953125 5.4640853515625  7.43235885546875 5.375345515625  7.565468609375 5.375345515625  Z M 5.87939976171875 8.259402125  L 5.87939976171875 7.94881269921875  C 5.9237696796875 7.94881269921875  6.012509515625 7.90444278125  6.05687943359375 7.86007286328125  C 6.1012493515625 7.8157029453125  6.1012493515625 7.77133302734375  6.1012493515625 7.68259319140625  C 6.1012493515625 7.6382232734375  6.1012493515625 7.5494834375  6.05687943359375 7.50511351953125  C 6.012509515625 7.4607436015625  5.9237696796875 7.4607436015625  5.87939976171875 7.4607436015625  L 5.87939976171875 7.10578426953125  C 6.012509515625 7.10578426953125  6.1899891875 7.1501541875  6.27872901171875 7.28326394140625  C 6.411838765625 7.37200377734375  6.45620868359375 7.50511353125  6.45620868359375 7.68259319140625  C 6.45620868359375 7.86007286328125  6.411838765625 7.9931826171875  6.27872901171875 8.126292359375  C 6.1899891875 8.21503220703125  6.012509515625 8.259402125  5.87939976171875 8.259402125  Z M 5.87939976171875 6.57333327734375  L 5.87939976171875 6.2183739453125  C 5.9237696796875 6.2183739453125  6.012509515625 6.2183739453125  6.05687943359375 6.17400402734375  C 6.1012493515625 6.129634109375  6.1012493515625 6.0408942734375  6.1012493515625 5.99652435546875  C 6.1012493515625 5.90778451953125  6.1012493515625 5.8634146015625  6.05687943359375 5.81904468359375  C 6.012509515625 5.774674765625  5.9237696796875 5.73030484765625  5.87939976171875 5.73030484765625  L 5.87939976171875 5.375345515625  C 6.012509515625 5.375345515625  6.1899891875 5.4640853515625  6.27872901171875 5.5528251875  C 6.411838765625 5.68593494140625  6.45620868359375 5.8190446953125  6.45620868359375 5.99652435546875  C 6.45620868359375 6.129634109375  6.411838765625 6.30711378125  6.27872901171875 6.39585360546875  C 6.1899891875 6.528963359375  6.012509515625 6.57333327734375  5.87939976171875 6.57333327734375  Z M 5.87939976171875 4.8872764296875  L 5.87939976171875 4.53231709765625  C 5.9237696796875 4.53231709765625  6.012509515625 4.4879471796875  6.05687943359375 4.44357726171875  C 6.1012493515625 4.39920734375  6.1012493515625 4.35483742578125  6.1012493515625 4.26609758984375  C 6.1012493515625 4.221727671875  6.1012493515625 4.1329878359375  6.05687943359375 4.08861791796875  C 6.012509515625 4.044248  5.9237696796875 4.044248  5.87939976171875 4.044248  L 5.87939976171875 3.68928866796875  C 6.012509515625 3.68928866796875  6.1899891875 3.7336585859375  6.27872901171875 3.86676833984375  C 6.411838765625 3.95550817578125  6.45620868359375 4.13298784765625  6.45620868359375 4.26609758984375  C 6.45620868359375 4.44357726171875  6.411838765625 4.576687015625  6.27872901171875 4.7097967578125  C 6.1899891875 4.79853659375  6.012509515625 4.8872764296875  5.87939976171875 4.8872764296875  Z M 4.99200142578125 0.361520890625  L 5.8793997734375 0.361520890625  L 5.8793997734375 0.8495899765625  L 5.25822093359375 0.8495899765625  L 5.25822093359375 1.29328914453125  C 5.25822093359375 1.4263988984375  5.16948109765625 1.55950865234375  4.99200142578125 1.55950865234375  L 4.99200142578125 0.361520890625  Z M 5.87939976171875 9.590499640625  L 4.9920014140625 9.590499640625  L 4.9920014140625 9.05806063671875  L 5.87939976171875 9.05806063671875  L 5.87939976171875 9.590499640625  Z M 5.87939976171875 2.4025490703125  L 5.87939976171875 2.75750840234375  L 4.9920014140625 2.75750840234375  L 4.9920014140625 2.4025490703125  L 5.87939976171875 2.4025490703125  Z M 5.87939976171875 3.68927666796875  L 5.87939976171875 4.044236  C 5.79065992578125 4.044236  5.7462900078125 4.044236  5.70192008984375 4.08860591796875  C 5.657550171875 4.1329758359375  5.61318025390625 4.221715671875  5.61318025390625 4.26608558984375  C 5.61318025390625 4.35482542578125  5.657550171875 4.39919534375  5.70192008984375 4.44356526171875  C 5.7462900078125 4.4879351796875  5.79065992578125 4.53230509765625  5.87939976171875 4.53230509765625  L 5.87939976171875 4.8872644296875  C 5.70192008984375 4.8872644296875  5.5688103359375 4.79852459375  5.43570059375 4.7097847578125  C 5.3469607578125 4.57667500390625  5.258220921875 4.44356525  5.258220921875 4.26608558984375  C 5.258220921875 4.1329758359375  5.3469607578125 3.9554961640625  5.43570059375 3.86675633984375  C 5.56881034765625 3.7336465859375  5.7019201015625 3.68927666796875  5.87939976171875 3.68927666796875  Z M 5.87939976171875 5.375345515625  L 5.87939976171875 5.73030484765625  C 5.79065992578125 5.73030484765625  5.7462900078125 5.774674765625  5.70192008984375 5.81904468359375  C 5.657550171875 5.8634146015625  5.61318025390625 5.90778451953125  5.61318025390625 5.99652435546875  C 5.61318025390625 6.0408942734375  5.657550171875 6.129634109375  5.70192008984375 6.17400402734375  C 5.7462900078125 6.2183739453125  5.79065992578125 6.2183739453125  5.87939976171875 6.2183739453125  L 5.87939976171875 6.57333327734375  C 5.70192008984375 6.57333327734375  5.5688103359375 6.528963359375  5.43570059375 6.39585360546875  C 5.3469607578125 6.30711376953125  5.258220921875 6.12963409765625  5.258220921875 5.99652435546875  C 5.258220921875 5.81904468359375  5.3469607578125 5.6859349296875  5.43570059375 5.5528251875  C 5.56881034765625 5.4640853515625  5.7019201015625 5.375345515625  5.87939976171875 5.375345515625  Z M 5.87939976171875 7.10578428125  L 5.87939976171875 7.46074361328125  C 5.79065992578125 7.46074361328125  5.7462900078125 7.46074361328125  5.70192008984375 7.50511353125  C 5.657550171875 7.54948344921875  5.61318025390625 7.63822328515625  5.61318025390625 7.682593203125  C 5.61318025390625 7.7713330390625  5.657550171875 7.81570295703125  5.70192008984375 7.860072875  C 5.7462900078125 7.90444279296875  5.79065992578125 7.9488127109375  5.87939976171875 7.9488127109375  L 5.87939976171875 8.25940213671875  C 5.70192008984375 8.25940213671875  5.5688103359375 8.21503221875  5.43570059375 8.08192246484375  C 5.3469607578125 7.99318262890625  5.258220921875 7.860072875  5.258220921875 7.68259321484375  C 5.258220921875 7.50511354296875  5.3469607578125 7.3720037890625  5.43570059375 7.28326396484375  C 5.56881034765625 7.15015419921875  5.7019201015625 7.10578428125  5.87939976171875 7.10578428125  Z M 4.14897299609375 0.361520890625  L 4.99200142578125 0.361520890625  L 4.99200142578125 1.55950865234375  C 4.858891671875 1.55950865234375  4.7701518359375 1.4263988984375  4.7701518359375 1.29328914453125  L 4.7701518359375 0.8495899765625  L 4.14897299609375 0.8495899765625  L 4.14897299609375 0.361520890625  Z M 4.99200142578125 9.590499640625  L 4.14897299609375 9.590499640625  L 4.14897299609375 9.05806063671875  L 4.99200142578125 9.05806063671875  L 4.99200142578125 9.590499640625  Z M 4.99200142578125 2.4025490703125  L 4.99200142578125 2.75750840234375  L 4.14897299609375 2.75750840234375  L 4.14897299609375 2.4025490703125  L 4.99200142578125 2.4025490703125  Z M 4.14897299609375 8.259402125  L 4.14897299609375 7.94881269921875  C 4.23771283203125 7.94881269921875  4.28208275 7.90444278125  4.32645266796875 7.86007286328125  C 4.3708225859375 7.8157029453125  4.41519250390625 7.77133302734375  4.41519250390625 7.68259319140625  C 4.41519250390625 7.6382232734375  4.3708225859375 7.5494834375  4.32645266796875 7.50511351953125  C 4.28208275 7.4607436015625  4.23771283203125 7.4607436015625  4.14897299609375 7.4607436015625  L 4.14897299609375 7.10578426953125  C 4.32645266796875 7.10578426953125  4.459562421875 7.1501541875  4.5926721640625 7.28326394140625  C 4.681412 7.37200377734375  4.72578191796875 7.50511353125  4.72578191796875 7.68259319140625  C 4.72578191796875 7.86007286328125  4.681412 7.9931826171875  4.5926721640625 8.126292359375  C 4.459562421875 8.21503220703125  4.32645266796875 8.259402125  4.14897299609375 8.259402125  Z M 4.14897299609375 6.57333327734375  L 4.14897299609375 6.2183739453125  C 4.23771283203125 6.2183739453125  4.28208275 6.2183739453125  4.32645266796875 6.17400402734375  C 4.3708225859375 6.129634109375  4.41519250390625 6.0408942734375  4.41519250390625 5.99652435546875  C 4.41519250390625 5.90778451953125  4.3708225859375 5.8634146015625  4.32645266796875 5.81904468359375  C 4.28208275 5.774674765625  4.23771283203125 5.73030484765625  4.14897299609375 5.73030484765625  L 4.14897299609375 5.375345515625  C 4.32645266796875 5.375345515625  4.459562421875 5.4640853515625  4.5926721640625 5.5528251875  C 4.681412 5.68593494140625  4.72578191796875 5.8190446953125  4.72578191796875 5.99652435546875  C 4.72578191796875 6.129634109375  4.681412 6.30711378125  4.5926721640625 6.39585360546875  C 4.459562421875 6.528963359375  4.32645266796875 6.57333327734375  4.14897299609375 6.57333327734375  Z M 4.14897299609375 4.8872764296875  L 4.14897299609375 4.53231709765625  C 4.23771283203125 4.53231709765625  4.28208275 4.4879471796875  4.32645266796875 4.44357726171875  C 4.3708225859375 4.39920734375  4.41519250390625 4.35483742578125  4.41519250390625 4.26609758984375  C 4.41519250390625 4.221727671875  4.3708225859375 4.1329878359375  4.32645266796875 4.08861791796875  C 4.28208275 4.044248  4.23771283203125 4.044248  4.14897299609375 4.044248  L 4.14897299609375 3.68928866796875  C 4.32645266796875 3.68928866796875  4.459562421875 3.7336585859375  4.5926721640625 3.86676833984375  C 4.681412 3.95550817578125  4.72578191796875 4.13298784765625  4.72578191796875 4.26609758984375  C 4.72578191796875 4.44357726171875  4.681412 4.576687015625  4.5926721640625 4.7097967578125  C 4.459562421875 4.79853659375  4.32645266796875 4.8872764296875  4.14897299609375 4.8872764296875  Z M 2.4629041484375 0.361520890625  L 4.14897299609375 0.361520890625  L 4.14897299609375 0.8495899765625  L 3.0397250703125 0.8495899765625  L 3.0397250703125 1.29328914453125  C 3.0397250703125 1.4263988984375  2.90661531640625 1.55950865234375  2.7735055625 1.55950865234375  C 2.64039580859375 1.55950865234375  2.5072860546875 1.4263988984375  2.5072860546875 1.29328914453125  L 2.5072860546875 0.8495899765625  L 2.46291613671875 0.8495899765625  L 2.4629161484375 0.361520890625  Z M 4.14897299609375 9.590499640625  L 2.4629041484375 9.590499640625  L 2.4629041484375 9.05806063671875  L 4.14897299609375 9.05806063671875  L 4.14897299609375 9.590499640625  Z M 4.14897299609375 2.4025490703125  L 4.14897299609375 2.75750840234375  L 2.4629041484375 2.7575084140625  L 2.4629041484375 2.40254908203125  L 4.14897299609375 2.4025490703125  Z M 4.14897299609375 3.68927666796875  L 4.14897299609375 4.044236  C 4.104603078125 4.044236  4.0158632421875 4.044236  3.97149332421875 4.08860591796875  C 3.92712340625 4.1329758359375  3.92712340625 4.221715671875  3.92712340625 4.26608558984375  C 3.92712340625 4.35482542578125  3.92712340625 4.39919534375  3.97149332421875 4.44356526171875  C 4.0158632421875 4.4879351796875  4.104603078125 4.53230509765625  4.14897299609375 4.53230509765625  L 4.14897299609375 4.8872644296875  C 3.97149332421875 4.8872644296875  3.8383835703125 4.79852459375  3.74964374609375 4.7097847578125  C 3.6165339921875 4.57667500390625  3.57216407421875 4.44356525  3.57216407421875 4.26608558984375  C 3.57216407421875 4.1329758359375  3.6165339921875 3.9554961640625  3.74964374609375 3.86675633984375  C 3.8383835703125 3.7336465859375  3.97149332421875 3.68927666796875  4.14897299609375 3.68927666796875  Z M 4.14897299609375 5.375345515625  L 4.14897299609375 5.73030484765625  C 4.104603078125 5.73030484765625  4.0158632421875 5.774674765625  3.97149332421875 5.81904468359375  C 3.92712340625 5.8634146015625  3.92712340625 5.90778451953125  3.92712340625 5.99652435546875  C 3.92712340625 6.0408942734375  3.92712340625 6.129634109375  3.97149332421875 6.17400402734375  C 4.0158632421875 6.2183739453125  4.104603078125 6.2183739453125  4.14897299609375 6.2183739453125  L 4.14897299609375 6.57333327734375  C 3.97149332421875 6.57333327734375  3.8383835703125 6.528963359375  3.74964374609375 6.39585360546875  C 3.6165339921875 6.30711376953125  3.57216407421875 6.12963409765625  3.57216407421875 5.99652435546875  C 3.57216407421875 5.81904468359375  3.6165339921875 5.6859349296875  3.74964374609375 5.5528251875  C 3.8383835703125 5.4640853515625  3.97149332421875 5.375345515625  4.14897299609375 5.375345515625  Z M 4.14897299609375 7.10578428125  L 4.14897299609375 7.46074361328125  C 4.104603078125 7.46074361328125  4.0158632421875 7.46074361328125  3.97149332421875 7.50511353125  C 3.92712340625 7.54948344921875  3.92712340625 7.63822328515625  3.92712340625 7.682593203125  C 3.92712340625 7.7713330390625  3.92712340625 7.81570295703125  3.97149332421875 7.860072875  C 4.0158632421875 7.90444279296875  4.104603078125 7.9488127109375  4.14897299609375 7.9488127109375  L 4.14897299609375 8.25940213671875  C 3.97149332421875 8.25940213671875  3.8383835703125 8.21503221875  3.74964374609375 8.08192246484375  C 3.6165339921875 7.99318262890625  3.57216407421875 7.860072875  3.57216407421875 7.68259321484375  C 3.57216407421875 7.50511354296875  3.6165339921875 7.3720037890625  3.74964374609375 7.28326396484375  C 3.8383835703125 7.15015419921875  3.97149332421875 7.10578428125  4.14897299609375 7.10578428125  Z M 2.4629041484375 8.259402125  L 2.4629041484375 7.94881269921875  C 2.50727406640625 7.94881269921875  2.551643984375 7.90444278125  2.59601390234375 7.86007286328125  C 2.6403838203125 7.8157029453125  2.68475373828125 7.77133302734375  2.68475373828125 7.68259319140625  C 2.68475373828125 7.6382232734375  2.6403838203125 7.5494834375  2.59601390234375 7.50511351953125  C 2.551643984375 7.4607436015625  2.50727406640625 7.4607436015625  2.4629041484375 7.4607436015625  L 2.4629041484375 7.10578426953125  C 2.59601390234375 7.10578426953125  2.77349357421875 7.1501541875  2.8622333984375 7.28326394140625  C 2.950973234375 7.37200377734375  3.0397130703125 7.50511353125  3.0397130703125 7.68259319140625  C 3.0397130703125 7.86007286328125  2.950973234375 7.9931826171875  2.8622333984375 8.126292359375  C 2.77349357421875 8.21503220703125  2.59601390234375 8.259402125  2.4629041484375 8.259402125  Z M 2.4629041484375 6.57333327734375  L 2.4629041484375 6.2183739453125  C 2.50727406640625 6.2183739453125  2.551643984375 6.2183739453125  2.59601390234375 6.17400402734375  C 2.6403838203125 6.129634109375  2.68475373828125 6.0408942734375  2.68475373828125 5.99652435546875  C 2.68475373828125 5.90778451953125  2.6403838203125 5.8634146015625  2.59601390234375 5.81904468359375  C 2.551643984375 5.774674765625  2.50727406640625 5.73030484765625  2.4629041484375 5.73030484765625  L 2.4629041484375 5.375345515625  C 2.59601390234375 5.375345515625  2.77349357421875 5.4640853515625  2.8622333984375 5.5528251875  C 2.950973234375 5.68593494140625  3.0397130703125 5.8190446953125  3.0397130703125 5.99652435546875  C 3.0397130703125 6.129634109375  2.950973234375 6.30711378125  2.8622333984375 6.39585360546875  C 2.77349357421875 6.528963359375  2.59601390234375 6.57333327734375  2.4629041484375 6.57333327734375  Z M 0.643737546875 0.361520890625  L 2.4629161484375 0.361520890625  L 2.4629161484375 0.8495899765625  L 0.909969042968749 0.8495899765625  L 0.909969042968749 2.40253708203125  L 2.4629161484375 2.40253708203125  L 2.4629161484375 2.7574964140625  L 0.909969042968749 2.7574964140625  L 0.909969042968749 9.05804863671875  L 2.4629161484375 9.05804863671875  L 2.4629161484375 9.590487640625  L 0.643737546875 9.59048765234375  C 0.51062779296875 9.59048765234375  0.3775180390625 9.50174781640625  0.3775180390625 9.32426814453125  L 0.3775180390625 0.58337048046875  C 0.37750605078125 0.4502607265625  0.51062779296875 0.361520890625  0.643737546875 0.361520890625  Z M 2.4629041484375 5.375345515625  L 2.41853423046875 5.375345515625  C 2.2854244765625 5.375345515625  2.15231472265625 5.4640853515625  2.01920498046875 5.5528251875  C 1.93046514453125 5.68593494140625  1.84172530859375 5.8190446953125  1.84172530859375 5.99652435546875  C 1.84172530859375 6.129634109375  1.93046514453125 6.30711378125  2.01920498046875 6.39585360546875  C 2.10794481640625 6.528963359375  2.28542448828125 6.57333327734375  2.4629041484375 6.57333327734375  L 2.4629041484375 6.2183739453125  C 2.3741643125 6.2183739453125  2.32979439453125 6.2183739453125  2.2854244765625 6.17400402734375  C 2.24105455859375 6.129634109375  2.196684640625 6.0408942734375  2.196684640625 5.99652435546875  C 2.196684640625 5.90778451953125  2.24105455859375 5.8634146015625  2.2854244765625 5.81904468359375  C 2.32979439453125 5.774674765625  2.3741643125 5.73030484765625  2.41853423046875 5.73030484765625  L 2.4629041484375 5.73030484765625  L 2.4629041484375 5.375345515625  Z M 2.4629041484375 7.4607436015625  L 2.4629041484375 7.10578428125  L 2.41853423046875 7.10578428125  C 2.2854244765625 7.10578428125  2.15231472265625 7.15015419921875  2.01920498046875 7.283263953125  C 1.93046514453125 7.3720037890625  1.84172530859375 7.50511354296875  1.84172530859375 7.682593203125  C 1.84172530859375 7.860072875  1.93046514453125 7.99318262890625  2.01920498046875 8.081922453125  C 2.10794481640625 8.21503220703125  2.28542448828125 8.259402125  2.4629041484375 8.259402125  L 2.4629041484375 7.94881269921875  C 2.3741643125 7.94881269921875  2.32979439453125 7.90444278125  2.2854244765625 7.86007286328125  C 2.24105455859375 7.8157029453125  2.196684640625 7.77133302734375  2.196684640625 7.68259319140625  C 2.196684640625 7.6382232734375  2.24105455859375 7.5494834375  2.2854244765625 7.50511351953125  C 2.32979439453125 7.4607436015625  2.3741643125 7.4607436015625  2.41853423046875 7.4607436015625  L 2.4629041484375 7.4607436015625  Z " fill-rule="nonzero" fill="#231815" stroke="none" transform="matrix(1 0 0 1 78 527 )" />
  </g>
</svg>