<?xml version="1.0" encoding="utf-8"?>
<svg version="1.1" xmlns:xlink="http://www.w3.org/1999/xlink" width="10px" height="6px" xmlns="http://www.w3.org/2000/svg">
  <g transform="matrix(1 0 0 1 -78 -474 )">
    <path d="M 9.56233333333333 3.57456  L 9.24266666666667 3.57456  L 9.24266666666667 2.29908  L 8.545 2.29908  L 7.57933333333333 0.498359999999998  L 3.61166666666667 0.498359999999998  L 2.646 2.29908  L 0.678333333333334 2.29908  L 0.678333333333334 3.57456  L 0.437 3.57456  L 0.437 4.29456  L 0.678333333333334 4.29456  L 0.678333333333334 4.74456  L 2.06333333333333 4.74456  C 2.14336332961482 5.18411619237477  2.49987693400553 5.50131000346682  2.91466666666667 5.502  C 3.32942498753787 5.50142056291846  3.6858996076835 5.18413720653409  3.76566666666667 4.74456  L 6.33333333333333 4.74456  C 6.41338770357488 5.18424883913591  6.77008483677576 5.50148172747838  7.185 5.502  C 7.60666666666667 5.502  7.95833333333333 5.1762  8.03633333333333 4.74456  L 9.24333333333333 4.74456  L 9.24333333333333 4.29456  L 9.563 4.29456  L 9.563 3.57456  Z M 3.44933333333333 4.5642  C 3.44933333333333 4.88244  3.209 5.14164  2.91466666666667 5.14164  C 2.61966666666667 5.14164  2.38 4.88244  2.38 4.5642  C 2.38 4.24596  2.62 3.98676  2.91466666666667 3.98676  C 3.20933333333333 3.98676  3.44933333333333 4.24596  3.44933333333333 4.5642  Z M 7.719 4.5642  C 7.719 4.88244  7.47933333333333 5.14164  7.18433333333333 5.14164  C 6.88933333333333 5.14164  6.64966666666667 4.88244  6.64966666666667 4.5642  C 6.64966666666667 4.24596  6.88933333333333 3.98676  7.18433333333333 3.98676  C 7.479 3.98676  7.719 4.24596  7.719 4.5642  Z M 8.908 4.38456  L 8.90933333333333 4.38456  L 8.03566666666667 4.38456  C 7.9557559291126 3.94492697665778  7.59917006052838 3.62766887137144  7.18433333333333 3.62712  C 6.76233333333333 3.62712  6.411 3.95292  6.33266666666667 4.38456  L 3.765 4.38456  C 3.68499442933721 3.9451363904785  3.32866428925499 3.62798162983939  2.914 3.62712  C 2.49233333333333 3.62712  2.14066666666667 3.95292  2.06266666666667 4.38456  L 1.011 4.38456  L 1.011 2.65908  L 2.83733333333333 2.65908  L 3.803 0.858359999999999  L 7.38633333333333 0.858359999999999  L 8.35166666666666 2.65908  L 8.908 2.65908  L 8.908 4.38456  Z M 7.351 2.62092  L 7.351 1.50996  L 7.94733333333333 2.62092  L 7.351 2.62092  Z M 5.446 2.62092  L 5.446 1.21836  L 7.01766666666667 1.21836  L 7.01766666666667 2.62092  L 5.446 2.62092  Z M 3.24333333333333 2.62092  L 3.996 1.21836  L 5.11333333333333 1.21836  L 5.11333333333333 2.62092  L 3.24333333333333 2.62092  Z " fill-rule="nonzero" fill="#000000" stroke="none" transform="matrix(1 0 0 1 78 474 )" />
  </g>
</svg>