<?xml version="1.0" encoding="utf-8"?>
<svg version="1.1" xmlns:xlink="http://www.w3.org/1999/xlink" width="63px" height="52px" xmlns="http://www.w3.org/2000/svg">
  <g transform="matrix(1 0 0 1 -88 0 )">
    <path d="M 90 5  A 3 3 0 0 1 93 2 L 146 2  A 3 3 0 0 1 149 5 L 149 47  A 3 3 0 0 1 146 50 L 93 50  A 3 3 0 0 1 90 47 L 90 5  Z " fill-rule="nonzero" fill="#ffffff" stroke="none" />
    <path d="M 89 5  A 4 4 0 0 1 93 1 L 146 1  A 4 4 0 0 1 150 5 L 150 47  A 4 4 0 0 1 146 51 L 93 51  A 4 4 0 0 1 89 47 L 89 5  Z " stroke-width="2" stroke="#000000" fill="none" stroke-opacity="0.298039215686275" />
  </g>
</svg>