<?xml version="1.0" encoding="utf-8"?>
<svg version="1.1" xmlns:xlink="http://www.w3.org/1999/xlink" width="18px" height="18px" xmlns="http://www.w3.org/2000/svg">
  <g>
    <path d="M 5.543125 16.9029166601563  C 4.84166666015625 17.33875  3.924375 17.1133333203125  3.49833333984375 16.40375  C 3.29636540127609 16.0668412956519  3.23359355437885 15.6645036507315  3.32333333984375 15.2820833398438  L 4.23125 11.4102083398437  C 4.25327988206119 11.3183868830587  4.22311287587244 11.2218844626891  4.15270833984375 11.1589583398437  L 1.18083333984375 8.56937499999999  C 0.563541679687499 8.031875  0.492291679687499 7.091875  1.02 6.46520833984374  C 1.27362071201622 6.16322867127599  1.63739634603422 5.97511541436965  2.03041666015625 5.94270833984375  L 5.930625 5.625  C 6.015625 5.61791666015625  6.09166666015625 5.561875  6.12645833984375 5.47666666015625  L 7.62916666015625 1.80145833984375  C 7.94229166015625 1.03583333984375  8.813125 0.670208339843754  9.57291666015625 0.991666660156255  C 9.93527657153611 1.14566285339734  10.2219804114366 1.43678559206296  10.3704166601563 1.80145833984375  L 11.873125 5.47645833984375  C 11.9079166601563 5.561875  11.9839583398438 5.61812499999999  12.0689583398437 5.625  L 15.9695833398438 5.94291666015624  C 16.7875 6.0095833203125  17.393125 6.733125  17.3283333398437 7.55458333984375  C 17.2978974294961 7.94659421376141  17.1150282301067 8.31106112467957  16.8189583398437 8.56979166015626  L 13.8470833398437 11.159375  C 13.7779166796875 11.2195833398438  13.7466666796875 11.3170833398437  13.7685416601562 11.4104166601562  L 14.6764583398437 15.2822916601562  C 14.864375 16.0833333203125  14.3764583398437 16.8904166601562  13.58 17.0835416601562  C 13.196450507382 17.1766284803388  12.7915810495318 17.1116151408473  12.4564583398437 16.903125  L 9.11708333984375 14.828125  C 9.04536746148854 14.7831099776232  8.95421587835521 14.7831099776232  8.8825 14.828125  L 5.54291666015625 16.903125  Z " fill-rule="nonzero" fill="#000000" stroke="none" />
  </g>
</svg>