<?xml version="1.0" encoding="utf-8"?>
<svg version="1.1" xmlns:xlink="http://www.w3.org/1999/xlink" width="6px" height="6px" xmlns="http://www.w3.org/2000/svg">
  <g transform="matrix(1 0 0 1 -38 -345 )">
    <path d="M 2.82 0.900000000000002  C 1.4282424304264 0.900000000000002  0.299999999999999 2.0282424304264  0.299999999999999 3.42  C 0.299999999999999 4.8117575695736  1.4282424304264 5.94  2.82 5.94  C 4.2117575695736 5.94  5.34 4.8117575695736  5.34 3.42  C 5.34 2.0282424304264  4.2117575695736 0.900000000000002  2.82 0.900000000000002  Z M 2.82 1.98  C 3.61529003975634 1.98  4.26 2.62470996024366  4.26 3.42  C 4.26 4.21529003975634  3.61529003975634 4.86  2.82 4.86  C 2.02470996024366 4.86  1.38 4.21529003975634  1.38 3.42  C 1.38 2.62470996024366  2.02470996024366 1.98  2.82 1.98  Z " fill-rule="nonzero" fill="#ffffff" stroke="none" transform="matrix(1 0 0 1 38 345 )" />
  </g>
</svg>