<?xml version="1.0" encoding="utf-8"?>
<svg version="1.1" xmlns:xlink="http://www.w3.org/1999/xlink" width="25px" height="25px" xmlns="http://www.w3.org/2000/svg">
  <g transform="matrix(1 0 0 1 -129 -818 )">
    <path d="M 4.08184524972098 20.918154750279  C 1.75744048781622 18.5937499883743  0.595238106863842 15.7876984049479  0.595238106863839 12.5  C 0.595238106863839 9.21230159505209  1.75744048781622 6.40625001162575  4.08184524972098 4.08184524972098  C 6.40625001162575 1.75744048781622  9.21230159505208 0.595238106863847  12.5 0.595238106863835  C 15.7876984049479 0.595238106863835  18.5937499883743 1.75744048781622  20.918154750279 4.08184524972098  C 23.2425595121838 6.40625001162575  24.4047618931362 9.21230159505209  24.4047618931362 12.5  C 24.4047618931362 15.7876984049479  23.2425595121838 18.5937499883743  20.918154750279 20.918154750279  C 18.5937499883743 23.2425595121838  15.7876984049479 24.4047618931362  12.5 24.4047618931362  C 9.21230159505208 24.4047618931362  6.40625001162575 23.2425595121838  4.08184524972098 20.918154750279  Z M 6.18601189313616 6.18601189313616  C 4.4429563453311 7.93005951218378  3.57142857142857 10.0347222144717  3.57142857142857 12.5  C 3.57142857142857 14.9652777855283  4.4429563453311 17.0699404878162  6.18601189313616 18.8139881068638  C 7.93005951218378 20.5570436546689  10.0347222144717 21.4285714285714  12.5 21.4285714285714  C 14.9652777855283 21.4285714285714  17.0699404878162 20.5570436546689  18.8139881068638 18.8139881068638  C 20.5570436546689 17.0699404878162  21.4285714285714 14.9652777855283  21.4285714285714 12.5  C 21.4285714285714 10.0347222144717  20.5570436546689 7.93005951218378  18.8139881068638 6.18601189313616  C 17.0699404878162 4.4429563453311  14.9652777855283 3.57142857142857  12.5 3.57142857142857  C 10.0347222144717 3.57142857142857  7.93005951218378 4.4429563453311  6.18601189313616 6.18601189313616  Z " fill-rule="nonzero" fill="#ffffff" stroke="none" transform="matrix(1 0 0 1 129 818 )" />
  </g>
</svg>