<?xml version="1.0" encoding="utf-8"?>
<svg version="1.1" xmlns:xlink="http://www.w3.org/1999/xlink" width="22px" height="23px" xmlns="http://www.w3.org/2000/svg">
  <g transform="matrix(1 0 0 1 -130 -819 )">
    <path d="M 15.84 1.91666667818509  C 15.840231103002 2.38078674403156  15.6228308460451 2.81786766741606  15.253333321875 3.09615384615385  C 14.6979555364583 3.51487179487179  14.4432444291667 4.08692307692308  14.4892 4.81230769230769  C 14.4970222145833 4.93615384615384  14.59968888125 5.10865384615385  14.7972 5.3298076923077  C 15.4924 6.10433759915865  15.84 6.93243588591747  15.84 7.81410255258414  C 15.84 8.96115383463542  15.4537777739583 10.1583333218149  14.681333321875 11.4056410141226  C 13.7367999885417 12.9291452799479  12.5698222145833 13.816709382512  11.1804 14.0683333218149  C 10.4157777854167 14.2059401517428  9.67413334479167 14.1356623778045  8.955466678125 13.8575  C 8.61520001145834 13.7257906059696  8.21088889270833 13.5046367598157  7.742533321875 13.1940384615385  C 7.66626665520834 14.3440384615385  7.37782221458334 15.2129273542668  6.8772 15.8007051397236  C 6.17026666666667 16.6292948833133  5.185155559375 17.05096154998  3.921866678125 17.0657051397236  C 3.059466678125 17.0755342072316  2.20097778541667 16.9030342072316  1.3464 16.5482051397236  C 0.810340041663022 16.3144153432694  0.463476985217066 15.783055371032  0.463476985217066 15.1956542124793  C 0.463476985217066 14.3813882288032  1.12012602392864 13.7212952266019  1.93014366334207 13.7212952266019  C 2.11386782071987 13.7212952266019  2.2959563829387 13.7559953429742  2.466933321875 13.8235897551082  C 2.95191110729167 14.0250854892829  3.425155559375 14.123376083734  3.886666678125 14.1184615384615  C 4.265066678125 14.113547016226  4.51928889270833 14.034914533754  4.649333321875 13.8825640910457  C 4.73146665520833 13.7842734850761  4.78817777395833 13.4731837414864  4.819466678125 12.9492948602764  C 4.850755559375 12.4067307577123  4.90893333333334 11.9909615269431  4.994 11.7019871679687  C 5.19444445208334 11.0237820397636  5.585555559375 10.5205341841947  6.167333321875 10.192243601262  C 6.788222203125 9.84036325170272  7.44235553645834 9.78630341496393  8.129733321875 10.0300640910457  C 8.415244440625 10.1322863055889  8.78631110729167 10.3401709209736  9.242933321875 10.6537179371995  C 9.83448886979167 11.0596581004607  10.3072444291667 11.2306837414864  10.6612 11.1667948602764  C 11.1960444520833 11.0694871679687  11.705955559375 10.6296367482973  12.190933321875 9.84724360126202  C 12.6680888927083 9.07664530298478  12.906666678125 8.39893162009214  12.906666678125 7.81410255258414  C 12.906666678125 7.68829059445112  12.8108444520833 7.51824786708734  12.6192 7.30397437049279  C 11.9650666666667 6.5746581234976  11.6125777739583 5.80602564102564  11.561733321875 4.99807692307693  C 11.4492888697917 3.21311965044071  12.0931555364583 1.79282050130208  13.493333321875 0.737179475661062  C 13.7419767213823 0.549662898044624  14.0434557493417 0.446405592502159  14.354266678125 0.442307692307692  L 14.373333321875 0.442307692307692  C 15.1816357610162 0.442304035861507  15.8375750927097 1.09970547010169  15.84 1.91224360126202  L 15.84 1.91666667818509  Z M 20.24 18.1346153846154  C 19.903427506452 18.1343673048662  19.5771802379453 18.017759893616  19.316 17.8043589858774  C 18.58951111875 17.2116666781851  17.8058222260417 16.7590384730569  16.964933321875 16.4464743704928  C 16.7419999885417 16.3629273542668  16.5405777739583 16.3005128205128  16.360666678125 16.2592307692308  L 16.3592 16.2725  C 16.1802666666667 17.2613034264824  15.863955559375 17.9837393239183  15.410266678125 18.4398076923077  C 15.1482222260417 18.7032265034055  14.8196888927083 18.9332265034054  14.424666678125 19.1298076923077  C 14.433466678125 19.1475  14.4432444520833 19.163226491887  14.454 19.1769871679688  C 14.52928888125 19.2811752098357  14.7370666552083 19.4743162354768  15.077333321875 19.7564102448918  L 15.314933321875 19.9525  C 15.6479345350408 20.2326930079369  15.8403321553218 20.6467967887704  15.8403321553218 21.0833333390925  C 15.8403321553218 21.897783729208  15.1835344056072 22.5580262223651  14.373333321875 22.5580262223651  C 14.029051751106 22.5580262223651  13.6957374970336 22.4363043792534  13.431733321875 22.2141666781851  L 13.216133321875 22.0342948602764  C 12.6812888697917 21.5929700816306  12.3023999885417 21.2179914568309  12.079466678125 20.9093589858774  C 11.653155559375 20.318632482472  11.44 19.639444440605  11.44 18.8717948602764  C 11.44 17.7670085431691  11.9592 16.9919871794872  12.9976 16.5467307692308  C 13.16968888125 16.472029906851  13.282133321875 16.4081410141226  13.334933321875 16.3550640910457  C 13.357422203125 16.3324572611178  13.4033777625 16.1294871794872  13.4728 15.7461538461538  C 13.5510222145833 15.3126923076923  13.634133321875 14.9824358974359  13.722133321875 14.7553846153846  C 13.947022203125 14.1715384615385  14.312222203125 13.7523290559896  14.817733321875 13.497756398738  C 15.5764888697917 13.1163888696915  16.6315110958333 13.1773290444711  17.9828 13.6805769230769  C 19.1268 14.1061752213542  20.1876888927083 14.7180341957131  21.165466678125 15.5161538461538  C 21.5055908753116 15.7942399787125  21.7041253776326 16.2106988924784  21.706666678125 16.6514102448918  L 21.706666678125 16.660256398738  C 21.7066811969365 17.4710802174064  21.0553789148467 18.1297504418719  20.2488 18.1346153846154  L 20.24 18.1346153846154  Z " fill-rule="nonzero" fill="#ffffff" stroke="none" transform="matrix(1 0 0 1 130 819 )" />
  </g>
</svg>