<?xml version="1.0" encoding="utf-8"?>
<svg version="1.1" xmlns:xlink="http://www.w3.org/1999/xlink" width="34px" height="34px" xmlns="http://www.w3.org/2000/svg">
  <g transform="matrix(1 0 0 1 -125 -814 )">
    <path d="M 18.4628947368421 1.79692981291119  C 18.4817836334978 1.89336256921601  18.4912280818257 1.99029239377741  18.4912280818257 2.0877192865954  C 18.4912280818257 2.18514617941338  18.481286553591 2.28207600397478  18.4614034971217 2.3785087602796  C 18.4435087602796 2.47494151658443  18.4156725068531 2.5683918167489  18.3778947368421 2.65885966077303  C 18.3401169668311 2.74833334498355  18.2938888966557 2.83432749314693  18.2392105263158 2.91684210526316  C 18.1855263157895 2.99736842105263  18.1238888850055 3.0724269044682  18.0542982339638 3.14201755550986  C 17.9847075829222 3.21160820655154  17.9096491111568 3.27324562568531  17.8291228186678 3.32692981291118  C 17.7476023430647 3.3816081832511  17.6616081832511 3.42783625342654  17.571140339227 3.4656140234375  C 17.4806724952029 3.50339179344846  17.3872222066886 3.53172512678179  17.2907894736842 3.5506140234375  C 17.1943567173794 3.5695029200932  17.097426892818 3.57894736842105  17 3.57894736842105  C 16.902573107182 3.57894736842105  16.8056432826206 3.56900585183663  16.7092105263158 3.54912281866777  C 16.612777770011 3.53122808182565  16.5193274814967 3.50339181674891  16.428859660773 3.4656140234375  C 16.3393859765625 3.42783625342654  16.2533918167489 3.3816081832511  16.1708771813322 3.32692981291118  C 16.0903508655428 3.27324560238486  16.0152923937774 3.21160818325109  15.9457017660362 3.14201755550986  C 15.8761111149945 3.0724269044682  15.8144736842105 2.99736842105263  15.7607894736842 2.91684210526316  C 15.7061111033443 2.83532162966008  15.6598830331689 2.74932748149671  15.6221052631579 2.65885966077303  C 15.5843274931469 2.5683918167489  15.5559941598136 2.47494151658443  15.5371052631579 2.3785087602796  C 15.5182163665022 2.28207602727521  15.5087719181743 2.18514620271382  15.5087719181743 2.0877192865954  C 15.5087719181743 1.99029237047698  15.518713446409 1.89336254591557  15.5385965028783 1.79692981291119  C 15.5564912397204 1.70049705660637  15.5843274931469 1.6070467680921  15.6221052631579 1.51657894736842  C 15.6598830331689 1.42710526315789  15.7061111033443 1.34111111499452  15.7607894736842 1.25859650287829  C 15.8144736842105 1.17807018708882  15.8761111149945 1.10301170367324  15.9457017660362 1.03342105263158  C 16.0152924170779 0.963830401589906  16.0903508888432 0.902192970805923  16.1708771813322 0.848508760279605  C 16.2523976569353 0.793830389939698  16.3383918167489 0.74760231976425  16.428859660773 0.709824549753288  C 16.5193275047972 0.672046779742327  16.6127777933114 0.643713446408994  16.7092105263158 0.624824549753289  C 16.8056432826206 0.605935676398032  16.902573107182 0.59649123972039  17 0.59649123972039  C 17.097426892818 0.59649123972039  17.1943567173794 0.606432756304827  17.2907894736842 0.626315789473687  C 17.387222229989 0.644210526315788  17.4806725185033 0.672046779742327  17.571140339227 0.709824549753288  C 17.6606140234375 0.74760231976425  17.7466081832511 0.793830389939698  17.8291228186678 0.848508760279605  C 17.9096491344572 0.902192970805923  17.9847076062226 0.963830401589906  18.0542982339638 1.03342105263158  C 18.1238888850055 1.10301170367324  18.1855263157895 1.17807018708882  18.2392105263158 1.25859650287829  C 18.2938888966557 1.34011697848136  18.3401169668311 1.42611112664474  18.3778947368421 1.51657894736842  C 18.4156725068531 1.60704679139254  18.4440058401864 1.7004970799068  18.4628947368421 1.79692981291119  Z M 18.4628947368421 31.6214912397204  C 18.4817836334978 31.7179239960252  18.4912280818257 31.8148538205866  18.4912280818257 31.9122807134046  C 18.4912280818257 32.0097076062226  18.481286553591 32.106637430784  18.4614034971217 32.2030701870888  C 18.4435087602796 32.2995029433936  18.4156725068531 32.3929532319079  18.3778947368421 32.4834210526316  C 18.3401169668311 32.5728947368421  18.2938888966557 32.6588888850055  18.2392105263158 32.7414034971217  C 18.1855263157895 32.8219298129112  18.1238888850055 32.8969882963268  18.0542982339638 32.9665789473684  C 17.9847075829222 33.0361695984101  17.9096491111568 33.0978070291941  17.8291228186678 33.1514912397204  C 17.7476023430647 33.2061696100603  17.6616081832511 33.2523976802358  17.571140339227 33.2901754502467  C 17.4806724952029 33.3279532202577  17.3872222066886 33.356286553591  17.2907894736842 33.3751754502467  C 17.1943567173794 33.394064323602  17.097426892818 33.4035087602796  17 33.4035087602796  C 16.902573107182 33.4035087602796  16.8056432826206 33.3935672436952  16.7092105263158 33.3736842105263  C 16.612777770011 33.3557894736842  16.5193274814967 33.3279532202577  16.428859660773 33.2901754502467  C 16.3393859765625 33.2523976802358  16.2533918167489 33.2061696100603  16.1708771813322 33.1514912397204  C 16.0903508655428 33.0978070291941  16.0152923937774 33.0361695984101  15.9457017660362 32.9665789473684  C 15.8761111149945 32.8969882963268  15.8144736842105 32.8219298129112  15.7607894736842 32.7414034971217  C 15.7061111033443 32.6598830215186  15.6598830331689 32.5738888733553  15.6221052631579 32.4834210526316  C 15.5843274931469 32.3929532086075  15.5559941598136 32.2995029200932  15.5371052631579 32.2030701870888  C 15.5182163665022 32.106637430784  15.5087719181743 32.0097076062226  15.5087719181743 31.9122807134046  C 15.5087719181743 31.8148538205866  15.518713446409 31.7179239960252  15.5385965028783 31.6214912397204  C 15.5564912397204 31.5250584834156  15.5843274931469 31.4316081832511  15.6221052631579 31.341140339227  C 15.6598830331689 31.2516666550164  15.7061111033443 31.1656725068531  15.7607894736842 31.0831578947368  C 15.8144736842105 31.0026315789474  15.8761111149945 30.9275730955318  15.9457017660362 30.8579824444901  C 16.0152924170779 30.7883917934485  16.0903508888432 30.7267543743147  16.1708771813322 30.6730701870888  C 16.2523976569353 30.6183918167489  16.3383918167489 30.5721637465735  16.428859660773 30.5343859765625  C 16.5193275047972 30.4966082065515  16.6127777933114 30.4682748732182  16.7092105263158 30.4493859765625  C 16.8056432826206 30.4304970799068  16.902573107182 30.4210526315789  17 30.4210526315789  C 17.097426892818 30.4210526315789  17.1943567173794 30.4309941481634  17.2907894736842 30.4508771813322  C 17.387222229989 30.4687719181743  17.4806725185033 30.4966081832511  17.571140339227 30.5343859765625  C 17.6606140234375 30.5721637465735  17.7466081832511 30.6183918167489  17.8291228186678 30.6730701870888  C 17.9096491344572 30.7267543976151  17.9847076062226 30.7883918167489  18.0542982339638 30.8579824444901  C 18.1238888850055 30.9275730955318  18.1855263157895 31.0026315789474  18.2392105263158 31.0831578947368  C 18.2938888966557 31.1646783703399  18.3401169668311 31.2506725185033  18.3778947368421 31.341140339227  C 18.4156725068531 31.4316081832511  18.4440058401864 31.5250584834156  18.4628947368421 31.6214912397204  Z M 33.3751754502467 16.7092105263158  C 33.3940643469024 16.8056432826206  33.40350878358 16.902573107182  33.4035087602796 17  C 33.4035087602796 17.097426892818  33.3935672436952 17.1943567173794  33.3736842105263 17.2907894736842  C 33.3557894736842 17.387222229989  33.3279532202577 17.4806725185033  33.2901754502467 17.571140339227  C 33.2523976802358 17.6606140234375  33.2061696100603 17.7466081832511  33.1514912397204 17.8291228186678  C 33.0978070291941 17.9096491344572  33.0361695984101 17.9847076062226  32.9665789473684 18.0542982339638  C 32.8969882963268 18.1238888850055  32.8219298129112 18.1855263157895  32.7414034971217 18.2392105263158  C 32.6598830215186 18.2938888966557  32.5738888733553 18.3401169668312  32.4834210526316 18.3778947368421  C 32.3929532086075 18.4156725068531  32.2995029200932 18.4440058401864  32.2030701870888 18.4628947368421  C 32.106637430784 18.4817836334978  32.0097076062226 18.4912280818257  31.9122807134046 18.4912280818257  C 31.8148538205866 18.4912280818257  31.7179239960252 18.481286553591  31.6214912397204 18.4614034971217  C 31.5250584834156 18.4435087602796  31.4316081832511 18.4156725068531  31.341140339227 18.3778947368421  C 31.2516666550164 18.3401169668311  31.1656725068531 18.2938888966557  31.0831578947368 18.2392105263158  C 31.0026315789474 18.1855263157895  30.9275730955318 18.1238888850055  30.8579824444901 18.0542982339638  C 30.7883917934485 17.9847075829221  30.7267543743147 17.9096491111568  30.6730701870888 17.8291228186678  C 30.6183918167489 17.7476023430647  30.5721637465735 17.6616081832511  30.5343859765625 17.571140339227  C 30.4966082065515 17.4806724952028  30.4682748732182 17.3872222066886  30.4493859765625 17.2907894736842  C 30.4304970799068 17.1943567173794  30.4210526315789 17.097426892818  30.4210526315789 17  C 30.4210526315789 16.902573107182  30.4309941481634 16.8056432826206  30.4508771813322 16.7092105263158  C 30.4687719181743 16.612777770011  30.4966081832511 16.5193274814967  30.5343859765625 16.428859660773  C 30.5721637465735 16.3393859765625  30.6183918167489 16.2533918167489  30.6730701870888 16.1708771813322  C 30.7267543976151 16.0903508655428  30.7883918167489 16.0152923937774  30.8579824444901 15.9457017660362  C 30.9275730955318 15.8761111149945  31.0026315789474 15.8144736842105  31.0831578947368 15.7607894736842  C 31.1646783703399 15.7061111033443  31.2506725185033 15.6598830331689  31.341140339227 15.6221052631579  C 31.4316081832511 15.5843274931469  31.5250584834156 15.5559941598136  31.6214912397204 15.5371052631579  C 31.7179239727248 15.5182163665022  31.8148537972862 15.5087719181743  31.9122807134046 15.5087719181743  C 32.009707629523 15.5087719181743  32.1066374540844 15.518713446409  32.2030701870888 15.5385965028783  C 32.2995029433936 15.5564912397204  32.3929532319079 15.5843274931469  32.4834210526316 15.6221052631579  C 32.5728947368421 15.6598830331689  32.6588888850055 15.7061111033443  32.7414034971217 15.7607894736842  C 32.8219298129112 15.8144736842105  32.8969882963268 15.8761111149945  32.9665789473684 15.9457017660362  C 33.0361695984101 16.0152924170779  33.0978070291941 16.0903508888432  33.1514912397204 16.1708771813322  C 33.2061696100603 16.2523976569353  33.2523976802358 16.3383918167489  33.2901754502467 16.428859660773  C 33.3279532202577 16.5193275047972  33.356286553591 16.6127777933114  33.3751754502467 16.7092105263158  Z M 28.9014912397204 6.2706140234375  C 28.9203801130757 6.36704677974232  28.9298245497533 6.46397660430373  28.9298245497533 6.56140349712171  C 28.9298245497533 6.65883038993969  28.9198830331689 6.7557602145011  28.9 6.85219297080592  C 28.8821052631579 6.94862572711075  28.8542690097314 7.04207602727522  28.8164912397204 7.13254387129934  C 28.7787134697094 7.22201755550986  28.732485399534 7.30801170367324  28.6778070291941 7.39052631578948  C 28.6241228186678 7.47105263157894  28.5624853878838 7.54611111499452  28.4928947368421 7.61570176603618  C 28.4233040858004 7.68529241707785  28.3482456023849 7.74692983621163  28.2677192865954 7.8006140234375  C 28.1861988109923 7.85529239377742  28.100204662829 7.90152046395285  28.0097368421053 7.93929823396381  C 27.9192689980811 7.97707600397478  27.8258187095669 8.00540933730811  27.7293859765625 8.02429823396381  C 27.6329532202577 8.04318713061952  27.5360233956963 8.05263157894737  27.4385965028783 8.05263157894737  C 27.3411696100603 8.05263157894737  27.2442397854989 8.04269006236295  27.1478070291941 8.02280702919408  C 27.0513742728892 8.00491229235197  26.9579239727248 7.97707602727522  26.8674561287007 7.93929823396381  C 26.7779824444901 7.90152046395285  26.6919882963268 7.85529239377742  26.6094736842105 7.8006140234375  C 26.528947368421 7.74692981291118  26.4538888850055 7.68529239377742  26.3842982339638 7.61570176603618  C 26.3147075829221 7.54611111499452  26.2530701637884 7.47105263157895  26.1993859765625 7.39052631578948  C 26.1447076062226 7.3090058401864  26.0984795360471 7.22301169202303  26.0607017660362 7.13254387129934  C 26.0229239960252 7.04207602727522  25.9945906626919 6.94862572711075  25.9757017660362 6.85219297080592  C 25.9568128693805 6.75576023780153  25.9473684210526 6.65883041324014  25.9473684210526 6.56140349712171  C 25.9473684210526 6.46397658100329  25.9573099376371 6.36704675644189  25.9771929708059 6.2706140234375  C 25.995087707648 6.17418126713268  26.0229239727248 6.08073097861842  26.0607017660362 5.99026315789473  C 26.0984795360472 5.90078947368421  26.1447076062226 5.81479532552083  26.1993859765625 5.73228071340461  C 26.2530701870888 5.65175439761513  26.3147076062226 5.57669591419956  26.3842982339638 5.5071052631579  C 26.4538888850055 5.43751461211622  26.5289473684211 5.37587718133224  26.6094736842105 5.32219297080592  C 26.6909941598136 5.26751460046601  26.776988307977 5.22128653029057  26.8674561287007 5.1835087602796  C 26.9579239727248 5.14573099026864  27.0513742728893 5.11739765693531  27.1478070291941 5.09850876027961  C 27.2442397621985 5.07961988692435  27.3411695867599 5.07017545024671  27.4385965028783 5.07017545024671  C 27.5360234189967 5.07017545024671  27.6329532435581 5.08011696683114  27.7293859765625 5.1  C 27.8258187328673 5.1178947368421  27.9192690213816 5.14573099026864  28.0097368421053 5.1835087602796  C 28.0992105263158 5.22128653029057  28.1852046744792 5.26751460046601  28.2677192865954 5.32219297080592  C 28.3482456023849 5.37587718133224  28.4233040858004 5.43751461211622  28.4928947368421 5.5071052631579  C 28.5624853878838 5.57669591419956  28.6241228186678 5.65175439761513  28.6778070291941 5.73228071340461  C 28.732485399534 5.81380118900768  28.7787134697094 5.89979533717105  28.8164912397204 5.99026315789473  C 28.8542690097314 6.08073100191885  28.8826023430647 6.17418129043312  28.9014912397204 6.2706140234375  Z M 8.02429823396382 27.1478070291941  C 8.04318713061952 27.2442397621985  8.05263157894737 27.3411695867599  8.05263157894737 27.4385965028783  C 8.05263157894737 27.5360233956963  8.04269006236294 27.6329532202577  8.02280702919408 27.7293859765625  C 8.00491229235197 27.8258187328673  7.97707602727522 27.9192690213816  7.93929823396382 28.0097368421053  C 7.90152046395285 28.0992105263158  7.85529239377741 28.1852046744792  7.8006140234375 28.2677192865954  C 7.74692981291119 28.3482456023849  7.68529239377741 28.4233040858004  7.61570176603619 28.4928947368421  C 7.54611111499452 28.5624853878838  7.47105263157895 28.6241228186678  7.39052631578947 28.6778070291941  C 7.30900584018641 28.732485399534  7.22301169202303 28.7787134697094  7.13254387129934 28.8164912397204  C 7.04207602727522 28.8542690097314  6.94862572711075 28.8826023430647  6.85219297080592 28.9014912397204  C 6.75576023780154 28.9203801130757  6.65883041324013 28.9298245497533  6.56140349712171 28.9298245497533  C 6.46397658100329 28.9298245497533  6.36704675644189 28.9198830331689  6.2706140234375 28.9  C 6.17418126713268 28.8821052631579  6.08073097861842 28.8542690097314  5.99026315789474 28.8164912397204  C 5.90078947368421 28.7787134697094  5.81479532552084 28.732485399534  5.73228071340461 28.6778070291941  C 5.65175439761513 28.6241228186678  5.57669591419956 28.5624853878838  5.50710526315789 28.4928947368421  C 5.43751461211623 28.4233040858004  5.37587718133224 28.3482456023849  5.32219297080592 28.2677192865954  C 5.26751460046601 28.1861988109923  5.22128653029057 28.100204662829  5.18350876027961 28.0097368421053  C 5.14573099026864 27.9192689980811  5.11739765693531 27.8258187095669  5.09850876027961 27.7293859765625  C 5.07961988692434 27.6329532202577  5.07017545024671 27.5360233956963  5.07017545024671 27.4385965028783  C 5.07017545024671 27.3411696100603  5.08011696683114 27.2442397854989  5.1 27.1478070291941  C 5.1178947368421 27.0513742728893  5.14573099026864 26.9579239727248  5.1835087602796 26.8674561287007  C 5.22128653029057 26.7779824444901  5.26751460046601 26.6919882963267  5.32219297080592 26.6094736842105  C 5.37587718133224 26.528947368421  5.43751461211623 26.4538888850055  5.50710526315789 26.3842982339638  C 5.57669591419956 26.3147075829221  5.65175439761513 26.2530701637884  5.7322807134046 26.1993859765625  C 5.81380118900768 26.1447076062226  5.89979533717105 26.0984795360471  5.99026315789474 26.0607017660362  C 6.08073100191886 26.0229239960252  6.17418129043311 25.9945906626919  6.2706140234375 25.9757017660362  C 6.36704677974233 25.9568128693805  6.46397660430373 25.9473684210526  6.56140349712171 25.9473684210526  C 6.65883038993969 25.9473684210526  6.7557602145011 25.9573099376371  6.85219297080592 25.9771929708059  C 6.94862572711075 25.995087707648  7.04207602727522 26.0229239727248  7.13254387129934 26.0607017660362  C 7.22201755550987 26.0984795360471  7.30801170367325 26.1447076062226  7.39052631578947 26.1993859765625  C 7.47105263157895 26.2530701870888  7.54611111499452 26.3147076062226  7.61570176603619 26.3842982339638  C 7.68529241707785 26.4538888850055  7.74692983621162 26.5289473684211  7.8006140234375 26.6094736842105  C 7.85529239377741 26.6909941598136  7.90152046395285 26.776988307977  7.93929823396381 26.8674561287007  C 7.97707600397478 26.9579239727248  8.00540933730811 27.0513742728893  8.02429823396382 27.1478070291941  Z M 3.5506140234375 16.7092105263158  C 3.5695029200932 16.8056432826206  3.57894736842105 16.902573107182  3.57894736842105 17  C 3.57894736842105 17.097426892818  3.56900585183662 17.1943567173794  3.54912281866776 17.2907894736842  C 3.53122808182566 17.387222229989  3.5033918167489 17.4806725185033  3.4656140234375 17.571140339227  C 3.42783625342654 17.6606140234375  3.3816081832511 17.7466081832511  3.32692981291118 17.8291228186678  C 3.27324560238487 17.9096491344572  3.2116081832511 17.9847076062226  3.14201755550987 18.0542982339638  C 3.0724269044682 18.1238888850055  2.99736842105263 18.1855263157895  2.91684210526316 18.2392105263158  C 2.83532162966009 18.2938888966557  2.74932748149671 18.3401169668312  2.65885966077303 18.3778947368421  C 2.5683918167489 18.4156725068531  2.47494151658443 18.4440058401864  2.3785087602796 18.4628947368421  C 2.28207602727522 18.4817836334978  2.18514620271382 18.4912280818257  2.08771928659539 18.4912280818257  C 1.99029237047697 18.4912280818257  1.89336254591557 18.481286553591  1.79692981291118 18.4614034971217  C 1.70049705660636 18.4435087602796  1.60704676809211 18.4156725068531  1.51657894736842 18.3778947368421  C 1.42710526315789 18.3401169668311  1.34111111499452 18.2938888966557  1.25859650287829 18.2392105263158  C 1.17807018708882 18.1855263157895  1.10301170367325 18.1238888850055  1.03342105263158 18.0542982339638  C 0.963830401589912 17.9847075829221  0.902192970805921 17.9096491111568  0.848508760279605 17.8291228186678  C 0.793830389939693 17.7476023430647  0.747602319764254 17.6616081832511  0.709824549753289 17.571140339227  C 0.672046779742324 17.4806724952028  0.643713446408991 17.3872222066886  0.624824549753289 17.2907894736842  C 0.605935676398026 17.1943567173794  0.596491239720395 17.097426892818  0.596491239720395 17  C 0.596491239720395 16.902573107182  0.606432756304824 16.8056432826206  0.626315789473684 16.7092105263158  C 0.644210526315789 16.612777770011  0.672046779742325 16.5193274814967  0.709824549753289 16.428859660773  C 0.747602319764255 16.3393859765625  0.793830389939693 16.2533918167489  0.848508760279605 16.1708771813322  C 0.902192970805921 16.0903508655428  0.963830401589912 16.0152923937774  1.03342105263158 15.9457017660362  C 1.10301170367325 15.8761111149945  1.17807018708882 15.8144736842105  1.25859650287829 15.7607894736842  C 1.34011697848136 15.7061111033443  1.42611112664474 15.6598830331689  1.51657894736842 15.6221052631579  C 1.60704679139254 15.5843274931469  1.7004970799068 15.5559941598136  1.79692981291118 15.5371052631579  C 1.89336256921601 15.5182163665022  1.99029239377741 15.5087719181743  2.08771928659539 15.5087719181743  C 2.18514617941338 15.5087719181743  2.28207600397478 15.518713446409  2.37850876027961 15.5385965028783  C 2.47494151658443 15.5564912397204  2.5683918167489 15.5843274931469  2.65885966077303 15.6221052631579  C 2.74833334498355 15.6598830331689  2.83432749314693 15.7061111033443  2.91684210526316 15.7607894736842  C 2.99736842105263 15.8144736842105  3.0724269044682 15.8761111149945  3.14201755550987 15.9457017660362  C 3.21160820655154 16.0152924170779  3.27324562568531 16.0903508888432  3.32692981291118 16.1708771813322  C 3.3816081832511 16.2523976569353  3.42783625342654 16.3383918167489  3.4656140234375 16.428859660773  C 3.50339179344846 16.5193275047972  3.5317251267818 16.6127777933114  3.5506140234375 16.7092105263158  Z M 8.02429823396382 6.2706140234375  C 8.04318713061952 6.36704677974232  8.05263157894737 6.46397660430373  8.05263157894737 6.56140349712171  C 8.05263157894737 6.65883038993969  8.04269006236294 6.7557602145011  8.02280702919408 6.85219297080592  C 8.00491229235197 6.94862572711075  7.97707602727522 7.04207602727522  7.93929823396382 7.13254387129934  C 7.90152046395285 7.22201755550986  7.85529239377741 7.30801170367324  7.8006140234375 7.39052631578948  C 7.74692981291119 7.47105263157894  7.68529239377741 7.54611111499452  7.61570176603619 7.61570176603618  C 7.54611111499452 7.68529241707785  7.47105263157895 7.74692983621163  7.39052631578947 7.8006140234375  C 7.30900584018641 7.85529239377742  7.22301169202303 7.90152046395285  7.13254387129934 7.93929823396381  C 7.04207602727522 7.97707600397478  6.94862572711075 8.00540933730811  6.85219297080592 8.02429823396381  C 6.75576023780154 8.04318713061952  6.65883041324013 8.05263157894737  6.56140349712171 8.05263157894737  C 6.46397658100329 8.05263157894737  6.36704675644189 8.04269006236295  6.2706140234375 8.02280702919408  C 6.17418126713268 8.00491229235197  6.08073097861842 7.97707602727522  5.99026315789474 7.93929823396381  C 5.90078947368421 7.90152046395285  5.81479532552084 7.85529239377742  5.73228071340461 7.8006140234375  C 5.65175439761513 7.74692981291118  5.57669591419956 7.68529239377742  5.50710526315789 7.61570176603618  C 5.43751461211623 7.54611111499452  5.37587718133224 7.47105263157895  5.32219297080592 7.39052631578948  C 5.26751460046601 7.3090058401864  5.22128653029057 7.22301169202303  5.18350876027961 7.13254387129934  C 5.14573099026864 7.04207602727522  5.11739765693531 6.94862572711075  5.09850876027961 6.85219297080592  C 5.07961988692434 6.75576023780153  5.07017545024671 6.65883041324014  5.07017545024671 6.56140349712171  C 5.07017545024671 6.46397658100329  5.08011696683114 6.36704675644189  5.1 6.2706140234375  C 5.1178947368421 6.17418126713268  5.14573099026864 6.08073097861842  5.1835087602796 5.99026315789473  C 5.22128653029057 5.90078947368421  5.26751460046601 5.81479532552083  5.32219297080592 5.73228071340461  C 5.37587718133224 5.65175439761513  5.43751461211623 5.57669591419956  5.50710526315789 5.5071052631579  C 5.57669591419956 5.43751461211622  5.65175439761513 5.37587718133224  5.7322807134046 5.32219297080592  C 5.81380118900768 5.26751460046601  5.89979533717105 5.22128653029057  5.99026315789474 5.1835087602796  C 6.08073100191886 5.14573099026864  6.17418129043311 5.11739765693531  6.2706140234375 5.09850876027961  C 6.36704677974233 5.07961988692435  6.46397660430373 5.07017545024671  6.56140349712171 5.07017545024671  C 6.65883038993969 5.07017545024671  6.7557602145011 5.08011696683114  6.85219297080592 5.1  C 6.94862572711075 5.1178947368421  7.04207602727522 5.14573099026864  7.13254387129934 5.1835087602796  C 7.22201755550987 5.22128653029057  7.30801170367325 5.26751460046601  7.39052631578947 5.32219297080592  C 7.47105263157895 5.37587718133224  7.54611111499452 5.43751461211622  7.61570176603619 5.5071052631579  C 7.68529241707785 5.57669591419956  7.74692983621162 5.65175439761513  7.8006140234375 5.73228071340461  C 7.85529239377741 5.81380118900768  7.90152046395285 5.89979533717105  7.93929823396381 5.99026315789473  C 7.97707600397478 6.08073100191885  8.00540933730811 6.17418129043312  8.02429823396382 6.2706140234375  Z M 28.9014912397204 27.1478070291941  C 28.9203801363761 27.2442397854989  28.9298245730537 27.3411696100603  28.9298245497533 27.4385965028783  C 28.9298245497533 27.5360233956963  28.9198830331689 27.6329532202577  28.9 27.7293859765625  C 28.8821052631579 27.8258187328673  28.8542690097314 27.9192690213816  28.8164912397204 28.0097368421053  C 28.7787134697094 28.0992105263158  28.732485399534 28.1852046744792  28.6778070291941 28.2677192865954  C 28.6241228186678 28.3482456023849  28.5624853878838 28.4233040858004  28.4928947368421 28.4928947368421  C 28.4233040858004 28.5624853878838  28.3482456023849 28.6241228186678  28.2677192865954 28.6778070291941  C 28.1861988109923 28.732485399534  28.100204662829 28.7787134697094  28.0097368421053 28.8164912397204  C 27.9192689980811 28.8542690097314  27.8258187095669 28.8826023430647  27.7293859765625 28.9014912397204  C 27.6329532202577 28.9203801130757  27.5360233956963 28.9298245497533  27.4385965028783 28.9298245497533  C 27.3411696100603 28.9298245497533  27.2442397854989 28.9198830331689  27.1478070291941 28.9  C 27.0513742728892 28.8821052631579  26.9579239727248 28.8542690097314  26.8674561287007 28.8164912397204  C 26.7779824444901 28.7787134697094  26.6919882963268 28.732485399534  26.6094736842105 28.6778070291941  C 26.528947368421 28.6241228186678  26.4538888850055 28.5624853878838  26.3842982339638 28.4928947368421  C 26.3147075829221 28.4233040858004  26.2530701637884 28.3482456023849  26.1993859765625 28.2677192865954  C 26.1447076062226 28.1861988109923  26.0984795360471 28.100204662829  26.0607017660362 28.0097368421053  C 26.0229239960252 27.9192689980811  25.9945906626919 27.8258187095669  25.9757017660362 27.7293859765625  C 25.9568128693805 27.6329532202577  25.9473684210526 27.5360233956963  25.9473684210526 27.4385965028783  C 25.9473684210526 27.3411696100603  25.9573099376371 27.2442397854989  25.9771929708059 27.1478070291941  C 25.995087707648 27.0513742728893  26.0229239727248 26.9579239727248  26.0607017660362 26.8674561287007  C 26.0984795360472 26.7779824444901  26.1447076062226 26.6919882963267  26.1993859765625 26.6094736842105  C 26.2530701870888 26.528947368421  26.3147076062226 26.4538888850055  26.3842982339638 26.3842982339638  C 26.4538888850055 26.3147075829221  26.5289473684211 26.2530701637884  26.6094736842105 26.1993859765625  C 26.6909941598136 26.1447076062226  26.776988307977 26.0984795360471  26.8674561287007 26.0607017660362  C 26.9579239727248 26.0229239960252  27.0513742728893 25.9945906626919  27.1478070291941 25.9757017660362  C 27.2442397621985 25.9568128693805  27.3411695867599 25.9473684210526  27.4385965028783 25.9473684210526  C 27.5360234189967 25.9473684210526  27.6329532435581 25.9573099376371  27.7293859765625 25.9771929708059  C 27.8258187328673 25.995087707648  27.9192690213816 26.0229239727248  28.0097368421053 26.0607017660362  C 28.0992105263158 26.0984795360471  28.1852046744792 26.1447076062226  28.2677192865954 26.1993859765625  C 28.3482456023849 26.2530701870888  28.4233040858004 26.3147076062226  28.4928947368421 26.3842982339638  C 28.5624853878838 26.4538888850055  28.6241228186678 26.5289473684211  28.6778070291941 26.6094736842105  C 28.732485399534 26.6909941598136  28.7787134697094 26.776988307977  28.8164912397204 26.8674561287007  C 28.8542690097314 26.9579239727248  28.8826023430647 27.0513742728893  28.9014912397204 27.1478070291941  Z " fill-rule="nonzero" fill="#ffffff" stroke="none" transform="matrix(1 0 0 1 125 814 )" />
  </g>
</svg>