<?xml version="1.0" encoding="utf-8"?>
<svg version="1.1" xmlns:xlink="http://www.w3.org/1999/xlink" width="25px" height="25px" xmlns="http://www.w3.org/2000/svg">
  <g transform="matrix(1 0 0 1 -129 -818 )">
    <path d="M 5.05959959502696 21.2781342808912  C 4.65984048006422 21.2781342808912  4.27689268839351 21.1172936113267  3.99702382114955 20.831845249721  C 1.72916667829241 18.5173611072359  0.595238106863839 15.7400793573289  0.595238106863839 12.5  C 0.595238089425223 11.6779198701583  1.26148102642966 11.0116769331539  2.08333333914621 11.0116769331539  C 2.90518565186275 11.0116769331539  3.57142858886719 11.6779198701583  3.57142858886719 12.4997721828748  C 3.57142857142857 14.9305555478051  4.42162698800223 17.0133928455171  6.12202382114955 18.7485118931362  C 6.39476073270581 19.0266456574756  6.54756228369955 19.4006354922062  6.5476190359933 19.7901785714286  L 6.5476190359933 19.8050595354353  C 6.53938258867089 20.6210104199068  5.87559204899599 21.2781342808912  5.05959959502696 21.2781342808912  Z M 22.9166666608538 11.0121325673934  C 23.7384300068631 11.0121325673934  24.4046360868383 11.6782366636207  24.4047618931362 12.5  C 24.4047618931362 15.7876984049479  23.2425595121838 18.5937499883743  20.918154750279 20.918154750279  C 18.5937499883743 23.2425595121838  15.7876984049479 24.4047618931362  12.5 24.4047618931362  C 11.6782366636207 24.4046360868383  11.0121325673934 23.7384300068631  11.0121325673934 22.9166666608538  C 11.0121325673934 22.0949033148445  11.6782366636207 21.4286972348693  12.5 21.4285714285714  C 14.9652777855283 21.4285714285714  17.0699404878162 20.5570436546689  18.8139881068638 18.8139881068638  C 20.5570436546689 17.0699404878162  21.4285714285714 14.9652777855283  21.4285714285714 12.5  C 21.4286972348693 11.6782366636207  22.0949033148445 11.0121325673934  22.9166666608538 11.0121325673934  Z M 18.7485118931362 6.12202382114955  L 18.75 6.12202382114955  C 17.0138888811384 4.42162698800223  14.9305555478051 3.57142857142857  12.5 3.57142857142857  C 11.6782366636258 3.57130276512359  11.0121325674063 2.90509668515048  11.0121325674063 2.0833333391462  C 11.0121325674063 1.26156999314194  11.6782366636258 0.595363913168827  12.5 0.595238106863835  C 15.7400793573289 0.595238106863835  18.5168650716146 1.72867064267113  20.8303571428571 3.99553571428571  C 21.1130917318283 4.27185634904139  21.2742523476897 4.64932555579663  21.2782738211496 5.04464285714286  L 21.2782738211496 5.05952382114955  C 21.278314606887 5.87559964283809  20.6210945532788 6.53945827247358  19.8050595354353 6.54761903599331  L 19.7901785714286 6.54761903599331  C 19.4006354922062 6.54756228369955  19.0266456574756 6.39476073270581  18.7485118931362 6.12202382114955  Z " fill-rule="nonzero" fill="#ffffff" stroke="none" transform="matrix(1 0 0 1 129 818 )" />
  </g>
</svg>