<?xml version="1.0" encoding="utf-8"?>
<svg version="1.1" xmlns:xlink="http://www.w3.org/1999/xlink" width="29px" height="28px" xmlns="http://www.w3.org/2000/svg">
  <g transform="matrix(1 0 0 1 -202 -816 )">
    <path d="M 22.8045454545455 13.419765625  L 22.8032638788767 13.419765625  C 23.2976195438212 13.4196814050106  23.7479447327525 13.702714578086  23.9605176667554 14.147109375  L 23.9682070606948 14.1420051983643  L 27.8193118786991 20.78125  C 28.8061174242424 22.4822135516357  27.5732512726385 24.609375  25.5996401515151 24.609375  L 19.1443939393939 24.609375  L 19.8415656665779 25.2473958233643  C 20.1058063599804 25.4890635991856  20.2562063014821 25.8299529335262  20.2562063014821 26.1872005108643  C 20.2562063014821 26.8919686380794  19.6824055714 27.4632960891525  18.9745864999112 27.4632960891525  C 18.6534876410613 27.4632960891525  18.3440866517474 27.3432831311628  18.1076073332446 27.1270051983643  L 15.1612878787879 24.4320051983643  C 14.673591159597 23.9855496056288  14.6080285270752 23.2425743459061  15.0100631213009 22.71828125  L 17.492455818093 19.4784114483643  C 17.7353323896725 19.1688829724403  18.1078466609734 18.9879785461578  18.5023440720275 18.9879785461578  C 19.2101332455852 18.9879785461578  19.7839097386054 19.5592818646391  19.7839097386054 20.2640202227936  C 19.7839097386054 20.5386676988067  19.694913135746 20.8059858369474  19.5301452120324 21.02625  L 18.7407007575758 22.0572916766357  L 25.5996401515151 22.0572916766357  L 21.7639141514264 15.441015625  C 21.6070546377621 15.2239224122851  21.5226640850871 14.963244575017  21.5226640850871 14.695807262918  C 21.5226640850871 13.9910689047635  22.0964405781073 13.4197655862822  22.804229751665 13.4197655862822  Z M 17.9589456970585 8.88216144836425  L 17.9602272727273 8.88216144836425  L 14.5 2.91666667663575  L 10.5450883938506 9.73838542663575  C 10.3377338004396 10.1953500942904  9.88080456028848 10.4890357386316  9.37719311776757 10.4890357386316  C 8.66940394420987 10.4890357386316  8.09562745118969 9.91773242015028  8.09562745118969 9.21299406199584  C 8.09562745118969 9.00663148586229  8.14589329645503 8.80334753536833  8.24211490900213 8.62057292663575  L 8.23570706069484 8.61674480163575  L 12.2803282728161 1.640625  C 13.2671338183594 -0.0603385516357466  15.7328661516039 -0.0603385516357466  16.719671727184 1.640625  L 20.1465782728161 7.55125  L 20.4515909090909 6.498515625  C 20.6117083384533 5.95501101427795  21.1124853333969 5.58164439383252  21.6813420297094 5.58164439383252  C 22.3891312032671 5.58164439383252  22.9629076962873 6.15294771231382  22.9629076962873 6.85768607046825  C 22.9629076962873 6.9748326346209  22.9467063223127 7.09142123423514  22.9147600909979 7.20416667663574  L 21.8074873637251 11.0322916766357  C 21.6244410229049 11.6665249707061  20.9859218491417 12.05717026822  20.3349684243312 11.9331770733643  L 16.3159785453658 11.1675520733643  C 15.7118241163588 11.0524462672196  15.2749306227826 10.5263051170024  15.2749306227826 9.91384113586425  C 15.2749306227826 9.20887369342896  15.8488936292425 8.63738466544517  16.5569128787879 8.63738466544517  C 16.6377649986 8.63738466544517  16.7184358188115 8.64500043680772  16.79784721221 8.66013019836426  L 17.9589456970585 8.88216144836425  Z M 6.85033460597183 17.7366145733643  L 6.53378787878788 16.6558073016357  L 3.40164142415365 22.0572916766357  L 11.2858333333333 22.0572916766357  L 11.2858333333333 22.05984375  L 11.3627272727273 22.0572916766357  C 11.3640671312602 22.0572874923075  11.3654069955582 22.0572854001395  11.3667468606816 22.0572854001395  C 12.0745360342393 22.0572854001395  12.6483125272595 22.6285887186208  12.6483125272595 23.3333270767752  C 12.6483125272595 24.0380654349296  12.0745360342393 24.6093687534109  11.3667468606816 24.6093687534109  C 11.3397554893189 24.6093687534109  11.312770854295 24.6085197210104  11.2858333333333 24.6068229266357  L 11.2858333333333 24.609375  L 3.40164142415365 24.609375  C 1.4280303030303 24.609375  0.195164151426373 22.4822135516357  1.1819696969697 20.78125  L 4.38075757575757 15.264921875  L 3.25297978796757 15.4856770733643  C 3.17171320643369 15.5015470542014  3.08909325594692 15.5095380684426  3.00627840909091 15.5095380684426  C 2.29834823460855 15.5095380684426  1.72445743775457 14.9381209388165  1.72445743775457 14.2332421875  C 1.72445743775457 13.6230680541374  2.15821834666975 13.0982424220009  2.75957703021425 12.9808073016357  L 6.68629418190696 12.2151823016357  C 7.33667534780799 12.0884155445618  7.97684712228897 12.4762854202584  8.1626578182706 13.1096875  L 9.31094066657789 17.0207551983643  C 9.3450616631853 17.137029588426  9.36238285964812 17.2575487589171  9.36238285964812 17.3786848858643  C 9.36238285964812 18.0835219830568  8.78852597631237 18.6549053453437  8.08063763627486 18.6549053453437  C 7.51120091734603 18.6549053453437  7.0100392285888 18.2808412792395  6.85033460597183 17.7366145733643  Z " fill-rule="nonzero" fill="#ffffff" stroke="none" transform="matrix(1 0 0 1 202 816 )" />
  </g>
</svg>