<?xml version="1.0" encoding="utf-8"?>
<svg version="1.1" xmlns:xlink="http://www.w3.org/1999/xlink" width="18px" height="19px" xmlns="http://www.w3.org/2000/svg">
  <g transform="matrix(1 0 0 1 -145 -2384 )">
    <path d="M 1.27412109375 10.5959765625  C 0.61904296875 12.1382421875  0.5126953125 13.60958984375  1.03859375 13.884453125  C 1.401328125 14.073828125  1.9699609375 13.6426171875  2.5021875 12.85107421875  C 2.71294921875 13.713515625  3.23447265625 14.494375  3.97939453125 15.12080078125  C 3.19806640625 15.40923828125  2.6876953125 15.88029296875  2.6876953125 16.41439453125  C 2.6876953125 17.29240234375  4.06873046875 18.00232421875  5.773203125 18.00232421875  C 7.310625 18.00232421875  8.58388671875 17.42541015625  8.81890625 16.666953125  C 8.88203125 16.66599609375  9.12482421875 16.66599609375  9.186015625 16.666953125  C 9.42201171875 17.424453125  10.69625 18.00232421875  12.23267578125 18.00232421875  C 13.937109375 18.00232421875  15.31818359375 17.29142578125  15.31818359375 16.41439453125  C 15.31818359375 15.88125  14.8083203125 15.40923828125  14.026484375 15.12080078125  C 14.77041015625 14.4933984375  15.29384765625 13.713515625  15.50365234375 12.85107421875  C 16.0358984375 13.6426171875  16.60306640625 14.073828125  16.9662890625 13.884453125  C 17.49265625 13.60958984375  17.38876953125 12.137265625  16.7312890625 10.5959765625  C 16.21654296875 9.38390625  15.518203125 8.49140625  14.98408203125 8.2942578125  C 14.99185546875 8.21751953125  14.99572265625 8.138828125  14.99572265625 8.06115234375  C 14.99572265625 7.59302734375  14.865625 7.15986328125  14.643203125 6.80732421875  C 14.64708984375 6.7801171875  14.64708984375 6.75197265625  14.64708984375 6.724765625  C 14.64708984375 6.5091796875  14.59560546875 6.30716796875  14.50814453125 6.13234375  C 14.373203125 2.98177734375  12.32201171875 0.479960937500001  9.00294921875 0.479960937500001  C 5.68193359375 0.479960937500001  3.62978515625 2.98177734375  3.49625 6.13234375  C 3.40787109375 6.30814453125  3.35689453125 6.51013671875  3.35689453125 6.724765625  C 3.35689453125 6.75197265625  3.358828125 6.78013671875  3.35982421875 6.80732421875  C 3.13935546875 7.15986328125  3.00921875 7.59205078125  3.00921875 8.06115234375  C 3.00921875 8.13884765625  3.0121484375 8.2165234375  3.0189453125 8.2942578125  C 2.48865234375 8.49140625  1.7879296875 9.38490234375  1.27416015625 10.5959765625  Z " fill-rule="nonzero" fill="#ffffff" stroke="none" transform="matrix(1 0 0 1 145 2384 )" />
  </g>
</svg>