<?xml version="1.0" encoding="utf-8"?>
<svg version="1.1" xmlns:xlink="http://www.w3.org/1999/xlink" width="11px" height="11px" xmlns="http://www.w3.org/2000/svg">
  <g transform="matrix(1 0 0 1 -228 -2390 )">
    <path d="M 8.50065193359375 8.489065234375  C 9.7508319140625 7.5511902734375  10.6823075976562 6.30736958984375  10.682307578125 4.9026269140625  C 10.682307578125 2.4123858203125  8.19050666015625 0.382533164062499  5.3917401171875 0.382533164062499  C 2.42829203125 0.382533164062499  0.094253437499999 2.4123858203125  0.094253437499999 4.9026269140625  C 0.094253437499999 7.3970875390625  2.42829203125 9.42260068359375  5.3917401171875 9.4226006640625  C 6.01201064453125 9.4226006640625  6.6376405859375 9.266038203125  7.2605908203125 9.109835703125  L 8.969099453125 10.0456508789062  L 8.50065193359375 8.489065234375  Z M 4.40187099609375 3.5276808984375  C 4.40189099609375 3.882421171875  4.114303203125 4.17002896484375  3.7595429296875 4.17002896484375  C 3.40480265625 4.17002896484375  3.11721486328125 3.882421171875  3.11721486328125 3.5276808984375  C 3.11721486328125 3.172920625  3.40480265625 2.88535283203125  3.7595429296875 2.88535283203125  C 4.114283203125 2.88535283203125  4.40187099609375 3.172920625  4.40187099609375 3.5276808984375  Z M 7.8062896875 3.5276808984375  C 7.8062896875 3.882421171875  7.51870189453125 4.17002896484375  7.163961640625 4.17002896484375  C 6.8092213671875 4.17002896484375  6.52163357421875 3.882421171875  6.52163357421875 3.5276808984375  C 6.52163357421875 3.172920625  6.8092413671875 2.88535283203125  7.163961640625 2.88535283203125  C 7.5187019140625 2.88535283203125  7.80628970703125 3.172920625  7.8062896875 3.5276808984375  Z " fill-rule="nonzero" fill="#ffffff" stroke="none" transform="matrix(1 0 0 1 228 2390 )" />
  </g>
</svg>