<?xml version="1.0" encoding="utf-8"?>
<svg version="1.1" xmlns:xlink="http://www.w3.org/1999/xlink" width="13px" height="12px" xmlns="http://www.w3.org/2000/svg">
  <g transform="matrix(1 0 0 1 -221 -2385 )">
    <path d="M 2.3708224609375 11.6047762695312  L 2.8654270703125 10.1172628710938  L 2.71652375 10.0130145507813  C 1.13156126953125 8.90545859375  0.32817125 7.55782953125  0.32817125 6.00762314453125  C 0.32817125 3.22125521484375  3.01293056640625 0.9543691015625  6.31292095703125 0.9543691015625  C 9.11358728515625 0.9543691015625  11.6087678125 2.5915257421875  12.2760930859375 4.812856953125  C 12.1834070145701 4.80747465870835  12.0905864233741 4.80473385301368  11.9977442578125 4.80463787109375  C 8.943486328125 4.80463787109375  6.4585246484375 7.12507798828125  6.4585246484375 9.97737853515625  C 6.4585246484375 10.3336386328125  6.500639921875 10.6958180664062  6.58391060546875 11.0576975390625  C 6.48970115234375 11.0617570898437  6.39977123046875 11.0637968554687  6.31292095703125 11.0637968554687  C 5.68535125 11.0637968554687  5.15743037109375 10.955488984375  4.54599884765625 10.830023046875  C 4.4268121875 10.80562578125  4.0965691796875 10.7395331835937  4.0965691796875 10.7395331640625  L 2.3708224609375 11.6047762695312  Z M 9.5645767578125 4.0954573046875  C 9.5646167578125 3.55017837890625  9.1209464453125 3.106668046875  8.57568751953125 3.106668046875  C 8.03040859375 3.106668046875  7.58677828125 3.55017837890625  7.58677828125 4.0954573046875  C 7.58677828125 4.64073623046875  8.03042859375 5.08434654296875  8.57568751953125 5.0843465625  C 9.1209464453125 5.0843465625  9.5645767578125 4.64073625  9.5645767578125 4.0954573046875  Z M 5.1966059765625 4.0954573046875  C 5.1966059765625 3.550178359375  4.7529756640625 3.106668046875  4.20769673828125 3.106668046875  C 3.6624178125 3.106668046875  3.2188075 3.55017837890625  3.2188075 4.0954573046875  C 3.2188075 4.64073623046875  3.6624178125 5.08434654296875  4.20769673828125 5.0843465625  C 4.7529756640625 5.08434658203125  5.1966059765625 4.64073625  5.1966059765625 4.0954573046875  Z " fill-rule="nonzero" fill="#ffffff" stroke="none" transform="matrix(1 0 0 1 221 2385 )" />
  </g>
</svg>