<?xml version="1.0" encoding="utf-8"?>
<svg version="1.1" xmlns:xlink="http://www.w3.org/1999/xlink" width="16px" height="13px" xmlns="http://www.w3.org/2000/svg">
  <g transform="matrix(1 0 0 1 -300 -2386 )">
    <path d="M 7.839555546875 8.90133333984375  C 7.724 9.056  7.64666666015625 9.172  7.64666666015625 9.172  C 5.21244443359375 12.2626666601562  2.31466666015625 11.2968888867188  1.85111111328125 11.103555546875  C 0.69155556640625 10.7946666601562  0.305333339843751 8.6693333203125  1.73466666015625 8.01288888671875  C 4.1693333203125 7.239555546875  6.29422220703125 8.12844443359375  7.839555546875 8.90133333984375  Z M 10.1577777734375 8.28311111328125  C 11.24 6.35111111328125  11.6262222265625 4.496444453125  11.6262222265625 4.496444453125  L 8.03288888671875 4.496444453125  L 8.03288888671875 3.18311111328125  L 12.2831111132812 3.18311111328125  L 12.2831111132812 2.60311111328125  L 8.03288888671875 2.60311111328125  L 8.03288888671875 0.555555546875  L 6.10088888671875 0.555555546875  L 6.10088888671875 2.60311111328125  L 2.23688888671875 2.60311111328125  L 2.23688888671875 3.18311111328125  L 6.10088888671875 3.18311111328125  L 6.10088888671875 4.53511111328125  L 2.7782222265625 4.53511111328125  L 2.7782222265625 5.11466666015625  L 9.46266666015625 5.11466666015625  C 9.46266666015625 5.23066666015625  9.46266666015625 5.23066666015625  9.404444453125 5.61688888671875  C 9.3466666796875 6.003555546875  8.844444453125 6.96933333984375  8.4577777734375 7.7422222265625  C 3.512 5.8102222265625  2.08266666015625 6.96933333984375  1.696 7.16266666015625  C -1.228444453125 9.49066666015625  0.70488888671875 12.1648888867187  3.12266666015625 12.5231111132812  C 5.54044443359375 12.8817777734375  7.723555546875 11.6057777734375  9.26933333984375 9.7897777734375  C 9.5782222265625 9.9057777734375  10.1191111132813 10.195555546875  11.6648888867188 10.9488888867188  C 13.2102222265625 11.7026666601563  15.7604444335938 12.919555546875  15.760444453125 12.919555546875  L 15.760444453125 10.0222222265625  C 14.9875555664063 9.94488888671875  12.1671111132813 8.97911111328125  10.1577777734375 8.283555546875  Z " fill-rule="nonzero" fill="#ffffff" stroke="none" transform="matrix(1 0 0 1 300 2386 )" />
  </g>
</svg>