<?xml version="1.0" encoding="utf-8"?>
<svg version="1.1" xmlns:xlink="http://www.w3.org/1999/xlink" width="20px" height="19px" xmlns="http://www.w3.org/2000/svg">
  <g transform="matrix(1 0 0 1 -1126 -472 )">
    <path d="M 5.466875 17.428125  L 10 14.070625  L 14.533125 17.428125  C 14.6280345058479 17.4974567902414  14.7499600940613 17.5182789969572  14.8625 17.484375  C 15.04875 17.428125  15.1475 17.245625  15.09375 17.076875  L 13.35625 11.576875  L 17.991875 8.120625  C 18.0744005636544 8.0608921543826  18.1237764871569 7.96561748508897  18.125 7.86375  C 18.125 7.685  17.970625 7.533125  17.77125 7.5325  L 12.068125 7.52375000000001  L 10.34 2.11125  C 10.3040380991021 2.00464391525288  10.2180983645651 1.92244069091316  10.11 1.89125  C 9.9175 1.833125  9.71625 1.93625  9.66 2.11125  L 7.931875 7.52375000000001  L 2.22875 7.533125  C 2.11784423647001 7.53242549762979  2.01267847938762 7.58236197309343  1.943125 7.66875  C 1.89914403245545 7.72429267424485  1.87521349265731 7.79306278388381  1.87521349265731 7.86390990216272  C 1.87521349265731 7.9659846939727  1.92477187024661 8.06170540323147  2.008125 8.120625  L 6.644375 11.576875  L 4.90625 17.076875  C 4.8751554472158 17.1753847818589  4.89506703413532 17.2829073512243  4.959375 17.36375  C 5.0775 17.515  5.308125 17.545625  5.466875 17.428125  Z M 6.210625 18.433125  C 5.50592651977095 18.9538383681742  4.51501207747314 18.8204247477307  3.973125 18.131875  C 3.6560301754261 17.7267125242708  3.55900060889677 17.1912963619764  3.71375 16.700625  L 5.184375 12.0475  L 1.26125 9.1225  C 0.861670336737984 8.82758305182432  0.625860463412255 8.36045656844473  0.625860463412255 7.86382802152677  C 0.625860463412255 7.51338500306588  0.743528304474832 7.17309084568332  0.960000000000001 6.89750000000001  C 1.2659748558726 6.50956932220542  1.73279927703403 6.28318135673838  2.226875 6.283125  L 7.018125 6.27562500000001  L 8.469375 1.73125  C 8.735 0.900000000000006  9.631875 0.439999999999998  10.4725 0.695625000000007  C 10.9742357363655 0.845741907390149  11.3700912312086 1.23295120783585  11.53125 1.73125  L 12.9825 6.27500000000001  L 17.77375 6.283125  C 18.65625 6.284375  19.376875 6.989375  19.375625 7.86562499999999  C 19.3736614611313 8.36148719175311  19.1378342389341 8.82735020141772  18.739375 9.1225  L 14.81625 12.0475  L 16.286875 16.700625  C 16.551875 17.54  16.070625 18.42625  15.2225 18.68125  C 14.7324675622528 18.8284880131766  14.2017068753894 18.7363227630145  13.79 18.4325  L 10 15.62625  L 6.210625 18.4325  Z " fill-rule="nonzero" fill="#ffffff" stroke="none" transform="matrix(1 0 0 1 1126 472 )" />
  </g>
</svg>