<?xml version="1.0" encoding="utf-8"?>
<svg version="1.1" xmlns:xlink="http://www.w3.org/1999/xlink" width="16px" height="16px" xmlns="http://www.w3.org/2000/svg">
  <g transform="matrix(1 0 0 1 -612 -1058 )">
    <path d="M 0.009333328125 8  C 0.009333328125 3.586666671875  3.587111109375 0.009333328125  8 0.009333328125  C 12.413333328125 0.009333328125  15.990666671875 3.587111109375  15.990666671875 8  C 15.990666671875 12.413333328125  12.412888890625 15.990666671875  8 15.990666671875  C 3.586666671875 15.990666671875  0.009333328125 12.412888890625  0.009333328125 8  Z M 11.4675555625 4.1524444375  L 11.448 4.1524444375  L 11.348 4.1524444375  L 6.55377778125 5.351111109375  C 5.98129499696215 5.49429796338115  5.53429796338115 5.94129499696215  5.391111109375 6.51377778125  L 4.1924444375 11.328  C 4.18396600241016 11.3607266494295  4.17967536363948 11.3943970283387  4.17967536363948 11.4282040903887  C 4.17967536363948 11.6488725342675  4.35856248226066 11.8277596528887  4.57923092613948 11.8277596528887  C 4.58348809956158 11.8277596528887  4.58774500111446 11.8276916140707  4.592 11.8275555625  L 4.692 11.8275555625  L 9.50622221875 10.628888890625  C 10.0787050030378 10.4857020366189  10.5257020366189 10.0387050030378  10.668888890625 9.46622221875  L 11.8675555625 4.652  C 11.8760364961236 4.61926878961385  11.8803284147198 4.58559343020115  11.8803284147198 4.55178132632591  C 11.8803284147198 4.33111288244709  11.7014412960986 4.15222576382591  11.4807728522198 4.15222576382591  C 11.4763661845585 4.15222576382591  11.4719598184261 4.15229866502517  11.4675555625 4.1524444375  Z M 8 7.400888890625  C 8.33087992916202 7.400888890625  8.599111109375 7.66912007083798  8.599111109375 8  C 8.599111109375 8.33087992916202  8.33087992916202 8.599111109375  8 8.599111109375  C 7.66912007083798 8.599111109375  7.400888890625 8.33087992916202  7.400888890625 8  C 7.400888890625 7.66912007083798  7.66912007083798 7.400888890625  8 7.400888890625  Z " fill-rule="nonzero" fill="#000000" stroke="none" fill-opacity="0.498039215686275" transform="matrix(1 0 0 1 612 1058 )" />
  </g>
</svg>