<?xml version="1.0" encoding="utf-8"?>
<svg version="1.1" xmlns:xlink="http://www.w3.org/1999/xlink" width="15px" height="9px" xmlns="http://www.w3.org/2000/svg">
  <g transform="matrix(1 0 0 1 -1242 -1318 )">
    <path d="M 1.5978 1.4022  L 7.5 7.3044  L 13.4022 1.4022  C 13.5077031196582 1.29669688034183  13.6507960573067 1.23742584488798  13.8 1.23742584488798  C 14.1107011265173 1.23742584488798  14.362574155112 1.48929887348269  14.362574155112 1.8  C 14.362574155112 1.94920394269326  14.3033031196582 2.09229688034183  14.1978 2.1978  L 7.9608 8.4348  C 7.70601431208847 8.68943425509702  7.29308568791153 8.68943425509702  7.0383 8.4348  L 0.802200000000001 2.1978  C 0.696696880341831 2.09229688034183  0.637425844887984 1.94920394269326  0.637425844887984 1.8  C 0.637425844887984 1.48929887348269  0.889298873482691 1.23742584488798  1.2 1.23742584488798  C 1.34920394269326 1.23742584488798  1.49229688034183 1.29669688034183  1.5978 1.4022  Z " fill-rule="nonzero" fill="#555555" stroke="none" transform="matrix(1 0 0 1 1242 1318 )" />
  </g>
</svg>