<?xml version="1.0" encoding="utf-8"?>
<svg version="1.1" xmlns:xlink="http://www.w3.org/1999/xlink" width="16px" height="4px" xmlns="http://www.w3.org/2000/svg">
  <g transform="matrix(1 0 0 1 -1152 -284 )">
    <path d="M 0.8125 2  C 0.8125 2.86294492161061  1.51205507838939 3.5625  2.375 3.5625  C 3.23794492161061 3.5625  3.9375 2.86294492161061  3.9375 2  C 3.9375 1.13705507838938  3.23794492161061 0.437499999999998  2.375 0.437499999999998  C 1.51205507838938 0.437499999999998  0.8125 1.13705507838938  0.8125 2  Z M 6.4375 2  C 6.4375 2.86294492161061  7.13705507838938 3.5625  8 3.5625  C 8.86294492161061 3.5625  9.5625 2.86294492161061  9.5625 2  C 9.5625 1.13705507838938  8.86294492161061 0.437499999999998  8 0.437499999999998  C 7.13705507838938 0.437499999999998  6.4375 1.13705507838938  6.4375 2  Z M 12.0625 2  C 12.0625 2.86294492161061  12.7620550783894 3.5625  13.625 3.5625  C 14.4879449216106 3.5625  15.1875 2.86294492161061  15.1875 2  C 15.1875 1.13705507838938  14.4879449216106 0.437499999999998  13.625 0.437499999999998  C 12.7620550783894 0.437499999999998  12.0625 1.13705507838938  12.0625 2  Z " fill-rule="nonzero" fill="#000000" stroke="none" transform="matrix(1 0 0 1 1152 284 )" />
  </g>
</svg>