<?xml version="1.0" encoding="utf-8"?>
<svg version="1.1" xmlns:xlink="http://www.w3.org/1999/xlink" width="32px" height="32px" xmlns="http://www.w3.org/2000/svg">
  <defs>
    <filter x="604px" y="1750px" width="32px" height="32px" filterUnits="userSpaceOnUse" id="filter384">
      <feOffset dx="0" dy="0" in="SourceAlpha" result="shadowOffsetInner" />
      <feGaussianBlur stdDeviation="5" in="shadowOffsetInner" result="shadowGaussian" />
      <feComposite in2="shadowGaussian" operator="atop" in="SourceAlpha" result="shadowComposite" />
      <feColorMatrix type="matrix" values="0 0 0 0 0  0 0 0 0 0  0 0 0 0 0  0 0 0 0.313725490196078 0  " in="shadowComposite" />
    </filter>
    <g id="widget385">
      <path d="M 10.9898019140625 11.0465084765625  C 11.32977140625 10.7074683398438  11.3305808789063 10.1569216113281  10.9915707128906 9.81527323242187  L 7.22453475585938 6.03705486328125  L 10.9881230566406 2.315318203125  C 11.32977140625 1.97798692382812  11.3323496777344 1.42666072265625  10.9949883984375 1.08498237304688  C 10.6576571191406 0.742884316406251  10.1054615039062 0.740276074218748  9.76375318359375 1.078476796875  L 5.99674719726563 4.80456049804688  L 2.28583321289063 1.08195442382813  C 1.94592366210938 0.742014902343751  1.39540693359375 0.740306074218751  1.05462796875 1.08021559570313  C 0.714688447265624 1.42060482421875  0.714688447265624 1.97106161132813  1.052889140625 2.31103110351563  L 4.7594860546875 6.02845069335938  L 1.02356903320313 9.72377528320312  C 0.681890683593751 10.0619759765625  0.67844302734375 10.6116233203125  1.01667372070312 10.9533616113281  C 1.18749791015625 11.1259245996094  1.41012697265625 11.2121461523437  1.63443489257813 11.2121461523437  C 1.85532512695313 11.2121461523437  2.07789421875 11.1276334570313  2.24703955078125 10.9610963671875  L 5.98811311523438 7.26055532226563  L 9.75859666992188 11.0447996191406  C 9.92858141601562 11.2147244238281  10.152019921875 11.3001964746094  10.3754884277344 11.3001964746094  C 10.5981174902344 11.3001964746094  10.8197871972656 11.2147244238281  10.9898019140625 11.0465084765625  Z " fill-rule="nonzero" fill="#ffffff" stroke="none" transform="matrix(1 0 0 1 614 1760 )" />
    </g>
  </defs>
  <g transform="matrix(1 0 0 1 -604 -1750 )">
    <use xlink:href="#widget385" filter="url(#filter384)" />
    <use xlink:href="#widget385" />
  </g>
</svg>