<?xml version="1.0" encoding="utf-8"?>
<svg version="1.1" xmlns:xlink="http://www.w3.org/1999/xlink" width="21px" height="22px" xmlns="http://www.w3.org/2000/svg">
  <g transform="matrix(1 0 0 1 -609 -1649 )">
    <path d="M 0 15.6160714285714  C 0 13.3653273809524  1.00455580865604 11.4583333333333  3.01366742596811 9.89508928571428  C 2.9498861047836 9.73958333333333  2.91799544419134 9.52678571428572  2.91799544419134 9.25669642857143  C 2.91799544419134 9.09300595238095  2.96184510250569 8.89248511904762  3.0495444191344 8.65513392857143  C 3.1372437357631 8.41778273809524  3.23291571753986 8.23363095238095  3.33656036446469 8.10267857142857  C 3.32858769931663 7.92261904761905  3.35848519362187 7.70572916666667  3.42625284738041 7.45200892857143  C 3.49402050113895 7.19828869047619  3.58371298405467 7.02232142857143  3.69533029612756 6.92410714285714  C 3.69533029612756 5.78645833333333  4.06406605922551 4.60584077380952  4.80153758542141 3.38225446428571  C 5.53900911161731 2.15866815476191  6.40603644646925 1.30133928571429  7.40261958997722 0.810267857142856  C 8.51082004555809 0.270089285714285  9.80239179954442 0  11.2773348519362 0  C 12.3376993166287 0  13.3980637813212 0.225074404761907  14.4584282460137 0.675223214285715  C 14.8490888382688 0.847098214285715  15.2078587699317 1.04352678571429  15.5347380410023 1.26450892857143  C 15.8616173120729 1.48549107142857  16.1446469248292 1.71465773809524  16.3838268792711 1.95200892857143  C 16.623006833713 2.18936011904762  16.8422551252847 2.46763392857143  17.0415717539863 2.78683035714286  C 17.2408883826879 3.10602678571429  17.4083143507973 3.40885416666667  17.5438496583144 3.6953125  C 17.6793849658314 3.98177083333333  17.8089407744875 4.32756696428571  17.9325170842825 4.73270089285714  C 18.0560933940775 5.13783482142857  18.1577448747153 5.50409226190476  18.2374715261959 5.83147321428571  C 18.3171981776765 6.15885416666667  18.4048974943052 6.55989583333333  18.500569476082 7.03459821428571  L 18.5125284738041 7.09598214285714  C 18.9510250569476 7.77529761904762  19.1702733485194 8.38913690476191  19.1702733485194 8.9375  C 19.1702733485194 9.05208333333333  19.1343963553531 9.21577380952381  19.0626423690205 9.42857142857143  C 18.9908883826879 9.64136904761905  18.9550113895216 9.796875  18.9550113895216 9.89508928571428  C 18.9550113895216 9.90327380952381  18.9609908883827 9.91759672619048  18.9729498861048 9.93805803571428  C 18.9849088838269 9.95851934523809  18.998861047836 9.97898065476191  19.0148063781321 9.99944196428572  C 19.0307517084282 10.0199032738095  19.0387243735763 10.0342261904762  19.0387243735763 10.0424107142857  C 19.6526195899772 10.9754464285714  20.1329726651481 11.8532366071429  20.4797835990888 12.67578125  C 20.8265945330296 13.4983258928571  21 14.3515625  21 15.2354910714286  C 21 15.5874255952381  20.9222665148064 15.9966517857143  20.7667995444191 16.4631696428571  C 20.6113325740319 16.9296875  20.3900911161731 17.1629464285714  20.1030751708428 17.1629464285714  C 20.0313211845103 17.1629464285714  19.9535876993166 17.1322544642857  19.869874715262 17.0708705357143  C 19.7861617312073 17.0094866071429  19.7104214123007 16.9378720238095  19.6426537585421 16.8560267857143  C 19.5748861047836 16.774181547619  19.499145785877 16.6677827380952  19.4154328018223 16.5368303571429  C 19.3317198177677 16.4058779761905  19.2679384965831 16.2974330357143  19.2240888382688 16.2114955357143  C 19.1802391799544 16.1255580357143  19.126423690205 16.0191592261905  19.0626423690205 15.8922991071429  C 18.998861047836 15.7654389880952  18.9629840546697 15.6938244047619  18.9550113895216 15.6774553571429  C 18.9470387243736 15.6692708333333  18.9350797266515 15.6651785714286  18.9191343963554 15.6651785714286  L 18.8593394077449 15.7142857142857  C 18.3889521640091 16.9747023809524  17.8627562642369 17.8872767857143  17.2807517084282 18.4520089285714  C 17.4402050113895 18.6156994047619  17.6853644646925 18.7732514880952  18.0162300683371 18.9246651785714  C 18.3470956719818 19.0760788690476  18.62215261959 19.2459077380952  18.8414009111617 19.4341517857143  C 19.0606492027335 19.6223958333333  19.2021640091116 19.8883928571429  19.2659453302961 20.2321428571429  C 19.25 20.264880952381  19.2340546697039 20.3303571428571  19.2181093394077 20.4285714285714  C 19.2021640091116 20.5267857142857  19.1742596810934 20.6004464285714  19.1343963553531 20.6495535714286  C 18.624145785877 21.4434523809524  17.4202733485194 21.8404017857143  15.5227790432802 21.8404017857143  C 15.1002277904328 21.8404017857143  14.6597380410023 21.8035714285714  14.2013097949886 21.7299107142857  C 13.7428815489749 21.65625  13.3522209567198 21.5744047619048  13.0293280182232 21.484375  C 12.7064350797267 21.3943452380952  12.2898633257403 21.2715773809524  11.7796127562642 21.1160714285714  C 11.6600227790433 21.0751488095238  11.5683371298405 21.0465029761905  11.504555808656 21.0301339285714  C 11.3929384965831 20.9973958333333  11.2095671981777 20.9789806547619  10.9544419134396 20.9748883928571  C 10.6993166287016 20.9707961309524  10.5398633257403 20.9646577380952  10.4760820045558 20.9564732142857  C 10.1492027334852 21.3247767857143  9.64094533029613 21.5907738095238  8.95130979498861 21.7544642857143  C 8.26167425968109 21.9181547619048  7.58997722095672 22  6.93621867881549 22  C 6.65717539863326 22  6.38211845102506 21.9938616071429  6.11104783599089 21.9815848214286  C 5.83997722095672 21.9693080357143  5.46924829157175 21.9324776785714  4.99886104783599 21.87109375  C 4.52847380410023 21.8097098214286  4.12585421412301 21.725818452381  3.79100227790433 21.6194196428571  C 3.45615034168565 21.5130208333333  3.15916856492027 21.3493303571429  2.9000569476082 21.1283482142857  C 2.64094533029613 20.9073660714286  2.51138952164009 20.6454613095238  2.51138952164009 20.3426339285714  C 2.51138952164009 20.0152529761905  2.55125284738041 19.7717633928571  2.63097949886105 19.6121651785714  C 2.71070615034169 19.4525669642857  2.87414578587699 19.2540922619048  3.12129840546697 19.0167410714286  C 3.20899772209567 19.0003720238095  3.37044419134396 18.9471726190476  3.60563781321185 18.8571428571429  C 3.84083143507973 18.7671130952381  4.03815489749431 18.718005952381  4.19760820045558 18.7098214285714  C 4.22949886104784 18.7098214285714  4.28530751708428 18.7016369047619  4.36503416856492 18.6852678571429  C 4.38097949886105 18.6688988095238  4.38895216400911 18.6525297619048  4.38895216400911 18.6361607142857  L 4.36503416856492 18.5993303571429  C 3.98234624145786 18.5093005952381  3.55182232346241 18.0775669642857  3.07346241457859 17.3041294642857  C 2.59510250569476 16.5306919642857  2.30410022779043 15.8902529761905  2.2004555808656 15.3828125  L 2.14066059225513 15.3459821428571  C 2.10876993166287 15.3459821428571  2.06093394077449 15.4278273809524  1.99715261958998 15.5915178571429  C 1.85364464692483 15.9270833333333  1.63638952164009 16.2319568452381  1.34538724373576 16.5061383928571  C 1.05438496583144 16.7803199404762  0.745444191343964 16.9337797619048  0.418564920273349 16.9665178571429  L 0.406605922551253 16.9665178571429  C 0.374715261958998 16.9665178571429  0.350797266514806 16.9481026785714  0.334851936218679 16.9112723214286  C 0.318906605922551 16.8744419642857  0.298974943052392 16.8519345238095  0.2750569476082 16.84375  C 0.0916856492027335 16.4017857142857  0 15.9925595238095  0 15.6160714285714  Z " fill-rule="nonzero" fill="#7f7f7f" stroke="none" transform="matrix(1 0 0 1 609 1649 )" />
  </g>
</svg>