<?xml version="1.0" encoding="utf-8"?>
<svg version="1.1" xmlns:xlink="http://www.w3.org/1999/xlink" width="12px" height="12px" viewBox="367 2249  12 12" xmlns="http://www.w3.org/2000/svg">
  <path d="M 373 2249  C 376.36 2249  379 2251.64  379 2255  C 379 2258.36  376.36 2261  373 2261  C 369.64 2261  367 2258.36  367 2255  C 367 2251.64  369.64 2249  373 2249  Z " fill-rule="nonzero" fill="#f0f0f0" stroke="none" />
  <path d="M 373 2249.5  C 376.08 2249.5  378.5 2251.92  378.5 2255  C 378.5 2258.08  376.08 2260.5  373 2260.5  C 369.92 2260.5  367.5 2258.08  367.5 2255  C 367.5 2251.92  369.92 2249.5  373 2249.5  Z " stroke-width="1" stroke="#278948" fill="none" />
  <path d="M 373 2258  C 371.32 2258  370 2256.68  370 2255  C 370 2253.32  371.32 2252  373 2252  C 374.68 2252  376 2253.32  376 2255  C 376 2256.68  374.68 2258  373 2258  " fill-rule="nonzero" fill="#278948" stroke="none" />
</svg>