<?xml version="1.0" encoding="utf-8"?>
<svg version="1.1" xmlns:xlink="http://www.w3.org/1999/xlink" width="12px" height="12px" viewBox="367 2189  12 12" xmlns="http://www.w3.org/2000/svg">
  <path d="M 373 2189  C 376.36 2189  379 2191.64  379 2195  C 379 2198.36  376.36 2201  373 2201  C 369.64 2201  367 2198.36  367 2195  C 367 2191.64  369.64 2189  373 2189  Z " fill-rule="nonzero" fill="#f0f0f0" stroke="none" />
  <path d="M 373 2189.5  C 376.08 2189.5  378.5 2191.92  378.5 2195  C 378.5 2198.08  376.08 2200.5  373 2200.5  C 369.92 2200.5  367.5 2198.08  367.5 2195  C 367.5 2191.92  369.92 2189.5  373 2189.5  Z " stroke-width="1" stroke="#278948" fill="none" />
  <path d="M 373 2198  C 371.32 2198  370 2196.68  370 2195  C 370 2193.32  371.32 2192  373 2192  C 374.68 2192  376 2193.32  376 2195  C 376 2196.68  374.68 2198  373 2198  " fill-rule="nonzero" fill="#278948" stroke="none" />
</svg>