<?xml version="1.0" encoding="utf-8"?>
<svg version="1.1" xmlns:xlink="http://www.w3.org/1999/xlink" width="12px" height="12px" viewBox="367 2309  12 12" xmlns="http://www.w3.org/2000/svg">
  <path d="M 373 2309  C 376.36 2309  379 2311.64  379 2315  C 379 2318.36  376.36 2321  373 2321  C 369.64 2321  367 2318.36  367 2315  C 367 2311.64  369.64 2309  373 2309  Z " fill-rule="nonzero" fill="#f0f0f0" stroke="none" />
  <path d="M 373 2309.5  C 376.08 2309.5  378.5 2311.92  378.5 2315  C 378.5 2318.08  376.08 2320.5  373 2320.5  C 369.92 2320.5  367.5 2318.08  367.5 2315  C 367.5 2311.92  369.92 2309.5  373 2309.5  Z " stroke-width="1" stroke="#278948" fill="none" />
  <path d="M 373 2318  C 371.32 2318  370 2316.68  370 2315  C 370 2313.32  371.32 2312  373 2312  C 374.68 2312  376 2313.32  376 2315  C 376 2316.68  374.68 2318  373 2318  " fill-rule="nonzero" fill="#278948" stroke="none" />
</svg>