<?xml version="1.0" encoding="utf-8"?>
<svg version="1.1" xmlns:xlink="http://www.w3.org/1999/xlink" width="12px" height="12px" viewBox="367 2367  12 12" xmlns="http://www.w3.org/2000/svg">
  <path d="M 373 2367  C 376.36 2367  379 2369.64  379 2373  C 379 2376.36  376.36 2379  373 2379  C 369.64 2379  367 2376.36  367 2373  C 367 2369.64  369.64 2367  373 2367  Z " fill-rule="nonzero" fill="#ffffff" stroke="none" />
  <path d="M 373 2367.5  C 376.08 2367.5  378.5 2369.92  378.5 2373  C 378.5 2376.08  376.08 2378.5  373 2378.5  C 369.92 2378.5  367.5 2376.08  367.5 2373  C 367.5 2369.92  369.92 2367.5  373 2367.5  Z " stroke-width="1" stroke="#278948" fill="none" />
  <path d="M 373 2376  C 371.32 2376  370 2374.68  370 2373  C 370 2371.32  371.32 2370  373 2370  C 374.68 2370  376 2371.32  376 2373  C 376 2374.68  374.68 2376  373 2376  " fill-rule="nonzero" fill="#278948" stroke="none" />
</svg>