<svg t="1715407217645" class="icon" viewBox="0 0 1715 1024" version="1.1" xmlns="http://www.w3.org/2000/svg" p-id="8510" width="200" height="200"><path d="M1661.44 908.8h-163.84c-17.92-7.68-30.72-28.16-30.72-51.2v-23.04c0-17.92 7.68-35.84 20.48-43.52h87.04c25.6 0 43.52-20.48 43.52-43.52v-17.92c0-25.6-20.48-43.52-43.52-43.52H880.64c-25.6 0-43.52 20.48-43.52 43.52v17.92c0 25.6 20.48 43.52 43.52 43.52h409.6c12.8 10.24 20.48 25.6 20.48 43.52v23.04c0 25.6-15.36 48.64-38.4 51.2H967.68c-25.6 0-43.52 20.48-43.52 43.52v20.48c0 25.6 20.48 43.52 43.52 43.52h693.76c25.6 0 43.52-20.48 43.52-43.52v-17.92c0-25.6-17.92-46.08-43.52-46.08zM783.36 483.84v-17.92c0-25.6-20.48-43.52-43.52-43.52H43.52c-25.6 0-43.52 20.48-43.52 43.52v17.92c0 25.6 20.48 43.52 43.52 43.52H128c15.36 7.68 25.6 28.16 25.6 48.64v23.04c0 20.48-7.68 35.84-20.48 46.08H40.96c-17.92 0-33.28 20.48-33.28 43.52v17.92c0 25.6 15.36 43.52 33.28 43.52H563.2c17.92 0 33.28-20.48 33.28-43.52V691.2c0-25.6-15.36-43.52-33.28-43.52h-230.4c-12.8-10.24-23.04-25.6-23.04-46.08v-23.04c0-20.48 10.24-38.4 25.6-48.64h404.48c23.04-2.56 43.52-20.48 43.52-46.08z" fill="#F4F4F7" p-id="8511"></path><path d="M1134.08 824.32c5.12 15.36-5.12 30.72-23.04 35.84l-576 151.04c-17.92 5.12-33.28-5.12-38.4-20.48L307.2 268.8c-5.12-15.36 5.12-30.72 23.04-35.84l576-151.04c17.92-5.12 33.28 5.12 38.4 20.48l189.44 721.92z" fill="#E4E4E3" p-id="8512"></path><path d="M527.36 1013.76c-15.36 0-28.16-10.24-33.28-23.04l-189.44-721.92c-2.56-7.68 0-17.92 5.12-25.6 5.12-7.68 12.8-12.8 20.48-15.36L906.24 76.8c7.68-2.56 17.92-2.56 25.6 2.56 7.68 5.12 15.36 12.8 15.36 20.48l189.44 721.92c2.56 7.68 0 17.92-5.12 25.6-5.12 7.68-12.8 12.8-20.48 15.36l-576 151.04h-7.68zM916.48 84.48h-7.68L332.8 235.52c-7.68 2.56-12.8 5.12-17.92 12.8-5.12 5.12-5.12 12.8-2.56 20.48l189.44 721.92c2.56 12.8 17.92 20.48 33.28 17.92l576-151.04c7.68-2.56 12.8-5.12 17.92-12.8 5.12-5.12 5.12-12.8 2.56-20.48L942.08 102.4c-2.56-7.68-5.12-12.8-12.8-15.36-5.12-2.56-7.68-5.12-12.8-2.56z" fill="#AAA9A9" p-id="8513"></path><path d="M660.48 811.52h-130.56V97.28c0-12.8 10.24-25.6 25.6-25.6H1177.6c12.8 0 25.6 10.24 25.6 25.6v832c0 12.8-10.24 25.6-25.6 25.6H673.28v-130.56s0-12.8-12.8-12.8z" fill="#FFFFFF" p-id="8514"></path><path d="M1177.6 957.44H673.28c-2.56 0-2.56-2.56-2.56-2.56v-130.56s0-10.24-10.24-10.24h-128c-2.56 0-2.56-2.56-2.56-2.56V97.28c0-15.36 12.8-28.16 28.16-28.16H1177.6c15.36 0 28.16 12.8 28.16 28.16v832c0 15.36-12.8 28.16-28.16 28.16z m-501.76-5.12H1177.6c12.8 0 23.04-10.24 23.04-23.04V97.28c0-12.8-10.24-23.04-23.04-23.04H555.52c-12.8 0-23.04 10.24-23.04 23.04v711.68h125.44c12.8 2.56 15.36 10.24 15.36 15.36v128h2.56z" fill="#AAA9A9" p-id="8515"></path><path d="M673.28 957.44s-2.56 0 0 0l-143.36-143.36v-5.12h5.12l143.36 143.36v2.56s-2.56 2.56-5.12 2.56z m192-524.8c-56.32 0-102.4-46.08-102.4-102.4s46.08-102.4 102.4-102.4 102.4 46.08 102.4 102.4-46.08 102.4-102.4 102.4z m0-197.12c-53.76 0-94.72 43.52-94.72 94.72s43.52 94.72 94.72 94.72c53.76 0 94.72-43.52 94.72-94.72s-40.96-94.72-94.72-94.72z m212.48 286.72H660.48c-2.56 0-2.56-2.56-2.56-2.56 0-2.56 2.56-2.56 2.56-2.56h417.28c2.56 0 2.56 2.56 2.56 2.56l-2.56 2.56z m0 92.16H660.48s-2.56 0-2.56-2.56v-2.56l2.56-2.56h417.28c2.56 0 2.56 2.56 2.56 2.56l-2.56 5.12z m-138.24 97.28h-281.6s-2.56 0-2.56-2.56v-2.56l2.56-2.56h279.04s2.56 0 2.56 2.56v2.56c2.56 0 0 2.56 0 2.56z m138.24 0h-84.48s-2.56 0-2.56-2.56v-2.56l2.56-2.56h84.48s2.56 0 2.56 2.56v2.56s0 2.56-2.56 2.56z m2.56 92.16H816.64s-2.56 0-2.56-2.56v-2.56l2.56-2.56h263.68s2.56 0 2.56 2.56v2.56l-2.56 2.56z" fill="#AAA9A9" p-id="8516"></path><path d="M867.84 225.28c0 79.36 43.52 153.6 110.08 192 69.12 38.4 153.6 38.4 222.72 0s110.08-112.64 110.08-192c0-79.36-43.52-153.6-110.08-192s-153.6-38.4-222.72 0c-69.12 40.96-110.08 112.64-110.08 192z" fill="#E5E5E4" p-id="8517"></path><path d="M1090.56 450.56c-122.88 0-225.28-99.84-225.28-225.28S965.12 0 1090.56 0s225.28 99.84 225.28 225.28-102.4 225.28-225.28 225.28z m0-442.88c-120.32 0-217.6 97.28-217.6 217.6s97.28 217.6 217.6 217.6 217.6-97.28 217.6-217.6S1210.88 7.68 1090.56 7.68z" fill="#AAA9A9" p-id="8518"></path><path d="M911.36 225.28c0 97.28 79.36 176.64 176.64 176.64s176.64-79.36 176.64-176.64-76.8-174.08-174.08-174.08-179.2 76.8-179.2 174.08z" fill="#FFFFFF" p-id="8519"></path><path d="M1090.56 404.48c-99.84 0-181.76-79.36-181.76-179.2s81.92-179.2 181.76-179.2c99.84 0 181.76 79.36 181.76 179.2s-81.92 179.2-181.76 179.2z m0-350.72c-97.28 0-174.08 76.8-174.08 174.08 0 94.72 79.36 174.08 174.08 174.08 97.28 0 174.08-76.8 174.08-174.08s-79.36-174.08-174.08-174.08z" fill="#AAA9A9" p-id="8520"></path><path d="M1259.52 366.08l145.92 140.8c10.24 10.24 10.24 25.6 0 35.84-10.24 10.24-25.6 10.24-35.84 0l-148.48-143.36 38.4-33.28z" fill="#E5E5E4" p-id="8521"></path><path d="M1387.52 552.96c-7.68 0-15.36-2.56-20.48-7.68l-151.04-143.36 40.96-38.4 148.48 143.36c10.24 10.24 12.8 28.16 0 40.96-2.56 2.56-10.24 5.12-17.92 5.12z m-161.28-151.04l145.92 140.8c7.68 7.68 23.04 7.68 30.72 0 7.68-7.68 7.68-23.04 0-30.72l-143.36-138.24-33.28 28.16z m-12.8-243.2s-2.56 0-2.56-2.56c-33.28-69.12-120.32-71.68-120.32-71.68-2.56 0-2.56-2.56-2.56-2.56 0-2.56 2.56-2.56 2.56-2.56s92.16 0 128 74.24v2.56c-2.56 2.56-2.56 2.56-5.12 2.56z m-192 192c-2.56 0-2.56 0 0 0-23.04-7.68-43.52-35.84-43.52-35.84v-5.12h5.12s20.48 28.16 38.4 33.28c2.56 0 2.56 2.56 2.56 2.56 0 2.56-2.56 5.12-2.56 5.12zM1228.8 256l-2.56-2.56V197.12c0-2.56 2.56-2.56 2.56-2.56l2.56 2.56v56.32c2.56 2.56 0 2.56-2.56 2.56z" fill="#AAA9A9" p-id="8522"></path></svg>