<?xml version="1.0" encoding="utf-8"?>
<svg version="1.1" xmlns:xlink="http://www.w3.org/1999/xlink" width="12px" height="12px" viewBox="1147 2189  12 12" xmlns="http://www.w3.org/2000/svg">
  <path d="M 1153 2189  C 1156.36 2189  1159 2191.64  1159 2195  C 1159 2198.36  1156.36 2201  1153 2201  C 1149.64 2201  1147 2198.36  1147 2195  C 1147 2191.64  1149.64 2189  1153 2189  Z " fill-rule="nonzero" fill="#f0f0f0" stroke="none" />
  <path d="M 1153 2189.5  C 1156.08 2189.5  1158.5 2191.92  1158.5 2195  C 1158.5 2198.08  1156.08 2200.5  1153 2200.5  C 1149.92 2200.5  1147.5 2198.08  1147.5 2195  C 1147.5 2191.92  1149.92 2189.5  1153 2189.5  Z " stroke-width="1" stroke="#278948" fill="none" />
  <path d="M 1153 2198  C 1151.32 2198  1150 2196.68  1150 2195  C 1150 2193.32  1151.32 2192  1153 2192  C 1154.68 2192  1156 2193.32  1156 2195  C 1156 2196.68  1154.68 2198  1153 2198  " fill-rule="nonzero" fill="#278948" stroke="none" />
</svg>