<?xml version="1.0" encoding="utf-8"?>
<svg version="1.1" xmlns:xlink="http://www.w3.org/1999/xlink" width="12px" height="12px" viewBox="1147 2367  12 12" xmlns="http://www.w3.org/2000/svg">
  <path d="M 1153 2367  C 1156.36 2367  1159 2369.64  1159 2373  C 1159 2376.36  1156.36 2379  1153 2379  C 1149.64 2379  1147 2376.36  1147 2373  C 1147 2369.64  1149.64 2367  1153 2367  Z " fill-rule="nonzero" fill="#f0f0f0" stroke="none" />
  <path d="M 1153 2367.5  C 1156.08 2367.5  1158.5 2369.92  1158.5 2373  C 1158.5 2376.08  1156.08 2378.5  1153 2378.5  C 1149.92 2378.5  1147.5 2376.08  1147.5 2373  C 1147.5 2369.92  1149.92 2367.5  1153 2367.5  Z " stroke-width="1" stroke="#278948" fill="none" />
  <path d="M 1153 2376  C 1151.32 2376  1150 2374.68  1150 2373  C 1150 2371.32  1151.32 2370  1153 2370  C 1154.68 2370  1156 2371.32  1156 2373  C 1156 2374.68  1154.68 2376  1153 2376  " fill-rule="nonzero" fill="#278948" stroke="none" />
</svg>