<?xml version="1.0" encoding="utf-8"?>
<svg version="1.1" xmlns:xlink="http://www.w3.org/1999/xlink" width="64px" height="64px" xmlns="http://www.w3.org/2000/svg">
  <g transform="matrix(1 0 0 1 -1758 -4281 )">
    <path d="M 63.11111109375 32  C 63.11111109375 14.8  49.2 0.888888906250003  32 0.888888906250003  C 14.8 0.888888906250003  0.888888906249999 14.8  0.888888906249999 32  C 0.888888906249999 49.2  14.8 63.11111109375  32 63.11111109375  C 49.2 63.11111109375  63.11111109375 49.2  63.11111109375 32  Z M 21.3777778125 28.844444453125  C 19.022222265625 28.844444453125  17.06666671875 26.88888890625  17.066666640625 24.533333359375  C 17.066666640625 22.133333359375  19.0222221875 20.222222265625  21.3777778125 20.2222221875  C 23.7333334375 20.222222109375  25.68888890625 22.177777734375  25.68888890625 24.533333359375  C 25.68888890625 26.888888984375  23.733333359375 28.844444453125  21.3777778125 28.844444453125  Z M 41.3777778125 49.733333359375  L 41.4222221875 49.68888890625  C 40.666666640625 49.68888890625  40.088888828125 49.11111109375  40.08888890625 48.355555546875  C 40.08888890625 45.777777734375  38.755555546875 43.555555546875  36.444444453125 42.2222221875  C 33.733333359375 40.6222221875  30.31111109375 40.6222221875  27.51111109375 42.2222221875  C 24.53333328125 43.866666640625  24 46.844444375  23.91111109375 48.444444453125  C 23.91111109375 49.155555546875  23.28888890625 49.733333359375  22.5777778125 49.733333359375  L 22.533333359375 49.733333359375  C 21.7777778125 49.733333359375  21.244444453125 49.06666671875  21.244444453125 48.355555546875  C 21.422222265625 44.666666640625  23.244444453125 41.6  26.2222221875 39.91111109375  C 29.8222221875 37.91111109375  34.266666640625 37.91111109375  37.7777778125 39.955555546875  C 40.88888890625 41.777777734375  42.711111171875 44.844444453125  42.71111109375 48.4  C 42.71111109375 49.155555546875  42.13333328125 49.733333359375  41.3777778125 49.733333359375  Z M 46.933333359375 24.5777778125  C 46.9333334375 26.9333334375  44.9777778125 28.88888890625  42.6222221875 28.88888890625  C 40.2222221875 28.88888890625  38.31111109375 26.933333359375  38.31111109375 24.5777778125  C 38.31111109375 22.222222265625  40.266666640625 20.26666671875  42.6222221875 20.266666640625  C 44.977777734375 20.2666665625  46.93333328125 22.2222221875  46.933333359375 24.5777778125  Z " fill-rule="nonzero" fill="#b3b3b3" stroke="none" transform="matrix(1 0 0 1 1758 4281 )" />
  </g>
</svg>