<?xml version="1.0" encoding="utf-8"?>
<svg version="1.1" xmlns:xlink="http://www.w3.org/1999/xlink" width="10px" height="8px" xmlns="http://www.w3.org/2000/svg">
  <g transform="matrix(1 0 0 1 2003 -872 )">
    <path d="M 4.4162109375 3.9978515625  C 4.4162109375 4.60107421875  4.71455078125 5.0486328125  5 5.0486328125  C 5.28544921875 5.0486328125  5.5837890625 4.60107421875  5.5837890625 3.9978515625  C 5.5837890625 3.39462890625  5.2853515625 2.9470703125  5 2.9470703125  C 4.7146484375 2.9470703125  4.4162109375 3.39462890625  4.4162109375 3.9978515625  Z M 6.2841796875 3.9978515625  C 6.2841796875 4.9421875  5.7462890625 5.7490234375  5 5.7490234375  C 4.2537109375 5.7490234375  3.7158203125 4.94208984375  3.7158203125 3.99775390625  C 3.7158203125 3.05341796875  4.2537109375 2.24658203125  5 2.24658203125  C 5.7462890625 2.24658203125  6.2841796875 3.053515625  6.2841796875 3.9978515625  Z M 1.6142578125 3.9978515625  C 1.6142578125 4.88447265625  3.39482421875 6.449609375  5 6.449609375  C 6.65654296875 6.449609375  8.3857421875 4.97548828125  8.3857421875 3.9978515625  C 8.3857421875 3.02021484375  6.65654296875 1.54609375  5 1.54609375  C 3.39482421875 1.54609375  1.6142578125 3.11123046875  1.6142578125 3.9978515625  Z M 9.086328125 3.9978515625  C 9.086328125 5.38935546875  7.0208984375 7.15009765625  5 7.15009765625  C 3.0265625 7.15009765625  0.913671875 5.29287109375  0.913671875 3.9978515625  C 0.913671875 2.70283203125  3.0265625 0.84560546875  5 0.84560546875  C 7.0208984375 0.84560546875  9.086328125 2.60634765625  9.086328125 3.9978515625  Z " fill-rule="nonzero" fill="#8a8a8a" stroke="none" transform="matrix(1 0 0 1 -2003 872 )" />
  </g>
</svg>