<?xml version="1.0" encoding="utf-8"?>
<svg version="1.1" xmlns:xlink="http://www.w3.org/1999/xlink" width="10px" height="12px" xmlns="http://www.w3.org/2000/svg">
  <g transform="matrix(1 0 0 1 2106 71 )">
    <path d="M 9.9609247578125 4.9610822109375  C 9.96091204296875 3.9621146015625  9.66560990234375 3.03215080078125  9.157619421875 2.25361477734375  L 8.719446546875 2.721947953125  C 9.1138352421875 3.3757020234375  9.3407899296875 4.141859765625  9.3407899296875 4.96105906640625  C 9.3407899296875 6.06669786328125  8.92745352734375 7.07578412109375  8.246862640625 7.8422127421875  L 8.2548779140625 7.84206573046875  L 8.1403720390625 7.9578600234375  C 8.10479645703125 7.9951315078125  8.0685645078125 8.0317709296875  8.03168776953125 8.0677644140625  L 6.3947361640625 9.723200671875  C 6.3954932421875 9.72297493359375  6.396239890625 9.72273762890625  6.396985390625 9.72252230859375  L 5 11.1276468398438  L 1.84765715234375 7.9464761015625  L 1.84878812890625 7.9464645234375  C 1.1114467109375 7.16844826171875  0.65912092578125 6.1176036328125  0.65912092578125 4.9610590546875  C 0.65912092578125 2.56362547265625  2.60254441015625 0.62024712890625  4.9999328515625 0.62024712890625  C 5.8325395625 0.62024712890625  6.61033009765625 0.85468575  7.27101360546875 1.26106841015625  L 7.70234617578125 0.800060578125  C 6.92486125390625 0.294058875  5.99677394140625 0  4.999931703125 0  C 2.2601566015625 0  0.03907637890625 2.22119251171875  0.03907637890625 4.9610590546875  C 0.03907637890625 6.2397740390625  0.52301062109375 7.4053282734375  1.31753205078125 8.2849859296875  C 1.328271171875 8.30004408984375  1.34049203515625 8.31440073046875  1.3543520703125 8.3277965625  L 1.39691496875 8.37077736328125  C 1.4493128984375 8.42613645703125  1.50290896484375 8.480342578125  1.5577934375 8.53323828515625  L 4.4170602265625 11.42072175  C 4.42345832421875 11.426894109375  4.4301168828125 11.4326705742188  4.436910875 11.4382097226563  L 4.9987798671875 12  L 5.5329068046875 11.4658730625  C 5.54802168359375 11.4557104335937  5.5624686171875 11.4442014960938  5.57594432421875 11.4311899921875  L 8.6386524921875 8.3382648046875  C 8.6558695859375 8.321657765625  8.67058855859375 8.30355973828125  8.6829900078125 8.28445458984375  C 9.47721740234375 7.40486523046875  9.9609247578125 6.23952515625  9.9609247578125 4.9610822109375  Z M 4.99985298828125 3.10069156640625  C 4.0866212421875 3.100691578125  3.34623763671875 3.8410856015625  3.34623763671875 4.7543520703125  C 3.34623763671875 5.66766369140625  4.08662009375 6.407967421875  4.99985298828125 6.407967421875  C 5.913164609375 6.407967421875  6.65359220703125 5.6676636796875  6.65359220703125 4.7543520703125  C 6.65359220703125 3.8410740234375  5.913164609375 3.10069156640625  4.99985298828125 3.10069156640625  Z M 4.99994328125 3.72081483984375  C 5.57074321484375 3.72081483984375  6.03356038671875 4.18350699609375  6.03356038671875 4.7543520703125  C 6.03356038671875 5.3251184296875  5.57074321484375 5.78784416015625  4.99994328125 5.78784416015625  C 4.4290981953125 5.78784416015625  3.9663608984375 5.32510686328125  3.9663608984375 4.7543520703125  C 3.9663608984375 4.183506984375  4.4290981953125 3.72081483984375  4.99994328125 3.72081483984375  Z " fill-rule="nonzero" fill="#ffffff" stroke="none" transform="matrix(1 0 0 1 -2106 -71 )" />
  </g>
</svg>