<?xml version="1.0" encoding="utf-8"?>
<svg version="1.1" xmlns:xlink="http://www.w3.org/1999/xlink" width="16px" height="16px" xmlns="http://www.w3.org/2000/svg">
  <g transform="matrix(1 0 0 1 1900 -510 )">
    <path d="M 15.994578125 7.1566875  C 15.994578125 3.2253125  12.4354375 0.0389062499999993  8.012890625 0.03890625  C 3.5903125 0.03890625  0.005421875 3.2253125  0.005421875 7.1566875  C 0.005421875 9.46590625  1.13296875 11.51821875  3.049640625 12.818765625  C 3.061 12.82634375  2.85234375 15.961078125  2.85234375 15.961078125  L 6.071390625 14.081796875  C 6.661765625 14.205203125  7.328234375 14.2745  7.960734375 14.2745  C 12.38328125 14.2745  15.994578125 11.08809375  15.994578125 7.1566875  Z M 5.1159375 7.188125  C 5.1159375 7.740015625  4.6685625 8.1874375  4.116609375 8.1874375  C 3.56478125 8.1874375  3.117296875 7.74  3.117296875 7.188125  C 3.117296875 6.636203125  3.564796875 6.188796875  4.116609375 6.188796875  C 4.6685625 6.188796875  5.1159375 6.636203125  5.1159375 7.188125  Z M 8.999328125 7.188125  C 8.999328125 7.740015625  8.551828125 8.1874375  8 8.1874375  C 7.448046875 8.1874375  7.000671875 7.74  7.000671875 7.188125  C 7.000671875 6.636203125  7.448046875 6.188796875  8 6.188796875  C 8.551828125 6.188796875  8.999328125 6.636203125  8.999328125 7.188125  Z M 12.882578125 7.188125  C 12.882578125 7.740015625  12.435203125 8.1874375  11.88325 8.1874375  C 11.3313125 8.1874375  10.8839375 7.74  10.8839375 7.188125  C 10.8839375 6.636203125  11.3313125 6.188796875  11.88325 6.188796875  C 12.4351875 6.188796875  12.882578125 6.636203125  12.882578125 7.188125  Z " fill-rule="nonzero" fill="#555555" stroke="none" transform="matrix(1 0 0 1 -1900 510 )" />
  </g>
</svg>