<?xml version="1.0" encoding="utf-8"?>
<svg version="1.1" xmlns:xlink="http://www.w3.org/1999/xlink" width="10px" height="6px" xmlns="http://www.w3.org/2000/svg">
  <g transform="matrix(1 0 0 1 2021 68 )">
    <path d="M 1.0652 0.9348  L 5 4.8696  L 8.9348 0.9348  C 9.00513541310545 0.864464586894553  9.10053070487116 0.824950563258655  9.2 0.824950563258655  C 9.40713408434488 0.824950563258655  9.57504943674135 0.992865915655127  9.57504943674135 1.2  C 9.57504943674135 1.29946929512884  9.53553541310545 1.39486458689455  9.4652 1.4652  L 5.3072 5.6232  C 5.13734287472565 5.79295617006468  4.86205712527436 5.79295617006468  4.6922 5.6232  L 0.534800000000001 1.4652  C 0.464464586894554 1.39486458689455  0.424950563258656 1.29946929512884  0.424950563258656 1.2  C 0.424950563258656 0.992865915655127  0.592865915655127 0.824950563258655  0.800000000000001 0.824950563258655  C 0.899469295128839 0.824950563258655  0.994864586894554 0.864464586894553  1.0652 0.9348  Z " fill-rule="nonzero" fill="#ffffff" stroke="none" transform="matrix(1 0 0 1 -2021 -68 )" />
  </g>
</svg>