<?xml version="1.0" encoding="utf-8"?>
<svg version="1.1" xmlns:xlink="http://www.w3.org/1999/xlink" width="58px" height="53px" xmlns="http://www.w3.org/2000/svg">
  <g transform="matrix(1 0 0 1 -15 -25 )">
    <path d="M 14 5  L 14 17  L 1 17  L 1 5  L 14 5  Z M 4.24805468965517 7.98494  L 4.24627772413793 13.5166233793103  L 9.77796103448276 13.5166233793103  L 9.77796103448276 7.98494  L 4.24805468965517 7.98494  Z M 14 20  L 14 32  L 1 32  L 1 20  L 14 20  Z M 4.24805468965517 22.9611775172414  L 4.24627772413793 28.4893069655172  L 9.77796103448276 28.4893069655172  L 9.77796103448276 22.9611775172414  L 4.24805468965517 22.9611775172414  Z M 14 40.6970373103448  L 14 52  L 1 52  L 1 40.6970373103448  C 0.694130275862067 40.6970373103448  0.694130275862067 40.6970373103448  0.694130275862067 40.6970373103448  C 0.694130275862067 37.2067268689128  3.52358593787828 34.3772712068965  7.01389637931035 34.3772712068965  C 10.5042068207424 34.3772712068965  13.3336624827586 37.2067268689128  13.3336624827586 40.6970373103448  C 13.3336624827586 40.6970373103448  13.3336624827586 40.6970373103448  14 40.6970373103448  Z M 4.24627772413793 40.6970373103448  L 4.24627772413793 48.6773746206897  L 9.77796103448276 48.6773746206897  L 9.77796103448276 40.6970373103448  C 9.77796103448276 39.1695051437463  8.53965154590883 37.9311956551724  7.01211937931035 37.9311956551724  C 5.48458721271186 37.9311956551724  4.24627772413793 39.1695051437463  4.24627772413793 40.6970373103448  Z M 39.552739862069 13.8897854482759  L 37.2035957931034 16.5036968275862  L 36.4928109655172 13.056390137931  C 36.3525517508254 12.3690220426785  36.2818871108778 11.6692737555678  36.2818871108778 10.9677414714374  C 36.2818871108778 5.19815478123186  40.9590612482584 0.520980643851232  46.728647938464 0.520980643851232  C 50.7487925246236 0.520980643851232  54.4122709464286 2.82782060241819  56.1495668965517 6.45319855172414  L 57.6777544137931 9.63396089655172  L 54.2215628965517 8.96937703448276  C 51.5192638570241 8.45206669884836  48.7285864832178 8.65179466741817  46.1275000689655 9.54866675862069  C 43.603725460915 10.4157285300907  41.3414482712282 11.9094428984152  39.552739862069 13.8897854482759  Z M 46.7352211034483 4.07206917241379  L 46.7369980689655 4.06496137931035  C 43.8541335248862 4.06877716318252  41.2775030330959 5.86448169076534  40.2759635172414 8.5677835862069  C 41.7239972746787 7.56754876753181  43.3016660845169 6.7694480186905  44.9653667586207 6.19553903448276  C 46.7289954313652 5.58785902522303  48.5712107724433 5.2383288871625  50.4348564137931 5.15779310344828  C 49.3299113614223 4.45159067640894  48.0465627930068 4.07496916220418  46.7352211034483 4.07206917241379  Z " fill-rule="nonzero" fill="#8400ff" stroke="none" fill-opacity="0.0980392156862745" transform="matrix(1 0 0 1 15 25 )" />
  </g>
</svg>