<?xml version="1.0" encoding="utf-8"?>
<svg version="1.1" xmlns:xlink="http://www.w3.org/1999/xlink" width="34px" height="29px" xmlns="http://www.w3.org/2000/svg">
  <g transform="matrix(1 0 0 1 -31 -21 )">
    <path d="M 30.8080765517241 27.9242910344828  L 29.3154283448276 28.860750137931  L 29.4504774482759 27.1068884137931  C 29.5778763247868 25.4149394938761  29.2599118732046 23.7191290775119  28.5282340689655 22.1882570344828  C 27.9400595862069 20.9568222068965  26.5415903448276 19.4748357241379  24.7966134482759 18.2256313103448  L 23.364381862069 17.203878  L 25.0276184827586 16.6547966896552  C 27.9844835862069 15.6881292413793  31.7480895862069 17.2909491724138  33.0825882068965 20.0843337241379  C 34.4292264631364 22.8957474195569  33.4502644581938 26.2701070583593  30.8080765517241 27.9242910344828  Z M 31.4850991724138 20.8555353793103  C 30.8187383448276 19.4712817931034  29.2123644827586 18.4601903448276  27.5917749655172 18.2131925517241  C 28.5300110344828 19.0732422758621  29.5464333793103 20.1927284827586  30.131054 21.4223862758621  C 30.6912599365152 22.5906447638357  31.0505019106688 23.8449880072566  31.1936773793103 25.1326833793103  C 32.0343550124241 23.8567898162104  32.1449458745897 22.23366657655  31.4850991724138 20.8555353793103  Z M 23.0871757931034 17.440214  L 21.6389515862069 20.6494077241379  L 19.9170751724138 17.580594  C 17.9624167586207 14.0817553793103  15.9349028275862 11.8392291034483  13.3707464137931 10.3092646206897  C 10.5399699932498 8.62077659371113  7.32711482408612 7.67801300397487  4.03281 7.56918889655172  L 0.516201793103445 7.45724027586207  L 2.69298048275862 4.69228710344828  C 6.52070237874449 -0.140009594519183  13.3321825682741 -1.39675427709171  18.6323315172414 1.75141462068966  C 23.8139533103448 4.84155193103448  25.7295186206897 11.5851235172414  23.0871757931034 17.440214  Z M 16.8091682758621 4.80778965517242  C 14.219523176669 3.26906491125887  11.0208710234493 3.16906508108686  8.3401664137931 4.54302227586207  C 10.7540289797272 5.07517521979079  13.0668375292464 5.99129936778071  15.1903557241379 7.25644351724138  C 17.3367890029985 8.55571131686666  19.2110903640217 10.2586341977946  20.7096003448276 12.2710308965517  C 20.7984484827586 9.22354068965517  19.3928713793103 6.34663889655173  16.8091682758621 4.80778965517242  Z " fill-rule="nonzero" fill="#8400ff" stroke="none" fill-opacity="0.0980392156862745" transform="matrix(1 0 0 1 31 21 )" />
  </g>
</svg>