<?xml version="1.0" encoding="utf-8"?>
<svg version="1.1" xmlns:xlink="http://www.w3.org/1999/xlink" width="27px" height="21px" xmlns="http://www.w3.org/2000/svg">
  <g transform="matrix(1 0 0 1 -50 -31 )">
    <path d="M 25.2632344137931 16.8794372413793  L 24.0193608965517 20.1597095172414  L 22.1091264827586 17.2081752413793  C 20.2597711987234 14.3545094441116  17.6952148618099 12.0350134405369  14.6707626896552 10.4805963448276  C 12.2381014482759 9.23672282758621  8.213282 8.56325413793104  3.90059475862069 8.70363413793104  L 0.383986551724142 8.81202882758621  L 2.38306903448277 5.91735737931035  C 4.04097475862069 3.51668144827587  6.85212896551725 1.65264806896553  10.0933080689655 0.822806689655177  C 13.3700264137931 -0.0230273103448226  16.7569163448276 0.268394482758627  19.3868204137931 1.6206627586207  C 24.9417511343283 4.47172810401673  27.4708712394307 11.0388748917633  25.2632344137931 16.8794372413793  Z M 8.34477724137932 5.28120489655173  L 8.34477724137931 5.275874  C 10.887610137931 5.50865606896552  13.8657988275862 6.06484524137931  16.2966831034483 7.31582662068966  C 18.6061181912243 8.50383150435907  20.6985428474232 10.0729998136672  22.4858424827586 11.9572519310345  C 22.2826384842599 8.89728797247754  20.489110717178 6.16821185398569  17.7609 4.76766282758621  C 15.0261551724138 3.36741662068966  11.230563862069 3.70326248275862  8.34477724137932 5.28120489655173  Z " fill-rule="nonzero" fill="#8400ff" stroke="none" fill-opacity="0.0980392156862745" transform="matrix(1 0 0 1 50 31 )" />
  </g>
</svg>