<?xml version="1.0" encoding="utf-8"?>
<svg version="1.1" xmlns:xlink="http://www.w3.org/1999/xlink" width="45px" height="72px" xmlns="http://www.w3.org/2000/svg">
  <g transform="matrix(1 0 0 1 0 -8 )">
    <path d="M 44 68.4636513793103  C 44.8665188275862 69.9357350711523  43.6731592090833 71.1290946896552  42.2010755172414 71  L 2.66544331034483 71  C 1.19335961850287 71.1290946896552  0 69.9357350711523  0 68.4636513793103  L 0 15.1316845517241  C 0.000504939108211393 13.952951959829  0.775172652220458 12.9145214704234  1.90490351724138 12.578189862069  L 41.4405357241379 0.80048427586207  C 41.6873646891932 0.727000914973081  41.9435404646229 0.689677367947736  42.201075592941 0.689677367947736  C 43.673159284783 0.689677367947736  44.8665189032858 1.88303698645061  44.8665189032858 3.35512067829256  L 44.8665188275862 8.74528234482759  C 44.8665188275862 10.2173660366695  43.6731592090833 11.4107256551724  42.2010755172414 11.4107256551724  C 40.7289918253994 11.4107256551724  39.5356322068966 10.2173660366695  39.5356322068966 8.74528234482759  L 39.5356322068966 6.93100393103448  L 6 17.1201052413793  L 6 65  L 39 65  L 39 39.5275987586207  L 39.5356322068966 39.5275987586207  C 39.5356322068966 38.0555150667787  40.7289918253994 36.8621554482759  42.2010755172414 36.8621554482759  C 43.6731592090833 36.8621554482759  44.8665188275862 38.0555150667787  44.8665188275862 39.5275987586207  C 44.8665188275862 39.5275987586207  44.8665188275862 39.5275987586207  44 39.5275987586207  L 44 68.4636513793103  Z " fill-rule="nonzero" fill="#8400ff" stroke="none" fill-opacity="0.0980392156862745" transform="matrix(1 0 0 1 0 8 )" />
  </g>
</svg>