<?xml version="1.0" encoding="utf-8"?>
<svg version="1.1" xmlns:xlink="http://www.w3.org/1999/xlink" width="19px" height="15px" xmlns="http://www.w3.org/2000/svg">
  <g transform="matrix(1 0 0 1 -44 -36 )">
    <path d="M 4.80426710344828 10.5182842068966  C 2.1545164352796 10.5182842068966  0.006469103448282 8.37023687506523  0.006469103448282 5.72048620689655  C 0.006469103448282 3.07073553872787  2.1545164352796 0.922688206896552  4.80426710344828 0.922688206896552  C 7.45401777161697 0.922688206896552  9.60206510344829 3.07073553872787  9.60206510344829 5.72048620689655  C 9.60206510344829 8.37023687506523  7.45401777161697 10.5182842068966  4.80426710344828 10.5182842068966  Z M 4.8042671724138 4.48549751724138  C 4.11729479812299 4.48549751724138  3.56039365517243 5.04239866019196  3.56039365517243 5.72937103448276  C 3.56039365517243 6.41634340877356  4.11729479812299 6.97324455172414  4.8042671724138 6.97324455172414  C 5.49123954670461 6.97324455172414  6.04814068965518 6.41634340877356  6.04814068965518 5.72937103448276  C 6.04814068965518 5.04239866019196  5.49123954670461 4.48549751724138  4.8042671724138 4.48549751724138  Z M 18.6503566896552 9.74175172413793  C 18.6503566515666 12.3915023653739  16.5023093308911 14.5395496551724  13.8525586896552 14.5395496551724  C 11.2028080214865 14.5395496551724  9.05476068965518 12.3915023233411  9.05476068965518 9.74175165517241  C 9.05476068965518 7.09200098700374  11.2028080214865 4.94395365517241  13.8525586896552 4.94395365517241  C 16.5023093578239 4.94395365517241  18.6503566896552 7.09200098700374  18.6503566896552 9.74175165517241  Z M 13.8525587586207 8.50676296551724  C 13.1655863843299 8.50676296551724  12.6086852413793 9.06366410846781  12.6086852413793 9.75063648275862  C 12.6086852413793 10.4376088570494  13.1655863843299 10.99451  13.8525587586207 10.99451  C 14.5395311329115 10.99451  15.0964322758621 10.4376088570494  15.0964322758621 9.75063648275862  C 15.0964322758621 9.06366410846781  14.5395311329115 8.50676296551724  13.8525587586207 8.50676296551724  Z " fill-rule="nonzero" fill="#8400ff" stroke="none" fill-opacity="0.0980392156862745" transform="matrix(1 0 0 1 44 36 )" />
  </g>
</svg>