<?xml version="1.0" encoding="utf-8"?>
<svg version="1.1" xmlns:xlink="http://www.w3.org/1999/xlink" width="92px" height="74px" xmlns="http://www.w3.org/2000/svg">
  <g transform="matrix(1 0 0 1 15 -2 )">
    <path d="M 58.2896404109589 28.3300847457627  C 60.2659048322561 29.2180431070159  62.2976524595161 29.9782382306815  64.3722345890411 30.6059375  C 64.6678082191781 30.6059375  64.5744691780822 29.7853919491525  64.3722345890411 29.4447881355932  C 62.3945432118708 28.3486241409273  60.3095225805095 27.4563597666156  58.1496318493151 26.7818855932203  C 57.9629537671233 26.7818855932203  58.0096232876712 28.1443008474576  58.2896404109589 28.3300847457627  Z M 58.3363099315068 32.2625105932203  L 58.3518664383562 32.2470286016949  C 60.577064718049 33.1359204954026  62.8521238340765 33.8958103585857  65.1656164383562 34.5228813559322  C 65.5078595890411 34.5228813559322  65.3678510273973 34.0893855932203  65.3678510273973 33.748781779661  C 63.1229875618812 32.6281403323082  60.8110871975984 31.6457650100538  58.4452054794521 30.8072033898305  C 58.0562928082192 30.8072033898305  58.1496318493151 32.0147987288136  58.3363099315068 32.2625105932203  Z M 35.1104452054795 22.4314459745763  C 35.0015496575342 22.7256038135593  35.6393664383562 23.5461493644068  36.1216181506849 23.406811440678  C 36.6038698630137 23.2674735169492  37.2416866438356 22.3385540254237  38.2684160958904 21.5644544491525  C 39.4355956013767 21.0002955890212  40.6546226820961 20.5492385240132  41.9086386986301 20.2175211864407  C 42.0570376323469 19.8552322970756  41.9845489667671 19.4404189798488  41.7219606164384 19.1492637711864  C 41.4263869863014 18.8551059322034  40.1663099315069 18.9015519067797  37.9728424657534 19.8304713983051  C 36.7500893123137 20.3495568683908  35.7408083724279 21.2666602004094  35.1104452054795 22.4314459745763  Z M 28.078904109589 35.9007786016949  C 27.8922260273973 38.718501059322  28.2500256849315 39.8022404661017  29.510102739726 40.6692319915254  C 31.2443895432649 41.6767190829321  33.1381450707173 42.3834757630604  35.1104452054795 42.7593008474576  C 36.2504073265602 42.926146064704  37.3370489227737 42.2228805411395  37.6461558219178 41.1182097457627  C 37.9417294520548 39.8177224576271  36.0905051369863 35.6995127118644  35.2660102739726 32.943718220339  C 34.8133453186338 30.900261548316  34.845303112896 28.7799470727059  35.3593493150685 26.7509216101695  C 35.3593493150685 26.2709798728814  33.0258732876712 25.8684480932203  32.5436215753425 26.0232680084746  C 31.0813099315068 26.5032097457627  28.2655821917808 33.0830561440678  28.078904109589 35.9007786016949  Z M 30.1479195205479 39.1365148305085  C 29.8284384277664 37.1559403791091  29.891798442772 35.132876967045  30.3345976027397 33.1759480932203  C 30.8635188356164 30.2188877118644  32.4191695205479 27.6643591101695  33.0569863013699 27.5095391949153  C 33.3058904109589 27.5095391949153  33.3525599315068 27.7108050847458  33.3058904109589 28.1443008474576  C 33.2914216656402 31.0046854200336  33.6682366384665 33.853720010006  34.4259589041096 36.6129502118644  C 35.4993578767123 40.0035063559322  35.7327054794521 40.4834480932203  35.3437928082192 40.6847139830508  C 33.5326393098349 40.4825284850509  31.7727220866023 39.9581311022243  30.1479195205479 39.1365148305085  Z M 83.3822859589041 54.2624205508475  C 83.475625 53.9682627118644  78.8708989726027 50.1751747881356  78.2797517123288 50.3454766949153  C 77.9375085616438 50.4383686440678  77.4085873287671 50.9802383474576  77.501926369863 51.3208421610169  C 79.0722524138004 52.6590174014482  80.7472920278561 53.870451542605  82.5111215753425 54.9436281779661  C 82.9000342465753 55.0829661016949  83.2889469178082 54.5565783898305  83.3822859589041 54.2624205508475  Z M 82.3555565068493 48.7508315677966  L 82.3711130136986 48.7972775423729  C 82.0288698630137 48.7972775423729  81.204375 49.385593220339  81.0176969178082 49.4320391949152  C 80.8310188356164 49.4784851694915  85.0468321917808 52.3426536016949  85.5913099315069 52.5284375  C 86.1357876712329 52.7142213983051  86.2291267123288 52.1413877118644  86.3691352739726 51.8472298728813  C 85.1934659433115 50.6221781124246  83.8407138866448 49.5785560936483  82.3555565068493 48.7508315677966  Z M 84.5490239726027 47.5432362288136  L 84.564580479452 47.5896822033898  C 84.564580479452 47.5896822033898  86.0268921232877 48.9985434322034  86.2135702054795 49.1378813559322  C 86.4002482876712 49.277219279661  86.4624743150685 48.9520974576271  86.6491523972603 48.7043855932203  C 86.8358304794521 48.4566737288135  86.1669006849315 47.2490783898305  85.5290839041096 47.0168485169491  C 84.8912671232877 46.7846186440678  84.7357020547945 47.3574523305085  84.5490239726027 47.5432362288136  Z M 74.5306335616438 47.5432362288136  C 75.8373801369863 49.7726430084746  82.4022260273973 48.9985434322034  81.7799657534247 45.3138294491525  C 81.541237259197 43.3204546516497  79.8426343509039 41.8195054751901  77.8254888412274 41.8195054751901  C 77.2229717749807 41.8195054751901  76.6283083971995 41.9555629712939  76.0862842465753 42.2174311440678  C 74.757287415577 42.7774552667708  73.8938769430907 44.0744137891715  73.8938769430907 45.5107214473925  C 73.8938769430907 46.2368488965915  74.1159727237996 46.9457743227735  74.5306335616438 47.5432362288136  Z M 76.0396147260274 46.5833527542373  L 76.0396147260274 46.5678707627119  C 75.8578008809584 46.2430445966316  75.7623694917025 45.8773837520426  75.7623694917025 45.5055606849491  C 75.7623694917025 44.6057223377591  76.3171760515887 43.7980830297675  77.1596832191781 43.4714724576271  C 77.3225196384613 43.4404668264332  77.4879379654073 43.4248597440445  77.6537279677887 43.4248597440445  C 79.0093562390271 43.4248597440445  80.1427274742353 44.4506881117201  80.2709845890411 45.7937711864407  C 80.5043321917808 47.5896822033898  76.7707705479452 47.9767319915254  76.0396147260274 46.5833527542373  Z M 64.3255650684932 52.1413877118644  L 64.3255650684931 52.125905720339  C 62.9707204958462 52.5042326446546  61.885536917784 53.5149143303496  61.4164982876712 54.8352542372881  C 61.3670630151664 56.4993199023368  62.577293442585 57.9366548487022  64.2322260273973 58.1793644067796  C 66.4723630136986 58.519968220339  70.2681506849315 56.2441154661017  69.4903253424658 53.9682627118644  C 68.7125 51.6924099576271  65.7256506849315 51.7543379237288  64.3255650684932 52.1413877118644  Z M 67.5302054794521 55.0984480932203  L 67.5302054794521 55.0829661016949  C 67.0012842465753 56.0583315677966  64.9478253424658 56.7240572033898  64.1233304794521 55.9499576271186  C 63.8460022522414 55.6617706936018  63.6911903960109 55.2781463903744  63.6911903960109 54.8791130390922  C 63.6911903960109 54.0240662574421  64.3876789315909 53.3309138865499  65.2468410809424 53.3309138865499  C 65.2768255164589 53.3309138865499  65.3068036847301 53.3317766379067  65.3367380136986 53.333501059322  C 66.3323544520548 53.2560911016949  68.0591267123288 54.1230826271186  67.5302054794521 55.0984480932203  Z M 44.8332619863014 53.6431408898305  L 44.8332619863014 53.6276588983051  C 43.1423360831097 53.7706515186828  41.8429900063647 55.1783124489987  41.8429900063647 56.8672030909654  C 41.8429900063647 58.4431360005001  42.9786467983765 59.7921540930132  44.5376883561644 60.0681673728813  C 48.6757191780822 61.0899788135593  51.4447773972603 58.519968220339  51.1958732876712 56.1512235169491  C 50.9469691780822 53.7824788135593  46 53.4728389830508  44.8332619863014 53.6431408898305  Z M 46.2800171232877 58.4270762711864  L 46.295573630137 58.411594279661  C 44.1021061643836 58.411594279661  42.3131078767123 55.8415836864407  44.8799315068493 55.2223040254237  C 46.1294288848586 55.1572941419419  47.3639234408135 55.5176780058768  48.3801455479452 56.2441154661017  C 49.2046404109589 57.1265889830508  48.4734845890411 58.4735222457627  46.2800171232877 58.4270762711864  Z M 31.4235530821918 53.736032838983  C 31.5791181506849 50.4538506355932  26.4299143835616 49.385593220339  24.3608989726027 49.7261970338983  C 22.6143718911737 49.8845375815424  21.2772440504392 51.3419950800871  21.2772440504392 53.0873535757909  C 21.2772440504392 54.1634092789464  21.7928173859044 55.1749710766232  22.6652397260274 55.8106197033898  C 24.8587071917808 57.6994226694915  31.2679880136986 57.0182150423729  31.4235530821918 53.736032838983  Z M 29.4167636986301 53.4883209745763  C 29.7434503424658 55.1294120762712  26.8343835616438 55.8725476694915  24.6098030821918 54.8042902542373  C 22.3696660958904 53.7360328389831  23.3497260273973 51.5685540254237  24.2208904109589 51.4601800847458  C 25.5743065068493 51.3053601694915  29.0900770547945 51.8472298728814  29.4167636986301 53.4883209745763  Z M 13.2224400684932 40.6227860169491  L 13.2379965753425 40.6227860169491  C 11.4234356415609 40.6896142562683  9.98707303978783 42.1729748031874  9.98707303978783 43.9800801345623  C 9.98707303978783 44.5139768807801  10.1149285044077 45.0401859700185  10.3600428082192 45.5150953389831  C 11.6201198630137 48.0386599576271  17.360470890411 48.2244438559322  18.1382962328767 44.4932838983051  C 18.9161215753425 40.762123940678  14.8869863013699 40.5144120762712  13.2224400684932 40.6227860169491  Z M 16.1937328767123 44.3075  L 16.2092893835617 44.3075  C 15.633698630137 45.9485911016949  13.7358047945206 45.8556991525424  12.4601712328767 45.0351536016949  C 11.1845376712329 44.2146080508475  12.3357191780822 42.4961069915254  13.3780051369863 42.2329131355932  C 14.7314212328767 41.8768273305085  16.7848801369863 42.6509269067797  16.1937328767123 44.3075  Z M 83.724529109589 36.7522881355932  L 83.7400856164383 36.7677701271187  C 79.2552111041365 34.0524001765645  74.2839574721173 32.2279982863971  69.1014126712329 31.3955190677966  C 69.1139753494196 30.6035715738324  69.0671760504568 29.8117943407919  68.961404109589 29.0267743644068  C 67.0364289735308 25.6366046684855  64.6316814295109 22.5394849719067  61.8209674657534 19.8304713983051  C 57.1540154109589 15.185873940678  49.8580136986302 15.0929819915254  49.8580136986302 15.0929819915254  C 49.8580136986302 15.0929819915254  49.8580136986302 14.8452701271187  49.7646746575343 13.0183951271187  C 49.6713356164384 11.1915201271187  46.4666952054795 11.129592161017  46.4666952054795 11.129592161017  L 46.5600342465753 6.96493644067798  C 47.8685877444733 6.7688751874371  48.9657879527852 5.8787029236568  49.4224315068493 4.64263771186442  C 49.951352739726 2.66094279661018  48.6912756849315 0.818585805084752  45.9688869863014 0.725693855932212  C 43.2464982876713 0.632801906779671  41.7375171232877 2.4132309322034  42.1264297945206 4.41040783898306  C 42.5153424657534 6.40758474576272  44.8954880136987 6.82559851694916  44.8954880136987 6.82559851694916  L 44.8954880136987 11.2224841101695  C 43.984540950011 11.3199719006044  43.0871964592587 11.5172728119894  42.2197688356165 11.8107997881356  C 41.0530308219178 12.2442955508475  41.0063613013699 14.9071980932203  41.0063613013699 14.9071980932203  C 41.0063613013699 14.9071980932203  37.4128082191781 15.2013559322034  36.5883133561644 15.4335858050848  C 29.4420240271144 18.0299886524662  24.0640998879767 23.9974773655286  22.2452140410959 31.3490730932204  C 19.1465451870252 32.1400139520956  16.097375626473 33.1119016043685  13.113544520548 34.2596875  C 8.1976883561644 36.1484904661017  3.77964041095892 39.1055508474576  2.22398972602741 41.3659216101695  C -0.285484563341137 45.9877187379725  -0.0220988803236571 51.6114715429544  2.90847602739728 55.9809216101695  C 6.7664897260274 61.2912447033898  13.3313356164384 64.8675847457627  22.6652397260274 68.1033209745763  C 34.2081395114111 72.3190777888884  46.5298426726427 74.0037443305258  58.787448630137 73.0420762711864  C 74.095051369863 71.9273728813559  79.1509160958904 67.0505455508475  83.5845205479452 64.1399311440678  C 88.3684521315032 60.9956964397811  91.3073953852023 55.7240015943186  91.4561130136986 50.0203548728814  C 91.8450256849315 43.5798463983051  89.9471318493151 40.9169438559322  83.724529109589 36.7522881355932  Z M 47.8978938356164 4.10076800847458  C 47.6023202054794 5.49414724576272  44.6776969178082 5.30836334745763  44.0554366438356 4.87486758474576  C 43.7576317522967 4.5663310050784  43.5913166220155 4.15509458126793  43.5913166220155 3.72726870021028  C 43.5913166220155 2.84345814050655  44.2884762234611 2.11529400180789  45.1755051369863 2.07262711864407  C 46.8556078767123 1.87136122881356  48.1934674657534 2.70738877118644  47.8978938356164 4.10076800847458  Z M 45.408852739726 12.7552012711864  L 45.4244092465753 12.7552012711864  C 47.2756335616438 12.848093220339  47.9601198630137 13.2815889830509  48.1934674657534 13.869904661017  C 48.4268150684932 14.4582203389831  48.1934674657534 14.5511122881356  47.6178767123288 14.6440042372881  C 47.0422859589041 14.7368961864407  43.9776541095891 14.6440042372881  43.433176369863 14.7368961864407  C 43.4087855460377 14.7400236147612  43.3842183969521 14.7415921508692  43.3596259698243 14.7415921508692  C 43.0417359745642 14.7415921508692  42.7840352163996 14.485125773639  42.7840352163996 14.1687584644285  C 42.7840352163996 14.130788124648  42.7878286658042 14.0929118574337  42.7953595890411 14.055688559322  C 42.888698630137 13.5757468220339  43.5576284246575 12.6623093220339  45.408852739726 12.7552012711864  Z M 30.9257448630137 21.7037923728814  L 30.941301369863 21.7037923728814  C 34.1783712697096 18.6539941427204  38.4328007546011 16.9008324577919  42.888698630137 16.7805190677966  C 47.8045547945205 16.4863612288136  53.2026626712329 17.4617266949153  56.4539726027397 19.5827595338983  C 57.930342705845 20.4097476699935  59.2729324727503 21.4536217259335  60.4364383561644 22.6791578389831  C 60.4364383561644 22.6791578389831  58.3518664383562 22.6791578389831  58.3051969178082 22.9268697033898  C 58.2585273972603 23.1745815677966  58.1651883561644 24.0415730932203  58.3051969178082 24.0880190677966  C 59.6810378594663 24.1531444043902  61.0493079208409 24.3291837452762  62.3965582191781 24.614406779661  C 62.6921318493151 24.9085646186441  65.896772260274 27.8036970338983  66.4256934931507 30.714311440678  C 66.8304966433804 33.2789186864225  66.8304966433804 35.8906999576453  66.4256934931507 38.4553072033898  C 66.2390154109589 38.315969279661  57.5740410958904 34.2906514830508  57.3873630136986 34.3990254237288  C 57.2006849315069 34.5073993644068  56.9051113013699 35.3124629237288  57.0451198630137 35.4672828389831  C 57.1851284246576 35.6221027542373  66.2856849315069 39.3842266949152  66.3790239726028 39.8177224576271  C 66.4723630136987 40.251218220339  66.192345890411 42.5735169491525  66.192345890411 42.5735169491525  C 66.192345890411 42.5735169491525  57.2006849315069 38.1301853813559  56.8584417808219 38.3624152542373  C 56.516198630137 38.5946451271186  56.0806164383562 39.229406779661  56.3295205479452 39.4306726694915  C 56.5784246575343 39.631938559322  66.145676369863 43.6882203389831  66.0990068493151 43.9823781779661  C 65.5857854425549 44.6047791054206  64.9366972734314 45.1025006694161  64.2011130136986 45.4376853813559  L 63.329948630137 45.8247351694915  C 60.8784776570671 44.2791314054321  58.3498969234572 42.8581274133498  55.7539297945206 41.5671875  C 55.4116866438356 41.7065254237288  54.7272003424658 42.0006832627119  55.0694434931507 42.480625  C 55.4116866438356 42.9605667372881  61.8831934931507 46.2117849576271  61.5409503424658 46.5523887711865  C 61.1987071917808 46.8929925847458  55.5205821917808 47.8064300847458  47.4000856164384 47.6670921610169  C 39.2795890410959 47.5277542372881  31.7035702054795 47.0942584745763  26.989948630137 41.7684533898305  C 25.656116801132 39.7242547090684  24.9630157945722 37.3315766292312  24.9987157534247 34.8944491525424  C 25.5538316775627 29.9927216458165  27.6248935416846 25.3835547741911  30.9257448630137 21.7037923728814  Z M 84.6055041508075 59.8281385887049  C 84.6055041508075 59.9373545648939  84.569241090522 60.0435097545973  84.5023544520548 60.1300953389831  C 80.0115631755384 64.4990437613373  74.4668457134893 67.6446606201894  68.4013698630137 69.264470338983  C 57.0522012051361 71.871949492992  45.2482788229794 71.8083355118282  33.9281506849315 69.078686440678  C 21.1873715753425 65.8893961864407  14.4825171232877 62.8858898305085  11.8067979452055 60.7029290254237  C 9.13107876712328 58.519968220339  6.70426369863014 55.7641737288136  7.43541952054794 55.8106197033898  C 7.87100171232876 55.8106197033898  16.2404023972603 60.2694332627119  23.4741780821918 62.2046822033898  C 31.2789213808871 64.5676461450411  39.3979209000807 65.7420806931498  47.5556506849315 65.6881302966102  C 58.5852140410959 65.6881302966102  64.1855565068493 65.5487923728814  71.9171404109589 63.6599894067797  C 79.6487243150685 61.771186440678  84.066772260274 59.2166578389831  84.362345890411 59.4024417372881  C 84.5131218376422 59.4917732564224  84.6055041508075 59.6535068523815  84.6055041508075 59.8281385887049  Z M 84.7823715753425 55.9654396186441  L 84.7979280821918 55.9654396186441  C 83.9338286018238 56.6985725556506  82.9892614443027 57.3321924982454  81.9822003424657 57.8542425847458  C 81.9822003424657 57.8542425847458  75.3706849315068 52.6832574152543  75.0751113013699 52.7297033898305  C 74.7795376712329 52.7761493644068  74.1106078767123 53.550248940678  74.3439554794521 53.844406779661  C 74.5773030821918 54.1385646186441  81.2977140410959 58.4890042372881  80.955470890411 58.7831620762712  C 80.1219063604935 59.2275896616725  79.2591524388705 59.6155209942381  78.3730907534247 59.944311440678  C 78.3730907534247 59.944311440678  74.7328681506849 57.1265889830508  74.5306335616438 57.1265889830508  C 74.3283989726028 57.1265889830508  73.5039041095891 57.7613506355932  73.7528082191781 58.1484004237288  C 74.0017123287671 58.5354502118644  77.1130136986301 60.3623252118644  76.957448630137 60.5171451271187  C 69.8110742292969 62.6521249580237  62.3908470658727 63.7420960369963  54.9294349315069 63.7528813559322  C 44.3732638372372 64.0113278771373  33.8339847044891 62.7706054616051  23.6297431506849 60.0681673728814  C 17.3100913706265 58.2360268586009  11.2858914310228 55.5146619464719  5.73976027397262 51.9865677966102  C 4.32278250477983 50.6138393125413  3.52349077726167 48.7293948113546  3.52349077726167 46.7613956567797  C 3.52349077726167 44.7933965022047  4.32278250477983 42.908952001018  5.73976027397262 41.5362235169491  C 10.2107408808756 37.7088797226929  15.5494870003211 35.0204138590515  21.2962671232877 33.7023358050847  C 21.7162928082192 33.7023358050847  21.3896061643836 40.4834480932203  24.4075684931507 43.5798463983051  C 27.4255308219178 46.6762447033898  31.9991438356164 48.7043855932203  38.9995719178082 49.6178230932203  C 45.222188989419 50.5871068196321  51.5642509133861 50.5086032924237  57.7607191780822 49.385593220339  C 61.775633332573 48.6172229705511  65.6046364584734 47.087701970409  69.0391866438356 44.8803336864407  C 69.311490772392 44.6740912656078  69.4723632549523 44.3538874517572  69.4747688356164 44.013342161017  C 69.4747688356164 44.013342161017  69.5681078767123 34.6312552966102  69.7236729452055 34.4764353813559  C 69.8792380136986 34.3216154661017  78.2797517123288 35.5446927966102  82.8533647260274 39.1210328389831  C 87.426977739726 42.6973728813559  88.5937157534246 44.8338877118644  88.4381506849315 48.7508315677966  C 88.2206006279542 51.5406609602198  86.9071204924259 54.1327881310203  84.7823715753425 55.9654396186441  Z " fill-rule="nonzero" fill="#02a7f0" stroke="none" fill-opacity="0.0980392156862745" transform="matrix(1 0 0 1 -15 2 )" />
  </g>
</svg>