<?xml version="1.0" encoding="utf-8"?>
<svg version="1.1" xmlns:xlink="http://www.w3.org/1999/xlink" width="25px" height="17px" xmlns="http://www.w3.org/2000/svg">
  <g transform="matrix(1 0 0 1 -30 -33 )">
    <path d="M 3.70897310344827 14.0726964137931  L 1.33317468965517 16.1908353793103  L 0.776985517241378 13.056274  C -0.0173166206896589 8.58366013793103  3.56859317241379 3.76809255172414  9.30640406896552 1.6019755862069  C 15.0086757931034 -0.551702620689653  20.5972219310345 0.713494482758623  22.894834137931 4.69566682758621  L 24.4692226206897 7.41974986206897  L 21.3222225517241 7.36111013793104  C 18.2676244827586 7.30424737931035  15.3907226896552 7.84977475862069  12.0038327586207 9.12741055172414  C 8.96162523458688 10.258681394298  6.15082953461811 11.9344406975374  3.70897310344827 14.0726964137931  Z M 14.7794477241379 4.1039384137931  L 14.772339862069 4.10749234482758  C 13.3293203145054 4.12773979919873  11.9016691558101 4.40701049854867  10.5573855172414 4.93200275862069  C 8.5778495862069 5.68010386206896  6.90217427586207 6.86533765517241  5.77202627586207 8.19805931034482  C 7.35770893233847 7.25792088299511  9.02254462423751 6.45820518129544  10.7475204827586 5.80804517241378  C 12.5363993644697 5.11942875300213  14.3835891397386 4.5931045470372  16.2667651034483 4.2354335862069  C 15.7758493377441 4.14776052892964  15.2781308108653 4.10375675111066  14.7794477241379 4.1039384137931  Z " fill-rule="nonzero" fill="#8400ff" stroke="none" fill-opacity="0.0980392156862745" transform="matrix(1 0 0 1 30 33 )" />
  </g>
</svg>