<?xml version="1.0" encoding="utf-8"?>
<svg version="1.1" xmlns:xlink="http://www.w3.org/1999/xlink" width="56px" height="63px" xmlns="http://www.w3.org/2000/svg">
  <g transform="matrix(1 0 0 1 0 -15 )">
    <path d="M 39.5780569090587 61.0578779425879  C 39.4931277866242 60.9208067533374  39.4159194709837 60.791350667481  39.3387111553432 60.6618945205479  C 38.9989946036801 60.0603043451706  38.666998920736 59.4510990663991  38.342724044586 58.8342787453102  C 38.3272823690729 58.7962034115697  38.3041198867657 58.7657431812233  38.2886782112527 58.7200527440887  C 37.2463660739561 56.7096753424658  36.3198664101203 54.607917188727  35.478295868719 52.4528536166129  C 35.4242500353857 52.3157824273624  35.3779250707714 52.1787112381119  35.3238792374381 52.0416400488613  C 35.1076959660297 51.4705101038304  34.8992335633404 50.9069952621935  34.6984919674452 50.3358653171626  C 34.6290045205237 50.1302585638252  34.5517962048832 49.924651749411  34.4823086960368 49.7190449960736  C 34.3047295824487 49.2164506762063  34.1348713375796 48.7138562952622  33.9727338995046 48.2112619143181  C 33.8955255838641 47.9675798272402  33.8105964614296 47.7162826367682  33.7411089525832 47.4726005496903  C 33.5944131900212 47.0080815635634  33.4399965587403 46.5511775586773  33.3087424716914 46.079043530233  C 29.4637687986554 33.2933480237327  28.6530816082803 26.1199560509554  29.1394939225053 24.0562731698805  C 29.1780980803256 23.9268170229474  29.1780980803256 23.7516705610331  29.1780980803256 23.5689089346479  C 31.1005849168436 23.3633021813105  33.9650130927106 23.3633021813105  37.3235743895966 23.873511604572  C 42.172256042109 24.596942884565  48.1172956033263 27.9475718261932  48.7426828733192 26.7596214989966  C 49.0669577494692 26.1504162202251  44.2182761588818 20.8807906901667  40.2883733634112 19.2283214379199  C 45.3377966118188 18.459199781869  49.7541117215145 18.885643495332  52.4641232041755 18.9465640171015  C 54.0160101380043 18.984639350842  55.567897133758 19.1445557281215  55.7995220806794 18.9237188290725  C 56.2859343949045 18.4591998429457  53.3134146142958 16.7077346741122  51.2442320152159 16.0452239158887  C 49.7618325283086 15.5730898263677  46.4573170028309 14.2937588081319  41.3615687898089 15.4588638862228  C 36.6441412862704 16.5325881511212  32.3590802636235 18.9922544542361  29.9965061394197 20.5304977052613  C 30.0196686217268 20.4619621411744  30.042831104034 20.4162717040398  30.0737144550602 20.3477361399529  C 32.9458634377212 12.85451135154  40.1493984076433 10.3872300671844  43.4230305820949 8.7271456504668  C 44.6274801574664 8.12555547508944  45.9400213375796 7.65342138556845  45.9323005307856 7.33358863100951  C 45.9014171797594 6.67107793386267  42.1490934978769 6.17609865631272  40.0104234518755 6.38170540965012  C 38.4894198071479 6.52639164121805  34.8992335633404 6.64061764243958  32.0348053874735 9.88463568624029  C 30.8226350053079 11.2629626210627  29.9192978237792 12.8849716429631  29.2630272027601 14.4841354157578  C 29.0159606422505 11.4457241863712  28.3828525035386 7.80572272053049  26.7383155785563 4.95007305645231  C 24.0128624203822 0.243962368030711  18.8399058917197 0.289652744088647  18.0292186394197 0.335343120146582  C 17.2262522558386 0.381033496204519  17.4038313694268 2.25433970857691  18.2531227795471 4.69116076258616  C 19.1024141277424 7.13559691998953  20.7083468949045 9.22212492801675  22.6694378892428 12.6641346828375  C 23.3102668347488 13.7759342814763  24.1827206652512 15.2532570718087  25.0706161712668 16.7381949044586  C 23.5650542020524 15.0248050693657  21.5730799186129 13.2048043364453  19.195064056971 12.0930047378065  C 15.2342779723992 10.2501588168572  11.9065999646143 11.5523350841986  10.4473630219391 12.0168541314021  C 8.40906371196037 12.6641347439141  5.17403569532909 14.5907463746619  5.42110225583864 15.1999515923567  C 5.53691472929936 15.4893241165692  6.93438503184713 15.4131734490882  8.28553043170559 15.4969391588867  C 11.9760874734607 15.7253911613297  19.5811056351734 15.1618762586162  25.2945202494692 20.9112509815897  C 25.3794493719038 20.9874016490708  25.4412160120311 21.0483221708402  25.5107035208776 21.1168577349271  C 22.7775294939844 20.1345142221447  18.3303310332626 18.8323380158799  13.7904826433121 18.8018777244569  C 8.5557594745223 18.7714174330338  5.6218438517339 20.7284893552046  4.27841932059448 21.4976110723323  C 2.40225751061571 22.5865654829422  -0.0915708244869052 24.939620827153  0.487491480891722 25.2899138120583  C 0.765441392427461 25.4574452316552  2.24012001061571 24.9624659541052  3.74568204175513 24.5969428234884  C 7.81455979299363 23.6069842683885  15.6357612261146 20.8731756478492  24.6614121726822 22.9292434255301  C 21.9436798213022 23.4775281825321  18.3612143842888 24.9700810574994  16.2843109164897 28.9451454236105  C 14.4004282377919 32.5699167437396  15.6434819709837 41.1216356513393  16.4001233899505 41.2891671320129  C 17.7281062455768 41.5785396562255  18.87851004954 34.9762775674025  21.3877799982307 30.8641420120408  C 23.2176168435952 27.863806055318  25.1323828733192 25.6325918157229  26.54529485138 24.3380305906989  C 25.904465905874 36.7962782392461  27.2401696302194 41.9059874531018  29.1935397558386 50.1987941279121  L 29.1935397558386 50.2064091702295  C 29.9270186924982 53.2828957333566  30.7299850760793 56.0623947910304  31.5561138800425 58.5296761364628  C 31.5715555555556 58.5677514702033  31.5792763623496 58.6058268039438  31.5947180378627 58.6439020766076  C 31.7491346691437 59.0931909780996  31.8958304317056 59.5272497338801  32.0502470629866 59.9613084896606  C 32.0734095452937 59.9993838234011  32.0811304140127 60.045074199459  32.1042928963199 60.0907646365937  C 32.2587095276008 60.5172083500567  33.1620467091295 62.679887025565  33.1620467091295 62.6798869644883  L 40.6898565552017 62.6798869644883  C 40.6898565552017 62.6798869644883  39.8637276893135 61.5604722624553  39.5780569090587 61.0578779425879  Z M 30.8921224522293 21.7641383474391  C 30.8071933297948 21.5356863449961  30.9230058032555 21.2996193613123  31.1469098814579 21.2234686938313  C 31.3630931528662 21.1397029840328  36.6673037685775 19.3425474391414  40.411906643666 21.5661466364192  C 40.6126482395612 21.6879876799581  40.6821356864827 21.9468999127476  40.5586024062279 22.1372765814501  C 40.4736732837933 22.2667327283832  40.3346983280255 22.3428833347875  40.1880025654635 22.3428833347875  C 40.1185151185421 22.3428833347875  40.0413068029016 22.3200381467586  39.9718192940552 22.2819628130181  C 36.5746538393489 20.2639703690777  31.486626433121 22.0002053921996  31.4403014685067 22.0154355379112  C 31.2163973903043 22.0915862053922  30.9693308297948 21.9773602041707  30.8921224522293 21.7641383474391  Z M 22.9937127653928 25.0919221010383  C 23.1326877211607 25.2822987697409  23.0940835633404 25.5412110025303  22.9010627742392 25.6782821917808  C 22.8547378096249 25.7011273798098  18.7318142250531 28.6633880027921  17.928847841472 32.6384523689032  C 17.8902436836518 32.8288290376058  17.7126645700637 32.9735152691737  17.5042021673744 32.973515208097  C 17.4810396850672 32.973515208097  17.4501563340411 32.973515208097  17.4192730449398 32.9659001657796  C 17.1876480980184 32.9278248320391  17.0409523354565 32.6993728906727  17.0795564932767 32.4785359305471  C 17.9520103237792 28.1760237675596  22.2139088641189 25.1299974347788  22.3992087845011 25.0005413489224  C 22.5845087048832 24.8710852019894  22.8547378096249 24.9091605357299  22.9937127653928 25.0919221010383  Z M 27.4872361907289 17.5986973737021  C 27.4872361907289 17.8347644184626  27.3096570771408 18.0327561294826  27.0703113234253 18.0479862141174  L 27.0471488411182 18.0479862141174  C 26.8155238941967 18.0479862141174  26.6302239738146 17.8728396911264  26.6225031670205 17.6443877497601  C 26.2441824575372 9.89225072855772  20.7392301840057 3.69358716516883  20.6929052193914 3.62505160108193  C 20.5384885881104 3.44990507809092  20.5462094568294 3.19099284530146  20.7315093772116 3.03869151033941  C 20.9090884907997 2.88639017537737  21.1793175336164 2.90162032108891  21.3337341648974 3.07676684407992  C 21.5730799186129 3.33567907686938  27.0857529989384 9.55718782828724  27.4872361907289 17.5986973737021  Z " fill-rule="nonzero" fill="#4b7902" stroke="none" fill-opacity="0.0980392156862745" transform="matrix(1 0 0 1 0 15 )" />
  </g>
</svg>