<?xml version="1.0" encoding="utf-8"?>
<svg version="1.1" xmlns:xlink="http://www.w3.org/1999/xlink" width="14px" height="12px" xmlns="http://www.w3.org/2000/svg">
  <g transform="matrix(1 0 0 1 599 -2181 )">
    <path d="M 13.640625 11.578125  C 13.640625 11.390625  13.5 11.203125  13.265625 11.203125  L 5.390625 11.203125  C 4.96875 11.203125  4.546875 10.828125  4.453125 10.40625  L 3.046875 2.109375  C 2.90625 1.3125  2.15625 0.703125  1.359375 0.703125  L 1.03125 0.703125  C 0.84375 0.703125  0.65625 0.890625  0.65625 1.078125  C 0.65625 1.265625  0.84375 1.453125  1.03125 1.453125  L 1.359375 1.453125  C 1.78125 1.453125  2.203125 1.828125  2.296875 2.25  L 3.703125 10.546875  C 3.84375 11.34375  4.59375 11.953125  5.390625 11.953125  L 13.265625 11.953125  C 13.453125 11.953125  13.640625 11.765625  13.640625 11.578125  Z " fill-rule="nonzero" fill="#000000" stroke="none" transform="matrix(1 0 0 1 -599 2181 )" />
  </g>
</svg>