<?xml version="1.0" encoding="utf-8"?>
<svg version="1.1" xmlns:xlink="http://www.w3.org/1999/xlink" width="11px" height="9px" xmlns="http://www.w3.org/2000/svg">
  <g transform="matrix(1 0 0 1 595 -2183 )">
    <path d="M 10.109375 2.171875  C 10.296875 1.375  9.734375 0.625  8.890625 0.625  L 0.500000000000001 0.625  C 0.312500000000001 0.625  0.125 0.8125  0.125 1  C 0.125 1.1875  0.312500000000001 1.375  0.500000000000001 1.375  L 8.890625 1.375  C 9.265625 1.375  9.453125 1.609375  9.359375 1.984375  L 8.328125 6.109375  C 8.234375 6.578125  7.71875 6.953125  7.25 7  L 1.4375 7.421875  C 1.25 7.421875  1.0625 7.609375  1.109375 7.84375  C 1.109375 8.03125  1.296875 8.21875  1.53125 8.171875  L 7.34375 7.75  C 8.140625 7.703125  8.890625 7.046875  9.078125 6.296875  L 10.109375 2.171875  Z " fill-rule="nonzero" fill="#000000" stroke="none" transform="matrix(1 0 0 1 -595 2183 )" />
  </g>
</svg>