<svg t="1712652367710" class="icon" viewBox="0 0 1024 1024" version="1.1" xmlns="http://www.w3.org/2000/svg" p-id="1276" width="200" height="200"><path d="M212.8 308.9c-12.1 0-21.8-9.8-21.8-21.8C191 183 275.7 98.3 379.8 98.3H773c12.1 0 21.8 9.8 21.8 21.8s-9.8 21.8-21.8 21.8H379.8c-80 0-145.2 65.1-145.2 145.2 0 12.1-9.8 21.8-21.8 21.8z" fill="#FFBC00" p-id="1277"></path><path d="M527.8 302.8c98.5 0 188.9 54.9 230.2 139.9 40.1 82.6 42.6 170.4 7 247.2-34.4 74.2-102 130.5-180.9 150.7 0 0-1.5-0.7-1.6-1.3 0.2-0.8 0.9-2.1 1.6-2.9 60.3-22 107.7-68.9 130.3-128.9 23.4-62.4 17-131.2-18.1-193.8-31.8-56.7-108.8-101.2-175.2-101.2H370.2c-65.9 0-121-47.3-133.2-109.7h290.8M584.6 836h0.1-0.1m-56.8-576.9H229.9c-31.3 0-39.1 8-39.1 17.8 0 99.1 80.3 179.3 179.3 179.3H521c50.2 0 112.6 35.1 137.2 78.9 63.1 112.4 5 227-90.5 260.8-16 5.7-28.8 25.4-28.8 42.4 0 25.6 20.9 46 45.1 46 3.6 0 7.2-0.4 10.9-1.4 182.5-46.7 302.9-252.4 202.4-459.4-49.6-102-155.9-164.4-269.5-164.4zM428.1 928.2c-5.9 0-11.8-1.2-17.5-3.5-17.1-7.1-28.2-23.6-28.2-42.1v-72.2c0-18.5 11-35 28.1-42.1 17.2-7.1 36.6-3.2 49.7 9.9l36.1 36.1c17.8 17.8 17.8 46.7 0 64.5l-36.1 36.1c-8.7 8.6-20.3 13.3-32.1 13.3z m-2-45.7s3.2 1.3 3.3 1.3l36.1-36.1c0.7-0.7 0.7-2 0-2.7l-36.1-36-3.3 1.3v72.2z" fill="#436DAA" p-id="1278"></path><path d="M368.7 337.4m-23.7 0a23.7 23.7 0 1 0 47.4 0 23.7 23.7 0 1 0-47.4 0Z" fill="#436DAA" p-id="1279"></path><path d="M746.3 660.7h-96.8c-12.1 0-21.8-9.8-21.8-21.8 0-12.1 9.8-21.8 21.8-21.8h96.8c12.1 0 21.8 9.8 21.8 21.8 0.1 12-9.7 21.8-21.8 21.8zM578.4 564.3c-5.6 0-11.2-2.1-15.4-6.4-8.5-8.5-8.5-22.4 0-30.9l102.3-102.3c8.5-8.5 22.4-8.5 30.9 0s8.5 22.4 0 30.9L593.8 557.9c-4.3 4.3-9.8 6.4-15.4 6.4zM644.7 812.3c-5.6 0-11.2-2.1-15.4-6.4l-30.5-30.4c-8.5-8.5-8.5-22.4 0-30.9s22.4-8.5 30.9 0l30.5 30.4c8.5 8.5 8.5 22.4 0 30.9-4.3 4.3-9.9 6.4-15.5 6.4z" fill="#FFBC00" p-id="1280"></path></svg>