<svg t="1712652335365" class="icon" viewBox="0 0 1024 1024" version="1.1" xmlns="http://www.w3.org/2000/svg" p-id="1114" width="200" height="200"><path d="M574.4 329.1c111.7 0 209 71.6 242.2 178.2l66.4 213c3.7 12 1.6 24.7-5.8 34.8-7.4 10.1-18.9 15.9-31.5 15.9H364.1c-121.9 0-221-99.1-221-221s99.1-221 221-221h210.3m0-43.5H364.1C217.9 285.5 99.4 404 99.4 550.1c0 146.1 118.5 264.6 264.6 264.6h481.6c55.8 0 95.6-54.1 79-107.4l-66.4-213c-38.7-124.2-153.7-208.8-283.8-208.8z" fill="#436DAA" p-id="1115"></path><path d="M871.8 277.1c-5.3-2.2-10.8-3.1-16.2-3.1 0-17.1-10.2-33.3-27-40.1-22.2-9-47.4 1.7-56.4 23.9-6.3 15.6-2.7 32.5 7.5 44.4L641.3 440.6l47.7 47.7 138.4-138.4c3.5 3 7.4 5.7 11.9 7.5 22.2 9 47.4-1.7 56.4-23.9s-1.7-47.4-23.9-56.4z" fill="#FFFFFF" p-id="1116"></path><path d="M689 510.1c-5.6 0-11.2-2.1-15.4-6.4L625.9 456c-8.5-8.5-8.5-22.3 0-30.8l126.4-126.4c-6.5-15.5-6.8-33.1-0.3-49.2 13.4-33.3 51.5-49.4 84.7-35.9 18.6 7.5 32.3 22.8 37.9 41.3 1.8 0.6 3.6 1.2 5.4 1.9 33.3 13.5 49.4 51.5 35.9 84.8s-51.5 49.4-84.7 35.9c-0.2 0-0.3-0.1-0.5-0.2L704.4 503.7c-4.2 4.3-9.8 6.4-15.4 6.4z m-16.9-69.5l16.9 16.9 123-123c8.1-8.1 21-8.6 29.7-1.1 2.1 1.8 4 3 5.9 3.8 11 4.5 23.5-0.9 28-11.9 4.4-11-0.9-23.5-11.9-28-2.5-1-5.2-1.5-8.1-1.5-12.1 0-21.8-9.8-21.8-21.8 0-8.8-5.3-16.6-13.4-19.9-11-4.4-23.5 0.9-28 11.9-3 7.4-1.5 15.8 3.8 22 7.5 8.6 7 21.6-1.1 29.7l-123 122.9z" fill="#FFBC00" p-id="1117"></path><path d="M716.6 393.1l15.3 15.3c31 31 35.3 79.9 10.1 115.8l-73 104.3c-43 61.4-131.1 69.2-184.1 16.1l-4.6-4.6c-53-53-45.3-141.1 16.1-184.1l104.3-73c36-25.1 84.9-20.8 115.9 10.2z" fill="#FFFFFF" p-id="1118"></path><path d="M652.6 410.2c12.5 0 24.3 4.9 33.1 13.7l15.3 15.3c16.1 16.1 18.3 41.3 5.3 60l-73 104.3c-14.6 20.9-37.6 32.8-63.2 32.8-20.5 0-39.8-8-54.3-22.6l-4.6-4.6c-16.1-16.1-24.2-38.4-22.3-61.2 2-22.7 13.9-43.3 32.5-56.4l104.3-73c8-5.3 17.3-8.3 26.9-8.3m0-43.6c-18 0-36.2 5.4-51.9 16.4l-104.3 73c-61.4 43-69.2 131.1-16.1 184.1l4.6 4.6c23.8 23.8 54.6 35.3 85.2 35.3 37.7 0 75.2-17.5 98.9-51.5l73-104.3c25.2-36 20.9-84.8-10.1-115.8l-15.3-15.3c-17.5-17.5-40.7-26.5-64-26.5z" fill="#436DAA" p-id="1119"></path></svg>