<svg t="1712652426698" class="icon" viewBox="0 0 1024 1024" version="1.1" xmlns="http://www.w3.org/2000/svg" p-id="1596" width="200" height="200"><path d="M696.4 670.5c-30.7 0-46.9-11.4-59.9-20.5-10.4-7.3-17.3-12.2-33.1-12.2-17 0-24.1 5-34.9 12.6-12.7 8.9-28.6 20.1-58.1 20.1-30.7 0-46.9-11.3-59.9-20.5-10.4-7.3-17.3-12.2-33.1-12.2-17 0-24.1 5-34.9 12.6-12.7 8.9-28.6 20.1-58.1 20.1-30.7 0-46.9-11.3-59.9-20.5-10.4-7.3-17.3-12.2-33.1-12.2-12 0-21.8-9.7-21.8-21.8 0-12 9.7-21.8 21.8-21.8 29.5 0 45.4 11.1 58.1 20.1 10.8 7.6 17.9 12.6 34.9 12.6 15.8 0 22.6-4.8 33.1-12.2 13-9.1 29.2-20.5 59.9-20.5 29.5 0 45.4 11.1 58.1 20.1 10.8 7.6 17.9 12.6 34.9 12.6 15.8 0 22.6-4.8 33.1-12.2 13-9.1 29.2-20.5 59.9-20.5 29.5 0 45.4 11.1 58.1 20.1 10.8 7.6 17.9 12.6 34.9 12.6 16.7 0 23.5-4.9 33.9-12.3 12.7-9.1 28.5-20.4 59.1-20.4 12 0 21.8 9.7 21.8 21.8 0 12-9.7 21.8-21.8 21.8-16.7 0-23.5 4.9-33.9 12.3-12.6 9.1-28.5 20.4-59.1 20.4z" fill="#FFBC00" p-id="1597"></path><path d="M696.4 670.5c-30.7 0-46.9-11.4-59.9-20.5-10.4-7.3-17.3-12.2-33.1-12.2-17 0-24.1 5-34.9 12.6-12.7 8.9-28.6 20.1-58.1 20.1-30.7 0-46.9-11.3-59.9-20.5-10.4-7.3-17.3-12.2-33.1-12.2-17 0-24.1 5-34.9 12.6-12.7 8.9-28.6 20.1-58.1 20.1-30.7 0-46.9-11.3-59.9-20.5-10.4-7.3-17.3-12.2-33.1-12.2-12 0-21.8-9.7-21.8-21.8 0-12 9.7-21.8 21.8-21.8 29.5 0 45.4 11.1 58.1 20.1 10.8 7.6 17.9 12.6 34.9 12.6 15.8 0 22.6-4.8 33.1-12.2 13-9.1 29.2-20.5 59.9-20.5 29.5 0 45.4 11.1 58.1 20.1 10.8 7.6 17.9 12.6 34.9 12.6 15.8 0 22.6-4.8 33.1-12.2 13-9.1 29.2-20.5 59.9-20.5 29.5 0 45.4 11.1 58.1 20.1 10.8 7.6 17.9 12.6 34.9 12.6 16.7 0 23.5-4.9 33.9-12.3 12.7-9.1 28.5-20.4 59.1-20.4 12 0 21.8 9.7 21.8 21.8 0 12-9.7 21.8-21.8 21.8-16.7 0-23.5 4.9-33.9 12.3-12.6 9.1-28.5 20.4-59.1 20.4z" fill="#FFBC00" p-id="1598"></path><path d="M646.1 263.3c0.6 0 1.1 0.1 1.6 0.3 64 27.8 116.8 59.3 156.8 93.6 37.9 32.5 62.9 66 74.5 99.9H212.5l431.3-193.3c0.7-0.3 1.5-0.5 2.3-0.5m0-43.5c-6.8 0-13.7 1.4-20 4.3L112.3 454.3c-23.8 10.7-16.2 46.3 9.9 46.3h781.4c14.7 0 26.5-13 24.1-27.5-8.4-51.7-40.6-102.4-94.9-148.9-43.3-37.1-99.9-71-167.8-100.5-6-2.6-12.5-3.9-18.9-3.9z" fill="#436DAA" p-id="1599"></path><path d="M884.5 501.7v261.4h-743V501.7h743m23-43.5h-791c-10.2 0-18.5 8.3-18.5 18.5v289.8c0 22.2 18 40.1 40.1 40.1h749.8c22.2 0 40.1-18 40.1-40.1V478.7c0-11.3-9.2-20.5-20.5-20.5z" fill="#436DAA" p-id="1600"></path></svg>