<?xml version="1.0" encoding="utf-8"?>
<svg version="1.1" xmlns:xlink="http://www.w3.org/1999/xlink" width="10px" height="10px" xmlns="http://www.w3.org/2000/svg">
  <g transform="matrix(1 0 0 1 -118 -136 )">
    <path d="M 8.38562500390625 3.7814999970457  L 6.28525000390625 3.7814999970457  C 6.4800000078125 2.91149999772539  6.61600000390625 2.28224999821699  6.6935 1.89250000633398  C 6.8885 0.911249999288086  6.38212499609375 0  5.37850000390625 0  C 4.4735 0  4.019 0.449750003554883  3.75100000390625 1.34875000675879  L 3.744125 1.37500000673828  C 3.58325 2.10225001007637  3.33725 2.66600000182344  3.01162499609375 3.06937499760205  C 2.66866134035149 3.49530309916333  2.1552080772194 3.74816454026529  1.6085 3.76037500487471  L 1.35175000390625 3.76587500096416  C 0.73949999609375 3.77900000095391  0.25000000390625 4.28300000056015  0.25000000390625 4.90037500398408  L 0.25000000390625 8.62499999326172  C 0.25000000390625 9.38437499266846  0.8606250078125 9.99999998828125  1.61399999609375 10  L 6.44825 10  C 7.44125 10  8.32762499609375 9.37225000049043  8.6645 8.43062500122607  L 9.66875 5.62300000341953  C 9.92425000390625 4.90862500397764  9.557 4.12062500068701  8.84837500390625 3.86300000088828  C 8.7000529194155 3.80907457795221  8.54344576280305 3.78149276516844  8.38562500390625 3.7814999970457  Z M 5.378 0.749999999414062  C 5.83799999609375 0.749999999414062  6.07525000390625 1.17749999908008  5.962625 1.74524999863652  C 5.87387500390625 2.1922499982873  5.705 2.96900000158672  5.45612500390625 4.07337500072393  C 5.40325000390625 4.30799999663437  5.57987500390625 4.53149999645976  5.81837500390625 4.53149999645976  L 8.38087499609375 4.53149999645976  C 8.4523749921875 4.53149999645976  8.52337499609375 4.54400000035625  8.59075000390625 4.56862499643076  C 8.912375 4.68562499633935  9.0791250078125 5.04387499996572  8.96312500390625 5.36862499971201  L 7.96037500390625 8.1761249936124  C 7.73024999609375 8.82062500092139  7.12462499609375 9.25000000058594  6.44612500390625 9.25000000058594  L 1.61912500390625 9.25000000058594  C 1.27712500390625 9.25000000058594  1.00000000390625 8.97012499689834  1.00000000390625 8.62499999326172  L 1.00000000390625 4.90037500398408  C 1.00000000390625 4.69100000024141  1.16575000390625 4.52012500428115  1.373 4.51574999647207  L 1.62925000390625 4.51025000038262  C 2.39381889652274 4.49300281215297  3.11172228979268 4.1389005772158  3.59075 3.54275000113848  C 3.99325000390625 3.04349999762227  4.28387500390625 2.37899999814141  4.46812499609375 1.5520000066  C 4.64962499609375 0.949250003164648  4.854125 0.749999999414062  5.37812500390625 0.749999999414062  Z " fill-rule="nonzero" fill="#000000" stroke="none" fill-opacity="0.498039215686275" transform="matrix(1 0 0 1 118 136 )" />
  </g>
</svg>