<?xml version="1.0" encoding="utf-8"?>
<svg version="1.1" xmlns:xlink="http://www.w3.org/1999/xlink" width="25px" height="25px" xmlns="http://www.w3.org/2000/svg">
  <g transform="matrix(1 0 0 1 -314 -394 )">
    <path d="M 24.9999685791016 12.5  C 24.9999685791016 5.59645307617187  19.4035155029297 3.14208984375E-05  12.5 3.14208984375E-05  C 5.59645307617188 3.14208984375E-05  3.14208984372732E-05 5.59645307617187  3.14208984372732E-05 12.5  C 3.14208984372732E-05 19.4035469238281  5.59645307617187 24.9999685791016  12.5 24.9999685791016  C 19.4035155029297 24.9999685791016  24.9999685791016 19.4035783447266  24.9999685791016 12.5  Z M 19.0376373291016 12.5309507080078  C 19.0376373291016 12.9528229492188  18.6971481445313 13.2932807128906  18.2754015625 13.2932807128906  L 13.25670546875 13.2932807128906  L 13.25670546875 18.3118511474609  C 13.25670546875 18.7337233886719  12.9162162841797 19.0742125732422  12.4944697265625 19.0742125732422  C 12.0725974853516 19.0742125732422  11.7321083007812 18.7337233886719  11.7321083007812 18.3118511474609  L 11.7321083007812 13.2932807128906  L 6.71356931152344 13.2932807128906  C 6.2916970703125 13.2932807128906  5.95120788574219 12.9527915283203  5.95120788574219 12.5309192871094  C 5.95120788574219 12.1090470458984  6.2916970703125 11.7685578613281  6.71356931152344 11.7685578613281  L 11.7347163330078 11.7685578613281  L 11.7347163330078 6.75001887207032  C 11.7347163330078 6.32814663085938  12.0751740966797 5.98765744628906  12.4969206542969 5.98765744628906  C 12.9187928955078 5.98765744628906  13.2592820800781 6.32814663085938  13.2592820800781 6.75001887207032  L 13.2592820800781 11.7685892822266  L 18.2778525146484 11.7685892822266  C 18.6971481689453 11.7685892822266  19.0376373291016 12.1090784667969  19.0376373291016 12.5309507080078  Z " fill-rule="nonzero" fill="#333333" stroke="none" transform="matrix(1 0 0 1 314 394 )" />
  </g>
</svg>