<?xml version="1.0" encoding="utf-8"?>
<svg version="1.1" xmlns:xlink="http://www.w3.org/1999/xlink" width="36px" height="33px" xmlns="http://www.w3.org/2000/svg">
  <g transform="matrix(1 0 0 1 -264 -7 )">
    <path d="M 1.8 32.1  C 1.6 32.1  1.4666666796875 32.1666666796875  1.3333333203125 32.1666666796875  C 1.1333333203125 32.1666666796875  1 32.1  0.8 32.0333333203125  C 0.4666666796875 31.8333333203125  0.3333333203125 31.5  1 31.1666666796875  L 1 7.30000000000001  C 0.3333333203125 6.90000000000001  0.5333333203125 6.5666666796875  0.8666666796875 6.4333333203125  L 12 0.966666679687506  C 12.2666666796875 0.83333335937499  12.6 0.83333335937499  12.8666666796875 0.966666679687506  L 23.5333333203125 6.23333332031251  L 34.2 0.966666679687506  C 34.5333333203125 0.83333335937499  34.8666666796875 0.83333335937499  35.2 1.03333332031249  C 35.4666666796875 1.16666664062501  35.6666666796875 1.5  35 1.83333332031251  L 35 15.5666666796875  C 35.6666666796875 16.1  35.2 16.5666666796875  34.6666666796875 16.5666666796875  C 34.133333359375 16.5666666796875  33.6666666796875 16.1  33 15.5666666796875  L 33 3.4333333203125  L 24 8.23333332031251  C 23.7333333203125 8.366666640625  23.4 8.366666640625  23.1333333203125 8.23333332031251  L 12.4666666796875 2.96666667968751  L 3 7.96666667968751  L 3 29.5666666796875  L 12 24.7666666796875  C 12.2666666796875 24.633333359375  12.6 24.633333359375  12.8666666796875 24.7666666796875  L 16.6 26.6333333203125  C 17.0666666796875 26.9  17.2666666796875 27.5  17.0666666796875 27.9666666796875  C 16.8 28.433333359375  16.2 28.633333359375  15.7333333203125 28.4333333203125  L 12.4666666796875 26.8333333203125  L 1.8 32.1  Z " fill-rule="nonzero" fill="#f2f2f2" stroke="none" transform="matrix(1 0 0 1 264 7 )" />
  </g>
</svg>