<?xml version="1.0" encoding="utf-8"?>
<svg version="1.1" xmlns:xlink="http://www.w3.org/1999/xlink" width="14px" height="27px" xmlns="http://www.w3.org/2000/svg">
  <g transform="matrix(1 0 0 1 -275 -7 )">
    <path d="M 2.4 25.7  C 2.4 26.2333333203125  2 26.6333333203125  1.4 26.6333333203125  C 0.866666679687501 26.6333333203125  0.399999999999999 26.166666640625  0.399999999999999 25.6333333203125  L 0.399999999999999 1.83333332031251  C 0.399999999999999 1.30000000000001  0.866666679687498 0.833333320312505  1.4 0.833333320312505  C 1.9333333203125 0.833333320312505  2.4 1.30000000000001  2.4 1.83333332031251  L 2.4 25.7  Z M 13.5333333203125 16.5  C 13.5333333203125 17.0333333203125  13.066666640625 17.5  12.5333333203125 17.5  C 12 17.5  11.5333333203125 17.0333333203125  11.5333333203125 16.5  L 11.5333333203125 7.30000000000001  C 11.5333333203125 6.76666667968749  12 6.30000000000001  12.5333333203125 6.30000000000001  C 13.066666640625 6.30000000000001  13.5333333203125 6.76666667968749  13.5333333203125 7.30000000000001  L 13.5333333203125 16.5  Z " fill-rule="nonzero" fill="#f2f2f2" stroke="none" transform="matrix(1 0 0 1 275 7 )" />
  </g>
</svg>