<?xml version="1.0" encoding="utf-8"?>
<svg version="1.1" xmlns:xlink="http://www.w3.org/1999/xlink" width="13px" height="13px" xmlns="http://www.w3.org/2000/svg">
  <g transform="matrix(1 0 0 1 -285 -25 )">
    <path d="M 12.9333333203125 6.30000000000001  C 12.9333333203125 9.69999999999999  10.2 12.4333333203125  6.8 12.4333333203125  C 3.4 12.4333333203125  0.666666679687502 9.69999999999999  0.666666679687502 6.30000000000001  C 0.666666679687502 2.89999999999998  3.4 0.166666679687523  6.8 0.166666679687523  C 10.2 0.166666679687523  12.9333333203125 2.89999999999998  12.9333333203125 6.30000000000001  Z M 10.9333333203125 6.30000000000001  C 10.9333333203125 4.03333335937498  9.06666664062501 2.16666667968752  6.8 2.16666667968752  C 4.5333333203125 2.16666667968752  2.6666666796875 4.03333335937498  2.6666666796875 6.30000000000001  C 2.6666666796875 8.56666664062499  4.533333359375 10.4333333203125  6.8 10.4333333203125  C 9.06666664062501 10.4333333203125  10.9333333203125 8.56666664062499  10.9333333203125 6.30000000000001  Z " fill-rule="nonzero" fill="#f2f2f2" stroke="none" transform="matrix(1 0 0 1 285 25 )" />
  </g>
</svg>