<?xml version="1.0" encoding="utf-8"?>
<svg version="1.1" xmlns:xlink="http://www.w3.org/1999/xlink" width="14px" height="19px" xmlns="http://www.w3.org/2000/svg">
  <g transform="matrix(1 0 0 1 -75 -1671 )">
    <path d="M 5.06790001464844 7.34464284667969  L 2.31968572265625 7.34464284667969  L 2.31968572265625 12.5517857226563  L 5.06790001464844 12.5517857226563  C 5.20932859863281 12.5517857226563  5.347542890625 12.5946428613281  5.46647143066406 12.6728571240234  L 6.00861429199219 13.0317856933594  L 12 17.4460714160156  L 12 2.45142858398437  L 6.02682856933594 6.85071427734375  L 5.46861429199219 7.2235714453125  C 5.34992588177689 7.30260625843078  5.21049535874541 7.34473365386247  5.06790001464844 7.34464284667969  Z M 12.1918285693359 18.9342857080078  L 12.1907571386719 18.9353571386719  C 11.8961142773438 18.9353571386719  11.6036142773437 18.8442857080078  11.3518285546875 18.6642857080078  L 4.85147141601562 14.0410714453125  L 2.31968572265625 14.0410714453125  C 1.50493362672742 14.03282569161  0.850644542017006 13.366553286585  0.857185722656251 12.5517857226563  L 0.857185722656251 7.34464284667969  C 0.857185722656251 6.52392854003906  1.51290001464844 5.85535712402344  2.31968572265625 5.85535712402344  L 4.85039998535156 5.85535712402344  L 5.20718569335937 5.61964286132813  L 11.3518285546875 1.23214286132812  C 11.8018285546875 0.91071427734375  12.3814714013672 0.872142861328124  12.8668285693359 1.12928569335937  C 13.3532571240234 1.38642856933594  13.6543285693359 1.89321426269531  13.6543285693359 2.44928572265625  L 13.6543285693359 17.4449999853516  C 13.6543285693359 18.0021428320313  13.3532571240234 18.5078571386719  12.8668285693359 18.7650000146484  C 12.6590524311334 18.8757650980339  12.4272848740895 18.9338909226152  12.1918285693359 18.9342857080078  Z " fill-rule="nonzero" fill="#ffffff" stroke="none" transform="matrix(1 0 0 1 75 1671 )" />
  </g>
</svg>