<?xml version="1.0" encoding="utf-8"?>
<svg version="1.1" xmlns:xlink="http://www.w3.org/1999/xlink" width="20px" height="20px" xmlns="http://www.w3.org/2000/svg">
  <g transform="matrix(1 0 0 1 -74 -1794 )">
    <path d="M 9.609375 18.095703125  C 9.609375 19.1457421875  8.7551171875 20  7.705078125 20  C 6.6550390625 20  5.80078125 19.1457421875  5.80078125 18.095703125  C 5.80078125 17.0456640625  6.6550390625 16.19140625  7.705078125 16.19140625  C 8.7551171875 16.19140625  9.609375 17.0456640625  9.609375 18.095703125  Z M 8.359375 18.095703125  C 8.359375 17.734921875  8.065859375 17.44140625  7.705078125 17.44140625  C 7.344296875 17.44140625  7.05078125 17.734921875  7.05078125 18.095703125  C 7.05078125 18.456484375  7.344296875 18.75  7.705078125 18.75  C 8.065859375 18.75  8.359375 18.456484375  8.359375 18.095703125  Z M 17.05078125 18.095703125  C 17.05078125 19.1457421875  16.1965234375 20  15.146484375 20  C 14.0964453125 20  13.2421875 19.1457421875  13.2421875 18.095703125  C 13.2421875 17.0456640625  14.0964453125 16.19140625  15.146484375 16.19140625  C 16.1965234375 16.19140625  17.05078125 17.0456640625  17.05078125 18.095703125  Z M 15.80078125 18.095703125  C 15.80078125 17.734921875  15.507265625 17.44140625  15.146484375 17.44140625  C 14.785703125 17.44140625  14.4921875 17.734921875  14.4921875 18.095703125  C 14.4921875 18.456484375  14.785703125 18.75  15.146484375 18.75  C 15.507265625 18.75  15.80078125 18.456484375  15.80078125 18.095703125  Z M 17.39142578125 14.69416015625  C 16.96314453125 15.05396484375  16.56951171875 15.11556640625  16.3503515625 15.11556640625  C 16.32052734375 15.11556640625  16.29390625 15.1144140625  16.2708984375 15.112734375  L 7.8496875 15.112734375  C 7.06275390625 15.112734375  6.38419921875 14.81865234375  5.8328515625 14.23865234375  C 5.37953125 13.76177734375  5.01484375 13.09556640625  4.71796875 12.20197265625  C 4.20025390625 10.6435546875  3.96357421875 8.639140625  3.71302734375 6.51703125  C 3.66880859375 6.142578125  3.62310546875 5.7553515625  3.5762890625 5.37623046874999  C 3.40130859375 3.95892578125  2.93814453125 2.95185546875  2.23685546875 2.46390624999999  C 1.53470703125 1.97537109375  0.79560546875 2.1318359375  0.7883203125 2.133515625  C 0.4523828125 2.21294921875  0.115703125 2.00501953125  0.0362890624999999 1.6691015625  C -0.043125 1.333203125  0.1648046875 0.996503906249998  0.50072265625 0.917089843750006  C 0.552578125 0.904843749999998  1.784140625 0.626132812500003  2.95080078125 1.4378515625  C 3.7233203125 1.97535156249999  4.2715234375 2.84111328125  4.58771484375 4.01947265625  C 4.59228515625 4.019375  4.59671875 4.01927734375001  4.60138671875 4  L 18.01693359375 4  C 18.75138671875 4.04736328125  19.1890234375 4.34697265625  19.4266015625 4.59830078125  C 19.96275390625 5.16552734375  19.9359765625 5.93197265625  19.93115234375 6.0175  L 19.92966796875 6.04392578125  L 19.92595703125 6.0701171875  C 19.92224609375 6.09640625  19.54470703125 8.73470703125  18.82705078125 11.7894140625  C 18.49712890625 13.19365234375  18.01412109375 14.17095703125  17.39142578125 14.69416015625  Z M 18.015625 5.29732421875001  L 4.82263671875 5.2698046875  C 4.8678125 5.63712890625  4.91181640625 6.0096875  4.9544140625 6.37046875  C 5.19728515625 8.42748046875001  5.42669921875 10.37041015625  5.90423828125 11.807890625  C 6.13861328125 12.51333984375  6.41939453125 13.04140625  6.738828125 13.3774609375  C 7.05357421875 13.70853515625  7.4065625 13.86275390625  7.8496875 13.86275390625  L 16.35697265625 13.86275390625  L 16.36388671875 13.8640234375  C 16.40556640625 13.85478515625  16.5397265625 13.81037109375  16.72306640625 13.60333984375  C 16.96755859375 13.3272265625  17.31994140625 12.73880859375  17.61017578125 11.5034765625  C 18.26869140625 8.70046875  18.63453125 6.2622265625  18.6828515625 5.93224609375  C 18.68103515625 5.8277734375  18.64955078125 5.59224609375001  18.51447265625 5.453046875  C 18.4141796875 5.34970703125001  18.24634765625 5.29732421875001  18.015625 5.29732421875001  Z " fill-rule="nonzero" fill="#ffffff" stroke="none" transform="matrix(1 0 0 1 74 1794 )" />
  </g>
</svg>