<?xml version="1.0" encoding="utf-8"?>
<svg version="1.1" xmlns:xlink="http://www.w3.org/1999/xlink" width="14px" height="14px" xmlns="http://www.w3.org/2000/svg">
  <g transform="matrix(1 0 0 1 -79 -1735 )">
    <path d="M 7.4040625 13.6240625  C 7.28693550497411 13.709940483569  7.14523302734906 13.7557499465599  7 13.7546875  C 6.90531438374031 13.7578684802359  6.81127054353369 13.7380302699301  6.7259375 13.696875  L 1.1559375 11.3590625  C 0.88554286175159 11.2488696956781  0.708681786799973 10.9860482099958  0.7084375 10.6940625  L 0.7084375 1.2878125  C 0.707774545273949 1.04581008596084  0.826581511179088 0.819071201226521  1.0259375 0.681875000000005  C 1.22749177319036 0.548688435825653  1.4828715732583 0.526916425220776  1.7040625 0.624062499999994  L 4.763125 1.90843750000001  C 5.01776132596609 2.02588273600291  5.18084434457071 2.28069470997295  5.18084434457071 2.5611105475451  C 5.18084434457071 2.95806521148599  4.85904900851159 3.2798605475451  4.46209434457071 3.2798605475451  C 4.37768606270633 3.2798605475451  4.29393756415652 3.26499236841281  4.2146875 3.23593750000001  L 2.1521875 2.37  L 2.1521875 10.205625  L 6.2790625 11.9371875  L 6.2790625 3.62468749999999  C 6.27976184427828 3.33323386211192  6.45639878224681 3.07105576550455  6.72625 2.9609375  L 12.29625 0.623125000000002  C 12.5185895713233 0.533235018884298  12.770460372041 0.554707875166685  12.974375 0.680937499999999  C 13.1762775910175 0.815860385972414  13.2958565724032 1.04407263489638  13.291875 1.28687499999999  L 13.291875 10.6940625  C 13.2911756557217 10.9855161378881  13.1145387177532 11.2476942344955  12.8446875 11.3578125  L 9.8 12.6278125  C 9.72074993584349 12.6568673684128  9.63700143729369 12.6717355475451  9.55259315542932 12.6717355475451  C 9.15563849148844 12.6717355475451  8.83384315542932 12.349940211486  8.83384315542932 11.9529855475451  C 8.83384315542932 11.6725697099729  8.99692617403393 11.4177577360029  9.2515625 11.3003125  L 11.8490625 10.20375  L 11.8490625 2.36937500000001  L 7.7215625 4.1003125  L 7.7215625 13.018125  C 7.72222545472605 13.2601274140392  7.60341848882091 13.4868662987735  7.4040625 13.6240625  Z " fill-rule="nonzero" fill="#ffffff" stroke="none" transform="matrix(1 0 0 1 79 1735 )" />
  </g>
</svg>