<?xml version="1.0" encoding="utf-8"?>
<svg version="1.1" xmlns:xlink="http://www.w3.org/1999/xlink" width="20px" height="14px" xmlns="http://www.w3.org/2000/svg">
  <g transform="matrix(1 0 0 1 -76 -1739 )">
    <path d="M 10.251875 13.3946875  C 10.1714440655585 13.4249972251444  10.085928356697 13.439532773673  10 13.4375  C 9.91427861066399 13.4372476195486  9.82918312554502 13.4228890761539  9.748125 13.395  L 1.0728125 10.033125  C 0.80017088772861 9.92461320581801  0.622265441244628 9.6596793448293  0.625 9.36625000000001  L 0.625 0.939999999999998  C 0.625 0.553573264102766  0.938260764102767 0.240312500000002  1.3246875 0.240312500000002  C 1.71111423589723 0.240312500000002  2.024375 0.553573264102766  2.024375 0.939999999999998  L 2.024375 8.8696875  L 10 11.9634375  L 17.975625 8.8696875  L 17.975625 1.5071875  C 17.975625 1.12076076410277  18.2888857641028 0.807500000000005  18.6753125 0.807500000000005  C 19.0617392358972 0.807500000000005  19.375 1.12076076410277  19.375 1.5071875  L 19.375 9.3659375  C 19.3736881202723 9.65813964332736  19.1971618779202 9.92101961623678  18.9271875 10.0328125  L 10.251875 13.3946875  Z " fill-rule="nonzero" fill="#ffffff" stroke="none" transform="matrix(1 0 0 1 76 1739 )" />
  </g>
</svg>