<?xml version="1.0" encoding="utf-8"?>
<svg version="1.1" xmlns:xlink="http://www.w3.org/1999/xlink" width="17px" height="12px" xmlns="http://www.w3.org/2000/svg">
  <g transform="matrix(1 0 0 1 1344 -979 )">
    <path d="M 16.1253149804688 10.8730051953125  C 16.1253149609375 11.21904921875  15.8464639648437 11.4979002148438  15.5004199609375 11.4979002148438  C 15.1543759570313 11.4979002148438  14.8755249414063 11.21904921875  14.8755249414063 10.8730051953125  L 14.8755249414063 8.68923230468749  L 14.0389719335937 8.3902233984375  C 13.7903577929688 8.30287248046875  13.6223752539063 8.06433728515626  13.6223752539063 7.80228455078125  C 13.6223752539063 4.66773054687499  11.09927765625 2.11439609375  7.99832015625 2.11439609375  C 4.89736265625 2.11439609375  2.37426505859375 4.66773054687499  2.37426505859375 7.80228455078125  C 2.37426505859375 8.00386359375  2.2768351953125 8.19200402343751  2.1122123046875 8.309591796875  L 1.7493700390625 8.56828490234375  L 1.7493700390625 10.8730052148437  C 1.7493700390625 11.21904921875  1.47051904296875 11.497900234375  1.12447501953125 11.497900234375  C 0.778430996093751 11.497900234375  0.499580000000001 11.2190492382813  0.499580000000001 10.8730052148437  L 0.499580000000001 8.24911810546875  C 0.499580000000001 8.04753906249999  0.597009863281251 7.8593986328125  0.761632753906251 7.74181085937499  L 1.13119431640625 7.47639845703125  C 1.30253654296875 3.8043003515625  4.316143125 0.867965722656251  7.99832017578125 0.867965722656251  C 11.6401814257813 0.867965722656251  14.6302704492188 3.74046699218749  14.8587266992187 7.35881068359375  L 15.7087183007813 7.66117923828125  C 15.9573324414063 7.74853015625  16.1253149804688 7.98706535156251  16.1253149804688 8.2491180859375  L 16.1253149804688 10.8730051953125  Z " fill-rule="nonzero" fill="#575b66" stroke="none" transform="matrix(1 0 0 1 -1344 979 )" />
  </g>
</svg>