<?xml version="1.0" encoding="utf-8"?>
<svg version="1.1" xmlns:xlink="http://www.w3.org/1999/xlink" width="18px" height="16px" xmlns="http://www.w3.org/2000/svg">
  <g transform="matrix(1 0 0 1 -76 -1856 )">
    <path d="M 17.25 7.78125  C 17.90625 7.0625  17.9375 6  17.375 5.28125  L 13.9375 1  C 13.59375 0.5625  13.03125 0.28125  12.46875 0.28125  L 5.53125 0.28125  C 4.96875 0.28125  4.4375 0.53125  4.0625 1  L 0.625 5.28125  C 0.03125 6  0.09375 7.0625  0.71875 7.75  L 7.6875 15.125  L 7.78125 15.21875  C 8.125 15.53125  8.59375 15.71875  9.0625 15.71875  L 9.125 15.71875  C 9.625 15.6875  10.09375 15.5  10.4375 15.125  L 17.25 7.78125  Z M 16.40625 6.0625  C 16.5625 6.3125  16.5625 6.65625  16.34375 6.90625  L 9.53125 14.25  C 9.40625 14.375  9.25 14.4375  9.09375 14.4375  C 8.9375 14.4375  8.78125 14.375  8.65625 14.28125  L 1.65625 6.875  C 1.4375 6.65625  1.4375 6.3125  1.625 6.0625  L 5.03125 1.78125  C 5.15625 1.625  5.34375 1.53125  5.53125 1.53125  L 12.46875 1.53125  C 12.65625 1.53125  12.84375 1.625  12.96875 1.78125  L 16.40625 6.0625  Z " fill-rule="nonzero" fill="#ffffff" stroke="none" transform="matrix(1 0 0 1 76 1856 )" />
  </g>
</svg>