<?xml version="1.0" encoding="utf-8"?>
<svg version="1.1" xmlns:xlink="http://www.w3.org/1999/xlink" width="12px" height="14px" xmlns="http://www.w3.org/2000/svg">
  <g transform="matrix(1 0 0 1 1343 -983 )">
    <path d="M 1.34738787109375 13.13539390625  C 1.34738787109375 13.47807828125  1.0651772265625 13.7602889257813  0.7224928515625 13.7602889257813  C 0.37644884765625 13.7602889257813  0.0975978320312505 13.4814379296875  0.0975978320312505 13.13539390625  C 0.0975978320312505 11.7780950585937  1.700151171875 10.7970770898438  4.5188980078125 10.40399796875  L 4.5188980078125 10.2158575390625  C 2.60725681640625 8.7510498828125  2.60725681640625 6.0364521875  2.60725681640625 4.38350410156249  C 2.60725681640625 1.65546781249999  4.2131698046875 0.0260372851562494  6.9008902734375 0.0260372851562494  L 7.04535525390625 0.0260372851562494  C 9.73307572265625 0.0260372851562494  11.3389887109375 1.65546783203125  11.3389887109375 4.38350410156249  C 11.3389887109375 4.58508314453125  11.3356290625 4.78666216796874  11.3322694140625 4.99496050781249  C 11.32219046875 5.34100451171875  11.0399798046875 5.6131362109375  10.6905761523438 5.603057265625  C 10.3445321484375 5.5929783203125  10.0724004492188 5.3074080078125  10.0824793945312 4.96136400390625  C 10.0891986914062 4.76650427734376  10.0891986914062 4.5750041796875  10.0891986914062 4.38350410156249  C 10.0891986914062 2.3206786328125  9.06450525390625 1.2758273046875  7.04535525390625 1.2758273046875  L 6.9008902734375 1.2758273046875  C 4.8817402734375 1.2758273046875  3.8570468359375 2.3206786328125  3.8570468359375 4.38350410156249  C 3.8570468359375 6.37913656249999  3.98135390625 8.41172517578124  5.47975806640625 9.3658659375  C 5.66117919921875 9.4800940625  5.76868802734375 9.67831343749999  5.76868802734375 9.89333107421875  L 5.768688046875 10.9583403320312  C 5.768688046875 11.2775071484375  5.526793203125 11.5462791796875  5.2109860546875 11.5798756835937  C 2.70132705078125 11.8452880859375  1.34738787109375 12.5810515625  1.34738787109375 13.13539390625  Z " fill-rule="nonzero" fill="#575b66" stroke="none" transform="matrix(1 0 0 1 -1343 983 )" />
  </g>
</svg>