<?xml version="1.0" encoding="utf-8"?>
<svg version="1.1" xmlns:xlink="http://www.w3.org/1999/xlink" width="6px" height="5px" xmlns="http://www.w3.org/2000/svg">
  <g transform="matrix(1 0 0 1 1335 -992 )">
    <path d="M 5.90576181640625 4.13539392578124  C 5.9091214453125 4.47807828124999  5.63027044921875 4.76028892578125  5.2842264453125 4.76028892578125  C 4.93818244140625 4.76028892578125  4.65933142578125 4.4814379296875  4.65933142578125 4.13539390625  C 4.65933142578125 3.5776919140625  3.3053922265625 2.8452880859375  0.795733242187499 2.57987568359374  C 0.47656642578125 2.5462791796875  0.234671601562498 2.27750712890625  0.234671601562498 1.95834033203124  L 0.234671601562498 0.889971445312497  C 0.234671601562498 0.543927441406254  0.513522597656248 0.265076425781245  0.859566621093748 0.265076425781245  C 1.20561064453125 0.265076425781245  1.484461640625 0.543927421874997  1.484461640625 0.889971445312497  L 1.484461640625 1.40399798828125  C 4.30320849609375 1.7937174609375  5.90576181640625 2.77809507812501  5.90576181640625 4.13539392578124  Z " fill-rule="nonzero" fill="#575b66" stroke="none" transform="matrix(1 0 0 1 -1335 992 )" />
  </g>
</svg>