<?xml version="1.0" encoding="utf-8"?>
<svg version="1.1" xmlns:xlink="http://www.w3.org/1999/xlink" width="64px" height="41px" xmlns="http://www.w3.org/2000/svg">
  <g transform="matrix(1 0 0 1 -98 -46 )">
    <path d="M 63 4.05858823529412  C 63.0151893116267 2.19127656922747  61.5033116660666 0.679398923667399  59.636 0.67182352941176  C 57.7615294117647 0.67182352941176  56.2741176470588 2.209  56 4.05858823529412  L 56 33  L 8 33  L 8 4.05858823529412  C 7.22823529411765 2.209  5.74358823529412 0.67182352941176  3.84423529411765 0.67182352941176  C 1.99188235294117 0.67182352941176  0.457470588235292 2.209  1 4.05858823529412  L 1 37.13  C 0.457470588235292 39.0514705882353  1.99464705882353 40.5416470588235  3.84423529411765 40  L 59.636 40  C 59.6406819597655 40.5416665561005  59.6453639550512 40.5416763047707  59.6500459554132 40.5416763047707  C 61.5128699292542 40.5416763047707  63.0229871318838 39.0315591021411  63.0229871318838 37.1687351283001  C 63.0229871318838 37.155823099563  63.022912988661 37.1429111772634  63 37.13  L 63 4.05858823529412  Z " fill-rule="nonzero" fill="#f52349" stroke="none" fill-opacity="0.0980392156862745" transform="matrix(1 0 0 1 98 46 )" />
  </g>
</svg>