<?xml version="1.0" encoding="utf-8"?>
<svg version="1.1" xmlns:xlink="http://www.w3.org/1999/xlink" width="89px" height="48px" xmlns="http://www.w3.org/2000/svg">
  <g transform="matrix(1 0 0 1 -85 -4 )">
    <path d="M 87.7423529411765 42.1935294117647  L 87.7423529411765 42.1907647058824  L 47.2007058823529 1.627  L 47.1315882352941 1.59935294117647  C 46.5077819703526 0.956121672691173  45.6499772923373 0.593079558508959  44.7539411764706 0.593079558508959  C 43.8579050606039 0.593079558508959  43.0001003825886 0.956121672691173  42.3762941176471 1.59935294117647  L 1.73511764705882 42.1935294117647  C 0.435705882352941 43.4929411764706  0.435705882352941 45.6549411764706  1.73511764705882 46.9488235294118  C 3.07876470588235 48.2952352941176  5.191 48.2952352941176  6.54017647058824 46.9488235294118  L 44.7290588235294 8.74058823529412  L 82.9649411764706 46.9488235294118  C 84.2837058823529 48.2952352941176  86.4208235294118 48.2952352941176  87.7423529411765 46.9488235294118  C 88.3758208846027 46.3197630546365  88.7320723244466 45.4639243164401  88.7320723244466 44.5711764705882  C 88.7320723244466 43.6784286247363  88.3758208846027 42.82258988654  87.7423529411765 42.1935294117647  Z " fill-rule="nonzero" fill="#f52349" stroke="none" fill-opacity="0.0980392156862745" transform="matrix(1 0 0 1 85 4 )" />
  </g>
</svg>