<?xml version="1.0" encoding="utf-8"?>
<svg version="1.1" xmlns:xlink="http://www.w3.org/1999/xlink" width="42px" height="38px" xmlns="http://www.w3.org/2000/svg">
  <g transform="matrix(1 0 0 1 -109 -38 )">
    <path d="M 19.6425294117647 36.8386470588235  L 19.6425294117647 36.8358823529412  C 20.2424705882353 37.4385882352941  21.2460588235294 37.4385882352941  21.846 36.8358823529412  L 37.3421764705882 21.3397058823529  L 37.4112941176471 21.2622941176471  C 39.0369411764706 19.6366470588235  40.2147058823529 17.7234705882353  40.7731764705882 15.6305882352941  C 41.3283697757341 13.5591440343314  41.258146808265 11.3697265828313  40.5713529411765 9.33811764705883  L 40.5492352941177 9.33811764705883  C 39.9121540110746 7.44774246834533  38.8368915018771 5.73490139642552  37.4112941176471 4.33952941176471  C 35.9757955418578 2.93926034384682  34.239744029048 1.88495890769055  32.3352941176471 1.25688235294118  C 30.2292599696538 0.577423199058941  27.9725735966921 0.516016767141615  25.8327058823529 1.07994117647059  C 23.9831176470588 1.54441176470588  22.269 2.48994117647059  20.7318235294118 3.75064705882353  C 19.2600351834461 2.49319849316949  17.5257355372247 1.58070750283732  15.6558235294118 1.07994117647059  C 13.5176407805213 0.520360751174678  11.2651149139382 0.574015131663259  9.156 1.23476470588236  C 7.24835294117648 1.85682352941176  5.50382352941177 2.94888235294118  4.06894117647059 4.33123529411765  C 2.64732545836911 5.723935630797  1.57496651072006 7.43288928941794  0.939294117647062 9.31876470588235  C 0.247045219225235 11.3551751625091  0.16916517959783 13.5502385016372  0.715352941176476 15.6305882352941  C 1.27382352941177 17.7234705882353  2.44052941176471 19.6394117647059  4.06617647058824 21.2622941176471  L 19.6425294117647 36.8386470588235  Z M 3.90029411764706 10.2974705882353  L 3.90029411764706 10.2947058823529  C 4.36752941176471 8.89299999999999  5.19141176470589 7.61294117647058  6.28070588235295 6.56511764705882  C 7.35064705882353 5.49794117647058  8.686 4.68511764705882  10.1125882352941 4.24  C 11.6474499873242 3.74392788608594  13.2914942337381 3.69312068780027  14.8540588235294 4.09347058823529  C 16.5560158390468 4.58036005418193  18.1096660592798 5.48404284283122  19.3743529411765 6.72270588235294  L 19.440705882353 6.7890588235294  L 16.2557647058824 9.96294117647058  C 15.8990469322012 10.3333789350998  15.8990469322012 10.9195622413708  16.2557647058824 11.29  C 16.6257539997396 11.6583544352149  17.2238930590839 11.6583544352149  17.5938823529412 11.29  L 22.5814117647059 6.28864705882353  C 23.7517658980075 5.26619199889466  25.136899574478 4.51976934922774  26.6344705882353 4.1045294117647  C 28.2039475777116 3.70503243905603  29.8538224968087 3.75195285172913  31.3980588235294 4.23999999999999  C 32.8218823529412 4.68511764705882  34.1351176470588 5.49794117647058  35.2271764705882 6.56511764705881  C 36.2971176470588 7.61294117647058  37.1071764705882 8.89299999999999  37.5882352941177 10.2974705882353  L 37.5882352941177 10.3195882352941  C 38.0997058823529 11.8678235294117  38.1218235294118 13.4022352941176  37.7458235294118 14.8177647058823  C 37.3228235294118 16.3521764705882  36.4298235294118 17.8008823529412  35.1829411764706 19.0477647058823  L 35.1165882352941 19.1251764705882  L 20.7318235294118 33.4961176470588  L 6.30558823529412 19.0477647058823  C 5.04488235294118 17.8008823529412  4.1684705882353 16.3521764705882  3.7454705882353 14.8177647058823  C 3.35307837154219 13.3283753119963  3.40691556098512 11.7565216559392  3.90029411764706 10.2974705882353  Z " fill-rule="nonzero" fill="#f52349" stroke="none" fill-opacity="0.0980392156862745" transform="matrix(1 0 0 1 109 38 )" />
  </g>
</svg>