<?xml version="1.0" encoding="utf-8"?>
<svg version="1.1" xmlns:xlink="http://www.w3.org/1999/xlink" width="33px" height="14px" xmlns="http://www.w3.org/2000/svg">
  <g transform="matrix(1 0 0 1 -41 -66 )">
    <path d="M 14.1977771724138 13  L 14.117813862069 13.3103448275862  L 13.9401176551724 13  L 0.156221793103448 13  L 0.925646413793103 10.6591172413793  C 1.42674972413793 9.0456355862069  1.89764475862069 7.52100200000001  2.85009648275862 6.4086235862069  C 4.08330827586207 4.96573027586207  5.83361606896552 4.51438186206897  8.05126489655173 5.0687940689655  C 9.87343509728762 5.5289635335625  11.5756033265375 6.37489690988042  13.0427517241379 7.54943331034483  C 14.6100324137931 4.83423503448276  17.4336253793103 0.884048068965512  20.8827089655172 0.183924965517235  C 22.0999280689655 -0.0612957931034544  23.9408608965517 -0.011540896551729  25.7977864827586 1.62681827586206  C 26.8834476780369 2.56897398299959  28.0225989336568 3.44766304967008  29.2095539310345 4.25849931034482  C 30.6773246896552 5.29269131034482  31.8359040689655 6.11009393103447  32.4525099310345 7.31487434482759  C 33.4031846896552 9.17002289655173  32.5609046206897 11.0269484137931  31.8430119310345 12.260160137931  L 31.3294697931034 13  L 14.1977771724138 13  Z M 21.5828320689655 3.66499393103448  C 19.7614457931034 4.03993296551724  17.5597896551724 6.76934689655171  15.9676315172414 9.59293986206896  L 29.2042230344828 9.59293986206896  C 29.305509862069 9.32639551724138  29.3588187586207 9.07584386206896  29.2877402758621 8.93724082758621  C 29.0709508965517 8.51254682758621  28.1415996551724 7.85862475862068  27.1553855862069 7.16027862068965  C 25.8628148507993 6.27511403127399  24.6222236858864 5.31634055630799  23.4397575862069 4.2887076551724  C 22.6241319310345 3.56726096551724  22.0181877931035 3.57792275862069  21.5828320689655 3.66499393103448  Z M 5.06241441379311 9.59293986206896  L 5.06063744827587 9.59293986206896  L 9.75892551724139 9.59293986206896  C 8.96095726701522 9.11027987471788  8.09470285926005 8.7508382106877  7.18943820689656 8.52676255172413  C 6.11259910344828 8.26021820689655  5.65947372413794 8.20513241379311  5.06241441379311 9.59293986206896  Z " fill-rule="nonzero" fill="#70b603" stroke="none" fill-opacity="0.298039215686275" transform="matrix(1 0 0 1 41 66 )" />
  </g>
</svg>