<?xml version="1.0" encoding="utf-8"?>
<svg version="1.1" xmlns:xlink="http://www.w3.org/1999/xlink" width="24px" height="14px" xmlns="http://www.w3.org/2000/svg">
  <g transform="matrix(1 0 0 1 -31 -28 )">
    <path d="M 22.7228985517242 9.64413489655172  L 23.1422615862069 13.1465274482759  L 20.0823326896552 11.4086584137931  C 18.0299413103448 10.2429711724138  14.4529164137931 9.01331337931034  11.8390049655172 9.01331331034483  L 11.7928039310345 9.01331331034483  C 7.83373213793105 9.0346368275862  5.08832551724139 9.46110779310345  3.62943958620691 10.2785104137931  L 0.560625793103458 12.0003868275862  L 0.995981586206909 8.50865606896551  C 1.28562641379312 6.18438951724138  2.71252710344829 4.08224317241379  5.01547006896553 2.59137186206896  C 7.06086894987115 1.29359759987296  9.42745482750833 0.591498159283383  11.8496667586207 0.563857999999996  C 14.2183573793104 0.563857999999996  16.7789599310345 1.52519455172414  18.8793292413793 3.22930131034483  C 21.0436692413793 4.99204779310345  22.4456924137931 7.33053006896552  22.7228985517242 9.64413489655172  Z M 11.8390049655173 5.45761193103448  L 11.8390049655172 5.45938889655172  C 13.4826950344828 5.45938889655172  15.3023043448276 5.8041195862069  17.0170728275862 6.31410772413793  C 15.5955030344828 5.01692531034483  13.6852686896552 4.11955937931035  11.8994217241379 4.11955937931035  L 11.8709902758621 4.11955937931035  C 10.0040086073739 4.10701678323979  8.18070472019893 4.68410615967462  6.66093710344829 5.76858034482759  C 8.35708730461903 5.55411444554559  10.0653949778703 5.45023888308596  11.7750343448276 5.45761193103448  L 11.8390049655173 5.45761193103448  Z " fill-rule="nonzero" fill="#70b603" stroke="none" fill-opacity="0.298039215686275" transform="matrix(1 0 0 1 31 28 )" />
  </g>
</svg>