<?xml version="1.0" encoding="utf-8"?>
<svg version="1.1" xmlns:xlink="http://www.w3.org/1999/xlink" width="10px" height="11px" xmlns="http://www.w3.org/2000/svg">
  <g transform="matrix(1 0 0 1 -50 -35 )">
    <path d="M 9.63485179310345 5.62410055172414  C 9.63485175501485 8.27385119296011  7.48680443433942 10.4218984827586  4.83705379310345 10.4218984827586  C 2.18730312493477 10.4218984827586  0.0392557931034503 8.2738511509273  0.0392557931034503 5.62410048275862  C 0.0392557931034503 2.97434981458994  2.18730312493477 0.826302482758624  4.83705379310345 0.826302482758624  C 7.48680446127213 0.826302482758624  9.63485179310345 2.97434981458994  9.63485179310345 5.62410048275862  Z M 4.83705386206897 4.38911179310345  C 4.15008148777816 4.38911179310345  3.59318034482759 4.94601293605403  3.59318034482759 5.63298531034483  C 3.59318034482759 6.31995768463563  4.15008148777816 6.8768588275862  4.83705386206897 6.8768588275862  C 5.52402623635978 6.8768588275862  6.08092737931035 6.31995768463563  6.08092737931035 5.63298531034483  C 6.08092737931035 4.94601293605403  5.52402623635978 4.38911179310345  4.83705386206897 4.38911179310345  Z " fill-rule="nonzero" fill="#70b603" stroke="none" fill-opacity="0.298039215686275" transform="matrix(1 0 0 1 50 35 )" />
  </g>
</svg>