<?xml version="1.0" encoding="utf-8"?>
<svg version="1.1" xmlns:xlink="http://www.w3.org/1999/xlink" width="32px" height="32px" xmlns="http://www.w3.org/2000/svg">
  <g transform="matrix(1 0 0 1 -20 -22 )">
    <path d="M 31.0322265625 5.983984375  C 31.17578125 3.94140625  30.462109375 2.768359375  29.8345703125 2.144921875  C 29.2111328125 1.521484375  28.0380859375 0.8078125  25.999609375 0.947265625  C 24.9865234375 1.0169921875  23.850390625 1.2876953125  22.6158203125 1.7552734375  C 23.6412109375 2.226953125  24.605078125 2.809375  25.49921875 3.4861328125  C 25.8724609375 3.4205078125  26.2169921875 3.3876953125  26.524609375 3.3876953125  C 27.2341796875 3.3876953125  27.7673828125 3.555859375  28.0955078125 3.8798828125  C 28.9404296875 4.7248046875  28.6861328125 6.9478515625  27.4228515625 9.6794921875  C 25.9298828125 12.907421875  23.2515625 16.54140625  19.880078125 19.912890625  C 13.8712890625 25.9298828125  8.25625 28.624609375  5.41796875 28.624609375  C 4.7083984375 28.624609375  4.1751953125 28.4564453125  3.8470703125 28.132421875  C 3.358984375 27.6443359375  3.227734375 26.6845703125  3.48203125 25.3802734375  C 2.8134765625 24.4861328125  2.243359375 23.5263671875  1.77578125 22.505078125  C 1.275390625 23.7970703125  0.98828125 24.982421875  0.914453125 26.0365234375  C 0.7708984375 28.075  1.4845703125 29.248046875  2.112109375 29.871484375  C 2.6822265625 30.4416015625  3.7076171875 31.085546875  5.434375 31.085546875  C 5.5984375 31.085546875  5.770703125 31.0814453125  5.9470703125 31.069140625  C 7.32109375 30.9748046875  8.9125 30.511328125  10.6802734375 29.6951171875  C 14.1666015625 28.083203125  18.05078125 25.228515625  21.6232421875 21.66015625  C 25.195703125 18.091796875  28.0462890625 14.203515625  29.658203125 10.7171875  C 30.4744140625 8.9494140625  30.937890625 7.3580078125  31.0322265625 5.983984375  Z " fill-rule="nonzero" fill="#70b603" stroke="none" transform="matrix(1 0 0 1 20 22 )" />
  </g>
</svg>