<?xml version="1.0" encoding="utf-8"?>
<svg version="1.1" xmlns:xlink="http://www.w3.org/1999/xlink" width="32px" height="32px" xmlns="http://www.w3.org/2000/svg">
  <g transform="matrix(1 0 0 1 -20 -22 )">
    <path d="M 1.59121093749999 22.103125  C 2.38691406249999 23.9611328125  3.51894531249999 25.638671875  4.9544921875 27.0783203125  C 5.1759765625 27.2998046875  5.4015625 27.508984375  5.63125 27.7140625  C 6.443359375 27.56640625  7.3908203125 27.2669921875  8.4490234375 26.8076171875  C 5.048828125 24.4123046875  2.8216796875 20.4583984375  2.8216796875 15.9958984375  C 2.8216796875 8.707421875  8.7484375 2.7806640625  16.0369140625 2.7806640625  C 20.4748046875 2.7806640625  24.4041015625 4.9791015625  26.803515625 8.3423828125  C 27.2546875 7.280078125  27.541796875 6.3080078125  27.66484375 5.48359375  C 27.4884765625 5.2908203125  27.3080078125 5.098046875  27.1234375 4.9134765625  C 25.6837890625 3.473828125  24.00625 2.3458984375  22.1400390625 1.554296875  C 20.208203125 0.738085937499998  18.1533203125 0.323828124999999  16.0369140625 0.323828124999999  C 13.9205078125 0.323828124999999  11.8697265625 0.738085937499998  9.93378906249999 1.554296875  C 8.06757812499999 2.3458984375  6.39003906249999 3.473828125  4.95039062499999 4.9134765625  C 3.51074218749999 6.353125  2.38281249999999 8.0306640625  1.59121093749999 9.896875  C 0.774999999999993 11.8287109375  0.360742187499993 13.88359375  0.360742187499993 16  C 0.360742187499993 18.11640625  0.774999999999993 20.1671875  1.59121093749999 22.103125  Z M 30.8845703125 10.938671875  C 30.790234375 11.168359375  30.6876953125 11.398046875  30.5810546875 11.6318359375  C 30.1791015625 12.5013671875  29.69921875 13.3955078125  29.149609375 14.3060546875  C 29.2193359375 14.859765625  29.25625 15.4216796875  29.25625 15.991796875  C 29.25625 23.2802734375  23.3294921875 29.20703125  16.041015625 29.20703125  C 15.483203125 29.20703125  14.9376953125 29.1701171875  14.3962890625 29.1044921875  C 13.4447265625 29.6828125  12.5095703125 30.1873046875  11.603125 30.609765625  C 11.414453125 30.6958984375  11.2298828125 30.7779296875  11.0453125 30.855859375  C 12.6490234375 31.3931640625  14.3265625 31.66796875  16.041015625 31.66796875  C 18.157421875 31.66796875  20.208203125 31.2537109375  22.144140625 30.4375  C 24.0103515625 29.6458984375  25.687890625 28.51796875  27.1275390625 27.0783203125  C 28.5671875 25.638671875  29.6951171875 23.9611328125  30.48671875 22.094921875  C 31.3029296875 20.1630859375  31.7171875 18.108203125  31.7171875 15.991796875  C 31.7171875 14.2568359375  31.43828125 12.5587890625  30.8845703125 10.938671875  Z " fill-rule="nonzero" fill="#70b603" stroke="none" transform="matrix(1 0 0 1 20 22 )" />
  </g>
</svg>