<?xml version="1.0" encoding="utf-8"?>
<svg version="1.1" xmlns:xlink="http://www.w3.org/1999/xlink" width="40px" height="32px" xmlns="http://www.w3.org/2000/svg">
  <g transform="matrix(1 0 0 1 -14 -20 )">
    <path d="M 25.3433219178082 12.2508474576271  C 26.2025673183722 12.6348294516826  27.0859358519635 12.9635624781325  27.9879280821918 13.235  C 28.1164383561644 13.235  28.0758561643836 12.8801694915254  27.9879280821918 12.7328813559322  C 27.1280622660308 12.2588644933739  26.2215315567433 11.8730204396175  25.282448630137 11.5813559322034  C 25.2012842465753 11.5813559322034  25.2215753424658 12.1705084745763  25.3433219178082 12.2508474576271  Z M 25.3636130136986 13.9513559322034  L 25.3703767123288 13.9446610169492  C 26.3378542252387 14.3290467007146  27.327010362642 14.6576477226317  28.3328767123288 14.928813559322  C 28.4816780821918 14.928813559322  28.4208047945206 14.7413559322034  28.4208047945206 14.5940677966102  C 27.4447772008179 14.1094660896468  26.4396031293906 13.6846551394827  25.4109589041096 13.3220338983051  C 25.2418664383562 13.3220338983051  25.282448630137 13.8442372881356  25.3636130136986 13.9513559322034  Z M 15.2654109589041 9.70008474576271  C 15.2180650684932 9.82728813559322  15.4953767123288 10.1821186440678  15.705051369863 10.1218644067797  C 15.9147260273973 10.0616101694915  16.1920376712329 9.65991525423729  16.6384417808219 9.32516949152543  C 17.1459111310334 9.08120890336053  17.6759229052592 8.88615719957329  18.221147260274 8.74271186440678  C 18.285668535803 8.58604639873538  18.2541517246814 8.40666766696163  18.1399828767123 8.2807627118644  C 18.0114726027397 8.15355932203389  17.4636130136986 8.17364406779661  16.5099315068493 8.57533898305084  C 15.978299701006 8.79980837552036  15.5394819010556 9.19639360017704  15.2654109589041 9.70008474576271  Z M 12.2082191780822 15.5246610169492  C 12.1270547945205 16.7431355932203  12.2826198630137 17.2117796610169  12.8304794520548 17.5866949152542  C 13.5845171927239 18.0223650088355  14.4078891611814 18.3279895191613  15.2654109589041 18.4905084745763  C 15.7610466637218 18.5626577577098  16.2334995316407 18.258542936709  16.3678938356164 17.7808474576271  C 16.496404109589 17.2184745762712  15.6915239726027 15.4376271186441  15.3330479452055 14.2459322033898  C 15.1362370950582 13.3622752641366  15.1501317882157 12.4453825179269  15.3736301369863 11.5679661016949  C 15.3736301369863 11.3604237288136  14.3590753424658 11.1863559322034  14.1494006849315 11.2533050847458  C 13.5136130136986 11.4608474576271  12.2893835616438 14.306186440678  12.2082191780822 15.5246610169492  Z M 13.1077910958904 16.9238983050847  C 12.9688862729419 16.0674336774526  12.9964341055531 15.1925954452086  13.1889554794521 14.3463559322034  C 13.4189212328767 13.0676271186441  14.0952910958904 11.9629661016949  14.372602739726 11.8960169491525  C 14.4808219178082 11.8960169491525  14.5011130136986 11.9830508474576  14.4808219178082 12.1705084745763  C 14.474531158974 13.4074315329875  14.638363755855 14.6394464908134  14.9678082191781 15.8326271186441  C 15.4345034246575 17.298813559322  15.5359589041096 17.5063559322034  15.3668664383562 17.5933898305085  C 14.5794083955804 17.5059582638058  13.8142269941749 17.2791918279889  13.1077910958904 16.9238983050847  Z M 36.2531678082192 23.4648305084746  C 36.29375 23.3376271186441  34.2916952054795 21.6973728813559  34.0346746575342 21.7710169491525  C 33.8858732876712 21.811186440678  33.6559075342466 22.0455084745763  33.6964897260274 22.1927966101695  C 34.3792401799132 22.77146698441  35.1075182729809 23.2953303968022  35.8744006849315 23.759406779661  C 36.0434931506849 23.8196610169492  36.2125856164384 23.5920338983051  36.2531678082192 23.4648305084746  Z M 35.8067636986301 21.0814406779661  L 35.8135273972603 21.1015254237288  C 35.6647260273973 21.1015254237288  35.30625 21.3559322033898  35.2250856164384 21.3760169491525  C 35.1439212328767 21.3961016949152  36.9768835616438 22.6346610169492  37.2136130136986 22.715  C 37.4503424657534 22.7953389830508  37.4909246575342 22.5476271186441  37.5517979452055 22.4204237288136  C 37.0406373666572 21.8906716161836  36.4524842985412 21.4393756080641  35.8067636986301 21.0814406779661  Z M 36.7604452054795 20.5592372881356  L 36.7672089041096 20.5793220338983  C 36.7672089041096 20.5793220338983  37.4029965753425 21.1885593220339  37.4841609589041 21.248813559322  C 37.5653253424658 21.3090677966102  37.5923801369863 21.1684745762712  37.6735445205479 21.0613559322034  C 37.7547089041096 20.9542372881356  37.4638698630137 20.4320338983051  37.1865582191781 20.3316101694915  C 36.9092465753425 20.231186440678  36.8416095890411 20.4788983050847  36.7604452054795 20.5592372881356  Z M 32.4046232876712 20.5592372881356  C 32.9727739726027 21.5233050847458  35.8270547945205 21.1885593220339  35.5565068493151 19.5951694915254  C 35.4527118518248 18.7331695790918  34.7141888482191 18.0841104757579  33.8371690614032 18.0841104757579  C 33.5752051195568 18.0841104757579  33.3166558248693 18.1429461497487  33.0809931506849 18.256186440678  C 32.5031684415552 18.4983590342793  32.1277725839525 19.059205962885  32.1277725839525 19.6803119772508  C 32.1277725839525 19.9943130363639  32.2243359668694 20.300875382821  32.4046232876712 20.5592372881356  Z M 33.0607020547945 20.1441525423729  L 33.0607020547945 20.1374576271186  C 32.9816525569384 19.9969922580028  32.9401606485663 19.8388686495319  32.9401606485663 19.6780802961942  C 32.9401606485663 19.2889610109229  33.1813808919951 18.93971158044  33.5476883561644 18.7984745762712  C 33.618486799331 18.7850667357549  33.6904078110467 18.7783177271544  33.7624904207777 18.7783177271544  C 34.3518940169683 18.7783177271544  34.8446641192328 19.2219191834465  34.9004280821918 19.8027118644068  C 35.0018835616438 20.5793220338983  33.378595890411 20.7466949152542  33.0607020547945 20.1441525423729  Z M 27.9676369863014 22.5476271186441  L 27.9676369863014 22.5409322033898  C 27.3785741286288 22.7045330355263  26.9067551816452 23.1415845752863  26.7028253424658 23.7125423728814  C 26.6813317457245 24.4321383361456  27.2075188880804 25.0536885832226  27.9270547945206 25.1586440677966  C 28.9010273972603 25.3059322033898  30.5513698630137 24.3217796610169  30.2131849315069 23.3376271186441  C 29.875 22.3534745762712  28.5763698630137 22.3802542372881  27.9676369863014 22.5476271186441  Z M 29.3609589041096 23.8263559322034  L 29.3609589041096 23.8196610169491  C 29.1309931506849 24.2414406779661  28.2381849315069 24.5293220338983  27.8797089041096 24.1945762711864  C 27.759131414018 24.0699548945305  27.6918219113091 23.9040633039457  27.6918219113091 23.7315083412291  C 27.6918219113091 23.3617583815966  27.9946430137352 23.0620168158053  28.3681917743228 23.0620168158053  C 28.3812284854169 23.0620168158053  28.3942624716218 23.0623898974732  28.4072773972603 23.0631355932203  C 28.840154109589 23.0296610169492  29.5909246575343 23.4045762711864  29.3609589041096 23.8263559322034  Z M 19.4927226027397 23.1970338983051  L 19.4927226027397 23.1903389830508  C 18.757537427439 23.2521736297006  18.1926043505933 23.8608918698373  18.1926043505933 24.5912229582553  C 18.1926043505933 25.2727074596757  18.6863681732072 25.8560666348165  19.3642123287671 25.9754237288136  C 21.1633561643836 26.4172881355932  22.3672945205479 25.3059322033898  22.2590753424658 24.2816101694915  C 22.1508561643836 23.2572881355932  20 23.1233898305085  19.4927226027397 23.1970338983051  Z M 20.1217465753425 25.2657627118644  L 20.1285102739726 25.2590677966102  C 19.1748287671233 25.2590677966102  18.3970034246575 24.1477118644068  19.5130136986301 23.8799152542373  C 20.0562734281994 23.8518028721911  20.5930101916581 24.0076445430819  21.034845890411 24.3217796610169  C 21.3933219178082 24.7033898305085  21.0754280821918 25.2858474576271  20.1217465753425 25.2657627118644  Z M 13.6624143835616 23.2372033898305  C 13.730051369863 21.8178813559322  11.4912671232877 21.3559322033898  10.5916952054795 21.5032203389831  C 9.83233560485813 21.5716919271535  9.250975674104 22.201943818416  9.250975674104 22.9566934381799  C 9.250975674104 23.4220148233282  9.47513799387148 23.8594469520533  9.85445205479452 24.1343220338983  C 10.8081335616438 24.9511016949153  13.5947773972603 24.6565254237288  13.6624143835616 23.2372033898305  Z M 12.789897260274 23.1300847457627  C 12.9319349315069 23.8397457627119  11.6671232876712 24.1611016949153  10.6999143835616 23.6991525423729  C 9.72594178082192 23.2372033898305  10.1520547945206 22.2999152542373  10.5308219178082 22.2530508474576  C 11.1192636986301 22.1861016949153  12.6478595890411 22.4204237288136  12.789897260274 23.1300847457627  Z M 5.74888698630137 17.5666101694915  L 5.75565068493151 17.5666101694915  C 4.96671114850476 17.5955088675755  4.34220566947297 18.236962077054  4.34220566947297 19.0184130311621  C 4.34220566947297 19.2492872997968  4.39779500191637 19.4768371762242  4.50436643835617 19.6822033898305  C 5.05222602739726 20.7734745762712  7.54803082191781 20.853813559322  7.88621575342466 19.2403389830508  C 8.22440068493151 17.6268644067797  6.47260273972603 17.5197457627119  5.74888698630137 17.5666101694915  Z M 7.04075342465754 19.16  L 7.04751712328768 19.16  C 6.79726027397261 19.8696610169492  5.97208904109589 19.8294915254237  5.41746575342466 19.4746610169492  C 4.86284246575343 19.1198305084746  5.36335616438356 18.3766949152542  5.81652397260274 18.2628813559322  C 6.40496575342466 18.1088983050848  7.29777397260274 18.4436440677966  7.04075342465754 19.16  Z M 36.4019691780822 15.8928813559322  L 36.4087328767123 15.8995762711864  C 34.4587874365811 14.7253622385144  32.297372813964 13.936431691415  30.0440924657534 13.5764406779661  C 30.0495544997476 13.2339768967924  30.0292069784595 12.8915867419641  29.9832191780822 12.5521186440678  C 29.1462734667525 11.0860993161018  28.1007310563091 9.74680431217587  26.8786815068493 8.57533898305085  C 24.8495719178082 6.56686440677966  21.677397260274 6.52669491525424  21.677397260274 6.52669491525424  C 21.677397260274 6.52669491525424  21.677397260274 6.41957627118644  21.6368150684932 5.62957627118644  C 21.5962328767123 4.83957627118644  20.2029109589041 4.81279661016949  20.2029109589041 4.81279661016949  L 20.2434931506849 3.01186440677967  C 20.8124294541188 2.92708116213496  21.2894730229501 2.54214180482456  21.4880136986301 2.00762711864407  C 21.7179794520548 1.1506779661017  21.1701198630137 0.35398305084746  19.9864726027397 0.313813559322038  C 18.8028253424658 0.273644067796615  18.1467465753425 1.0435593220339  18.3158390410959 1.90720338983051  C 18.4849315068493 2.77084745762712  19.5197773972603 2.95161016949153  19.5197773972603 2.95161016949153  L 19.5197773972603 4.85296610169492  C 19.1237134565265 4.89512298404514  18.7335636779386 4.98044229707651  18.3564212328767 5.10737288135594  C 17.8491438356164 5.29483050847458  17.828852739726 6.44635593220339  17.828852739726 6.44635593220339  C 17.828852739726 6.44635593220339  16.2664383561644 6.5735593220339  15.9079623287671 6.67398305084746  C 12.8008800117889 7.79675184971513  10.4626521252073 10.3772875094178  9.67183219178083 13.5563559322034  C 8.32458486392401 13.898384411717  6.99885896803172 14.3186601532404  5.70154109589042 14.815  C 3.56421232876713 15.631779661017  1.64332191780823 16.9105084745763  0.966952054794527 17.8879661016949  C -0.124123723191799 19.88658107588  -0.00960820883637264 22.318474180737  1.26455479452056 24.2079661016949  C 2.94195205479452 26.5043220338983  5.79623287671233 28.0508474576271  9.85445205479452 29.4500847457627  C 14.8731041353961 31.2731147195193  20.2303663794099 32.0016191699571  25.5597602739726 31.5857627118644  C 32.2152397260274 31.1037288135593  34.4134417808219 28.9948305084746  36.341095890411 27.736186440678  C 38.4210661441318 26.3765173793648  39.6988675587836 24.0968655542999  39.7635273972603 21.6304237288136  C 39.9326198630137 18.8453389830508  39.107448630137 17.693813559322  36.4019691780822 15.8928813559322  Z M 20.8251712328767 1.77330508474576  C 20.6966609589041 2.37584745762712  19.4250856164384 2.29550847457627  19.1545376712329 2.10805084745763  C 19.0250572836073 1.97462962381769  18.952746357398 1.79679765676451  18.952746357398 1.6117918703612  C 18.952746357398 1.22960352021905  19.2558592275918 0.914721730511518  19.6415239726027 0.89627118644068  C 20.3720034246575 0.809237288135595  20.9536815068493 1.17076271186441  20.8251712328767 1.77330508474576  Z M 19.7429794520548 5.51576271186441  L 19.7497431506849 5.51576271186441  C 20.5546232876712 5.55593220338983  20.8522260273973 5.74338983050848  20.9536815068493 5.99779661016949  C 21.0551369863014 6.25220338983051  20.9536815068493 6.29237288135593  20.7034246575342 6.33254237288136  C 20.4531678082192 6.37271186440678  19.1207191780822 6.33254237288136  18.8839897260274 6.37271186440678  C 18.8733850200164 6.37406426584269  18.8627036508487 6.37474255172721  18.8520112912279 6.37474255172721  C 18.7137982498105 6.37474255172721  18.6017544419129 6.26383817238445  18.6017544419129 6.12703068732043  C 18.6017544419129 6.11061108092886  18.603403767741 6.09423215456593  18.6066780821918 6.07813559322034  C 18.6472602739726 5.87059322033898  18.9380993150685 5.47559322033898  19.7429794520548 5.51576271186441  Z M 13.4459760273973 9.38542372881356  L 13.4527397260274 9.38542372881356  C 14.8601614216129 8.06659206171693  16.7099133715657 7.30846808985596  18.6472602739726 7.2564406779661  C 20.7845890410959 7.12923728813559  23.1315924657534 7.55101694915254  24.5452054794521 8.46822033898305  C 25.1871055242804 8.82583683026744  25.7708402055436 9.27724182743071  26.2767123287671 9.80720338983051  C 26.2767123287671 9.80720338983051  25.3703767123288 9.80720338983051  25.3500856164384 9.91432203389831  C 25.329794520548 10.0214406779661  25.2892123287671 10.3963559322034  25.3500856164384 10.4164406779661  C 25.9482773302028 10.4446029856822  26.5431773568874 10.5207281060654  27.1289383561644 10.6440677966102  C 27.257448630137 10.7712711864407  28.6507705479452 12.023220338983  28.8807363013699 13.2818644067797  C 29.0567376710349 14.3908837562908  29.0567376710349 15.5203026843871  28.8807363013699 16.6293220338983  C 28.7995719178082 16.5690677966102  25.0321917808219 14.8283898305085  24.9510273972603 14.8752542372881  C 24.8698630136986 14.9221186440678  24.741352739726 15.2702542372881  24.8022260273973 15.3372033898305  C 24.8630993150685 15.4041525423729  28.8198630136986 17.0310169491525  28.8604452054795 17.2184745762712  C 28.9010273972603 17.4059322033898  28.7792808219178 18.4101694915254  28.7792808219178 18.4101694915254  C 28.7792808219178 18.4101694915254  24.8698630136986 16.4887288135593  24.7210616438356 16.5891525423729  C 24.5722602739726 16.6895762711864  24.3828767123288 16.9640677966102  24.491095890411 17.0511016949153  C 24.5993150684932 17.1381355932203  28.7589897260274 18.8922033898305  28.738698630137 19.019406779661  C 28.5155588880673 19.2885531266684  28.2333466406224 19.503784073261  27.9135273972603 19.6487288135593  L 27.5347602739726 19.8161016949153  C 26.4689033291596 19.1477324996463  25.3695204015031 18.533244286854  24.2408390410959 17.975  C 24.0920376712329 18.0352542372881  23.7944349315069 18.1624576271186  23.9432363013699 18.37  C 24.0920376712329 18.5775423728814  26.9057363013699 19.9834745762712  26.7569349315069 20.1307627118644  C 26.6081335616438 20.2780508474576  24.1393835616438 20.6730508474576  20.6087328767123 20.6127966101695  C 17.0780821917808 20.5525423728814  13.7841609589041 20.3650847457627  11.7347602739726 18.0620338983051  C 11.1548333917965 17.1780560904079  10.8534851280749 16.1433844883162  10.8690068493151 15.0894915254237  C 11.1103615989403 12.9698255765693  12.0108232789933 10.9766723347853  13.4459760273973 9.38542372881356  Z M 36.7850018046989 25.8716274978183  C 36.7850018046989 25.9188560280622  36.7692352567487 25.964760974961  36.740154109589 26.0022033898305  C 34.7876361632776 27.891478383281  32.3768894406475 29.2517451330549  29.7397260273973 29.9522033898305  C 24.8053048717983 31.0797619429155  19.6731647056432 31.0522531943041  14.7513698630137 29.8718644067797  C 9.21190068493151 28.4927118644068  6.29674657534247 27.1938983050848  5.1333904109589 26.2499152542373  C 3.97003424657534 25.3059322033898  2.91489726027397 24.1142372881356  3.23279109589041 24.1343220338983  C 3.42217465753424 24.1343220338983  7.06104452054794 26.0624576271187  10.2061643835616 26.8993220338983  C 13.5995310351683 27.9211442789367  17.129530826122 28.429007867308  20.6763698630137 28.4056779661017  C 25.4718321917808 28.4056779661017  27.9067636986301 28.3454237288136  31.2683219178082 27.5286440677966  C 34.6298801369863 26.7118644067797  36.5507705479452 25.6072033898305  36.6792808219178 25.6875423728814  C 36.7448355815836 25.7261722189935  36.7850018046989 25.7961110713001  36.7850018046989 25.8716274978183  Z M 36.8619006849315 24.2012711864407  L 36.8686643835616 24.2012711864407  C 36.4929689573147 24.5183016456867  36.0822875844795 24.7922994587007  35.6444349315068 25.0180508474576  C 35.6444349315068 25.0180508474576  32.7698630136986 22.7819491525424  32.641352739726 22.8020338983051  C 32.5128424657534 22.8221186440678  32.2220034246575 23.1568644067797  32.3234589041096 23.2840677966102  C 32.4249143835616 23.4112711864407  35.3468321917808 25.2925423728814  35.1980308219178 25.4197457627119  C 34.8356114610841 25.611930664507  34.4605010603785 25.7796847542651  34.0752568493151 25.9218644067797  C 34.0752568493151 25.9218644067797  32.492551369863 24.7033898305085  32.4046232876712 24.7033898305085  C 32.3166952054795 24.7033898305085  31.9582191780822 24.9778813559322  32.0664383561644 25.1452542372881  C 32.1746575342466 25.3126271186441  33.527397260274 26.1026271186441  33.4597602739726 26.1695762711864  C 30.3526409692595 27.0928107926589  27.1264552460316 27.56414963762  23.8823630136986 27.568813559322  C 19.2927234074944 27.6805742171404  14.7104281323866 27.1440456050184  10.273801369863 25.9754237288136  C 7.52612668288109 25.1831467496653  4.90690931783601 24.006340301177  2.49554794520548 22.4806779661017  C 1.8794706542521 21.8870656486665  1.5319525118529 21.0721707292344  1.5319525118529 20.2211440677966  C 1.5319525118529 19.3701174063588  1.8794706542521 18.5552224869267  2.49554794520548 17.9616101694915  C 4.43945255690244 16.3065425827861  6.76064652187873 15.1439627498601  9.25924657534247 14.5739830508475  C 9.44186643835617 14.5739830508475  9.29982876712329 17.5063559322034  10.6119863013699 18.8453389830508  C 11.9241438356164 20.1843220338983  13.9126712328767 21.0613559322034  16.9563356164384 21.4563559322034  C 19.6618212997474 21.8755056517328  22.4192395275592 21.8415581805075  25.1133561643836 21.3559322033898  C 26.8589710141622 21.0236639872653  28.523754981945 20.3622495007174  30.0170376712329 19.4077118644068  C 30.1354307706052 19.3185259526953  30.2053753282401 19.1800594385977  30.2064212328767 19.0327966101695  C 30.2064212328767 19.0327966101695  30.2470034246575 14.9756779661017  30.3146404109589 14.9087288135593  C 30.3822773972603 14.8417796610169  34.0346746575342 15.3706779661017  36.0232020547945 16.9172033898305  C 38.0117294520548 18.4637288135593  38.5190068493151 19.3876271186441  38.4513698630137 21.0814406779661  C 38.3567828817192 22.2878533882031  37.7857045619243 23.4087732458466  36.8619006849315 24.2012711864407  Z " fill-rule="nonzero" fill="#02a7f0" stroke="none" transform="matrix(1 0 0 1 14 20 )" />
  </g>
</svg>