<?xml version="1.0" encoding="utf-8"?>
<svg version="1.1" xmlns:xlink="http://www.w3.org/1999/xlink" width="17px" height="11px" xmlns="http://www.w3.org/2000/svg">
  <g transform="matrix(1 0 0 1 -213 -361 )">
    <path d="M 16.5177272753906 9.83318182617188  C 16.5177289824536 9.45742138860081  16.2137132974392 9.15249090143331  15.8379545507813 9.15136362304688  L 11.1497727246094 9.15136362304688  L 11.1497727246094 2.25545455078125  C 11.1497728995284 1.52086161099568  10.5548203900952 0.925909101562496  9.82090927648149 0.925909101562496  L 6.85363637695312 0.925909101562496  C 6.1193486718458 0.925909101562496  5.5240908984375 1.5211668749708  5.5240908984375 2.25545455078125  L 5.5240908984375 9.15136362304688  L 0.8359091015625 9.15136362304688  C 0.45935129270287 9.15136362304688  0.1540908984375 9.45662401731225  0.1540908984375 9.833181796875  C 0.1540908984375 10.2097396057346  0.45935129270287 10.515  0.835909072265625 10.515  L 15.8359091015625 10.515  C 16.2124668811253 10.515  16.5177272753906 10.2097396057346  16.5177272753906 9.83318182617188  Z M 7.3990908984375 2.58886362304688  L 9.27272727539063 2.58886362304688  C 9.64928505495338 2.58886362304688  9.95454544921875 2.89412401731225  9.95454544921875 3.270681796875  C 9.95454544921875 3.64723960573463  9.64928505495338 3.9525  9.27272727539063 3.9525  L 7.3990908984375 3.9525  C 7.02253311887475 3.9525  6.71727272460938 3.64723960573463  6.71727272460938 3.27068182617188  C 6.71727272460938 2.89412401731225  7.02253311887475 2.58886362304688  7.3990908984375 2.58886362304688  Z M 7.3990908984375 4.46386362304688  L 9.27272727539063 4.46386362304688  C 9.64928505495338 4.46386362304688  9.95454544921875 4.76912401731225  9.95454544921875 5.145681796875  C 9.95454544921875 5.52223960573463  9.64928505495338 5.8275  9.27272727539063 5.8275  L 7.3990908984375 5.8275  C 7.02253311887475 5.8275  6.71727272460938 5.52223960573463  6.71727272460938 5.14568182617188  C 6.71727272460938 4.76912401731225  7.02253311887475 4.46386362304688  7.3990908984375 4.46386362304688  Z M 6.93068182617188 9.15136362304688  L 6.93068182617188 7.83477272460938  C 6.93068182617188 7.12609098219576  7.50518188063326 6.55159091461772  8.21386362304688 6.5515908984375  L 8.46 6.5515908984375  C 9.16879212694736 6.55159079849248  9.7434872183817 7.12598069760702  9.74386362304688 7.83477272460938  L 9.74386362304688 9.15136362304688  L 6.93068182617188 9.15136362304688  Z " fill-rule="nonzero" fill="#f7f7f7" stroke="none" transform="matrix(1 0 0 1 213 361 )" />
  </g>
</svg>