<?xml version="1.0" encoding="utf-8"?>
<svg version="1.1" xmlns:xlink="http://www.w3.org/1999/xlink" width="4px" height="8px" xmlns="http://www.w3.org/2000/svg">
  <g transform="matrix(1 0 0 1 -214 -364 )">
    <path d="M 2.71727272460937 5.27386362304688  C 3.50802779306672 4.83558780096013  3.98121750438408 3.98622549870322  3.93772727539062 3.08318182617188  C 3.93772727539062 1.78772727539062  3.0984091015625 0.739090927734381  2.06272727539062 0.739090898437496  C 1.02704544921875 0.739090869140625  0.187727275390625 1.78840907226562  0.187727275390625 3.08318182617188  C 0.145568404767511 3.98770253055157  0.621610322346255 4.83743734700906  1.415 5.27386362304688  C 1.39883722915712 5.32363165559951  1.38854024786279 5.37511655223902  1.38431817382813 5.42727272460937  L 1.38431817382813 6.83318182617188  C 1.38431817382813 7.20973960573463  1.6895785680935 7.515  2.06613634765625 7.515  C 2.44269415651588 7.515  2.74795455078125 7.20973960573463  2.74795455078125 6.83318182617188  L 2.74795455078125 5.42727272460937  C 2.74373247674659 5.37511655223902  2.73343549545225 5.32363165559951  2.71727272460937 5.27386362304688  Z " fill-rule="nonzero" fill="#f7f7f7" stroke="none" transform="matrix(1 0 0 1 214 364 )" />
  </g>
</svg>