<?xml version="1.0" encoding="utf-8"?>
<svg version="1.1" xmlns:xlink="http://www.w3.org/1999/xlink" width="3px" height="6px" xmlns="http://www.w3.org/2000/svg">
  <g transform="matrix(1 0 0 1 -311 -352 )">
    <path d="M 1.73681817382813 5.53568182617187  C 1.62355484080609 5.6144368677449  1.48886163436343 5.65655823608932  1.3509091015625 5.65636362304687  C 1.12584941487351 5.656722351627  0.915110938988249 5.54599536437004  0.78772727539063 5.36045455078126  C 0.574865464524734 5.04996539744542  0.653916208152438 4.62571620601609  0.964318173828126 4.41272727539062  C 1.02477095708633 4.37657002557235  1.06543616592228 4.31481915489294  1.07477272460938 4.245  C 1.08148408172925 3.94776426767734  0.982414719688624 3.657805150909  0.795227275390626 3.42681817382812  C 0.388301255840915 2.90293114787639  0.204097555413046 2.23984682778104  0.282500000000002 1.58113637695313  C 0.355451096201563 1.15071726466221  0.60194906564902 0.769138401560156  0.964318173828129 0.525681826171876  C 1.07798501561217 0.447522793730357  1.21268612795125 0.40568023207905  1.35063171604074 0.40568023207905  C 1.57530758089986 0.40568023207905  1.78556125617238 0.516366580902314  1.91272727539063 0.701590898437502  C 1.9908863018639 0.815257737463014  2.03272886008823 0.949958844551716  2.03272886008823 1.08790442698661  C 2.03272886008823 1.31258030038408  1.92204250290486 1.52283398250715  1.73681817382812 1.65000000000001  C 1.67636539056992 1.68615724981827  1.63570018173397 1.74790812049767  1.62636362304687 1.81772727539062  C 1.61994904424147 2.11491707263109  1.71898448210603 2.40477686874732  1.9059091015625 2.6359091015625  C 2.31335901507978 3.15900546121632  2.4976444262908 3.82189380240891  2.41863637695313 4.48022727539063  C 2.34591485286909 4.91073559259836  2.09936299162033 5.29239786381069  1.73681817382813 5.53568182617187  Z " fill-rule="nonzero" fill="#ef8f1d" stroke="none" transform="matrix(1 0 0 1 311 352 )" />
  </g>
</svg>