<?xml version="1.0" encoding="utf-8"?>
<svg version="1.1" xmlns:xlink="http://www.w3.org/1999/xlink" width="3px" height="6px" xmlns="http://www.w3.org/2000/svg">
  <g transform="matrix(1 0 0 1 -300 -352 )">
    <path d="M 2.2115908984375 5.38500000000001  C 2.0842072472707 5.570540816152  1.87346878335476 5.68126781384271  1.6484091015625 5.68090910156249  C 1.51085439405319 5.68123440226226  1.37647025757217 5.63961099001254  1.26318182617188 5.5615908984375  C 0.900968382194547 5.31829087957784  0.65448946741258 4.93698801128866  0.581363623046872 4.50681817382812  C 0.50251167715464 3.84807345750585  0.686762111020057 3.18482090946725  1.0940908984375 2.66113637695312  C 1.28147049765146 2.43021471495086  1.38077787338261 2.14026617259435  1.37431817382812 1.84295455078126  C 1.36407623832105 1.77329360327089  1.32333967073067 1.71181386568014  1.26318182617188 1.67522727539063  C 0.953012310141718 1.46202144420285  0.874274124023172 1.03781186131886  1.08727272460937 0.727500000000006  C 1.21443874210222 0.542275670923274  1.42469242422529 0.431589313739906  1.64936829762277 0.431589313739906  C 1.78731388005766 0.431589313739906  1.92201498714635 0.473431871964237  2.03568182617187 0.551590898437496  C 2.39768138253118 0.794791646848992  2.64412336636448 1.17579096505878  2.7175 1.60568182617187  C 2.79590244458695 2.2643922769998  2.61169874415908 2.92747659709514  2.20477272460937 3.45136362304687  C 2.01749833259173 3.68234354506667  1.91820458355305 3.97225230145975  1.92454544921875 4.26954544921875  C 1.93442287016109 4.33916889726272  1.97528080258407 4.4005811176613  2.03568182617187 4.4365908984375  C 2.22090614370707 4.56375691765575  2.33159249253033 4.77401059292828  2.33159249253033 4.99868645778739  C 2.33159249253033 5.13663204587687  2.28974993087902 5.27133315821595  2.2115908984375 5.38500000000001  Z " fill-rule="nonzero" fill="#ef8f1d" stroke="none" transform="matrix(1 0 0 1 300 352 )" />
  </g>
</svg>