<?xml version="1.0" encoding="utf-8"?>
<svg version="1.1" xmlns:xlink="http://www.w3.org/1999/xlink" width="3px" height="7px" xmlns="http://www.w3.org/2000/svg">
  <g transform="matrix(1 0 0 1 -314 -352 )">
    <path d="M 2.12068182617188 6.8284091015625  C 2.00485343264833 6.90956451154148  1.86665447769557 6.95269210935292  1.72522727539063 6.95181817382813  C 1.50469913874215 6.9520598847966  1.29767224691769 6.84562521000203  1.16954544921875 6.66613637695312  C 1.08701548093837 6.55052838919417  1.04265260499558 6.4120312044258  1.04265260499558 6.26998754037128  C 1.04265260499558 6.04969080539352  1.14909158291867 5.84296827321363  1.3284091015625 5.715  C 1.80568182617188 5.3740908984375  1.49 4.54295455078125  1.16272727539063 4.06636362304687  C 0.234772724609378 2.71840907226563  0.303636376953129 1.26613634765624  1.3290908984375 0.535227275390625  C 1.63565480363091 0.317023011856008  2.06103351544904 0.38842804391075  2.27954544921876 0.694772724609379  C 2.36295436175451 0.810752371074969  2.40782660230058 0.950001424128203  2.40782660230058 1.09285913335204  C 2.40782660230058 1.31405239015042  2.30052465035765 1.5215006966729  2.12 1.64931817382812  C 1.64272727539063 1.99022727539062  1.9584091015625 2.82068179687499  2.28636362304687 3.29727272460937  C 3.21295452148438 4.64590910156249  3.14477272460937 6.0975  2.12068182617188 6.8284091015625  Z " fill-rule="nonzero" fill="#ef8f1d" stroke="none" transform="matrix(1 0 0 1 314 352 )" />
  </g>
</svg>