<?xml version="1.0" encoding="utf-8"?>
<svg version="1.1" xmlns:xlink="http://www.w3.org/1999/xlink" width="3px" height="7px" xmlns="http://www.w3.org/2000/svg">
  <g transform="matrix(1 0 0 1 -297 -352 )">
    <path d="M 1.83113637695312 6.69340910156249  C 1.70212980887663 6.87180471016762  1.4949229586867 6.97693171103198  1.27477272460938 6.97568182617188  C 1.13297431707311 6.97555910961037  0.994742062945534 6.93122944884975  0.879318173828125 6.84886362304687  C -0.1434091015625 6.11795452148438  -0.211590927734376 4.66704544921875  0.713636376953125 3.31840910156249  C 1.0409091015625 2.84113637695313  1.35522727539063 2.00931820312501  0.879318173828125 1.66977272460937  C 0.573202157609603 1.45104747012134  0.502108273227465 1.02570462165956  0.720454550781249 0.719318173828128  C 0.848390467885841 0.539737015772261  1.05527169459405 0.433109781358183  1.27576430493298 0.433109781358183  C 1.4176728016293 0.433109781358183  1.55604507225051 0.477388360283513  1.6715908984375 0.559772724609374  C 2.69431817382812 1.29068182617188  2.7625 2.74159089843749  1.83727272460937 4.0909091015625  C 1.51 4.56818182617188  1.195 5.39931820312501  1.6715908984375 5.73886362304688  C 1.85211556824372 5.86668109771803  1.959417534111 6.07412941591639  1.959417534111 6.29532268715211  C 1.959417534111 6.43818039876048  1.91454529206865 6.57742945401505  1.83113637695312 6.69340910156249  Z " fill-rule="nonzero" fill="#ef8f1d" stroke="none" transform="matrix(1 0 0 1 297 352 )" />
  </g>
</svg>