<?xml version="1.0" encoding="utf-8"?>
<svg version="1.1" xmlns:xlink="http://www.w3.org/1999/xlink" width="18px" height="16px" xmlns="http://www.w3.org/2000/svg">
  <g transform="matrix(1 0 0 1 144 -2302 )">
    <path d="M 17.446875 7.370625  C 17.6902229036346 7.81253304700285  17.6902229036346 8.34830029284089  17.446875 8.79020833984375  L 13.8852083398438 15.2485416601563  C 13.6327059050868 15.7092418427259  13.1495247065405 15.9960533508459  12.6241666601562 15.9970833398437  L 5.55125 15.9970833398438  C 5.02589196061865 15.9960533437325  4.54271077122772 15.7092418366049  4.29020833984375 15.2485416601562  L 0.72854166015625 8.79020833984375  C 0.485193756521684 8.34830029284089  0.485193756521684 7.81253304700286  0.728541660156249 7.370625  L 4.29020833984375 0.912291660156248  C 4.54271077636093 0.451591491251831  5.02589196475951 0.164779992196891  5.55125 0.163749999999998  L 12.6241666601562 0.163749999999998  C 13.1495247023996 0.164779985083476  13.6327058999535 0.451591485130762  13.8852083398438 0.912291660156248  L 17.446875 7.370625  Z M 12.7979166601563 14.6402083398438  L 16.3533333398438 8.181875  C 16.3880253180081 8.11875850294049  16.3880253180081 8.04228315721576  16.3533333398438 7.97916666015625  L 12.7979166601563 1.52083333984375  C 12.7620223120753 1.45499955516145  12.69310799572 1.41395440795069  12.618125 1.41375  L 5.55729166015625 1.41375  C 5.48230866443629 1.41395440795069  5.41339434808093 1.45499955516145  5.3775 1.52083333984375  L 1.82208333984375 7.97916666015625  C 1.78739136167938 8.04228315721576  1.78739136167938 8.11875850294049  1.82208333984375 8.181875  L 5.3775 14.6402083398438  C 5.41344922359897 14.7059616309409  5.48235291527065 14.746920605573  5.55729166015625 14.7470833398438  L 12.618125 14.7470833398438  C 12.6930637448856 14.746920605573  12.7619674365573 14.7059616309409  12.7979166601563 14.6402083398438  Z M 12.3672916601562 8  C 12.367291640625 9.8410416796875  10.8747916601562 11.3333333398437  9.03395833984375 11.3333333398437  C 7.1929166796875 11.3333333398437  5.700625 9.8410416796875  5.700625 8  C 5.700625 6.1589583203125  7.19291666015625 4.66666666015625  9.03395833984375 4.66666666015625  C 10.8747916796875 4.66666666015625  12.3672916796875 6.1589583203125  12.3672916601562 8  Z M 6.950625 8  C 6.950625 9.150625  7.88333333984375 10.0833333398437  9.03395833984375 10.0833333398437  C 10.1845833398437 10.0833333398437  11.1172916796875 9.150625  11.1172916601562 8  C 11.117291640625 6.849375  10.1845833203125 5.91666666015625  9.03395833984375 5.91666666015625  C 7.883333359375 5.91666666015625  6.950625 6.849375  6.950625 8  Z " fill-rule="nonzero" fill="#2c2c2c" stroke="none" transform="matrix(1 0 0 1 -144 2302 )" />
  </g>
</svg>