<?xml version="1.0" encoding="utf-8"?>
<svg version="1.1" xmlns:xlink="http://www.w3.org/1999/xlink" width="17px" height="10px" xmlns="http://www.w3.org/2000/svg">
  <g transform="matrix(1 0 0 1 425 -2509 )">
    <path d="M 3.26047948854555 9.50671283963771  L 3.16637187000533 9.50671283963771  C 2.80699211238445 9.46694195238223  2.5115201467664 9.20533183864647  2.42851358550879 8.85341502397443  L 0.866872669152904 2.06675546084178  C 0.853608800970816 2.00595549850111  0.846919221566765 1.94390585358958  0.846919221566765 1.88167591208408  C 0.846919221566765 1.47116098924074  1.13440130253428 1.1167324960917  1.53608204581779 1.03202663825253  C 2.00760154892388 0.927100623411391  2.47535611618697 1.2226208692833  2.58308577517315 1.69350772509324  L 3.56053169952051 6.11337986148109  L 5.83502397442728 1.49938199254129  C 5.95690474720983 1.20341127593035  6.23356892551856 1.00003343645365  6.55242408098029 0.972015982951518  C 6.87140597564679 0.942602888330811  7.18034828502102 1.09269547210208  7.35438465636654 1.36163026105487  C 7.52714224826851 1.62985935002663  7.53305274374001 1.97082898241875  7.37029653702717 2.24542354821524  L 4.03334395311668 9.0320831113479  C 3.88720209325854 9.32447629486965  3.58781153437778 9.50862180638561  3.2609337240277 9.50716782099094  Z M 8.6723494938732 8.35696323921151  C 8.6032463505594 8.74794139584444  8.25181992541289 9.0320831113479  7.84493020777837 9.0261726158764  C 7.79492136387853 9.03435588705381  7.74491241342568 9.03435588705381  7.69535855087906 9.0261726158764  C 7.24891529035695 8.94888620138519  6.94977197655834 8.53517634523175  7.02523921150772 8.09873521576985  L 8.1922610548748 1.64849547149707  C 8.24226989877464 1.3602621204049  8.44685135855088 1.12021949920086  8.7282653169952 1.01883857218967  C 9.00908293236829 0.917251926810835  9.32252719235868 0.969090941994722  9.55568460309004 1.15568140649974  C 9.78708897176345 1.34207778369739  9.89801811401172 1.63440277037826  9.84800958977091 1.92263612147043  L 8.6723462972829 8.3569568460309  Z M 15.9881726158764 3.52246137453383  C 15.7404017048482 4.820873734683  14.6279275439531 5.76967501331913  13.3149706979222 5.80286627597229  L 12.3866244006393 5.80286627597229  L 11.9383633457645 8.35786893979756  C 11.8725726920972 8.74725637702821  11.5331008678983 9.03079262878103  11.1382216302611 9.02616941928611  C 11.0903649421762 9.03418951493937  11.0415071942116 9.03418951493937  10.9936505061268 9.02616941928611  C 10.5605360914592 8.94658510777145  10.2717116791258 8.53380526520809  10.3453532232286 8.0996409163559  L 10.9136355887054 4.8763377730421  C 10.9719490231142 4.48025677685136  11.3134408060846 4.18785415630231  11.7137773042088 4.1912157698455  L 13.3149706979222 4.1912157698455  C 13.8497057431725 4.15624466610819  14.2968280292545 3.7717786749604  14.4115290356953 3.24832072456047  C 14.4524453915823 3.07692701118808  14.4147114224827 2.89644006393181  14.3074196057539 2.7568694725626  C 14.1999567120568 2.63689246246457  14.0441315365185 2.57175653699839  13.8832533830581 2.57956526371871  L 12.2825181672882 2.57956526371871  C 11.8401665423548 2.57956526371871  11.4823764517848 2.21859243473628  11.4823764517848 1.77351305274374  C 11.4823764517848 1.3284336707512  11.8401676078849 0.967915823122013  12.2825181672882 0.967915823122013  L 13.8832533830581 0.967915823122013  C 14.5169651209093 0.960015125309326  15.1213077534425 1.23461041909408  15.5321825253063 1.71714011720832  C 15.942405794308 2.22233086267627  16.1092183537243 2.88259671339733  15.9881729355354 3.52200958977092  Z " fill-rule="nonzero" fill="#252739" stroke="none" transform="matrix(1 0 0 1 -425 2509 )" />
  </g>
</svg>