<svg t="1713233753940" class="icon" viewBox="0 0 1024 1024" version="1.1" xmlns="http://www.w3.org/2000/svg" p-id="2237" width="200" height="200"><path d="M829.53 986.152v-131.25c0-103.672-64.424-192.296-155.422-228.022l-324.226 0.004c-90.992 35.73-155.41 124.35-155.41 228.018v131.25l317.516 18z" fill="#F6E080" p-id="2238"></path><path d="M204.984 1024h99.168l15.77-18 15.77 18h352.618l15.77-18 15.77 18h99.168a10.514 10.514 0 0 0 10.514-10.514v-27.334H194.47v27.334a10.514 10.514 0 0 0 10.514 10.514z" fill="#ECCD61" p-id="2239"></path><path d="M613.644 766.654c59.438-17.672 65.394-86.716 60.46-139.772-25.098-9.854-52.22-15.668-80.566-16.68l-81.546 97.098c0.002 0 26.12 81.812 101.652 59.354z" fill="#FCF5F5" p-id="2240"></path><path d="M410.342 766.654c-59.438-17.672-65.394-86.716-60.46-139.772 25.098-9.854 52.22-15.668 80.566-16.68l81.546 97.098s-26.12 81.812-101.652 59.354z" fill="#FCF5F5" p-id="2241"></path><path d="M593.534 610.026s3.738 97.274-81.54 97.274-81.54-97.274-81.54-97.274z" fill="#E2AE84" p-id="2242"></path><path d="M775.21 345.846C808.624 63.478 636.032 0 512 0S215.376 63.478 248.79 345.846z" fill="#C6D0DA" p-id="2243"></path><path d="M306.402 312.35c-24.672 0-46.18 13.494-57.588 33.494a722.938 722.938 0 0 0 4.364 31.144h60.076v-64.286a66.88 66.88 0 0 0-6.852-0.352zM770.824 376.988a722.938 722.938 0 0 0 4.364-31.144c-11.408-20-32.916-33.494-57.588-33.494-2.314 0-4.6 0.12-6.854 0.352v64.286z" fill="#A0AAB7" p-id="2244"></path><path d="M664.128 558.042s4.538 31.424 46.618 31.424c42.034 0 85.382-47.258 85.8-86.964-3.94-17.9-13.334-33.756-26.356-45.73l-66.102 24.584L672 518.662l-7.872 39.38z" fill="#C6D0DA" p-id="2245"></path><path d="M710.746 571.466a87.322 87.322 0 0 1-46.618-13.424l-27.466 10.474 7.424 10.136c16.114 18.762 39.99 30.662 66.66 30.662 48.524 0 87.858-39.336 87.858-87.858 0-6.508-0.716-12.85-2.06-18.954-8.646 39.436-43.764 68.964-85.798 68.964z" fill="#A0AAB7" p-id="2246"></path><path d="M242.888 397.544c0 27.634 33.49 65.346 63.512 65.346l7.374-18.42 24.074-30.316-24.596-63.604a66.848 66.848 0 0 0-6.852-0.352c-30.022 0-55.366 19.97-63.512 47.346z" fill="#E2AE84" p-id="2247"></path><path d="M306.402 444.89c-30.022 0-55.368-19.97-63.512-47.346a66.268 66.268 0 0 0-2.758 18.924c0 36.6 29.67 66.27 66.27 66.27 4.63 0 9.148-0.478 13.51-1.382l14.086-18.156-20.222-18.728c-2.422 0.268-4.88 0.418-7.374 0.418z" fill="#D7A379" p-id="2248"></path><path d="M781.112 397.544c0 27.634-33.49 65.346-63.512 65.346l-7.374-18.42-24.074-30.316 24.596-63.604a66.848 66.848 0 0 1 6.852-0.352c30.022 0 55.366 19.97 63.512 47.346z" fill="#E2AE84" p-id="2249"></path><path d="M717.6 444.89c30.022 0 55.368-19.97 63.512-47.346a66.268 66.268 0 0 1 2.758 18.924c0 36.6-29.67 66.27-66.27 66.27-4.63 0-9.148-0.478-13.51-1.382l-14.086-18.156 20.222-18.728a66.96 66.96 0 0 0 7.374 0.418z" fill="#D7A379" p-id="2250"></path><path d="M511.986 610.95c109.764 0 198.746-88.98 198.746-198.746v-97.752c0-69.188-46.35-194.872-198.74-194.872s-198.74 125.686-198.74 194.872v97.752c0 109.764 88.982 198.746 198.746 198.746z" fill="#F0C69E" p-id="2251"></path><path d="M511.994 591.102H512h-0.014 0.008c-109.76-0.004-198.74-88.982-198.74-198.746v37.848c0 109.762 88.978 198.742 198.74 198.746 109.762-0.004 198.74-88.982 198.74-198.746v-37.848c-0.002 109.762-88.98 198.742-198.74 198.746zM512 628.95h-0.014z" fill="#E6BA94" p-id="2252"></path><path d="M376.493893 472.015678a81.82 81.82 0 1 0 37.645339-159.25099 81.82 81.82 0 1 0-37.645339 159.25099Z" fill="#FCF5F5" p-id="2253"></path><path d="M553.278063 423.329176a81.82 81.82 0 1 0 151.205497-62.56954 81.82 81.82 0 1 0-151.205497 62.56954Z" fill="#FCF5F5" p-id="2254"></path><path d="M335.692 885.182v101.42l-15.77 18-15.77-18v-101.42a15.748 15.748 0 0 1 15.77-15.77 15.762 15.762 0 0 1 15.77 15.77zM719.848 885.182v100.97l-15.762 18-15.778-18v-100.97a15.762 15.762 0 0 1 15.77-15.77 15.748 15.748 0 0 1 15.77 15.77z" fill="#ECB85E" p-id="2255"></path><path d="M304.152 986.152h31.54V1024h-31.54zM688.308 986.152h31.54V1024h-31.54z" fill="#EAA949" p-id="2256"></path><path d="M415.508 429.268a15.8 15.8 0 0 0 15.8-15.8v-44.642a15.8 15.8 0 0 0-15.8-15.8 15.8 15.8 0 0 0-15.8 15.8v44.642a15.798 15.798 0 0 0 15.8 15.8zM608.492 353.024a15.8 15.8 0 0 0-15.8 15.8v44.642a15.8 15.8 0 0 0 15.8 15.8 15.8 15.8 0 0 0 15.8-15.8v-44.642a15.798 15.798 0 0 0-15.8-15.8z" fill="#5E6B75" p-id="2257"></path><path d="M569.744 499.482a15.7 15.7 0 0 0-29.034-11.954c-0.054 0.132-6.088 13.248-28.722 13.248s-28.668-13.116-28.722-13.248a15.7 15.7 0 0 0-29.034 11.954c5 12.142 22.79 32.692 57.756 32.692s52.756-20.55 57.756-32.692z" fill="#DC4955" p-id="2258"></path><path d="M452.366 286.23h119.268a15.8 15.8 0 0 0 0-31.6h-119.268c-8.728 0-15.8 7.074-15.8 15.8s7.072 15.8 15.8 15.8zM478.698 226.06h66.602a15.8 15.8 0 0 0 15.8-15.8 15.8 15.8 0 0 0-15.8-15.802h-66.602a15.8 15.8 0 0 0-15.8 15.802 15.8 15.8 0 0 0 15.8 15.8z" fill="#D7A379" p-id="2259"></path><path d="M628.684 294.606c-48.442 0-88.736 35.484-96.298 81.822h-40.77c-7.564-46.336-47.856-81.822-96.296-81.822-53.812 0-97.592 43.78-97.592 97.592s43.78 97.59 97.592 97.59c48.442 0 88.734-35.484 96.296-81.82h40.77c7.564 46.336 47.858 81.82 96.298 81.82 53.812 0 97.59-43.778 97.59-97.59s-43.78-97.592-97.59-97.592z m-233.366 163.64c-36.42 0-66.052-29.63-66.052-66.05s29.63-66.052 66.052-66.052c36.42 0 66.05 29.63 66.05 66.052 0 36.42-29.63 66.05-66.05 66.05z m233.366 0c-36.42 0-66.052-29.63-66.052-66.05s29.63-66.052 66.052-66.052c36.418 0 66.05 29.63 66.05 66.052-0.002 36.42-29.632 66.05-66.05 66.05z" fill="#CF8151" p-id="2260"></path></svg>