<svg t="1713233916726" class="icon" viewBox="0 0 1024 1024" version="1.1" xmlns="http://www.w3.org/2000/svg" p-id="2604" width="200" height="200"><path d="M829.53 986.152v-131.25c0-135.24-109.634-244.876-244.876-244.876h-145.308c-135.24 0-244.876 109.634-244.876 244.876v131.25l317.522 18z" fill="#9EC8FC" p-id="2605"></path><path d="M593.534 610.026s3.738 97.274-81.54 97.274-81.54-97.274-81.54-97.274z" fill="#E2AE84" p-id="2606"></path><path d="M774.498 382.518c2.192-37.702 1.95-71.986-0.422-103.138H249.91c-2.374 31.154-2.614 65.436-0.422 103.138z" fill="#26457D" p-id="2607"></path><path d="M242.888 397.544c0 25.134 16.642 67.558 46.666 67.558l24.222-20.63 30.258-23.132-30.78-70.79a66.848 66.848 0 0 0-6.852-0.352c-30.024 0-55.368 19.97-63.514 47.346z" fill="#E2AE84" p-id="2608"></path><path d="M306.402 444.89c-30.022 0-55.368-19.97-63.512-47.346a66.268 66.268 0 0 0-2.758 18.924c0 36.6 29.67 66.27 66.27 66.27 4.63 0 9.148-0.478 13.51-1.382l14.298-18.934-20.434-17.952c-2.422 0.27-4.88 0.42-7.374 0.42z" fill="#D7A379" p-id="2609"></path><path d="M781.112 397.544c0 25.134-16.642 67.558-46.666 67.558l-24.222-20.63-30.258-23.132 30.78-70.79a66.848 66.848 0 0 1 6.852-0.352c30.022 0 55.368 19.97 63.514 47.346z" fill="#E2AE84" p-id="2610"></path><path d="M717.598 444.89c30.022 0 55.368-19.97 63.512-47.346a66.268 66.268 0 0 1 2.758 18.924c0 36.6-29.67 66.27-66.27 66.27-4.63 0-9.148-0.478-13.51-1.382l-14.298-18.934 20.434-17.952c2.422 0.27 4.88 0.42 7.374 0.42z" fill="#D7A379" p-id="2611"></path><path d="M645.382 279.38l-133.382-18-133.382 18c-37.856 62.33-65.354 71.17-65.364 71.17v65.918c0 109.764 88.982 194.482 198.746 194.482 109.764 0 198.746-84.716 198.746-194.482v-65.918s-27.506-8.836-65.364-71.17z" fill="#F0C69E" p-id="2612"></path><path d="M512 591.102c-109.764 0-198.746-88.982-198.746-198.746v37.848c0 109.764 88.982 198.746 198.746 198.746 109.764 0 198.746-88.98 198.746-198.746v-37.848c0 109.764-88.982 198.746-198.746 198.746z" fill="#E6BA94" p-id="2613"></path><path d="M204.984 1024h99.168l15.77-18 15.77 18h352.618l15.77-18 15.77 18h99.168a10.514 10.514 0 0 0 10.514-10.514v-27.334H194.47v27.334a10.514 10.514 0 0 0 10.514 10.514z" fill="#80B6FC" p-id="2614"></path><path d="M335.692 885.182v100.97l-15.77 18-15.77-18v-100.97a15.748 15.748 0 0 1 15.77-15.77 15.762 15.762 0 0 1 15.77 15.77zM719.848 885.182v100.97l-15.77 18-15.77-18v-100.97a15.762 15.762 0 0 1 15.77-15.77 15.748 15.748 0 0 1 15.77 15.77z" fill="#6EAAF3" p-id="2615"></path><path d="M304.152 986.152h31.54V1024h-31.54zM688.308 986.152h31.54V1024h-31.54z" fill="#5D9EE6" p-id="2616"></path><path d="M783.384 241.53C759.538 55.538 632.872 0 511.994 0S264.45 55.538 240.604 241.53l271.39 18z" fill="#DC4955" p-id="2617"></path><path d="M240.598 241.532a475.292 475.292 0 0 0-2.642 26.606c-0.434 6.074 4.406 11.242 10.496 11.242h179.038l84.502-18 84.516 18h179.024c6.09 0 10.93-5.168 10.496-11.242-0.654-9.152-1.54-18.016-2.642-26.606z" fill="#D82F3C" p-id="2618"></path><path d="M596.51 221.228l-84.516 18-84.502-18v-5.296c0-46.674 37.836-84.51 84.51-84.51 46.674 0 84.51 37.836 84.51 84.51v5.296z" fill="#26457D" p-id="2619"></path><path d="M596.51 241.532l-84.51 18-84.51-18v-20.304h169.02z" fill="#F6E080" p-id="2620"></path><path d="M427.49 241.532h169.018v37.848h-169.018z" fill="#ECCD61" p-id="2621"></path><path d="M415.508 353.024a15.8 15.8 0 0 0-15.8 15.8v44.644a15.8 15.8 0 0 0 31.6 0v-44.644a15.8 15.8 0 0 0-15.8-15.8zM608.492 429.268a15.8 15.8 0 0 0 15.8-15.8v-44.644a15.8 15.8 0 0 0-31.6 0v44.644a15.8 15.8 0 0 0 15.8 15.8z" fill="#5E6B75" p-id="2622"></path><path d="M570.132 499.332a15.774 15.774 0 0 0-29.17-12.008c-0.054 0.132-6.116 13.31-28.854 13.31s-28.8-13.178-28.854-13.31a15.774 15.774 0 0 0-29.17 12.008c5.024 12.198 22.896 32.844 58.024 32.844s53-20.646 58.024-32.844z" fill="#DC4955" p-id="2623"></path></svg>