<svg t="1713234147264" class="icon" viewBox="0 0 1024 1024" version="1.1" xmlns="http://www.w3.org/2000/svg" p-id="2786" width="200" height="200"><path d="M803.61 676.186C819.052 262.2 773.896 0 512 0S204.948 262.2 220.39 676.186z" fill="#CF8151" p-id="2787"></path><path d="M590.976 580.376h-157.954c-86.896 0-164.052 37.63-212.634 95.81a5451.122 5451.122 0 0 0 3.48 77.694H800.128a5452.44 5452.44 0 0 0 3.48-77.694c-48.58-58.18-125.734-95.81-212.632-95.81z" fill="#BD6E45" p-id="2788"></path><path d="M813.446 1024H210.554a10.322 10.322 0 0 1-10.322-10.322v-155.708c0-132.788 107.646-240.432 240.432-240.432h142.67c132.786 0 240.432 107.646 240.432 240.432v155.708a10.32 10.32 0 0 1-10.32 10.322z" fill="#DC4955" p-id="2789"></path><path d="M823.762 857.972v128.866L512 1006l-311.762-19.162v-128.866c0-111.758 76.246-205.704 179.558-232.66l264.396-0.004c103.318 26.952 179.57 120.902 179.57 232.664z" fill="#DC4955" p-id="2790"></path><path d="M210.554 1024h97.368l15.484-18 15.484 18h346.22l15.484-18 15.484 18h97.368a10.322 10.322 0 0 0 10.322-10.322V986.84H200.232v26.838a10.322 10.322 0 0 0 10.322 10.322z" fill="#D82F3C" p-id="2791"></path><path d="M338.89 887.7v99.138l-15.484 18-15.484-18V887.7a15.464 15.464 0 0 1 15.484-15.484 15.476 15.476 0 0 1 15.484 15.484zM716.078 887.7v99.138l-15.484 18-15.484-18V887.7a15.476 15.476 0 0 1 15.484-15.484 15.464 15.464 0 0 1 15.484 15.484z" fill="#C42D41" p-id="2792"></path><path d="M307.922 986.838h30.968V1024h-30.968zM685.11 986.838h30.968V1024h-30.968z" fill="#B72D47" p-id="2793"></path><path d="M511.992 769.256l94.242-18 37.956-125.942a240.826 240.826 0 0 0-60.856-7.778h-142.67a240.83 240.83 0 0 0-60.868 7.78l37.956 125.938z" fill="#E2AE84" p-id="2794"></path><path d="M511.994 751.256h-94.24l0.596 1.976a49.456 49.456 0 0 0 47.352 35.184h92.588a49.458 49.458 0 0 0 47.352-35.184l0.596-1.976z" fill="#D7A379" p-id="2795"></path><path d="M411.136 243.008c-11.272 24.728-38.478 72.382-88.13 94.588a10.334 10.334 0 0 0-6.146 9.422v68.58c0 107.772 87.368 202.518 195.14 202.518 107.772 0 195.14-94.744 195.14-202.518V332.32a10.326 10.326 0 0 0-10.74-10.314c-41.362 1.614-191.83 1.354-268.188-81.664-5.046-5.484-13.984-4.114-17.076 2.666z" fill="#F0C69E" p-id="2796"></path><path d="M512 598.956c-107.772 0-195.14-87.366-195.14-195.14v37.162c0 107.772 87.368 195.14 195.14 195.14s195.14-87.366 195.14-195.14v-37.162c0 107.774-87.368 195.14-195.14 195.14z" fill="#E6BA94" p-id="2797"></path><path d="M417.258 365.198a15.512 15.512 0 0 0-15.514 15.514v43.834a15.514 15.514 0 0 0 31.028 0v-43.834a15.512 15.512 0 0 0-15.514-15.514zM606.742 440.06a15.512 15.512 0 0 0 15.514-15.514v-43.834a15.514 15.514 0 0 0-31.028 0v43.834a15.512 15.512 0 0 0 15.514 15.514z" fill="#5E6B75" p-id="2798"></path><path d="M569.19 508.094a15.548 15.548 0 0 0-28.75-11.838c-0.052 0.13-6.028 13.118-28.44 13.118s-28.386-12.988-28.44-13.118a15.546 15.546 0 0 0-28.752 11.838c4.95 12.024 22.568 32.372 57.19 32.372s52.242-20.35 57.192-32.372z" fill="#DC4955" p-id="2799"></path></svg>