<svg t="1713233839224" class="icon" viewBox="0 0 1024 1024" version="1.1" xmlns="http://www.w3.org/2000/svg" p-id="2423" width="200" height="200"><path d="M829.524 986.152v-131.248c0-135.244-109.634-244.878-244.878-244.878h-145.294c-135.244 0-244.876 109.634-244.876 244.878v131.248l317.524 18z" fill="#B3E59F" p-id="2424"></path><path d="M196.608 605.856c66.952 16.4 135.304-59.546 105.432-131.648l-50.132-20.046c-0.002 0.002-63.99 31.766-55.3 151.694z" fill="#CF8151" p-id="2425"></path><path d="M204.984 1024h99.168l15.77-18 15.77 18h352.618l15.77-18 15.77 18h99.168a10.514 10.514 0 0 0 10.514-10.514v-27.334H194.47v27.334a10.514 10.514 0 0 0 10.514 10.514z" fill="#95D6A4" p-id="2426"></path><path d="M593.534 610.026s3.738 97.274-81.54 97.274-81.54-97.274-81.54-97.274z" fill="#E2AE84" p-id="2427"></path><path d="M319.912 481.356l-17.874-7.146c-5.41 79.59-75.644 118.608-105.432 131.646 0.688 9.496 1.824 19.534 3.486 30.158 1.068 6.826 8.276 10.794 14.616 8.052 32.818-14.202 118.582-61.41 105.204-162.71z" fill="#BD6E45" p-id="2428"></path><path d="M774.498 382.518C835.228 84.046 659.334 0 511.994 0S188.758 84.046 249.488 382.518z" fill="#CF8151" p-id="2429"></path><path d="M306.402 462.582l7.374-18.112 25.218-38.08-25.74-55.84a66.848 66.848 0 0 0-6.852-0.352c-30.022 0-55.368 19.97-63.512 47.346-0.002 39.48 33.488 65.038 63.512 65.038z" fill="#E2AE84" p-id="2430"></path><path d="M306.4 444.89c-30.022 0-55.368-19.97-63.512-47.346a66.268 66.268 0 0 0-2.758 18.924c0 36.6 29.67 66.27 66.27 66.27 4.63 0 9.148-0.478 13.51-1.382l13.122-22.416-19.258-14.468c-2.422 0.268-4.88 0.418-7.374 0.418z" fill="#D7A379" p-id="2431"></path><path d="M827.392 605.856c-66.952 16.4-135.304-59.546-105.432-131.648l50.132-20.046s63.988 31.762 55.302 151.694z" fill="#CF8151" p-id="2432"></path><path d="M704.088 481.356l17.874-7.146c5.41 79.59 75.644 118.608 105.432 131.646a365.548 365.548 0 0 1-3.486 30.158c-1.068 6.826-8.276 10.794-14.616 8.052-32.82-14.202-118.582-61.41-105.204-162.71z" fill="#BD6E45" p-id="2433"></path><path d="M717.598 462.582l-7.374-18.112-25.22-38.08 25.74-55.84a66.848 66.848 0 0 1 6.852-0.352c30.022 0 55.368 19.97 63.512 47.346 0.004 39.48-33.488 65.038-63.51 65.038z" fill="#E2AE84" p-id="2434"></path><path d="M717.598 444.89c30.022 0 55.368-19.97 63.512-47.346a66.268 66.268 0 0 1 2.758 18.924c0 36.6-29.67 66.27-66.27 66.27-4.63 0-9.148-0.478-13.51-1.382l-13.122-22.416 19.258-14.468c2.422 0.268 4.88 0.418 7.374 0.418z" fill="#D7A379" p-id="2435"></path><path d="M520.908 184.46c70.816 112.658 189.838 166.14 189.838 166.14v59.78c0 109.764-88.982 200.57-198.746 200.57-109.764 0-198.746-90.806-198.746-200.57V350.6s119.022-53.482 189.838-166.142c4.136-6.578 13.68-6.578 17.816 0.002z" fill="#F0C69E" p-id="2436"></path><path d="M512 591.102c-109.764 0-198.746-88.98-198.746-198.746v37.848c0 109.764 88.982 198.746 198.746 198.746 109.764 0 198.746-88.982 198.746-198.746v-37.848c0 109.764-88.982 198.746-198.746 198.746z" fill="#E6BA94" p-id="2437"></path><path d="M335.692 885.182v101.656l-14.374 18-17.166-18v-101.656a15.748 15.748 0 0 1 15.77-15.77 15.762 15.762 0 0 1 15.77 15.77zM719.848 885.182v101.656l-15.77 18-15.77-18v-101.656a15.762 15.762 0 0 1 15.77-15.77 15.748 15.748 0 0 1 15.77 15.77z" fill="#78C2A4" p-id="2438"></path><path d="M304.15 986.152h31.54V1024h-31.54zM688.308 986.152h31.54V1024h-31.54z" fill="#66B394" p-id="2439"></path><path d="M415.506 353.024a15.8 15.8 0 0 0-15.8 15.8v44.644a15.8 15.8 0 0 0 31.6 0v-44.644a15.8 15.8 0 0 0-15.8-15.8zM608.492 429.268a15.8 15.8 0 0 0 15.8-15.8v-44.644a15.8 15.8 0 0 0-31.602 0v44.644a15.8 15.8 0 0 0 15.802 15.8z" fill="#5E6B75" p-id="2440"></path><path d="M570.056 499.314a15.784 15.784 0 0 0-29.186-12.016c-0.054 0.132-6.12 13.316-28.87 13.316s-28.816-13.184-28.87-13.316a15.782 15.782 0 0 0-29.186 12.016c5.026 12.206 22.908 32.862 58.056 32.862 35.146 0 53.03-20.656 58.056-32.862z" fill="#DC4955" p-id="2441"></path></svg>