<?xml version="1.0" encoding="utf-8"?>
<svg version="1.1" xmlns:xlink="http://www.w3.org/1999/xlink" width="26px" height="13px" xmlns="http://www.w3.org/2000/svg">
  <g transform="matrix(1 0 0 1 -125 -508 )">
    <path d="M 126 514.5  A 5.5 5.5 0 0 1 131.5 509 L 144.5 509  A 5.5 5.5 0 0 1 150 514.5 A 5.5 5.5 0 0 1 144.5 520 L 131.5 520  A 5.5 5.5 0 0 1 126 514.5 Z " fill-rule="nonzero" fill="#caf982" stroke="none" />
    <path d="M 125.5 514.5  A 6 6 0 0 1 131.5 508.5 L 144.5 508.5  A 6 6 0 0 1 150.5 514.5 A 6 6 0 0 1 144.5 520.5 L 131.5 520.5  A 6 6 0 0 1 125.5 514.5 Z " stroke-width="1" stroke="#70b603" fill="none" stroke-opacity="0.298039215686275" />
  </g>
</svg>