<?xml version="1.0" encoding="utf-8"?>
<svg version="1.1" xmlns:xlink="http://www.w3.org/1999/xlink" width="12px" height="12px" viewBox="1962 4729.5  12 12" xmlns="http://www.w3.org/2000/svg">
  <path d="M 1968 4729.5  C 1971.36 4729.5  1974 4732.14  1974 4735.5  C 1974 4738.86  1971.36 4741.5  1968 4741.5  C 1964.64 4741.5  1962 4738.86  1962 4735.5  C 1962 4732.14  1964.64 4729.5  1968 4729.5  Z " fill-rule="nonzero" fill="#ffffff" stroke="none" />
  <path d="M 1968 4730  C 1971.08 4730  1973.5 4732.42  1973.5 4735.5  C 1973.5 4738.58  1971.08 4741  1968 4741  C 1964.92 4741  1962.5 4738.58  1962.5 4735.5  C 1962.5 4732.42  1964.92 4730  1968 4730  Z " stroke-width="1" stroke="#797979" fill="none" />
  <path d="M 1968 4738.5  C 1966.32 4738.5  1965 4737.18  1965 4735.5  C 1965 4733.82  1966.32 4732.5  1968 4732.5  C 1969.68 4732.5  1971 4733.82  1971 4735.5  C 1971 4737.18  1969.68 4738.5  1968 4738.5  " fill-rule="nonzero" fill="#797979" stroke="none" />
</svg>